<?xml version="1.0" encoding="utf-8" standalone="no"?>
<!DOCTYPE svg PUBLIC "-//W3C//DTD SVG 1.1//EN"
  "http://www.w3.org/Graphics/SVG/1.1/DTD/svg11.dtd">
<svg xmlns:xlink="http://www.w3.org/1999/xlink" width="504.295pt" height="248.739375pt" viewBox="0 0 504.295 248.739375" xmlns="http://www.w3.org/2000/svg" version="1.1">
 <metadata>
  <rdf:RDF xmlns:dc="http://purl.org/dc/elements/1.1/" xmlns:cc="http://creativecommons.org/ns#" xmlns:rdf="http://www.w3.org/1999/02/22-rdf-syntax-ns#">
   <cc:Work>
    <dc:type rdf:resource="http://purl.org/dc/dcmitype/StillImage"/>
    <dc:date>2023-11-25T23:31:17.541603</dc:date>
    <dc:format>image/svg+xml</dc:format>
    <dc:creator>
     <cc:Agent>
      <dc:title>Matplotlib v3.8.2, https://matplotlib.org/</dc:title>
     </cc:Agent>
    </dc:creator>
   </cc:Work>
  </rdf:RDF>
 </metadata>
 <defs>
  <style type="text/css">*{stroke-linejoin: round; stroke-linecap: butt}</style>
 </defs>
 <g id="figure_1">
  <g id="patch_1">
   <path d="M 0 248.739375 
L 504.295 248.739375 
L 504.295 -0 
L 0 -0 
L 0 248.739375 
z
" style="fill: none"/>
  </g>
  <g id="axes_1">
   <g id="patch_2">
    <path d="M 50.695 173.52 
L 497.095 173.52 
L 497.095 7.2 
L 50.695 7.2 
L 50.695 173.52 
z
" style="fill: none"/>
   </g>
   <g id="matplotlib.axis_1">
    <g id="xtick_1">
     <g id="line2d_1">
      <path d="M 70.985909 173.52 
L 70.985909 7.2 
" clip-path="url(#pa5242558d7)" style="fill: none; stroke-dasharray: 7.4,3.2; stroke-dashoffset: 0; stroke: #838383; stroke-opacity: 0.33; stroke-width: 2"/>
     </g>
     <g id="text_1">
      <!-- 0 -->
      <g style="fill: #838383" transform="translate(63.987159 205.736563) scale(0.22 -0.22)">
       <defs>
        <path id="DejaVuSans-30" d="M 2034 4250 
Q 1547 4250 1301 3770 
Q 1056 3291 1056 2328 
Q 1056 1369 1301 889 
Q 1547 409 2034 409 
Q 2525 409 2770 889 
Q 3016 1369 3016 2328 
Q 3016 3291 2770 3770 
Q 2525 4250 2034 4250 
z
M 2034 4750 
Q 2819 4750 3233 4129 
Q 3647 3509 3647 2328 
Q 3647 1150 3233 529 
Q 2819 -91 2034 -91 
Q 1250 -91 836 529 
Q 422 1150 422 2328 
Q 422 3509 836 4129 
Q 1250 4750 2034 4750 
z
" transform="scale(0.015625)"/>
       </defs>
       <use xlink:href="#DejaVuSans-30"/>
      </g>
     </g>
    </g>
    <g id="xtick_2">
     <g id="line2d_2">
      <path d="M 190.344198 173.52 
L 190.344198 7.2 
" clip-path="url(#pa5242558d7)" style="fill: none; stroke-dasharray: 7.4,3.2; stroke-dashoffset: 0; stroke: #838383; stroke-opacity: 0.33; stroke-width: 2"/>
     </g>
     <g id="text_2">
      <!-- 5 -->
      <g style="fill: #838383" transform="translate(183.345448 205.736563) scale(0.22 -0.22)">
       <defs>
        <path id="DejaVuSans-35" d="M 691 4666 
L 3169 4666 
L 3169 4134 
L 1269 4134 
L 1269 2991 
Q 1406 3038 1543 3061 
Q 1681 3084 1819 3084 
Q 2600 3084 3056 2656 
Q 3513 2228 3513 1497 
Q 3513 744 3044 326 
Q 2575 -91 1722 -91 
Q 1428 -91 1123 -41 
Q 819 9 494 109 
L 494 744 
Q 775 591 1075 516 
Q 1375 441 1709 441 
Q 2250 441 2565 725 
Q 2881 1009 2881 1497 
Q 2881 1984 2565 2268 
Q 2250 2553 1709 2553 
Q 1456 2553 1204 2497 
Q 953 2441 691 2322 
L 691 4666 
z
" transform="scale(0.015625)"/>
       </defs>
       <use xlink:href="#DejaVuSans-35"/>
      </g>
     </g>
    </g>
    <g id="xtick_3">
     <g id="line2d_3">
      <path d="M 309.702487 173.52 
L 309.702487 7.2 
" clip-path="url(#pa5242558d7)" style="fill: none; stroke-dasharray: 7.4,3.2; stroke-dashoffset: 0; stroke: #838383; stroke-opacity: 0.33; stroke-width: 2"/>
     </g>
     <g id="text_3">
      <!-- 10 -->
      <g style="fill: #838383" transform="translate(295.704987 205.736563) scale(0.22 -0.22)">
       <defs>
        <path id="DejaVuSans-31" d="M 794 531 
L 1825 531 
L 1825 4091 
L 703 3866 
L 703 4441 
L 1819 4666 
L 2450 4666 
L 2450 531 
L 3481 531 
L 3481 0 
L 794 0 
L 794 531 
z
" transform="scale(0.015625)"/>
       </defs>
       <use xlink:href="#DejaVuSans-31"/>
       <use xlink:href="#DejaVuSans-30" x="63.623047"/>
      </g>
     </g>
    </g>
    <g id="xtick_4">
     <g id="line2d_4">
      <path d="M 429.060775 173.52 
L 429.060775 7.2 
" clip-path="url(#pa5242558d7)" style="fill: none; stroke-dasharray: 7.4,3.2; stroke-dashoffset: 0; stroke: #838383; stroke-opacity: 0.33; stroke-width: 2"/>
     </g>
     <g id="text_4">
      <!-- 15 -->
      <g style="fill: #838383" transform="translate(415.063275 205.736563) scale(0.22 -0.22)">
       <use xlink:href="#DejaVuSans-31"/>
       <use xlink:href="#DejaVuSans-35" x="63.623047"/>
      </g>
     </g>
    </g>
    <g id="text_5">
     <!-- $\delta Q$ -->
     <g style="fill: #838383" transform="translate(257.095 236.548125) scale(0.24 -0.24)">
      <defs>
       <path id="DejaVuSans-Oblique-3b4" d="M 3472 4053 
Q 3197 4272 2450 4272 
Q 1659 4272 1588 3906 
Q 1531 3619 2328 3469 
Q 2953 3353 3253 3003 
Q 3616 2581 3447 1716 
Q 3284 888 2763 400 
Q 2238 -91 1488 -91 
Q 741 -91 406 400 
Q 72 888 241 1747 
Q 363 2384 891 2900 
Q 1097 3100 1353 3213 
Q 913 3459 1000 3900 
Q 1166 4750 2544 4750 
Q 3234 4750 3566 4531 
L 3472 4053 
z
M 1753 3056 
Q 1525 2966 1306 2738 
Q 969 2384 847 1747 
Q 722 1113 919 756 
Q 1119 397 1584 397 
Q 2044 397 2381 759 
Q 2722 1122 2838 1716 
Q 2956 2338 2731 2638 
Q 2491 2959 2103 2994 
Q 1906 3013 1753 3056 
z
" transform="scale(0.015625)"/>
       <path id="DejaVuSans-Oblique-51" d="M 2309 -84 
Q 2275 -88 2237 -89 
Q 2200 -91 2125 -91 
Q 1250 -91 756 411 
Q 263 913 263 1797 
Q 263 2319 452 2844 
Q 641 3369 978 3788 
Q 1369 4269 1858 4509 
Q 2347 4750 2938 4750 
Q 3794 4750 4287 4245 
Q 4781 3741 4781 2869 
Q 4781 1928 4265 1147 
Q 3750 366 2919 44 
L 3553 -825 
L 2847 -825 
L 2309 -84 
z
M 2919 4238 
Q 2400 4238 2003 3986 
Q 1606 3734 1313 3219 
Q 1125 2891 1026 2522 
Q 928 2153 928 1778 
Q 928 1128 1239 775 
Q 1550 422 2119 422 
Q 2631 422 3032 676 
Q 3434 931 3719 1434 
Q 3909 1772 4009 2142 
Q 4109 2513 4109 2881 
Q 4109 3528 3796 3883 
Q 3484 4238 2919 4238 
z
" transform="scale(0.015625)"/>
      </defs>
      <use xlink:href="#DejaVuSans-Oblique-3b4" transform="translate(0 0.78125)"/>
      <use xlink:href="#DejaVuSans-Oblique-51" transform="translate(61.181641 0.78125)"/>
     </g>
    </g>
   </g>
   <g id="matplotlib.axis_2">
    <g id="ytick_1">
     <g id="line2d_5">
      <path d="M 50.695 173.52 
L 497.095 173.52 
" clip-path="url(#pa5242558d7)" style="fill: none; stroke-dasharray: 7.4,3.2; stroke-dashoffset: 0; stroke: #838383; stroke-opacity: 0.33; stroke-width: 2"/>
     </g>
     <g id="text_6">
      <!-- 0 -->
      <g style="fill: #838383" transform="translate(21.1975 181.878281) scale(0.22 -0.22)">
       <use xlink:href="#DejaVuSans-30"/>
      </g>
     </g>
    </g>
    <g id="ytick_2">
     <g id="line2d_6">
      <path d="M 50.695 117.745352 
L 497.095 117.745352 
" clip-path="url(#pa5242558d7)" style="fill: none; stroke-dasharray: 7.4,3.2; stroke-dashoffset: 0; stroke: #838383; stroke-opacity: 0.33; stroke-width: 2"/>
     </g>
     <g id="text_7">
      <!-- 25 -->
      <g style="fill: #838383" transform="translate(7.2 126.103633) scale(0.22 -0.22)">
       <defs>
        <path id="DejaVuSans-32" d="M 1228 531 
L 3431 531 
L 3431 0 
L 469 0 
L 469 531 
Q 828 903 1448 1529 
Q 2069 2156 2228 2338 
Q 2531 2678 2651 2914 
Q 2772 3150 2772 3378 
Q 2772 3750 2511 3984 
Q 2250 4219 1831 4219 
Q 1534 4219 1204 4116 
Q 875 4013 500 3803 
L 500 4441 
Q 881 4594 1212 4672 
Q 1544 4750 1819 4750 
Q 2544 4750 2975 4387 
Q 3406 4025 3406 3419 
Q 3406 3131 3298 2873 
Q 3191 2616 2906 2266 
Q 2828 2175 2409 1742 
Q 1991 1309 1228 531 
z
" transform="scale(0.015625)"/>
       </defs>
       <use xlink:href="#DejaVuSans-32"/>
       <use xlink:href="#DejaVuSans-35" x="63.623047"/>
      </g>
     </g>
    </g>
    <g id="ytick_3">
     <g id="line2d_7">
      <path d="M 50.695 61.970704 
L 497.095 61.970704 
" clip-path="url(#pa5242558d7)" style="fill: none; stroke-dasharray: 7.4,3.2; stroke-dashoffset: 0; stroke: #838383; stroke-opacity: 0.33; stroke-width: 2"/>
     </g>
     <g id="text_8">
      <!-- 50 -->
      <g style="fill: #838383" transform="translate(7.2 70.328985) scale(0.22 -0.22)">
       <use xlink:href="#DejaVuSans-35"/>
       <use xlink:href="#DejaVuSans-30" x="63.623047"/>
      </g>
     </g>
    </g>
   </g>
   <g id="patch_3">
    <path d="M 118.729225 173.52 
L 151.281485 173.52 
L 151.281485 148.979155 
L 118.729225 148.979155 
z
" clip-path="url(#pa5242558d7)" style="fill: #2196f3; opacity: 0.4"/>
   </g>
   <g id="patch_4">
    <path d="M 151.281485 173.52 
L 183.833746 173.52 
L 183.833746 157.903099 
L 151.281485 157.903099 
z
" clip-path="url(#pa5242558d7)" style="fill: #2196f3; opacity: 0.4"/>
   </g>
   <g id="patch_5">
    <path d="M 183.833746 173.52 
L 216.386006 173.52 
L 216.386006 90.973521 
L 183.833746 90.973521 
z
" clip-path="url(#pa5242558d7)" style="fill: #2196f3; opacity: 0.4"/>
   </g>
   <g id="patch_6">
    <path d="M 216.386006 173.52 
L 248.938267 173.52 
L 248.938267 113.28338 
L 216.386006 113.28338 
z
" clip-path="url(#pa5242558d7)" style="fill: #2196f3; opacity: 0.4"/>
   </g>
   <g id="patch_7">
    <path d="M 248.938267 173.52 
L 281.490527 173.52 
L 281.490527 128.900282 
L 248.938267 128.900282 
z
" clip-path="url(#pa5242558d7)" style="fill: #2196f3; opacity: 0.4"/>
   </g>
   <g id="patch_8">
    <path d="M 281.490527 173.52 
L 314.042788 173.52 
L 314.042788 37.429859 
L 281.490527 37.429859 
z
" clip-path="url(#pa5242558d7)" style="fill: #2196f3; opacity: 0.4"/>
   </g>
   <g id="patch_9">
    <path d="M 314.042788 173.52 
L 346.595049 173.52 
L 346.595049 142.286197 
L 314.042788 142.286197 
z
" clip-path="url(#pa5242558d7)" style="fill: #2196f3; opacity: 0.4"/>
   </g>
   <g id="patch_10">
    <path d="M 346.595049 173.52 
L 379.147309 173.52 
L 379.147309 157.903099 
L 346.595049 157.903099 
z
" clip-path="url(#pa5242558d7)" style="fill: #2196f3; opacity: 0.4"/>
   </g>
   <g id="patch_11">
    <path d="M 379.147309 173.52 
L 411.69957 173.52 
L 411.69957 162.36507 
L 379.147309 162.36507 
z
" clip-path="url(#pa5242558d7)" style="fill: #2196f3; opacity: 0.4"/>
   </g>
   <g id="patch_12">
    <path d="M 411.69957 173.52 
L 444.25183 173.52 
L 444.25183 164.596056 
L 411.69957 164.596056 
z
" clip-path="url(#pa5242558d7)" style="fill: #2196f3; opacity: 0.4"/>
   </g>
   <g id="patch_13">
    <path d="M 444.25183 173.52 
L 476.804091 173.52 
L 476.804091 169.058028 
L 444.25183 169.058028 
z
" clip-path="url(#pa5242558d7)" style="fill: #2196f3; opacity: 0.4"/>
   </g>
   <g id="patch_14">
    <path d="M 70.985909 173.52 
L 86.900348 173.52 
L 86.900348 15.12 
L 70.985909 15.12 
z
" clip-path="url(#pa5242558d7)" style="fill: #ef5350; opacity: 0.4"/>
   </g>
   <g id="patch_15">
    <path d="M 86.900348 173.52 
L 102.814786 173.52 
L 102.814786 15.12 
L 86.900348 15.12 
z
" clip-path="url(#pa5242558d7)" style="fill: #ef5350; opacity: 0.4"/>
   </g>
   <g id="patch_16">
    <path d="M 102.814786 173.52 
L 118.729225 173.52 
L 118.729225 173.52 
L 102.814786 173.52 
z
" clip-path="url(#pa5242558d7)" style="fill: #ef5350; opacity: 0.4"/>
   </g>
   <g id="patch_17">
    <path d="M 118.729225 173.52 
L 134.643663 173.52 
L 134.643663 95.435493 
L 118.729225 95.435493 
z
" clip-path="url(#pa5242558d7)" style="fill: #ef5350; opacity: 0.4"/>
   </g>
   <g id="patch_18">
    <path d="M 134.643663 173.52 
L 150.558102 173.52 
L 150.558102 137.824225 
L 134.643663 137.824225 
z
" clip-path="url(#pa5242558d7)" style="fill: #ef5350; opacity: 0.4"/>
   </g>
   <g id="patch_19">
    <path d="M 150.558102 173.52 
L 166.47254 173.52 
L 166.47254 169.058028 
L 150.558102 169.058028 
z
" clip-path="url(#pa5242558d7)" style="fill: #ef5350; opacity: 0.4"/>
   </g>
   <g id="patch_20">
    <path d="M 50.695 173.52 
L 50.695 7.2 
" style="fill: none"/>
   </g>
   <g id="patch_21">
    <path d="M 497.095 173.52 
L 497.095 7.2 
" style="fill: none"/>
   </g>
   <g id="patch_22">
    <path d="M 50.695 173.52 
L 497.095 173.52 
" style="fill: none"/>
   </g>
   <g id="patch_23">
    <path d="M 50.695 7.2 
L 497.095 7.2 
" style="fill: none"/>
   </g>
   <g id="legend_1">
    <g id="patch_24">
     <path d="M 364.80625 80.284688 
L 408.80625 80.284688 
L 408.80625 64.884688 
L 364.80625 64.884688 
z
" style="fill: #2196f3; opacity: 0.4"/>
    </g>
    <g id="text_9">
     <!-- Eval -->
     <g style="fill: #838383" transform="translate(426.40625 80.284688) scale(0.22 -0.22)">
      <defs>
       <path id="DejaVuSans-45" d="M 628 4666 
L 3578 4666 
L 3578 4134 
L 1259 4134 
L 1259 2753 
L 3481 2753 
L 3481 2222 
L 1259 2222 
L 1259 531 
L 3634 531 
L 3634 0 
L 628 0 
L 628 4666 
z
" transform="scale(0.015625)"/>
       <path id="DejaVuSans-76" d="M 191 3500 
L 800 3500 
L 1894 563 
L 2988 3500 
L 3597 3500 
L 2284 0 
L 1503 0 
L 191 3500 
z
" transform="scale(0.015625)"/>
       <path id="DejaVuSans-61" d="M 2194 1759 
Q 1497 1759 1228 1600 
Q 959 1441 959 1056 
Q 959 750 1161 570 
Q 1363 391 1709 391 
Q 2188 391 2477 730 
Q 2766 1069 2766 1631 
L 2766 1759 
L 2194 1759 
z
M 3341 1997 
L 3341 0 
L 2766 0 
L 2766 531 
Q 2569 213 2275 61 
Q 1981 -91 1556 -91 
Q 1019 -91 701 211 
Q 384 513 384 1019 
Q 384 1609 779 1909 
Q 1175 2209 1959 2209 
L 2766 2209 
L 2766 2266 
Q 2766 2663 2505 2880 
Q 2244 3097 1772 3097 
Q 1472 3097 1187 3025 
Q 903 2953 641 2809 
L 641 3341 
Q 956 3463 1253 3523 
Q 1550 3584 1831 3584 
Q 2591 3584 2966 3190 
Q 3341 2797 3341 1997 
z
" transform="scale(0.015625)"/>
       <path id="DejaVuSans-6c" d="M 603 4863 
L 1178 4863 
L 1178 0 
L 603 0 
L 603 4863 
z
" transform="scale(0.015625)"/>
      </defs>
      <use xlink:href="#DejaVuSans-45"/>
      <use xlink:href="#DejaVuSans-76" x="63.183594"/>
      <use xlink:href="#DejaVuSans-61" x="122.363281"/>
      <use xlink:href="#DejaVuSans-6c" x="183.642578"/>
     </g>
    </g>
    <g id="patch_25">
     <path d="M 364.80625 112.576563 
L 408.80625 112.576563 
L 408.80625 97.176563 
L 364.80625 97.176563 
z
" style="fill: #ef5350; opacity: 0.4"/>
    </g>
    <g id="text_10">
     <!-- HMC -->
     <g style="fill: #838383" transform="translate(426.40625 112.576563) scale(0.22 -0.22)">
      <defs>
       <path id="DejaVuSans-48" d="M 628 4666 
L 1259 4666 
L 1259 2753 
L 3553 2753 
L 3553 4666 
L 4184 4666 
L 4184 0 
L 3553 0 
L 3553 2222 
L 1259 2222 
L 1259 0 
L 628 0 
L 628 4666 
z
" transform="scale(0.015625)"/>
       <path id="DejaVuSans-4d" d="M 628 4666 
L 1569 4666 
L 2759 1491 
L 3956 4666 
L 4897 4666 
L 4897 0 
L 4281 0 
L 4281 4097 
L 3078 897 
L 2444 897 
L 1241 4097 
L 1241 0 
L 628 0 
L 628 4666 
z
" transform="scale(0.015625)"/>
       <path id="DejaVuSans-43" d="M 4122 4306 
L 4122 3641 
Q 3803 3938 3442 4084 
Q 3081 4231 2675 4231 
Q 1875 4231 1450 3742 
Q 1025 3253 1025 2328 
Q 1025 1406 1450 917 
Q 1875 428 2675 428 
Q 3081 428 3442 575 
Q 3803 722 4122 1019 
L 4122 359 
Q 3791 134 3420 21 
Q 3050 -91 2638 -91 
Q 1578 -91 968 557 
Q 359 1206 359 2328 
Q 359 3453 968 4101 
Q 1578 4750 2638 4750 
Q 3056 4750 3426 4639 
Q 3797 4528 4122 4306 
z
" transform="scale(0.015625)"/>
      </defs>
      <use xlink:href="#DejaVuSans-48"/>
      <use xlink:href="#DejaVuSans-4d" x="75.195312"/>
      <use xlink:href="#DejaVuSans-43" x="161.474609"/>
     </g>
    </g>
   </g>
  </g>
 </g>
 <defs>
  <clipPath id="pa5242558d7">
   <rect x="50.695" y="7.2" width="446.4" height="166.32"/>
  </clipPath>
 </defs>
</svg>
