<?xml version="1.0" encoding="UTF-8" standalone="no"?>
<svg 
   width="153.119995pt"
   height="246pt"
   viewBox="0 0 153.119995 246"
   version="1.1"
   id="svg143"
   xmlns:xlink="http://www.w3.org/1999/xlink"
   xmlns="http://www.w3.org/2000/svg"
   xmlns:svg="http://www.w3.org/2000/svg" content="%3Cmxfile%20host%3D%22app.diagrams.net%22%20modified%3D%222023-11-13T16%3A32%3A02.629Z%22%20agent%3D%22Mozilla%2F5.0%20(Macintosh%3B%20Intel%20Mac%20OS%20X%2010_15_7)%20AppleWebKit%2F537.36%20(KHTML%2C%20like%20Gecko)%20Chrome%2F119.0.0.0%20Safari%2F537.36%22%20version%3D%2222.1.0%22%20etag%3D%22LX8QaC8KkjyeAgN6cRcZ%22%20type%3D%22github%22%3E%20%20%20%3Cdiagram%20name%3D%22Page-1%22%20id%3D%22I10F5bMrbj51aoFJrBpT%22%3E%20%20%20%20%20%3CmxGraphModel%20dx%3D%222077%22%20dy%3D%221516%22%20grid%3D%220%22%20gridSize%3D%2210%22%20guides%3D%221%22%20tooltips%3D%221%22%20connect%3D%221%22%20arrows%3D%221%22%20fold%3D%221%22%20page%3D%220%22%20pageScale%3D%221%22%20pageWidth%3D%22850%22%20pageHeight%3D%221100%22%20math%3D%221%22%20shadow%3D%220%22%3E%20%20%20%20%20%20%20%3Croot%3E%20%20%20%20%20%20%20%20%20%3CmxCell%20id%3D%220%22%20%2F%3E%20%20%20%20%20%20%20%20%20%3CmxCell%20id%3D%221%22%20parent%3D%220%22%20%2F%3E%20%20%20%20%20%20%20%20%20%3CmxCell%20id%3D%222%22%20value%3D%22%26lt%3Bbr%26gt%3B%22%20style%3D%22edgeStyle%3Dnone%3Bcurved%3D1%3Brounded%3D0%3BorthogonalLoop%3D1%3BjettySize%3Dauto%3Bhtml%3D1%3BendArrow%3Dclassic%3BstartSize%3D8%3BendSize%3D8%3BsourcePerimeterSpacing%3D8%3BtargetPerimeterSpacing%3D8%3BfontSize%3D20%3BfontFamily%3DArchitects%20Daughter%3BstrokeColor%3D%23AB47BC%3BhachureGap%3D4%3BfontSource%3Dhttps%3A%2F%2Ffonts.googleapis.com%2Fcss%3Ffamily%3DArchitects%2BDaughter%3BstrokeWidth%3D2%3BverticalAlign%3Dtop%3B%22%20edge%3D%221%22%20source%3D%2216%22%20target%3D%2210%22%20parent%3D%221%22%3E%20%20%20%20%20%20%20%20%20%20%20%3CmxGeometry%20relative%3D%221%22%20as%3D%22geometry%22%20%2F%3E%20%20%20%20%20%20%20%20%20%3C%2FmxCell%3E%20%20%20%20%20%20%20%20%20%3CmxCell%20id%3D%223%22%20value%3D%22%26lt%3Bfont%20style%3D%26quot%3Bfont-size%3A%2018px%3B%26quot%3B%26gt%3B%5C(x%26%2339%3B%26%2339%3B%5C)%26lt%3B%2Ffont%26gt%3B%22%20style%3D%22whiteSpace%3Dwrap%3Bhtml%3D1%3Baspect%3Dfixed%3BhachureGap%3D4%3BfontFamily%3DArchitects%20Daughter%3BfontSize%3D18%3BflipV%3D0%3BstrokeColor%3D%23AB47BC%3BstrokeWidth%3D2%3BfillColor%3Ddefault%3BverticalAlign%3Dtop%3Balign%3Dcenter%3Bshadow%3D0%3BfontSource%3Dhttps%253A%252F%252Ffonts.googleapis.com%252Fcss%253Ffamily%253DArchitects%252BDaughter%3B%22%20vertex%3D%221%22%20parent%3D%221%22%3E%20%20%20%20%20%20%20%20%20%20%20%3CmxGeometry%20x%3D%22-31.370000000000005%22%20y%3D%22128%22%20width%3D%2232%22%20height%3D%2232%22%20as%3D%22geometry%22%20%2F%3E%20%20%20%20%20%20%20%20%20%3C%2FmxCell%3E%20%20%20%20%20%20%20%20%20%3CmxCell%20id%3D%224%22%20style%3D%22edgeStyle%3Dnone%3Bcurved%3D1%3Brounded%3D0%3BorthogonalLoop%3D1%3BjettySize%3Dauto%3Bhtml%3D1%3BendArrow%3Dclassic%3BstartSize%3D8%3BendSize%3D8%3BsourcePerimeterSpacing%3D8%3BtargetPerimeterSpacing%3D8%3BfontSize%3D20%3BfontFamily%3DArchitects%20Daughter%3BstrokeColor%3D%23AB47BC%3BhachureGap%3D4%3BfontSource%3Dhttps%3A%2F%2Ffonts.googleapis.com%2Fcss%3Ffamily%3DArchitects%2BDaughter%3BstrokeWidth%3D2%3BverticalAlign%3Dtop%3B%22%20edge%3D%221%22%20source%3D%2210%22%20target%3D%223%22%20parent%3D%221%22%3E%20%20%20%20%20%20%20%20%20%20%20%3CmxGeometry%20relative%3D%221%22%20as%3D%22geometry%22%20%2F%3E%20%20%20%20%20%20%20%20%20%3C%2FmxCell%3E%20%20%20%20%20%20%20%20%20%3CmxCell%20id%3D%225%22%20value%3D%22%26lt%3Bfont%20style%3D%26quot%3Bfont-size%3A%2018px%3B%26quot%3B%26gt%3B%5C(v%26%2339%3B%26%2339%3B%5C)%26lt%3B%2Ffont%26gt%3B%22%20style%3D%22whiteSpace%3Dwrap%3Bhtml%3D1%3Baspect%3Dfixed%3BhachureGap%3D4%3BfontFamily%3DArchitects%20Daughter%3BfontSize%3D18%3BstrokeColor%3D%2366BB6A%3BstrokeWidth%3D2%3BverticalAlign%3Dtop%3Balign%3Dcenter%3BfillColor%3Ddefault%3Bshadow%3D0%3BfontSource%3Dhttps%253A%252F%252Ffonts.googleapis.com%252Fcss%253Ffamily%253DArchitects%252BDaughter%3BflipV%3D1%3B%22%20vertex%3D%221%22%20parent%3D%221%22%3E%20%20%20%20%20%20%20%20%20%20%20%3CmxGeometry%20x%3D%22-143.62%22%20y%3D%22128%22%20width%3D%2232%22%20height%3D%2232%22%20as%3D%22geometry%22%20%2F%3E%20%20%20%20%20%20%20%20%20%3C%2FmxCell%3E%20%20%20%20%20%20%20%20%20%3CmxCell%20id%3D%226%22%20style%3D%22edgeStyle%3Dnone%3Bcurved%3D1%3Brounded%3D0%3BorthogonalLoop%3D1%3BjettySize%3Dauto%3Bhtml%3D1%3BfontSize%3D20%3BstartSize%3D8%3BendSize%3D8%3BverticalAlign%3Dtop%3Balign%3Dcenter%3BstrokeColor%3D%2366BB6A%3BstrokeWidth%3D2%3B%22%20edge%3D%221%22%20source%3D%2211%22%20target%3D%225%22%20parent%3D%221%22%3E%20%20%20%20%20%20%20%20%20%20%20%3CmxGeometry%20relative%3D%221%22%20as%3D%22geometry%22%20%2F%3E%20%20%20%20%20%20%20%20%20%3C%2FmxCell%3E%20%20%20%20%20%20%20%20%20%3CmxCell%20id%3D%227%22%20style%3D%22edgeStyle%3Dnone%3Bcurved%3D1%3Brounded%3D0%3BorthogonalLoop%3D1%3BjettySize%3Dauto%3Bhtml%3D1%3BfontSize%3D20%3BstartSize%3D8%3BendSize%3D8%3BverticalAlign%3Dtop%3Balign%3Dcenter%3BstrokeColor%3D%2366BB6A%3BstrokeWidth%3D2%3B%22%20edge%3D%221%22%20source%3D%2217%22%20target%3D%2215%22%20parent%3D%221%22%3E%20%20%20%20%20%20%20%20%20%20%20%3CmxGeometry%20relative%3D%221%22%20as%3D%22geometry%22%20%2F%3E%20%20%20%20%20%20%20%20%20%3C%2FmxCell%3E%20%20%20%20%20%20%20%20%20%3CmxCell%20id%3D%228%22%20style%3D%22edgeStyle%3Dnone%3Bcurved%3D1%3Brounded%3D0%3BhachureGap%3D4%3BorthogonalLoop%3D1%3BjettySize%3Dauto%3Bhtml%3D1%3BfontFamily%3DArchitects%20Daughter%3BfontSource%3Dhttps%3A%2F%2Ffonts.googleapis.com%2Fcss%3Ffamily%3DArchitects%2BDaughter%3BfontSize%3D20%3BstartSize%3D8%3BendSize%3D8%3BverticalAlign%3Dtop%3Balign%3Dcenter%3BstrokeColor%3D%23AB47BC%3BstrokeWidth%3D2%3Bdashed%3D1%3B%22%20edge%3D%221%22%20source%3D%2216%22%20target%3D%2215%22%20parent%3D%221%22%3E%20%20%20%20%20%20%20%20%20%20%20%3CmxGeometry%20relative%3D%221%22%20as%3D%22geometry%22%3E%20%20%20%20%20%20%20%20%20%20%20%20%20%3CmxPoint%20x%3D%22509.12%22%20y%3D%2249%22%20as%3D%22sourcePoint%22%20%2F%3E%20%20%20%20%20%20%20%20%20%20%20%20%20%3CmxPoint%20x%3D%22564.12%22%20y%3D%2298%22%20as%3D%22targetPoint%22%20%2F%3E%20%20%20%20%20%20%20%20%20%20%20%3C%2FmxGeometry%3E%20%20%20%20%20%20%20%20%20%3C%2FmxCell%3E%20%20%20%20%20%20%20%20%20%3CmxCell%20id%3D%229%22%20value%3D%22%22%20style%3D%22group%3BfontSize%3D18%3BverticalAlign%3Dtop%3B%22%20vertex%3D%221%22%20connectable%3D%220%22%20parent%3D%221%22%3E%20%20%20%20%20%20%20%20%20%20%20%3CmxGeometry%20x%3D%22-146.62%22%20y%3D%22-63%22%20width%3D%22150.25%22%20height%3D%22146%22%20as%3D%22geometry%22%20%2F%3E%20%20%20%20%20%20%20%20%20%3C%2FmxCell%3E%20%20%20%20%20%20%20%20%20%3CmxCell%20id%3D%2210%22%20value%3D%22%5C(%5CLambda%5C)%22%20style%3D%22whiteSpace%3Dwrap%3Bhtml%3D1%3BhachureGap%3D4%3BfontFamily%3DArchitects%20Daughter%3BfontSource%3Dhttps%253A%252F%252Ffonts.googleapis.com%252Fcss%253Ffamily%253DArchitects%252BDaughter%3BfontSize%3D20%3BflipV%3D0%3Brounded%3D1%3BstrokeColor%3D%23FFA726%3BstrokeWidth%3D3%3BfillColor%3Ddefault%3BverticalAlign%3Dtop%3Balign%3Dcenter%3Bshadow%3D1%3B%22%20vertex%3D%221%22%20parent%3D%229%22%3E%20%20%20%20%20%20%20%20%20%20%20%3CmxGeometry%20x%3D%22112.25%22%20y%3D%2257%22%20width%3D%2238%22%20height%3D%2232%22%20as%3D%22geometry%22%20%2F%3E%20%20%20%20%20%20%20%20%20%3C%2FmxCell%3E%20%20%20%20%20%20%20%20%20%3CmxCell%20id%3D%2211%22%20value%3D%22%5C(%5CGamma%5C)%22%20style%3D%22whiteSpace%3Dwrap%3Bhtml%3D1%3BhachureGap%3D4%3BfontFamily%3DArchitects%20Daughter%3BfontSource%3Dhttps%253A%252F%252Ffonts.googleapis.com%252Fcss%253Ffamily%253DArchitects%252BDaughter%3BfontSize%3D20%3Brounded%3D1%3BfillColor%3Ddefault%3BstrokeColor%3D%23EC407A%3BstrokeWidth%3D3%3BverticalAlign%3Dtop%3Balign%3Dcenter%3Bshadow%3D1%3BflipV%3D0%3B%22%20vertex%3D%221%22%20parent%3D%229%22%3E%20%20%20%20%20%20%20%20%20%20%20%3CmxGeometry%20y%3D%22114%22%20width%3D%2238%22%20height%3D%2232%22%20as%3D%22geometry%22%20%2F%3E%20%20%20%20%20%20%20%20%20%3C%2FmxCell%3E%20%20%20%20%20%20%20%20%20%3CmxCell%20id%3D%2212%22%20style%3D%22edgeStyle%3Dnone%3Bcurved%3D1%3Brounded%3D0%3BorthogonalLoop%3D1%3BjettySize%3Dauto%3Bhtml%3D1%3BendArrow%3Dclassic%3BstartSize%3D8%3BendSize%3D8%3BsourcePerimeterSpacing%3D8%3BtargetPerimeterSpacing%3D8%3BfontSize%3D20%3BstrokeColor%3D%2366BB6A%3BstrokeWidth%3D2%3Bdashed%3D1%3BverticalAlign%3Dtop%3B%22%20edge%3D%221%22%20parent%3D%229%22%20source%3D%2215%22%20target%3D%2210%22%3E%20%20%20%20%20%20%20%20%20%20%20%3CmxGeometry%20relative%3D%221%22%20as%3D%22geometry%22%20%2F%3E%20%20%20%20%20%20%20%20%20%3C%2FmxCell%3E%20%20%20%20%20%20%20%20%20%3CmxCell%20id%3D%2213%22%20style%3D%22edgeStyle%3Dnone%3Bcurved%3D1%3Brounded%3D0%3BorthogonalLoop%3D1%3BjettySize%3Dauto%3Bhtml%3D1%3BfontSize%3D20%3BstartSize%3D8%3BendSize%3D8%3BverticalAlign%3Dtop%3Balign%3Dcenter%3BstrokeColor%3D%2366BB6A%3BstrokeWidth%3D2%3B%22%20edge%3D%221%22%20parent%3D%229%22%20source%3D%2215%22%20target%3D%2211%22%3E%20%20%20%20%20%20%20%20%20%20%20%3CmxGeometry%20relative%3D%221%22%20as%3D%22geometry%22%20%2F%3E%20%20%20%20%20%20%20%20%20%3C%2FmxCell%3E%20%20%20%20%20%20%20%20%20%3CmxCell%20id%3D%2214%22%20style%3D%22edgeStyle%3Dnone%3Bcurved%3D1%3Brounded%3D0%3BorthogonalLoop%3D1%3BjettySize%3Dauto%3Bhtml%3D1%3BendArrow%3Dclassic%3BstartSize%3D8%3BendSize%3D8%3BsourcePerimeterSpacing%3D8%3BtargetPerimeterSpacing%3D8%3BfontSize%3D20%3BstrokeColor%3D%23AB47BC%3BstrokeWidth%3D2%3Bdashed%3D1%3BfontFamily%3DArchitects%20Daughter%3BhachureGap%3D4%3BfontSource%3Dhttps%3A%2F%2Ffonts.googleapis.com%2Fcss%3Ffamily%3DArchitects%2BDaughter%3BverticalAlign%3Dtop%3B%22%20edge%3D%221%22%20parent%3D%229%22%20source%3D%2210%22%20target%3D%2211%22%3E%20%20%20%20%20%20%20%20%20%20%20%3CmxGeometry%20relative%3D%221%22%20as%3D%22geometry%22%20%2F%3E%20%20%20%20%20%20%20%20%20%3C%2FmxCell%3E%20%20%20%20%20%20%20%20%20%3CmxCell%20id%3D%2215%22%20value%3D%22%5C(%5CGamma%5C)%22%20style%3D%22whiteSpace%3Dwrap%3Bhtml%3D1%3BhachureGap%3D4%3BfontFamily%3DArchitects%20Daughter%3BfontSource%3Dhttps%253A%252F%252Ffonts.googleapis.com%252Fcss%253Ffamily%253DArchitects%252BDaughter%3BfontSize%3D20%3Brounded%3D1%3BfillColor%3Ddefault%3BstrokeColor%3D%23EC407A%3BstrokeWidth%3D3%3BverticalAlign%3Dtop%3Balign%3Dcenter%3Bshadow%3D1%3BflipV%3D0%3B%22%20vertex%3D%221%22%20parent%3D%229%22%3E%20%20%20%20%20%20%20%20%20%20%20%3CmxGeometry%20width%3D%2238%22%20height%3D%2232%22%20as%3D%22geometry%22%20%2F%3E%20%20%20%20%20%20%20%20%20%3C%2FmxCell%3E%20%20%20%20%20%20%20%20%20%3CmxCell%20id%3D%2216%22%20value%3D%22%5C(x%5C)%22%20style%3D%22whiteSpace%3Dwrap%3Bhtml%3D1%3Baspect%3Dfixed%3BhachureGap%3D4%3BfontFamily%3DArchitects%20Daughter%3BfontSize%3D18%3BstrokeColor%3D%23AB47BC%3BfillColor%3Ddefault%3BstrokeWidth%3D2%3BverticalAlign%3Dmiddle%3Balign%3Dcenter%3Bshadow%3D0%3BfontSource%3Dhttps%253A%252F%252Ffonts.googleapis.com%252Fcss%253Ffamily%253DArchitects%252BDaughter%3BflipV%3D0%3B%22%20vertex%3D%221%22%20parent%3D%221%22%3E%20%20%20%20%20%20%20%20%20%20%20%3CmxGeometry%20x%3D%22-31.370000000000005%22%20y%3D%22-140%22%20width%3D%2232%22%20height%3D%2232%22%20as%3D%22geometry%22%20%2F%3E%20%20%20%20%20%20%20%20%20%3C%2FmxCell%3E%20%20%20%20%20%20%20%20%20%3CmxCell%20id%3D%2217%22%20value%3D%22%26lt%3Bspan%20style%3D%26quot%3Bcolor%3A%20rgb(0%2C%200%2C%200)%3B%20font-size%3A%2018px%3B%20font-style%3A%20normal%3B%20font-variant-ligatures%3A%20normal%3B%20font-variant-caps%3A%20normal%3B%20font-weight%3A%20400%3B%20letter-spacing%3A%20normal%3B%20orphans%3A%202%3B%20text-indent%3A%200px%3B%20text-transform%3A%20none%3B%20widows%3A%202%3B%20word-spacing%3A%200px%3B%20-webkit-text-stroke-width%3A%200px%3B%20background-color%3A%20rgb(255%2C%20255%2C%20255)%3B%20text-decoration-thickness%3A%20initial%3B%20text-decoration-style%3A%20initial%3B%20text-decoration-color%3A%20initial%3B%20float%3A%20none%3B%20display%3A%20inline%20!important%3B%26quot%3B%26gt%3B%5C(v%5C)%26lt%3B%2Fspan%26gt%3B%22%20style%3D%22whiteSpace%3Dwrap%3Bhtml%3D1%3Baspect%3Dfixed%3BhachureGap%3D4%3BfontFamily%3DArchitects%20Daughter%3BfontSize%3D18%3BstrokeColor%3D%2366BB6A%3BstrokeWidth%3D2%3BfillColor%3Ddefault%3BverticalAlign%3Dmiddle%3Balign%3Dcenter%3Bshadow%3D0%3BfontSource%3Dhttps%253A%252F%252Ffonts.googleapis.com%252Fcss%253Ffamily%253DArchitects%252BDaughter%3BflipV%3D1%3B%22%20vertex%3D%221%22%20parent%3D%221%22%3E%20%20%20%20%20%20%20%20%20%20%20%3CmxGeometry%20x%3D%22-143.62%22%20y%3D%22-140%22%20width%3D%2232%22%20height%3D%2232%22%20as%3D%22geometry%22%20%2F%3E%20%20%20%20%20%20%20%20%20%3C%2FmxCell%3E%20%20%20%20%20%20%20%3C%2Froot%3E%20%20%20%20%20%3C%2FmxGraphModel%3E%20%20%20%3C%2Fdiagram%3E%20%3C%2Fmxfile%3E%20">
  <defs
     id="defs59">
    <filter
       id="filter-remove-color"
       x="0"
       y="0"
       width="1"
       height="1">
      <feColorMatrix
         color-interpolation-filters="sRGB"
         values="0 0 0 0 1 0 0 0 0 1 0 0 0 0 1 0 0 0 1 0"
         id="feColorMatrix2" />
    </filter>
    <mask
       id="mask-0">
      <g
         filter="url(#filter-remove-color)"
         id="g7">
        <rect
           x="-15.311999"
           y="-24.6"
           width="183.743994"
           height="295.2"
           fill="rgb(0%, 0%, 0%)"
           fill-opacity="0.25"
           id="rect5" />
      </g>
    </mask>
    <clipPath
       id="clip-0">
      <path
         clip-rule="nonzero"
         d="M 0.679688 0.078125 L 32.601563 0.078125 L 32.601563 27.199219 L 0.679688 27.199219 Z M 0.679688 0.078125 "
         id="path10" />
    </clipPath>
    <clipPath
       id="clip-1">
      <rect
         x="0"
         y="0"
         width="33"
         height="28"
         id="rect13" />
    </clipPath>
    <g
       id="source-5"
       clip-path="url(#clip-1)">
      <path
         fill-rule="nonzero"
         fill="rgb(0%, 0%, 0%)"
         fill-opacity="1"
         d="M 5.699219 1.625 L 26.996094 1.625 C 27.476563 1.625 27.933594 1.714844 28.375 1.898438 C 28.816406 2.082031 29.207031 2.34375 29.542969 2.679688 C 29.878906 3.015625 30.140625 3.40625 30.324219 3.847656 C 30.507813 4.289063 30.597656 4.746094 30.597656 5.226563 L 30.597656 22.023438 C 30.597656 22.503906 30.507813 22.960938 30.324219 23.402344 C 30.140625 23.84375 29.878906 24.234375 29.542969 24.570313 C 29.207031 24.90625 28.816406 25.167969 28.375 25.351563 C 27.933594 25.535156 27.476563 25.625 26.996094 25.625 L 5.699219 25.625 C 5.21875 25.625 4.761719 25.535156 4.320313 25.351563 C 3.878906 25.167969 3.488281 24.90625 3.152344 24.570313 C 2.8125 24.234375 2.554688 23.84375 2.371094 23.402344 C 2.1875 22.960938 2.097656 22.503906 2.097656 22.023438 L 2.097656 5.226563 C 2.097656 4.746094 2.1875 4.289063 2.371094 3.847656 C 2.554688 3.40625 2.8125 3.015625 3.152344 2.679688 C 3.488281 2.34375 3.878906 2.082031 4.320313 1.898438 C 4.761719 1.714844 5.21875 1.625 5.699219 1.625 Z M 5.699219 1.625 "
         id="path16" />
      <g
         clip-path="url(#clip-0)"
         id="g20">
        <path
           fill="none"
           stroke-width="3"
           stroke-linecap="butt"
           stroke-linejoin="miter"
           stroke="rgb(0%, 0%, 0%)"
           stroke-opacity="1"
           stroke-miterlimit="4"
           d="M 142.432298 140.000006 L 170.828132 140.000006 C 171.468757 140.000006 172.078132 140.119798 172.666674 140.364589 C 173.255216 140.609381 173.776049 140.958339 174.223966 141.406256 C 174.671882 141.854173 175.020841 142.375006 175.265632 142.963548 C 175.510424 143.552089 175.630216 144.161464 175.630216 144.80209 L 175.630216 167.197924 C 175.630216 167.838549 175.510424 168.447924 175.265632 169.036466 C 175.020841 169.625007 174.671882 170.145841 174.223966 170.593757 C 173.776049 171.041674 173.255216 171.390632 172.666674 171.635424 C 172.078132 171.880216 171.468757 172.000007 170.828132 172.000007 L 142.432298 172.000007 C 141.791673 172.000007 141.182298 171.880216 140.593756 171.635424 C 140.005214 171.390632 139.484381 171.041674 139.036464 170.593757 C 138.583339 170.145841 138.239589 169.625007 137.994798 169.036466 C 137.750006 168.447924 137.630214 167.838549 137.630214 167.197924 L 137.630214 144.80209 C 137.630214 144.161464 137.750006 143.552089 137.994798 142.963548 C 138.239589 142.375006 138.583339 141.854173 139.036464 141.406256 C 139.484381 140.958339 140.005214 140.609381 140.593756 140.364589 C 141.182298 140.119798 141.791673 140.000006 142.432298 140.000006 Z M 142.432298 140.000006 "
           transform="matrix(0.75, 0, 0, 0.75, -101.125, -103.375)"
           id="path18" />
      </g>
    </g>
    <mask
       id="mask-1">
      <g
         filter="url(#filter-remove-color)"
         id="g25">
        <rect
           x="-15.311999"
           y="-24.6"
           width="183.743994"
           height="295.2"
           fill="rgb(0%, 0%, 0%)"
           fill-opacity="0.25"
           id="rect23" />
      </g>
    </mask>
    <clipPath
       id="clip-2">
      <path
         clip-rule="nonzero"
         d="M 0.960938 0.800781 L 32.640625 0.800781 L 32.640625 27.921875 L 0.960938 27.921875 Z M 0.960938 0.800781 "
         id="path28" />
    </clipPath>
    <clipPath
       id="clip-3">
      <rect
         x="0"
         y="0"
         width="33"
         height="28"
         id="rect31" />
    </clipPath>
    <g
       id="source-8"
       clip-path="url(#clip-3)">
      <path
         fill-rule="nonzero"
         fill="rgb(0%, 0%, 0%)"
         fill-opacity="1"
         d="M 6.511719 2.375 L 27.808594 2.375 C 28.289063 2.375 28.746094 2.464844 29.1875 2.648438 C 29.628906 2.832031 30.019531 3.09375 30.355469 3.429688 C 30.691406 3.765625 30.953125 4.15625 31.136719 4.597656 C 31.320313 5.039063 31.410156 5.496094 31.410156 5.976563 L 31.410156 22.773438 C 31.410156 23.253906 31.320313 23.710938 31.136719 24.152344 C 30.953125 24.59375 30.691406 24.984375 30.355469 25.320313 C 30.019531 25.65625 29.628906 25.917969 29.1875 26.101563 C 28.746094 26.285156 28.289063 26.375 27.808594 26.375 L 6.511719 26.375 C 6.03125 26.375 5.574219 26.285156 5.132813 26.101563 C 4.691406 25.917969 4.300781 25.65625 3.964844 25.320313 C 3.625 24.984375 3.367188 24.59375 3.183594 24.152344 C 3 23.710938 2.910156 23.253906 2.910156 22.773438 L 2.910156 5.976563 C 2.910156 5.496094 3 5.039063 3.183594 4.597656 C 3.367188 4.15625 3.625 3.765625 3.964844 3.429688 C 4.300781 3.09375 4.691406 2.832031 5.132813 2.648438 C 5.574219 2.464844 6.03125 2.375 6.511719 2.375 Z M 6.511719 2.375 "
         id="path34" />
      <g
         clip-path="url(#clip-2)"
         id="g38">
        <path
           fill="none"
           stroke-width="3"
           stroke-linecap="butt"
           stroke-linejoin="miter"
           stroke="rgb(0%, 0%, 0%)"
           stroke-opacity="1"
           stroke-miterlimit="4"
           d="M 30.182293 197.000008 L 58.578128 197.000008 C 59.218753 197.000008 59.828128 197.1198 60.416669 197.364592 C 61.005211 197.609383 61.526044 197.958342 61.973961 198.406258 C 62.421878 198.854175 62.770836 199.375008 63.015628 199.96355 C 63.260419 200.552092 63.380211 201.161467 63.380211 201.802092 L 63.380211 224.197926 C 63.380211 224.838551 63.260419 225.447926 63.015628 226.036468 C 62.770836 226.62501 62.421878 227.145843 61.973961 227.59376 C 61.526044 228.041676 61.005211 228.390635 60.416669 228.635426 C 59.828128 228.880218 59.218753 229.00001 58.578128 229.00001 L 30.182293 229.00001 C 29.541668 229.00001 28.932293 228.880218 28.343751 228.635426 C 27.75521 228.390635 27.234376 228.041676 26.78646 227.59376 C 26.333335 227.145843 25.989585 226.62501 25.744793 226.036468 C 25.500001 225.447926 25.380209 224.838551 25.380209 224.197926 L 25.380209 201.802092 C 25.380209 201.161467 25.500001 200.552092 25.744793 199.96355 C 25.989585 199.375008 26.333335 198.854175 26.78646 198.406258 C 27.234376 197.958342 27.75521 197.609383 28.343751 197.364592 C 28.932293 197.1198 29.541668 197.000008 30.182293 197.000008 Z M 30.182293 197.000008 "
           transform="matrix(0.75, 0, 0, 0.75, -16.125, -145.375)"
           id="path36" />
      </g>
    </g>
    <mask
       id="mask-2">
      <g
         filter="url(#filter-remove-color)"
         id="g43">
        <rect
           x="-15.311999"
           y="-24.6"
           width="183.743994"
           height="295.2"
           fill="rgb(0%, 0%, 0%)"
           fill-opacity="0.25"
           id="rect41" />
      </g>
    </mask>
    <clipPath
       id="clip-4">
      <path
         clip-rule="nonzero"
         d="M 0.960938 0.359375 L 32.640625 0.359375 L 32.640625 27.480469 L 0.960938 27.480469 Z M 0.960938 0.359375 "
         id="path46" />
    </clipPath>
    <clipPath
       id="clip-5">
      <rect
         x="0"
         y="0"
         width="33"
         height="28"
         id="rect49" />
    </clipPath>
    <g
       id="source-11"
       clip-path="url(#clip-5)">
      <path
         fill-rule="nonzero"
         fill="rgb(0%, 0%, 0%)"
         fill-opacity="1"
         d="M 6.511719 1.875 L 27.808594 1.875 C 28.289063 1.875 28.746094 1.964844 29.1875 2.148438 C 29.628906 2.332031 30.019531 2.59375 30.355469 2.929688 C 30.691406 3.265625 30.953125 3.65625 31.136719 4.097656 C 31.320313 4.539063 31.410156 4.996094 31.410156 5.476563 L 31.410156 22.273438 C 31.410156 22.753906 31.320313 23.210938 31.136719 23.652344 C 30.953125 24.09375 30.691406 24.484375 30.355469 24.820313 C 30.019531 25.15625 29.628906 25.417969 29.1875 25.601563 C 28.746094 25.785156 28.289063 25.875 27.808594 25.875 L 6.511719 25.875 C 6.03125 25.875 5.574219 25.785156 5.132813 25.601563 C 4.691406 25.417969 4.300781 25.15625 3.964844 24.820313 C 3.625 24.484375 3.367188 24.09375 3.183594 23.652344 C 3 23.210938 2.910156 22.753906 2.910156 22.273438 L 2.910156 5.476563 C 2.910156 4.996094 3 4.539063 3.183594 4.097656 C 3.367188 3.65625 3.625 3.265625 3.964844 2.929688 C 4.300781 2.59375 4.691406 2.332031 5.132813 2.148438 C 5.574219 1.964844 6.03125 1.875 6.511719 1.875 Z M 6.511719 1.875 "
         id="path52" />
      <g
         clip-path="url(#clip-4)"
         id="g56">
        <path
           fill="none"
           stroke-width="3"
           stroke-linecap="butt"
           stroke-linejoin="miter"
           stroke="rgb(0%, 0%, 0%)"
           stroke-opacity="1"
           stroke-miterlimit="4"
           d="M 30.182293 83.000004 L 58.578128 83.000004 C 59.218753 83.000004 59.828128 83.119795 60.416669 83.364587 C 61.005211 83.609379 61.526044 83.958337 61.973961 84.406254 C 62.421878 84.85417 62.770836 85.375004 63.015628 85.963545 C 63.260419 86.552087 63.380211 87.161462 63.380211 87.802087 L 63.380211 110.197921 C 63.380211 110.838546 63.260419 111.447921 63.015628 112.036463 C 62.770836 112.625005 62.421878 113.145838 61.973961 113.593755 C 61.526044 114.041672 61.005211 114.39063 60.416669 114.635422 C 59.828128 114.880213 59.218753 115.000005 58.578128 115.000005 L 30.182293 115.000005 C 29.541668 115.000005 28.932293 114.880213 28.343751 114.635422 C 27.75521 114.39063 27.234376 114.041672 26.78646 113.593755 C 26.333335 113.145838 25.989585 112.625005 25.744793 112.036463 C 25.500001 111.447921 25.380209 110.838546 25.380209 110.197921 L 25.380209 87.802087 C 25.380209 87.161462 25.500001 86.552087 25.744793 85.963545 C 25.989585 85.375004 26.333335 84.85417 26.78646 84.406254 C 27.234376 83.958337 27.75521 83.609379 28.343751 83.364587 C 28.932293 83.119795 29.541668 83.000004 30.182293 83.000004 Z M 30.182293 83.000004 "
           transform="matrix(0.75, 0, 0, 0.75, -16.125, -60.375)"
           id="path54" />
      </g>
    </g>
  </defs>
  <path
     fill="none"
     stroke-width="2"
     stroke-linecap="butt"
     stroke-linejoin="miter"
     stroke="rgb(67.059326%, 27.839661%, 73.728943%)"
     stroke-opacity="1"
     stroke-miterlimit="10"
     d="M 156.630215 46.000002 C 156.630215 46.000002 156.630215 71.421878 156.630215 122.260422 "
     transform="matrix(0.75, 0, 0, 0.75, 0, 0)"
     id="path61" />
  <path
     fill-rule="nonzero"
     fill="rgb(67.059326%, 27.839661%, 73.728943%)"
     fill-opacity="1"
     stroke-width="2"
     stroke-linecap="butt"
     stroke-linejoin="miter"
     stroke="rgb(67.059326%, 27.839661%, 73.728943%)"
     stroke-opacity="1"
     stroke-miterlimit="10"
     d="M 156.630215 129.760422 L 151.630215 119.760422 L 156.630215 122.260422 L 161.630215 119.760422 Z M 156.630215 129.760422 "
     transform="matrix(0.75, 0, 0, 0.75, 0, 0)"
     id="path63" />
  <path
     fill-rule="nonzero"
     fill="rgb(100%, 100%, 100%)"
     fill-opacity="1"
     stroke-width="2"
     stroke-linecap="butt"
     stroke-linejoin="miter"
     stroke="rgb(67.059326%, 27.839661%, 73.728943%)"
     stroke-opacity="1"
     stroke-miterlimit="4"
     d="M 140.630214 274.000011 L 172.630216 274.000011 L 172.630216 306.000013 L 140.630214 306.000013 Z M 140.630214 274.000011 "
     transform="matrix(0.75, 0, 0, 0.75, 0, 0)"
     id="path65" />
  <path
     fill-rule="nonzero"
     fill="rgb(0%, 0%, 0%)"
     fill-opacity="1"
     stroke-width="9.279794"
     stroke-linecap="butt"
     stroke-linejoin="miter"
     stroke="rgb(0%, 0%, 0%)"
     stroke-opacity="0.16"
     stroke-miterlimit="4"
     d="M 51.919676 288.855771 C 56.752902 316.92869 74.575423 349.32052 105.991392 386.031261 C 137.407361 422.742002 176.073169 441.25162 221.988816 441.868607 C 245.248716 441.868607 266.696157 436.007228 286.029061 423.975977 C 305.361965 411.944726 319.559566 397.137032 328.923941 378.935908 C 357.017068 420.891041 390.547573 441.868607 430.119611 441.868607 C 454.587818 441.868607 476.035258 434.773254 493.857779 419.96556 C 511.982377 405.46636 521.346752 385.722768 521.950905 361.043278 C 521.950905 341.60818 517.419756 325.875005 508.05538 314.152248 C 498.691005 302.120996 489.628706 294.717149 480.868484 291.940707 C 472.410339 289.472758 464.556346 287.93029 457.910661 287.93029 C 445.223442 287.93029 434.952837 291.632213 427.098845 299.03606 C 418.942776 306.439907 415.01578 316.003209 415.01578 328.034461 C 415.01578 358.575329 431.629994 379.552895 464.858423 390.967159 C 457.608584 399.604981 444.317212 403.923891 424.984308 403.923891 C 416.224086 403.923891 409.880477 403.306904 405.953481 402.07293 C 380.579044 391.275653 361.850294 369.372606 350.069305 336.055295 C 309.893114 188.595344 289.956057 102.525623 289.956057 77.846133 C 289.956057 59.336516 295.393436 46.07129 305.966118 38.050456 C 316.5388 30.029622 328.319788 26.019205 341.007006 26.019205 C 365.77729 26.019205 389.94342 37.124975 414.10955 59.028022 C 437.973603 80.93107 454.285741 108.078508 463.045963 139.853351 C 464.858423 146.640211 466.972959 150.342134 469.087496 150.959122 C 470.899955 151.576109 476.337335 152.193096 485.097557 153.118577 L 489.024553 153.118577 C 498.993082 153.118577 504.128384 150.342134 504.128384 145.097743 C 504.128384 144.480756 503.222154 140.778832 502.013848 133.991973 C 491.441166 96.047257 470.597879 62.421452 440.08814 33.114558 C 409.276324 3.807664 373.631282 -11.00003 332.850938 -11.00003 C 286.331137 -11.00003 250.988172 9.977537 227.124119 51.932669 C 199.635146 10.594524 168.219177 -10.074549 132.876211 -10.074549 L 127.136755 -10.074549 C 94.210403 -10.074549 70.950503 -1.436727 57.054978 16.147409 C 42.857377 33.423052 35.607538 51.624176 35.003385 71.059274 C 35.003385 92.345334 41.346994 109.620976 54.034212 122.886202 C 66.72143 136.459921 81.523185 142.938288 99.043629 142.938288 C 127.740909 142.938288 141.93851 129.056075 141.93851 100.983155 C 141.93851 87.717929 138.011514 75.995172 129.855445 66.123376 C 122.001453 55.943086 114.449537 49.46472 106.897622 46.07129 C 99.647783 42.677861 95.41871 41.135392 93.908327 41.135392 L 90.88756 39.901418 C 90.88756 39.284431 93.002097 38.050456 96.929093 35.891001 C 100.856089 34.040039 106.293468 31.57209 112.939154 29.104141 C 119.58484 26.327699 125.928449 25.402218 131.969981 26.019205 C 156.136112 26.019205 176.677322 41.135392 193.89569 71.059274 C 199.937222 81.548057 207.791215 104.376585 216.853513 138.92787 C 226.217889 173.78765 235.582264 209.57291 244.946639 246.900638 C 254.311015 284.228366 259.748394 306.439907 260.956701 312.918273 C 264.279544 331.119397 266.092003 344.076129 266.092003 352.096963 C 266.092003 370.60658 260.956701 383.871806 250.988172 391.89264 C 241.019643 399.913474 229.540732 403.923891 216.853513 403.923891 C 190.27077 403.923891 165.19841 393.435108 141.93851 372.149048 C 118.67861 350.554495 102.366472 323.407056 93.002097 290.089745 C 91.79379 283.919873 89.981331 280.526443 87.866794 279.909456 C 86.054334 279.292468 80.616955 278.675481 71.856733 278.058494 L 57.961208 278.058494 C 54.034212 282.068911 51.919676 285.770834 51.919676 288.855771 Z M 51.919676 288.855771 "
     transform="matrix(0.0129313, 0, 0, -0.0126623, 111.000485, 222.610714)"
     id="path67" />
  <path
     fill-rule="nonzero"
     fill="rgb(0%, 0%, 0%)"
     fill-opacity="1"
     stroke-width="13.125592"
     stroke-linecap="butt"
     stroke-linejoin="miter"
     stroke="rgb(0%, 0%, 0%)"
     stroke-opacity="0.1131"
     stroke-miterlimit="4"
     d="M 79.074073 43.046216 C 74.801419 43.046216 65.828846 44.791583 52.156355 49.155 C 38.056598 53.082075 30.793087 57.009151 29.938556 60.936226 C 29.938556 65.735985 48.310967 142.968468 85.055788 293.070016 C 121.800608 443.171564 141.88208 521.27673 146.154734 527.821856 C 155.981837 549.2026 173.499717 560.111142 197.853842 560.111142 C 211.526334 560.111142 225.198825 554.875042 240.153113 544.839183 C 254.680135 534.803323 261.943646 520.404047 261.943646 501.205012 C 261.943646 497.714278 261.516381 492.478177 259.807319 485.933052 C 259.380054 481.133293 230.32601 406.955202 173.072451 262.962438 C 115.818893 118.969674 85.910318 46.53695 84.201257 44.791583 C 82.06493 43.482558 80.355869 43.046216 79.074073 43.046216 Z M 79.074073 43.046216 "
     transform="matrix(0.00914244, 0, 0, -0.00895227, 118.823945, 218.014268)"
     id="path69" />
  <path
     fill-rule="nonzero"
     fill="rgb(0%, 0%, 0%)"
     fill-opacity="1"
     stroke-width="13.125592"
     stroke-linecap="butt"
     stroke-linejoin="miter"
     stroke="rgb(0%, 0%, 0%)"
     stroke-opacity="0.1131"
     stroke-miterlimit="4"
     d="M 78.805923 43.046216 C 74.960534 43.046216 65.987962 44.791583 51.888205 49.155 C 37.788448 53.082075 30.524937 57.009151 30.097672 60.936226 C 30.097672 65.735985 48.470082 142.968468 84.787638 293.070016 C 121.532459 443.171564 142.041196 521.27673 145.886584 527.821856 C 156.140953 549.2026 173.231567 560.111142 198.012958 560.111142 C 211.258184 560.111142 225.357941 554.875042 239.884963 544.839183 C 254.83925 534.803323 262.102762 520.404047 262.102762 501.205012 C 262.102762 497.714278 261.248231 492.478177 259.966435 485.933052 C 259.539169 481.133293 230.485125 406.955202 172.804302 262.962438 C 115.550744 118.969674 86.069434 46.53695 83.933107 44.791583 C 81.79678 43.482558 80.514984 43.046216 78.805923 43.046216 Z M 78.805923 43.046216 "
     transform="matrix(0.00914244, 0, 0, -0.00895227, 121.338115, 218.014268)"
     id="path71" />
  <path
     fill="none"
     stroke-width="2"
     stroke-linecap="butt"
     stroke-linejoin="miter"
     stroke="rgb(67.059326%, 27.839661%, 73.728943%)"
     stroke-opacity="1"
     stroke-miterlimit="10"
     d="M 156.630215 180.000008 C 156.630215 180.000008 156.630215 205.421884 156.630215 256.260427 "
     transform="matrix(0.75, 0, 0, 0.75, 0, 0)"
     id="path73" />
  <path
     fill-rule="nonzero"
     fill="rgb(67.059326%, 27.839661%, 73.728943%)"
     fill-opacity="1"
     stroke-width="2"
     stroke-linecap="butt"
     stroke-linejoin="miter"
     stroke="rgb(67.059326%, 27.839661%, 73.728943%)"
     stroke-opacity="1"
     stroke-miterlimit="10"
     d="M 156.630215 263.760428 L 151.630215 253.760427 L 156.630215 256.260427 L 161.630215 253.760427 Z M 156.630215 263.760428 "
     transform="matrix(0.75, 0, 0, 0.75, 0, 0)"
     id="path75" />
  <path
     fill-rule="nonzero"
     fill="rgb(100%, 100%, 100%)"
     fill-opacity="1"
     stroke-width="2"
     stroke-linecap="butt"
     stroke-linejoin="miter"
     stroke="rgb(39.99939%, 73.329163%, 41.569519%)"
     stroke-opacity="1"
     stroke-miterlimit="4"
     d="M 28.38021 273.999987 L 60.380211 273.999987 L 60.380211 305.999989 L 28.38021 305.999989 Z M 28.38021 273.999987 "
     transform="matrix(0.75, 0, 0, -0.75, 0, 434.999982)"
     id="path77" />
  <path
     fill-rule="nonzero"
     fill="rgb(0%, 0%, 0%)"
     fill-opacity="1"
     stroke-width="9.476924"
     stroke-linecap="butt"
     stroke-linejoin="miter"
     stroke="rgb(0%, 0%, 0%)"
     stroke-opacity="0.1575"
     stroke-miterlimit="4"
     d="M 173.116357 379.861389 C 173.116357 396.520045 166.57349 404.849372 154.110887 404.849372 C 137.909503 404.849372 121.396554 395.28607 103.948909 375.850972 C 86.81283 356.724367 72.480836 327.10898 60.952928 287.004809 C 60.329798 286.387822 59.706668 285.462341 59.083538 283.919873 C 58.460408 282.685898 58.148842 281.760417 58.148842 281.14343 C 58.148842 280.217949 57.214147 279.600962 55.967887 278.983975 C 54.721627 278.366987 53.786931 278.058494 52.852236 278.058494 C 52.229106 278.058494 50.982846 278.058494 49.113455 278.058494 C 46.9325 278.058494 44.439979 278.058494 41.012763 278.058494 L 26.992334 278.058494 C 22.941988 282.068911 21.072598 285.153847 21.072598 287.004809 C 21.072598 291.632213 23.565118 301.195515 28.861725 316.003209 C 34.469896 330.810903 42.259023 348.086546 52.852236 368.138631 C 63.757014 387.882223 78.400573 404.849372 97.094477 419.040079 C 115.788382 432.922292 136.663243 440.326139 160.030624 440.943126 C 188.071481 440.943126 209.569472 432.922292 225.147726 416.880624 C 240.414415 401.147449 248.203542 382.329338 249.138237 361.043278 C 249.138237 349.629014 247.891976 340.991193 246.022586 335.129814 C 246.022586 331.119397 241.037545 316.311703 231.067462 291.015226 C 221.09738 265.718749 210.815732 236.103361 199.910954 201.860569 C 189.317741 167.926271 183.398005 138.310883 182.151744 113.014406 C 182.151744 95.121776 183.70957 80.314082 187.136786 68.899818 C 195.549043 40.209912 216.735468 26.019205 250.072932 26.019205 C 274.686573 26.019205 297.742389 37.433469 318.928815 59.953503 C 340.426805 82.782031 356.939755 109.003989 369.090793 138.92787 C 380.930266 168.851752 390.588783 196.616178 398.066345 221.912655 C 405.232342 247.209132 408.971123 265.718749 408.971123 277.133013 C 408.971123 292.2492 406.478602 305.514426 400.870431 316.92869 C 395.573825 328.342954 389.654088 336.980776 383.111221 343.150648 C 376.25679 349.012027 370.337053 354.873406 365.040447 361.043278 C 359.74384 366.904657 356.939755 374.308504 356.939755 382.946325 C 356.939755 397.754019 363.482621 411.327738 375.945225 423.975977 C 388.719393 436.624215 402.428256 443.102581 417.071815 443.102581 C 429.534418 443.102581 441.062326 436.932709 451.032409 424.901458 C 461.002491 412.870206 466.299098 393.743602 466.922228 366.904657 C 466.922228 349.012027 462.871882 321.247601 455.082755 283.919873 C 446.982063 246.592144 434.51946 204.945505 418.00651 158.979956 C 401.181996 113.014406 377.814615 73.218729 346.969672 39.901418 C 316.436294 6.584107 280.917875 -10.383042 241.037545 -11.00003 C 198.353129 -11.00003 164.392535 0.105741 139.155763 22.008788 C 114.230557 43.294848 102.079519 75.069691 102.079519 117.024823 C 102.079519 137.693896 104.572039 158.979956 109.868646 180.883003 C 115.476817 203.094544 128.874116 241.96474 150.995236 298.110579 C 165.638795 340.682699 173.116357 368.138631 173.116357 379.861389 Z M 173.116357 379.861389 "
     transform="matrix(0.0125375, 0, 0, -0.0126623, 27.001427, 222.610714)"
     id="path79" />
  <path
     fill-rule="nonzero"
     fill="rgb(0%, 0%, 0%)"
     fill-opacity="1"
     stroke-width="13.404417"
     stroke-linecap="butt"
     stroke-linejoin="miter"
     stroke="rgb(0%, 0%, 0%)"
     stroke-opacity="0.1114"
     stroke-miterlimit="4"
     d="M 78.909673 43.046216 C 74.943498 43.046216 66.129776 44.791583 52.027821 49.155 C 37.925866 53.082075 30.874889 57.009151 29.993516 60.936226 C 29.993516 65.735985 48.502332 142.968468 85.079278 293.070016 C 121.656224 443.171564 141.927784 521.27673 145.893959 527.821856 C 156.029739 549.2026 173.216496 560.111142 197.894918 560.111142 C 211.1155 560.111142 225.217455 554.875042 240.200783 544.839183 C 254.743424 534.803323 261.794401 520.404047 261.794401 501.205012 C 261.794401 497.714278 261.353715 492.478177 260.031657 485.933052 C 259.150285 481.133293 230.505689 406.955202 173.216496 262.962438 C 115.486618 118.969674 85.96065 46.53695 84.197906 44.791583 C 81.994475 43.482558 80.231731 43.046216 78.909673 43.046216 Z M 78.909673 43.046216 "
     transform="matrix(0.00886402, 0, 0, -0.00895227, 33.495856, 218.014268)"
     id="path81" />
  <path
     fill-rule="nonzero"
     fill="rgb(0%, 0%, 0%)"
     fill-opacity="1"
     stroke-width="13.404417"
     stroke-linecap="butt"
     stroke-linejoin="miter"
     stroke="rgb(0%, 0%, 0%)"
     stroke-opacity="0.1114"
     stroke-miterlimit="4"
     d="M 78.897717 43.046216 C 74.931542 43.046216 66.11782 44.791583 52.015865 49.155 C 37.91391 53.082075 30.862933 57.009151 29.98156 60.936226 C 29.98156 65.735985 48.490376 142.968468 85.067322 293.070016 C 121.644268 443.171564 141.915828 521.27673 145.882003 527.821856 C 156.017783 549.2026 173.20454 560.111142 197.882962 560.111142 C 211.54423 560.111142 225.205499 554.875042 240.188827 544.839183 C 254.731468 534.803323 261.782445 520.404047 261.782445 501.205012 C 261.782445 497.714278 261.341759 492.478177 260.019701 485.933052 C 259.138329 481.133293 230.493732 406.955202 173.20454 262.962438 C 115.474662 118.969674 85.948694 46.53695 84.18595 44.791583 C 81.982519 43.482558 80.219775 43.046216 78.897717 43.046216 Z M 78.897717 43.046216 "
     transform="matrix(0.00886402, 0, 0, -0.00895227, 35.933462, 218.014268)"
     id="path83" />
  <path
     fill="none"
     stroke-width="2"
     stroke-linecap="butt"
     stroke-linejoin="miter"
     stroke="rgb(39.99939%, 73.329163%, 41.569519%)"
     stroke-opacity="1"
     stroke-miterlimit="10"
     d="M 44.38021 229.00001 C 44.38021 229.00001 44.38021 240.755218 44.38021 264.260428 "
     transform="matrix(0.75, 0, 0, 0.75, 0, 0)"
     id="path85" />
  <path
     fill-rule="nonzero"
     fill="rgb(39.99939%, 73.329163%, 41.569519%)"
     fill-opacity="1"
     stroke-width="2"
     stroke-linecap="butt"
     stroke-linejoin="miter"
     stroke="rgb(39.99939%, 73.329163%, 41.569519%)"
     stroke-opacity="1"
     stroke-miterlimit="10"
     d="M 44.38021 271.760428 L 39.38021 261.760428 L 44.38021 264.260428 L 49.38021 261.760428 Z M 44.38021 271.760428 "
     transform="matrix(0.75, 0, 0, 0.75, 0, 0)"
     id="path87" />
  <path
     fill="none"
     stroke-width="2"
     stroke-linecap="butt"
     stroke-linejoin="miter"
     stroke="rgb(39.99939%, 73.329163%, 41.569519%)"
     stroke-opacity="1"
     stroke-miterlimit="10"
     d="M 44.38021 38.000002 C 44.38021 38.000002 44.38021 49.75521 44.38021 73.26042 "
     transform="matrix(0.75, 0, 0, 0.75, 0, 0)"
     id="path89" />
  <path
     fill-rule="nonzero"
     fill="rgb(39.99939%, 73.329163%, 41.569519%)"
     fill-opacity="1"
     stroke-width="2"
     stroke-linecap="butt"
     stroke-linejoin="miter"
     stroke="rgb(39.99939%, 73.329163%, 41.569519%)"
     stroke-opacity="1"
     stroke-miterlimit="10"
     d="M 44.38021 80.76042 L 39.38021 70.76042 L 44.38021 73.26042 L 49.38021 70.76042 Z M 44.38021 80.76042 "
     transform="matrix(0.75, 0, 0, 0.75, 0, 0)"
     id="path91" />
  <path
     fill-rule="nonzero"
     fill="rgb(67.059326%, 27.839661%, 73.728943%)"
     fill-opacity="1"
     d="M 105.898438 25.351563 L 102.269531 27.84375 L 101.417969 26.605469 L 105.046875 24.117188 Z M 98.492188 30.433594 L 94.941406 32.867188 L 94.09375 31.628906 L 97.644531 29.195313 Z M 91.207031 35.429688 L 87.488281 37.980469 L 86.640625 36.742188 L 90.359375 34.191406 Z M 83.773438 40.53125 L 80.109375 43.042969 L 79.257813 41.804688 L 82.921875 39.292969 Z M 76.246094 45.691406 L 72.691406 48.128906 L 71.84375 46.890625 L 75.398438 44.457031 Z M 68.941406 50.703125 L 65.140625 53.308594 L 64.292969 52.070313 L 68.089844 49.464844 Z M 61.558594 55.765625 L 57.824219 58.328125 L 56.976563 57.089844 L 60.710938 54.527344 Z M 61.558594 55.765625 "
     id="path93" />
  <path
     fill-rule="nonzero"
     fill="rgb(67.059326%, 27.839661%, 73.728943%)"
     fill-opacity="1"
     stroke-width="2"
     stroke-linecap="butt"
     stroke-linejoin="miter"
     stroke="rgb(67.059326%, 27.839661%, 73.728943%)"
     stroke-opacity="1"
     stroke-miterlimit="10"
     d="M 65.218753 84.69792 L 70.640628 74.921878 L 71.411461 80.458337 L 76.302087 83.171878 Z M 65.218753 84.69792 "
     transform="matrix(0.75, 0, 0, 0.75, 0, 0)"
     id="path95" />
  <g
     mask="url(#mask-0)"
     id="g99">
    <use
       xlink:href="#source-5"
       transform="translate(103,106)"
       id="use97" />
  </g>
  <path
     fill-rule="nonzero"
     fill="rgb(100%, 100%, 100%)"
     fill-opacity="1"
     stroke-width="3"
     stroke-linecap="butt"
     stroke-linejoin="miter"
     stroke="rgb(100%, 65.489197%, 14.898682%)"
     stroke-opacity="1"
     stroke-miterlimit="4"
     d="M 142.432298 140.000006 L 170.828132 140.000006 C 171.468757 140.000006 172.078132 140.119798 172.666674 140.364589 C 173.255216 140.609381 173.776049 140.958339 174.223966 141.406256 C 174.671882 141.854173 175.020841 142.375006 175.265632 142.963548 C 175.510424 143.552089 175.630216 144.161464 175.630216 144.802089 L 175.630216 167.197924 C 175.630216 167.838549 175.510424 168.447924 175.265632 169.036465 C 175.020841 169.625007 174.671882 170.14584 174.223966 170.593757 C 173.776049 171.041674 173.255216 171.390632 172.666674 171.635424 C 172.078132 171.880216 171.468757 172.000007 170.828132 172.000007 L 142.432298 172.000007 C 141.791673 172.000007 141.182298 171.880216 140.593756 171.635424 C 140.005214 171.390632 139.484381 171.041674 139.036464 170.593757 C 138.583339 170.14584 138.239589 169.625007 137.994797 169.036465 C 137.750006 168.447924 137.630214 167.838549 137.630214 167.197924 L 137.630214 144.802089 C 137.630214 144.161464 137.750006 143.552089 137.994797 142.963548 C 138.239589 142.375006 138.583339 141.854173 139.036464 141.406256 C 139.484381 140.958339 140.005214 140.609381 140.593756 140.364589 C 141.182298 140.119798 141.791673 140.000006 142.432298 140.000006 Z M 142.432298 140.000006 "
     transform="matrix(0.75, 0, 0, 0.75, 0.375, 0.375)"
     id="path101" />
  <path
     fill-rule="nonzero"
     fill="rgb(0%, 0%, 0%)"
     fill-opacity="1"
     stroke-width="7.934055"
     stroke-linecap="butt"
     stroke-linejoin="miter"
     stroke="rgb(0%, 0%, 0%)"
     stroke-opacity="0.1862"
     stroke-miterlimit="4"
     d="M 319.881642 708.008618 C 324.013962 713.335999 330.728982 715.999689 340.026702 715.999689 L 355.006362 715.999689 C 363.012732 715.999689 368.694672 713.335999 372.052182 708.008618 C 373.343532 706.676772 390.389353 652.870222 422.931373 547.121704 C 455.731663 441.106817 489.048494 334.026453 522.881864 225.880614 C 556.973505 118.001143 574.277595 63.395485 575.052405 62.06364 C 578.926455 55.404413 584.350125 51.408878 591.065145 50.077032 C 597.780165 48.745187 611.985015 47.413342 633.937966 46.081496 L 661.056316 46.081496 L 661.056316 -0.000351607 L 653.049946 -0.000351607 C 647.109736 2.130601 606.561345 2.929708 531.921314 2.929708 C 451.341073 2.929708 404.077663 2.130601 389.872813 -0.000351607 L 379.025472 -0.000351607 L 379.025472 46.081496 L 391.938973 46.081496 C 439.977193 46.081496 463.996304 52.207985 463.996304 64.9937 C 463.221493 68.456498 438.685843 148.367216 389.872813 304.992225 C 341.318052 461.617234 316.782402 539.66337 316.007592 539.130632 L 246.016421 315.913357 C 200.04436 168.611265 177.05833 91.364237 177.05833 83.905903 C 177.05833 75.914831 184.03162 67.65739 197.9782 58.867211 C 211.92478 50.343401 228.71233 46.081496 248.082581 46.081496 L 252.989711 46.081496 L 252.989711 -0.000351607 L 244.983341 -0.000351607 C 234.910811 2.130601 196.68685 2.929708 130.053189 2.929708 C 74.783408 2.929708 44.049278 2.130601 38.109068 -0.000351607 L 31.910588 -0.000351607 L 31.910588 46.081496 L 45.082358 46.081496 C 89.763069 49.277925 116.881419 64.460962 126.953949 91.097868 C 127.728759 91.630606 160.01251 194.449064 224.06347 399.020505 C 288.114431 603.591945 319.881642 706.676772 319.881642 708.008618 Z M 319.881642 708.008618 "
     transform="matrix(0.0151247, 0, 0, -0.0146648, 112.501738, 123.749995)"
     id="path103" />
  <g
     mask="url(#mask-1)"
     id="g107">
    <use
       xlink:href="#source-8"
       transform="translate(18,148)"
       id="use105" />
  </g>
  <path
     fill-rule="nonzero"
     fill="rgb(100%, 100%, 100%)"
     fill-opacity="1"
     stroke-width="3"
     stroke-linecap="butt"
     stroke-linejoin="miter"
     stroke="rgb(92.549133%, 25.099182%, 47.839355%)"
     stroke-opacity="1"
     stroke-miterlimit="4"
     d="M 30.182293 197.000008 L 58.578127 197.000008 C 59.218752 197.000008 59.828128 197.1198 60.416669 197.364592 C 61.005211 197.609383 61.526044 197.958342 61.973961 198.406258 C 62.421878 198.854175 62.770836 199.375008 63.015628 199.96355 C 63.260419 200.552092 63.380211 201.161467 63.380211 201.802092 L 63.380211 224.197926 C 63.380211 224.838551 63.260419 225.447926 63.015628 226.036468 C 62.770836 226.625009 62.421878 227.145843 61.973961 227.59376 C 61.526044 228.041676 61.005211 228.390635 60.416669 228.635426 C 59.828128 228.880218 59.218752 229.00001 58.578127 229.00001 L 30.182293 229.00001 C 29.541668 229.00001 28.932293 228.880218 28.343751 228.635426 C 27.75521 228.390635 27.234376 228.041676 26.786459 227.59376 C 26.333334 227.145843 25.989584 226.625009 25.744793 226.036468 C 25.500001 225.447926 25.380209 224.838551 25.380209 224.197926 L 25.380209 201.802092 C 25.380209 201.161467 25.500001 200.552092 25.744793 199.96355 C 25.989584 199.375008 26.333334 198.854175 26.786459 198.406258 C 27.234376 197.958342 27.75521 197.609383 28.343751 197.364592 C 28.932293 197.1198 29.541668 197.000008 30.182293 197.000008 Z M 30.182293 197.000008 "
     transform="matrix(0.75, 0, 0, 0.75, 0.375, 0.375)"
     id="path109" />
  <path
     fill-rule="nonzero"
     fill="rgb(0%, 0%, 0%)"
     fill-opacity="1"
     stroke-width="8.33531"
     stroke-linecap="butt"
     stroke-linejoin="miter"
     stroke="rgb(0%, 0%, 0%)"
     stroke-opacity="0.1796"
     stroke-miterlimit="4"
     d="M 127.994501 618.973933 C 123.381862 623.605343 119.583218 626.602138 116.8699 627.964318 C 114.427915 629.326498 109.001281 630.416241 101.132661 630.961113 C 92.99271 631.778421 78.612129 632.595729 57.990918 633.957908 L 24.888449 633.957908 L 24.888449 679.999579 L 553.985292 679.999579 L 553.985292 675.91304 C 555.341951 672.098938 559.95459 633.413037 568.094541 560.127773 C 575.963161 486.570074 580.5758 447.884173 581.932459 444.07007 L 581.932459 439.983531 L 542.046697 439.983531 L 542.046697 444.07007 C 542.046697 444.614942 540.690038 456.057251 537.976721 478.124561 C 535.263404 499.919434 530.379433 522.25918 523.053477 544.871362 C 515.72752 567.755979 505.416915 585.464314 492.121661 597.996367 C 466.61648 621.970728 419.13343 633.957908 349.129848 633.957908 L 333.935272 633.957908 C 287.266217 633.957908 259.047719 633.685472 249.008445 632.868165 C 238.969172 632.323293 233.542538 628.236754 232.999874 620.880984 C 232.457211 618.973933 231.914547 524.983539 231.914547 338.909804 L 232.999874 61.025163 C 237.612513 56.393752 241.682489 53.396957 244.938469 52.034777 C 248.465782 50.672598 256.605733 49.310418 269.900987 47.948239 C 283.467573 46.586059 304.360115 46.041187 333.121277 46.041187 L 359.983116 46.041187 L 359.983116 -0.000483846 L 348.044521 -0.000483846 C 332.03595 1.906568 276.68428 2.996311 181.989512 2.996311 C 94.6207 2.996311 46.052323 1.906568 36.01305 -0.000483846 L 24.888449 -0.000483846 L 24.888449 46.041187 L 57.990918 46.041187 C 85.938085 46.586059 103.031983 47.675803 109.001281 49.037982 C 114.970578 50.400162 121.211208 54.214265 127.994501 61.025163 Z M 127.994501 618.973933 "
     transform="matrix(0.0143966, 0, 0, -0.0143382, 28.501066, 166.499993)"
     id="path111" />
  <path
     fill-rule="nonzero"
     fill="rgb(39.99939%, 73.329163%, 41.569519%)"
     fill-opacity="1"
     d="M 53.875 83.863281 L 57.746094 85.828125 L 57.066406 87.167969 L 53.195313 85.203125 Z M 61.773438 87.875 L 65.765625 89.902344 L 65.085938 91.238281 L 61.09375 89.210938 Z M 69.820313 91.960938 L 73.871094 94.015625 L 73.191406 95.355469 L 69.140625 93.296875 Z M 77.808594 96.015625 L 81.933594 98.109375 L 81.253906 99.449219 L 77.128906 97.355469 Z M 85.832031 100.089844 L 89.921875 102.167969 L 89.246094 103.503906 L 85.152344 101.429688 Z M 85.832031 100.089844 "
     id="path113" />
  <path
     fill-rule="nonzero"
     fill="rgb(39.99939%, 73.329163%, 41.569519%)"
     fill-opacity="1"
     stroke-width="2"
     stroke-linecap="butt"
     stroke-linejoin="miter"
     stroke="rgb(39.99939%, 73.329163%, 41.569519%)"
     stroke-opacity="1"
     stroke-miterlimit="10"
     d="M 127.64063 141.281256 L 116.458338 141.208339 L 120.947922 137.880214 L 120.979172 132.291672 Z M 127.64063 141.281256 "
     transform="matrix(0.75, 0, 0, 0.75, 0, 0)"
     id="path115" />
  <path
     fill="none"
     stroke-width="2"
     stroke-linecap="butt"
     stroke-linejoin="miter"
     stroke="rgb(39.99939%, 73.329163%, 41.569519%)"
     stroke-opacity="1"
     stroke-miterlimit="10"
     d="M 44.38021 115.000005 C 44.38021 115.000005 44.38021 139.088547 44.38021 187.260424 "
     transform="matrix(0.75, 0, 0, 0.75, 0, 0)"
     id="path117" />
  <path
     fill-rule="nonzero"
     fill="rgb(39.99939%, 73.329163%, 41.569519%)"
     fill-opacity="1"
     stroke-width="2"
     stroke-linecap="butt"
     stroke-linejoin="miter"
     stroke="rgb(39.99939%, 73.329163%, 41.569519%)"
     stroke-opacity="1"
     stroke-miterlimit="10"
     d="M 44.38021 194.760425 L 39.38021 184.760424 L 44.38021 187.260424 L 49.38021 184.760424 Z M 44.38021 194.760425 "
     transform="matrix(0.75, 0, 0, 0.75, 0, 0)"
     id="path119" />
  <path
     fill-rule="nonzero"
     fill="rgb(67.059326%, 27.839661%, 73.728943%)"
     fill-opacity="1"
     d="M 97.5625 127.953125 L 93.691406 129.917969 L 93.011719 128.578125 L 96.882813 126.613281 Z M 89.660156 131.960938 L 85.667969 133.988281 L 84.992188 132.652344 L 88.984375 130.625 Z M 81.617188 136.046875 L 77.566406 138.105469 L 76.886719 136.765625 L 80.9375 134.710938 Z M 73.628906 140.105469 L 69.503906 142.199219 L 68.824219 140.859375 L 72.949219 138.765625 Z M 65.605469 144.179688 L 61.511719 146.253906 L 60.832031 144.917969 L 64.925781 142.839844 Z M 65.605469 144.179688 "
     id="path121" />
  <path
     fill-rule="nonzero"
     fill="rgb(67.059326%, 27.839661%, 73.728943%)"
     fill-opacity="1"
     stroke-width="2"
     stroke-linecap="butt"
     stroke-linejoin="miter"
     stroke="rgb(67.059326%, 27.839661%, 73.728943%)"
     stroke-opacity="1"
     stroke-miterlimit="10"
     d="M 73.369795 198.281258 L 80.031253 189.291675 L 80.062503 194.880216 L 84.552087 198.208342 Z M 73.369795 198.281258 "
     transform="matrix(0.75, 0, 0, 0.75, 0, 0)"
     id="path123" />
  <g
     mask="url(#mask-2)"
     id="g127">
    <use
       xlink:href="#source-11"
       transform="translate(18,63)"
       id="use125" />
  </g>
  <path
     fill-rule="nonzero"
     fill="rgb(100%, 100%, 100%)"
     fill-opacity="1"
     stroke-width="3"
     stroke-linecap="butt"
     stroke-linejoin="miter"
     stroke="rgb(92.549133%, 25.099182%, 47.839355%)"
     stroke-opacity="1"
     stroke-miterlimit="4"
     d="M 30.182293 83.000003 L 58.578127 83.000003 C 59.218752 83.000003 59.828128 83.119795 60.416669 83.364587 C 61.005211 83.609379 61.526044 83.958337 61.973961 84.406254 C 62.421878 84.85417 62.770836 85.375004 63.015628 85.963545 C 63.260419 86.552087 63.380211 87.161462 63.380211 87.802087 L 63.380211 110.197921 C 63.380211 110.838546 63.260419 111.447921 63.015628 112.036463 C 62.770836 112.625005 62.421878 113.145838 61.973961 113.593755 C 61.526044 114.041671 61.005211 114.39063 60.416669 114.635421 C 59.828128 114.880213 59.218752 115.000005 58.578127 115.000005 L 30.182293 115.000005 C 29.541668 115.000005 28.932293 114.880213 28.343751 114.635421 C 27.75521 114.39063 27.234376 114.041671 26.786459 113.593755 C 26.333334 113.145838 25.989584 112.625005 25.744793 112.036463 C 25.500001 111.447921 25.380209 110.838546 25.380209 110.197921 L 25.380209 87.802087 C 25.380209 87.161462 25.500001 86.552087 25.744793 85.963545 C 25.989584 85.375004 26.333334 84.85417 26.786459 84.406254 C 27.234376 83.958337 27.75521 83.609379 28.343751 83.364587 C 28.932293 83.119795 29.541668 83.000003 30.182293 83.000003 Z M 30.182293 83.000003 "
     transform="matrix(0.75, 0, 0, 0.75, 0.375, 0.375)"
     id="path129" />
  <path
     fill-rule="nonzero"
     fill="rgb(0%, 0%, 0%)"
     fill-opacity="1"
     stroke-width="8.33531"
     stroke-linecap="butt"
     stroke-linejoin="miter"
     stroke="rgb(0%, 0%, 0%)"
     stroke-opacity="0.1796"
     stroke-miterlimit="4"
     d="M 127.994501 618.974181 C 123.381862 623.605592 119.583218 626.602387 116.8699 627.964567 C 114.427915 629.326746 109.001281 630.41649 101.132661 630.961362 C 92.99271 631.778669 78.612129 632.595977 57.990918 633.958157 L 24.888449 633.958157 L 24.888449 679.999828 L 553.985292 679.999828 L 553.985292 675.913289 C 555.341951 672.099186 559.95459 633.413285 568.094541 560.128022 C 575.963161 486.570323 580.5758 447.884422 581.932459 444.070319 L 581.932459 439.98378 L 542.046697 439.98378 L 542.046697 444.070319 C 542.046697 444.615191 540.690038 456.057499 537.976721 478.124809 C 535.263404 499.919683 530.379433 522.259429 523.053477 544.87161 C 515.72752 567.756228 505.416915 585.464563 492.121661 597.996615 C 466.61648 621.970976 419.13343 633.958157 349.129848 633.958157 L 333.935272 633.958157 C 287.266217 633.958157 259.047719 633.685721 249.008445 632.868413 C 238.969172 632.323541 233.542538 628.237002 232.999874 620.881233 C 232.457211 618.974181 231.914547 524.983788 231.914547 338.910052 L 232.999874 61.025411 C 237.612513 56.394001 241.682489 53.397205 244.938469 52.035026 C 248.465782 50.672846 256.605733 49.310667 269.900987 47.948487 C 283.467573 46.586307 304.360115 46.041436 333.121277 46.041436 L 359.983116 46.041436 L 359.983116 -0.000235385 L 348.044521 -0.000235385 C 332.03595 1.906816 276.68428 2.99656 181.989512 2.99656 C 94.6207 2.99656 46.052323 1.906816 36.01305 -0.000235385 L 24.888449 -0.000235385 L 24.888449 46.041436 L 57.990918 46.041436 C 85.938085 46.586307 103.031983 47.676051 109.001281 49.038231 C 114.970578 50.40041 121.211208 54.214513 127.994501 61.025411 Z M 127.994501 618.974181 "
     transform="matrix(0.0143966, 0, 0, -0.0143382, 28.501066, 80.999997)"
     id="path131" />
  <path
     fill-rule="nonzero"
     fill="rgb(100%, 100%, 100%)"
     fill-opacity="1"
     stroke-width="2"
     stroke-linecap="butt"
     stroke-linejoin="miter"
     stroke="rgb(67.059326%, 27.839661%, 73.728943%)"
     stroke-opacity="1"
     stroke-miterlimit="4"
     d="M 140.630214 6 L 172.630216 6 L 172.630216 38.000002 L 140.630214 38.000002 Z M 140.630214 6 "
     transform="matrix(0.75, 0, 0, 0.75, 0, 0)"
     id="path133" />
  <path
     fill-rule="nonzero"
     fill="rgb(0%, 0%, 0%)"
     fill-opacity="1"
     stroke-width="9.06"
     stroke-linecap="butt"
     stroke-linejoin="miter"
     stroke="rgb(0%, 0%, 0%)"
     stroke-opacity="0.1647"
     stroke-miterlimit="4"
     d="M 52.107482 288.935506 C 56.576772 316.953085 74.751885 349.394492 106.036916 385.964805 C 137.321946 422.535119 176.055794 441.410119 221.940506 441.999963 C 245.478767 441.999963 266.633407 436.101525 286.000331 424.009728 C 305.367255 411.917931 319.668983 396.876915 328.905516 378.88668 C 356.913067 421.060509 390.58172 441.999963 429.911473 441.999963 C 454.641545 441.999963 476.094137 434.626916 493.971298 419.880822 C 512.146411 405.42965 521.382944 385.669884 521.978849 360.896446 C 521.978849 341.726523 517.211606 326.095663 507.975073 314.003866 C 498.738541 301.912069 489.79996 294.539022 480.86138 291.884725 C 472.220752 289.230428 464.771936 288.050741 457.919024 288.050741 C 445.405012 288.050741 434.976668 291.589803 426.931946 298.96285 C 418.887224 306.335897 415.013839 316.068319 415.013839 327.865195 C 415.013839 358.53707 431.699189 379.771446 465.069888 390.978477 C 457.621071 399.531212 444.213201 403.95504 425.14423 403.95504 C 416.20565 403.95504 409.948644 403.365196 406.075259 401.890587 C 380.749281 391.273399 361.978263 369.44918 350.060156 336.123007 C 310.134498 188.662067 289.873716 102.544877 289.873716 78.066361 C 289.873716 59.19136 295.236864 45.919876 305.96316 37.956985 C 316.689456 29.994094 328.309611 25.865188 341.121576 25.865188 C 365.553695 25.865188 389.985814 37.072219 414.119981 58.896439 C 437.956195 81.01558 454.343592 107.853471 462.98422 139.999956 C 465.069888 146.783159 466.857604 150.322222 468.943273 150.912066 C 471.028942 151.796831 476.39209 152.386675 485.032717 152.976519 L 488.906102 152.976519 C 499.036493 152.976519 504.101689 150.322222 504.101689 145.013628 C 504.101689 144.423784 503.207831 140.5898 502.01602 134.101518 C 491.289724 96.056596 470.730989 62.435501 440.041864 32.943313 C 409.352738 3.746047 373.598417 -11.000047 333.076854 -11.000047 C 286.298284 -11.000047 251.139868 9.939406 227.005701 52.113235 C 199.594055 10.52925 168.309025 -10.115282 132.852656 -10.115282 L 126.893603 -10.115282 C 94.416761 -10.115282 70.8785 -1.267625 56.874724 16.132766 C 42.870949 33.238235 35.720084 51.523392 35.124179 70.988236 C 35.124179 92.222611 41.381185 109.623002 53.895198 122.894487 C 66.707163 136.460893 81.604796 142.949175 98.886051 142.949175 C 127.787461 142.949175 142.089189 129.087846 142.089189 101.070268 C 142.089189 87.798783 137.917852 76.001908 129.87313 65.974564 C 122.12636 55.94722 114.379591 49.458938 106.930774 45.919876 C 99.779909 42.675735 95.310619 40.906204 94.118809 40.906204 L 91.139282 40.021438 C 91.139282 39.431594 92.926998 37.956985 97.098335 35.892532 C 100.97172 34.123 106.334868 31.763625 112.889827 29.109329 C 119.742739 26.455032 125.999745 25.275344 131.958798 25.865188 C 156.092965 25.865188 176.651699 40.906204 193.932955 70.988236 C 199.892008 81.605423 207.638778 104.314408 216.875311 139.11519 C 226.409796 173.621051 235.646329 209.60152 244.882862 247.056599 C 254.417348 284.216756 259.780496 306.335897 260.972306 313.119101 C 264.249786 331.109335 266.037502 344.085898 266.037502 352.048789 C 266.037502 370.628868 260.972306 383.900352 251.139868 391.863243 C 241.009477 400.121056 229.687276 403.95504 216.875311 403.95504 C 190.357523 403.95504 165.329498 393.337853 142.089189 372.103477 C 118.550928 350.57418 102.461484 323.441367 92.926998 290.115194 C 91.735187 283.921834 89.947471 280.677694 87.861803 280.08785 C 86.074086 279.203084 80.710938 278.61324 72.070311 278.023397 L 58.066535 278.023397 C 53.895198 281.857381 52.107482 285.691366 52.107482 288.935506 Z M 52.107482 288.935506 "
     transform="matrix(0.0131103, 0, 0, -0.013245, 114.000449, 20.854304)"
     id="path135" />
  <path
     fill-rule="nonzero"
     fill="rgb(100%, 100%, 100%)"
     fill-opacity="1"
     stroke-width="2"
     stroke-linecap="butt"
     stroke-linejoin="miter"
     stroke="rgb(39.99939%, 73.329163%, 41.569519%)"
     stroke-opacity="1"
     stroke-miterlimit="4"
     d="M 28.38021 5.999998 L 60.380211 5.999998 L 60.380211 38 L 28.38021 38 Z M 28.38021 5.999998 "
     transform="matrix(0.75, 0, 0, -0.75, 0, 32.999999)"
     id="path137" />
  <path
     fill-rule="nonzero"
     fill="rgb(100%, 100%, 100%)"
     fill-opacity="1"
     d="M 30 7.5 L 36 7.5 L 36 26.25 L 30 26.25 Z M 30 7.5 "
     id="path139" />
  <path
     fill-rule="nonzero"
     fill="rgb(0%, 0%, 0%)"
     fill-opacity="1"
     stroke-width="9.090388"
     stroke-linecap="butt"
     stroke-linejoin="miter"
     stroke="rgb(0%, 0%, 0%)"
     stroke-opacity="0.1597"
     stroke-miterlimit="4"
     d="M 173.033952 379.934721 C 173.033952 396.801652 166.718847 405.087162 154.088639 405.087162 C 137.985124 405.087162 121.250098 395.322096 103.883562 376.087877 C 86.517026 356.557746 72.308042 326.96664 60.940855 287.018645 C 60.309345 286.426823 59.677834 285.243179 59.046324 284.059535 C 58.414813 282.579979 58.099058 281.692246 58.099058 281.100424 C 58.099058 280.212691 57.467548 279.620869 55.888772 279.029047 C 54.625751 278.437224 53.678485 278.141313 53.046975 278.141313 C 52.415465 278.141313 51.152444 278.141313 48.942157 278.141313 C 47.047626 278.141313 44.205829 278.141313 41.048277 278.141313 L 27.155048 278.141313 C 23.050231 281.988157 21.1557 284.947268 21.1557 287.018645 C 21.1557 291.753222 23.681741 301.222377 29.04958 316.01793 C 34.417418 330.813483 42.311298 347.976325 53.046975 368.098278 C 63.782652 387.92432 78.307391 405.087162 96.936948 418.994982 C 115.566505 432.902802 136.722103 440.300579 160.087988 440.892401 C 187.874446 440.892401 209.661555 432.902802 225.13356 416.923604 C 240.289809 400.944407 248.183689 382.302009 249.130955 360.996412 C 249.130955 349.751792 247.867934 340.87446 245.973403 334.956238 C 245.973403 331.109394 240.92132 316.313841 231.132909 290.865489 C 221.028742 265.713048 210.608821 236.121942 199.873144 202.092169 C 189.453222 168.062396 183.453873 138.471289 181.875097 113.022937 C 181.875097 94.972362 183.769628 80.47272 186.92718 68.932188 C 195.768326 40.228815 216.608169 26.025083 250.078221 26.025083 C 274.707126 26.025083 297.757256 37.269704 318.912855 60.054856 C 340.384208 82.544097 357.119234 108.880182 369.117932 139.063111 C 381.116629 168.950129 390.589285 196.76577 397.851655 221.91821 C 405.42978 247.366562 408.903087 265.713048 408.903087 276.957669 C 408.903087 292.345045 406.377045 305.661043 401.009207 316.905663 C 395.641369 328.446195 389.64202 337.027616 383.011161 342.945837 C 376.380301 348.864059 370.380953 355.078191 365.013114 360.996412 C 359.645276 366.914634 357.119234 374.31241 357.119234 382.893831 C 357.119234 397.689385 363.434338 411.301294 376.064546 424.02547 C 388.694754 436.749646 402.272228 442.963778 417.112722 442.963778 C 429.74293 442.963778 441.110118 437.045557 450.898529 424.913203 C 461.002695 413.07676 466.370534 393.54663 467.002044 366.914634 C 467.002044 348.864059 462.897227 321.344329 455.003347 284.059535 C 447.109467 246.77474 434.795014 205.051279 418.059988 158.889153 C 401.324962 113.022937 377.643322 73.370854 347.015068 39.932903 C 316.386813 6.790864 281.02223 -10.371978 240.92132 -10.9638 C 198.294368 -10.9638 164.192806 -0.0150907 138.93239 21.882328 C 114.303484 43.187925 101.989031 75.146321 101.989031 116.869781 C 101.989031 137.583556 104.515073 158.889153 109.882911 181.082483 C 115.25075 202.979902 129.143978 242.040163 150.931087 297.967355 C 165.771582 340.578549 173.033952 368.098278 173.033952 379.934721 Z M 173.033952 379.934721 "
     transform="matrix(0.0123711, 0, 0, -0.0132008, 29.999999, 20.851363)"
     id="path141" />
</svg>
