<?xml version="1.0" encoding="utf-8" standalone="no"?>
<!DOCTYPE svg PUBLIC "-//W3C//DTD SVG 1.1//EN"
  "http://www.w3.org/Graphics/SVG/1.1/DTD/svg11.dtd">
<svg xmlns:xlink="http://www.w3.org/1999/xlink" width="307.816715pt" height="229.566115pt" viewBox="0 0 307.816715 229.566115" xmlns="http://www.w3.org/2000/svg" version="1.1">
 <metadata>
  <rdf:RDF xmlns:dc="http://purl.org/dc/elements/1.1/" xmlns:cc="http://creativecommons.org/ns#" xmlns:rdf="http://www.w3.org/1999/02/22-rdf-syntax-ns#">
   <cc:Work>
    <dc:type rdf:resource="http://purl.org/dc/dcmitype/StillImage"/>
    <dc:date>2023-11-22T22:22:36.287327</dc:date>
    <dc:format>image/svg+xml</dc:format>
    <dc:creator>
     <cc:Agent>
      <dc:title>Matplotlib v3.8.2, https://matplotlib.org/</dc:title>
     </cc:Agent>
    </dc:creator>
   </cc:Work>
  </rdf:RDF>
 </metadata>
 <defs>
  <style type="text/css">*{stroke-linejoin: round; stroke-linecap: butt}</style>
 </defs>
 <g id="figure_1">
  <g id="patch_1">
   <path d="M 0 229.566115 
L 307.816715 229.566115 
L 307.816715 -0 
L 0 -0 
L 0 229.566115 
z
" style="fill: none"/>
  </g>
  <g id="axes_1">
   <g id="patch_2">
    <path d="M 34.240625 192.009865 
L 300.616715 192.009865 
L 300.616715 28.442513 
L 34.240625 28.442513 
L 34.240625 192.009865 
z
" style="fill: none"/>
   </g>
   <g id="matplotlib.axis_1">
    <g id="xtick_1">
     <g id="line2d_1">
      <path d="M 46.348629 192.009865 
L 46.348629 28.442513 
" clip-path="url(#pff45d23f86)" style="fill: none; stroke-dasharray: 1.85,0.8; stroke-dashoffset: 0; stroke: #838383; stroke-opacity: 0.33; stroke-width: 0.5"/>
     </g>
     <g id="text_1">
      <!-- 0 -->
      <g style="fill: #838383" transform="translate(43.167379 206.608302) scale(0.1 -0.1)">
       <defs>
        <path id="DejaVuSans-30" d="M 2034 4250 
Q 1547 4250 1301 3770 
Q 1056 3291 1056 2328 
Q 1056 1369 1301 889 
Q 1547 409 2034 409 
Q 2525 409 2770 889 
Q 3016 1369 3016 2328 
Q 3016 3291 2770 3770 
Q 2525 4250 2034 4250 
z
M 2034 4750 
Q 2819 4750 3233 4129 
Q 3647 3509 3647 2328 
Q 3647 1150 3233 529 
Q 2819 -91 2034 -91 
Q 1250 -91 836 529 
Q 422 1150 422 2328 
Q 422 3509 836 4129 
Q 1250 4750 2034 4750 
z
" transform="scale(0.015625)"/>
       </defs>
       <use xlink:href="#DejaVuSans-30"/>
      </g>
     </g>
    </g>
    <g id="xtick_2">
     <g id="line2d_2">
      <path d="M 94.975151 192.009865 
L 94.975151 28.442513 
" clip-path="url(#pff45d23f86)" style="fill: none; stroke-dasharray: 1.85,0.8; stroke-dashoffset: 0; stroke: #838383; stroke-opacity: 0.33; stroke-width: 0.5"/>
     </g>
     <g id="text_2">
      <!-- 50 -->
      <g style="fill: #838383" transform="translate(88.612651 206.608302) scale(0.1 -0.1)">
       <defs>
        <path id="DejaVuSans-35" d="M 691 4666 
L 3169 4666 
L 3169 4134 
L 1269 4134 
L 1269 2991 
Q 1406 3038 1543 3061 
Q 1681 3084 1819 3084 
Q 2600 3084 3056 2656 
Q 3513 2228 3513 1497 
Q 3513 744 3044 326 
Q 2575 -91 1722 -91 
Q 1428 -91 1123 -41 
Q 819 9 494 109 
L 494 744 
Q 775 591 1075 516 
Q 1375 441 1709 441 
Q 2250 441 2565 725 
Q 2881 1009 2881 1497 
Q 2881 1984 2565 2268 
Q 2250 2553 1709 2553 
Q 1456 2553 1204 2497 
Q 953 2441 691 2322 
L 691 4666 
z
" transform="scale(0.015625)"/>
       </defs>
       <use xlink:href="#DejaVuSans-35"/>
       <use xlink:href="#DejaVuSans-30" x="63.623047"/>
      </g>
     </g>
    </g>
    <g id="xtick_3">
     <g id="line2d_3">
      <path d="M 143.601674 192.009865 
L 143.601674 28.442513 
" clip-path="url(#pff45d23f86)" style="fill: none; stroke-dasharray: 1.85,0.8; stroke-dashoffset: 0; stroke: #838383; stroke-opacity: 0.33; stroke-width: 0.5"/>
     </g>
     <g id="text_3">
      <!-- 100 -->
      <g style="fill: #838383" transform="translate(134.057924 206.608302) scale(0.1 -0.1)">
       <defs>
        <path id="DejaVuSans-31" d="M 794 531 
L 1825 531 
L 1825 4091 
L 703 3866 
L 703 4441 
L 1819 4666 
L 2450 4666 
L 2450 531 
L 3481 531 
L 3481 0 
L 794 0 
L 794 531 
z
" transform="scale(0.015625)"/>
       </defs>
       <use xlink:href="#DejaVuSans-31"/>
       <use xlink:href="#DejaVuSans-30" x="63.623047"/>
       <use xlink:href="#DejaVuSans-30" x="127.246094"/>
      </g>
     </g>
    </g>
    <g id="xtick_4">
     <g id="line2d_4">
      <path d="M 192.228196 192.009865 
L 192.228196 28.442513 
" clip-path="url(#pff45d23f86)" style="fill: none; stroke-dasharray: 1.85,0.8; stroke-dashoffset: 0; stroke: #838383; stroke-opacity: 0.33; stroke-width: 0.5"/>
     </g>
     <g id="text_4">
      <!-- 150 -->
      <g style="fill: #838383" transform="translate(182.684446 206.608302) scale(0.1 -0.1)">
       <use xlink:href="#DejaVuSans-31"/>
       <use xlink:href="#DejaVuSans-35" x="63.623047"/>
       <use xlink:href="#DejaVuSans-30" x="127.246094"/>
      </g>
     </g>
    </g>
    <g id="xtick_5">
     <g id="line2d_5">
      <path d="M 240.854719 192.009865 
L 240.854719 28.442513 
" clip-path="url(#pff45d23f86)" style="fill: none; stroke-dasharray: 1.85,0.8; stroke-dashoffset: 0; stroke: #838383; stroke-opacity: 0.33; stroke-width: 0.5"/>
     </g>
     <g id="text_5">
      <!-- 200 -->
      <g style="fill: #838383" transform="translate(231.310969 206.608302) scale(0.1 -0.1)">
       <defs>
        <path id="DejaVuSans-32" d="M 1228 531 
L 3431 531 
L 3431 0 
L 469 0 
L 469 531 
Q 828 903 1448 1529 
Q 2069 2156 2228 2338 
Q 2531 2678 2651 2914 
Q 2772 3150 2772 3378 
Q 2772 3750 2511 3984 
Q 2250 4219 1831 4219 
Q 1534 4219 1204 4116 
Q 875 4013 500 3803 
L 500 4441 
Q 881 4594 1212 4672 
Q 1544 4750 1819 4750 
Q 2544 4750 2975 4387 
Q 3406 4025 3406 3419 
Q 3406 3131 3298 2873 
Q 3191 2616 2906 2266 
Q 2828 2175 2409 1742 
Q 1991 1309 1228 531 
z
" transform="scale(0.015625)"/>
       </defs>
       <use xlink:href="#DejaVuSans-32"/>
       <use xlink:href="#DejaVuSans-30" x="63.623047"/>
       <use xlink:href="#DejaVuSans-30" x="127.246094"/>
      </g>
     </g>
    </g>
    <g id="xtick_6">
     <g id="line2d_6">
      <path d="M 289.481241 192.009865 
L 289.481241 28.442513 
" clip-path="url(#pff45d23f86)" style="fill: none; stroke-dasharray: 1.85,0.8; stroke-dashoffset: 0; stroke: #838383; stroke-opacity: 0.33; stroke-width: 0.5"/>
     </g>
     <g id="text_6">
      <!-- 250 -->
      <g style="fill: #838383" transform="translate(279.937491 206.608302) scale(0.1 -0.1)">
       <use xlink:href="#DejaVuSans-32"/>
       <use xlink:href="#DejaVuSans-35" x="63.623047"/>
       <use xlink:href="#DejaVuSans-30" x="127.246094"/>
      </g>
     </g>
    </g>
    <g id="text_7">
     <!-- draw -->
     <g style="fill: #bdbdbd" transform="translate(155.045857 220.286427) scale(0.1 -0.1)">
      <defs>
       <path id="DejaVuSans-64" d="M 2906 2969 
L 2906 4863 
L 3481 4863 
L 3481 0 
L 2906 0 
L 2906 525 
Q 2725 213 2448 61 
Q 2172 -91 1784 -91 
Q 1150 -91 751 415 
Q 353 922 353 1747 
Q 353 2572 751 3078 
Q 1150 3584 1784 3584 
Q 2172 3584 2448 3432 
Q 2725 3281 2906 2969 
z
M 947 1747 
Q 947 1113 1208 752 
Q 1469 391 1925 391 
Q 2381 391 2643 752 
Q 2906 1113 2906 1747 
Q 2906 2381 2643 2742 
Q 2381 3103 1925 3103 
Q 1469 3103 1208 2742 
Q 947 2381 947 1747 
z
" transform="scale(0.015625)"/>
       <path id="DejaVuSans-72" d="M 2631 2963 
Q 2534 3019 2420 3045 
Q 2306 3072 2169 3072 
Q 1681 3072 1420 2755 
Q 1159 2438 1159 1844 
L 1159 0 
L 581 0 
L 581 3500 
L 1159 3500 
L 1159 2956 
Q 1341 3275 1631 3429 
Q 1922 3584 2338 3584 
Q 2397 3584 2469 3576 
Q 2541 3569 2628 3553 
L 2631 2963 
z
" transform="scale(0.015625)"/>
       <path id="DejaVuSans-61" d="M 2194 1759 
Q 1497 1759 1228 1600 
Q 959 1441 959 1056 
Q 959 750 1161 570 
Q 1363 391 1709 391 
Q 2188 391 2477 730 
Q 2766 1069 2766 1631 
L 2766 1759 
L 2194 1759 
z
M 3341 1997 
L 3341 0 
L 2766 0 
L 2766 531 
Q 2569 213 2275 61 
Q 1981 -91 1556 -91 
Q 1019 -91 701 211 
Q 384 513 384 1019 
Q 384 1609 779 1909 
Q 1175 2209 1959 2209 
L 2766 2209 
L 2766 2266 
Q 2766 2663 2505 2880 
Q 2244 3097 1772 3097 
Q 1472 3097 1187 3025 
Q 903 2953 641 2809 
L 641 3341 
Q 956 3463 1253 3523 
Q 1550 3584 1831 3584 
Q 2591 3584 2966 3190 
Q 3341 2797 3341 1997 
z
" transform="scale(0.015625)"/>
       <path id="DejaVuSans-77" d="M 269 3500 
L 844 3500 
L 1563 769 
L 2278 3500 
L 2956 3500 
L 3675 769 
L 4391 3500 
L 4966 3500 
L 4050 0 
L 3372 0 
L 2619 2869 
L 1863 0 
L 1184 0 
L 269 3500 
z
" transform="scale(0.015625)"/>
      </defs>
      <use xlink:href="#DejaVuSans-64"/>
      <use xlink:href="#DejaVuSans-72" x="63.476562"/>
      <use xlink:href="#DejaVuSans-61" x="104.589844"/>
      <use xlink:href="#DejaVuSans-77" x="165.869141"/>
     </g>
    </g>
   </g>
   <g id="matplotlib.axis_2">
    <g id="ytick_1">
     <g id="line2d_7">
      <path d="M 34.240625 178.370251 
L 300.616715 178.370251 
" clip-path="url(#pff45d23f86)" style="fill: none; stroke-dasharray: 1.85,0.8; stroke-dashoffset: 0; stroke: #838383; stroke-opacity: 0.33; stroke-width: 0.5"/>
     </g>
     <g id="text_8">
      <!-- 0 -->
      <g style="fill: #838383" transform="translate(20.878125 182.16947) scale(0.1 -0.1)">
       <use xlink:href="#DejaVuSans-30"/>
      </g>
     </g>
    </g>
    <g id="ytick_2">
     <g id="line2d_8">
      <path d="M 34.240625 145.557293 
L 300.616715 145.557293 
" clip-path="url(#pff45d23f86)" style="fill: none; stroke-dasharray: 1.85,0.8; stroke-dashoffset: 0; stroke: #838383; stroke-opacity: 0.33; stroke-width: 0.5"/>
     </g>
     <g id="text_9">
      <!-- 2 -->
      <g style="fill: #838383" transform="translate(20.878125 149.356512) scale(0.1 -0.1)">
       <use xlink:href="#DejaVuSans-32"/>
      </g>
     </g>
    </g>
    <g id="ytick_3">
     <g id="line2d_9">
      <path d="M 34.240625 112.744335 
L 300.616715 112.744335 
" clip-path="url(#pff45d23f86)" style="fill: none; stroke-dasharray: 1.85,0.8; stroke-dashoffset: 0; stroke: #838383; stroke-opacity: 0.33; stroke-width: 0.5"/>
     </g>
     <g id="text_10">
      <!-- 4 -->
      <g style="fill: #838383" transform="translate(20.878125 116.543554) scale(0.1 -0.1)">
       <defs>
        <path id="DejaVuSans-34" d="M 2419 4116 
L 825 1625 
L 2419 1625 
L 2419 4116 
z
M 2253 4666 
L 3047 4666 
L 3047 1625 
L 3713 1625 
L 3713 1100 
L 3047 1100 
L 3047 0 
L 2419 0 
L 2419 1100 
L 313 1100 
L 313 1709 
L 2253 4666 
z
" transform="scale(0.015625)"/>
       </defs>
       <use xlink:href="#DejaVuSans-34"/>
      </g>
     </g>
    </g>
    <g id="ytick_4">
     <g id="line2d_10">
      <path d="M 34.240625 79.931377 
L 300.616715 79.931377 
" clip-path="url(#pff45d23f86)" style="fill: none; stroke-dasharray: 1.85,0.8; stroke-dashoffset: 0; stroke: #838383; stroke-opacity: 0.33; stroke-width: 0.5"/>
     </g>
     <g id="text_11">
      <!-- 6 -->
      <g style="fill: #838383" transform="translate(20.878125 83.730596) scale(0.1 -0.1)">
       <defs>
        <path id="DejaVuSans-36" d="M 2113 2584 
Q 1688 2584 1439 2293 
Q 1191 2003 1191 1497 
Q 1191 994 1439 701 
Q 1688 409 2113 409 
Q 2538 409 2786 701 
Q 3034 994 3034 1497 
Q 3034 2003 2786 2293 
Q 2538 2584 2113 2584 
z
M 3366 4563 
L 3366 3988 
Q 3128 4100 2886 4159 
Q 2644 4219 2406 4219 
Q 1781 4219 1451 3797 
Q 1122 3375 1075 2522 
Q 1259 2794 1537 2939 
Q 1816 3084 2150 3084 
Q 2853 3084 3261 2657 
Q 3669 2231 3669 1497 
Q 3669 778 3244 343 
Q 2819 -91 2113 -91 
Q 1303 -91 875 529 
Q 447 1150 447 2328 
Q 447 3434 972 4092 
Q 1497 4750 2381 4750 
Q 2619 4750 2861 4703 
Q 3103 4656 3366 4563 
z
" transform="scale(0.015625)"/>
       </defs>
       <use xlink:href="#DejaVuSans-36"/>
      </g>
     </g>
    </g>
    <g id="ytick_5">
     <g id="line2d_11">
      <path d="M 34.240625 47.118419 
L 300.616715 47.118419 
" clip-path="url(#pff45d23f86)" style="fill: none; stroke-dasharray: 1.85,0.8; stroke-dashoffset: 0; stroke: #838383; stroke-opacity: 0.33; stroke-width: 0.5"/>
     </g>
     <g id="text_12">
      <!-- 8 -->
      <g style="fill: #838383" transform="translate(20.878125 50.917638) scale(0.1 -0.1)">
       <defs>
        <path id="DejaVuSans-38" d="M 2034 2216 
Q 1584 2216 1326 1975 
Q 1069 1734 1069 1313 
Q 1069 891 1326 650 
Q 1584 409 2034 409 
Q 2484 409 2743 651 
Q 3003 894 3003 1313 
Q 3003 1734 2745 1975 
Q 2488 2216 2034 2216 
z
M 1403 2484 
Q 997 2584 770 2862 
Q 544 3141 544 3541 
Q 544 4100 942 4425 
Q 1341 4750 2034 4750 
Q 2731 4750 3128 4425 
Q 3525 4100 3525 3541 
Q 3525 3141 3298 2862 
Q 3072 2584 2669 2484 
Q 3125 2378 3379 2068 
Q 3634 1759 3634 1313 
Q 3634 634 3220 271 
Q 2806 -91 2034 -91 
Q 1263 -91 848 271 
Q 434 634 434 1313 
Q 434 1759 690 2068 
Q 947 2378 1403 2484 
z
M 1172 3481 
Q 1172 3119 1398 2916 
Q 1625 2713 2034 2713 
Q 2441 2713 2670 2916 
Q 2900 3119 2900 3481 
Q 2900 3844 2670 4047 
Q 2441 4250 2034 4250 
Q 1625 4250 1398 4047 
Q 1172 3844 1172 3481 
z
" transform="scale(0.015625)"/>
       </defs>
       <use xlink:href="#DejaVuSans-38"/>
      </g>
     </g>
    </g>
    <g id="text_13">
     <!-- logdet -->
     <g style="fill: #bdbdbd" transform="translate(14.798438 126.059783) rotate(-90) scale(0.1 -0.1)">
      <defs>
       <path id="DejaVuSans-6c" d="M 603 4863 
L 1178 4863 
L 1178 0 
L 603 0 
L 603 4863 
z
" transform="scale(0.015625)"/>
       <path id="DejaVuSans-6f" d="M 1959 3097 
Q 1497 3097 1228 2736 
Q 959 2375 959 1747 
Q 959 1119 1226 758 
Q 1494 397 1959 397 
Q 2419 397 2687 759 
Q 2956 1122 2956 1747 
Q 2956 2369 2687 2733 
Q 2419 3097 1959 3097 
z
M 1959 3584 
Q 2709 3584 3137 3096 
Q 3566 2609 3566 1747 
Q 3566 888 3137 398 
Q 2709 -91 1959 -91 
Q 1206 -91 779 398 
Q 353 888 353 1747 
Q 353 2609 779 3096 
Q 1206 3584 1959 3584 
z
" transform="scale(0.015625)"/>
       <path id="DejaVuSans-67" d="M 2906 1791 
Q 2906 2416 2648 2759 
Q 2391 3103 1925 3103 
Q 1463 3103 1205 2759 
Q 947 2416 947 1791 
Q 947 1169 1205 825 
Q 1463 481 1925 481 
Q 2391 481 2648 825 
Q 2906 1169 2906 1791 
z
M 3481 434 
Q 3481 -459 3084 -895 
Q 2688 -1331 1869 -1331 
Q 1566 -1331 1297 -1286 
Q 1028 -1241 775 -1147 
L 775 -588 
Q 1028 -725 1275 -790 
Q 1522 -856 1778 -856 
Q 2344 -856 2625 -561 
Q 2906 -266 2906 331 
L 2906 616 
Q 2728 306 2450 153 
Q 2172 0 1784 0 
Q 1141 0 747 490 
Q 353 981 353 1791 
Q 353 2603 747 3093 
Q 1141 3584 1784 3584 
Q 2172 3584 2450 3431 
Q 2728 3278 2906 2969 
L 2906 3500 
L 3481 3500 
L 3481 434 
z
" transform="scale(0.015625)"/>
       <path id="DejaVuSans-65" d="M 3597 1894 
L 3597 1613 
L 953 1613 
Q 991 1019 1311 708 
Q 1631 397 2203 397 
Q 2534 397 2845 478 
Q 3156 559 3463 722 
L 3463 178 
Q 3153 47 2828 -22 
Q 2503 -91 2169 -91 
Q 1331 -91 842 396 
Q 353 884 353 1716 
Q 353 2575 817 3079 
Q 1281 3584 2069 3584 
Q 2775 3584 3186 3129 
Q 3597 2675 3597 1894 
z
M 3022 2063 
Q 3016 2534 2758 2815 
Q 2500 3097 2075 3097 
Q 1594 3097 1305 2825 
Q 1016 2553 972 2059 
L 3022 2063 
z
" transform="scale(0.015625)"/>
       <path id="DejaVuSans-74" d="M 1172 4494 
L 1172 3500 
L 2356 3500 
L 2356 3053 
L 1172 3053 
L 1172 1153 
Q 1172 725 1289 603 
Q 1406 481 1766 481 
L 2356 481 
L 2356 0 
L 1766 0 
Q 1100 0 847 248 
Q 594 497 594 1153 
L 594 3053 
L 172 3053 
L 172 3500 
L 594 3500 
L 594 4494 
L 1172 4494 
z
" transform="scale(0.015625)"/>
      </defs>
      <use xlink:href="#DejaVuSans-6c"/>
      <use xlink:href="#DejaVuSans-6f" x="27.783203"/>
      <use xlink:href="#DejaVuSans-67" x="88.964844"/>
      <use xlink:href="#DejaVuSans-64" x="152.441406"/>
      <use xlink:href="#DejaVuSans-65" x="215.917969"/>
      <use xlink:href="#DejaVuSans-74" x="277.441406"/>
     </g>
    </g>
   </g>
   <g id="line2d_12">
    <path d="M 46.348629 178.370251 
L 288.508711 178.370251 
L 288.508711 178.370251 
" clip-path="url(#pff45d23f86)" style="fill: none; stroke: #440154; stroke-width: 1.5; stroke-linecap: round"/>
   </g>
   <g id="line2d_13">
    <path d="M 46.348629 180.373745 
L 48.29369 177.593009 
L 54.128873 176.984027 
L 65.799238 174.82949 
L 74.552012 171.118351 
L 79.414664 168.993683 
L 89.139969 163.379786 
L 94.975151 161.513763 
L 101.782865 158.033582 
L 110.535639 155.60097 
L 113.45323 153.679079 
L 118.315882 151.596916 
L 129.013717 146.446214 
L 135.82143 146.77637 
L 139.711552 146.531829 
L 144.574204 146.268934 
L 148.464326 145.024641 
L 152.354448 145.319984 
L 157.2171 145.557847 
L 168.887466 145.554508 
L 173.750118 145.165577 
L 232.101945 150.575223 
L 242.79978 150.550983 
L 250.580023 152.119835 
L 288.508711 151.908968 
L 288.508711 151.908968 
" clip-path="url(#pff45d23f86)" style="fill: none; stroke: #482878; stroke-width: 1.5; stroke-linecap: round"/>
   </g>
   <g id="line2d_14">
    <path d="M 46.348629 179.59617 
L 47.32116 175.535674 
L 49.26622 176.258844 
L 53.156342 175.173287 
L 65.799238 169.982345 
L 70.66189 165.937656 
L 107.618047 134.418473 
L 108.590578 134.551401 
L 130.958778 112.207529 
L 131.931308 112.505164 
L 134.8489 110.874195 
L 137.766491 109.680943 
L 140.684083 108.349204 
L 142.629143 108.638037 
L 148.464326 102.598966 
L 150.409387 101.817599 
L 154.299509 102.033488 
L 163.052283 100.027122 
L 165.969874 99.430688 
L 168.887466 98.975009 
L 171.805057 97.12578 
L 174.722648 95.965385 
L 178.61277 96.747621 
L 180.557831 97.198363 
L 185.420483 96.39761 
L 188.338074 97.219001 
L 190.283135 95.576767 
L 193.200727 94.563331 
L 198.063379 96.38672 
L 200.00844 96.064247 
L 203.898562 95.970454 
L 206.816153 95.345583 
L 209.733744 95.93683 
L 212.651336 95.223376 
L 216.541457 95.348376 
L 224.321701 94.254916 
L 226.266762 94.767157 
L 232.101945 93.73533 
L 235.992066 92.721409 
L 237.937127 91.735097 
L 239.882188 92.286837 
L 247.662432 92.628368 
L 250.580023 93.710272 
L 265.16798 90.439157 
L 268.085571 90.006713 
L 271.003163 90.24813 
L 279.755937 89.000209 
L 281.700997 87.958446 
L 284.618589 88.844151 
L 288.508711 87.499856 
L 288.508711 87.499856 
" clip-path="url(#pff45d23f86)" style="fill: none; stroke: #3e4989; stroke-width: 1.5; stroke-linecap: round"/>
   </g>
   <g id="line2d_15">
    <path d="M 46.348629 178.219514 
L 47.32116 172.94574 
L 49.26622 174.260379 
L 52.183812 172.581999 
L 59.964055 167.949029 
L 66.771768 161.020151 
L 79.414664 147.028516 
L 83.304786 140.858957 
L 85.249847 139.167135 
L 87.194908 135.471373 
L 94.002621 128.0676 
L 94.975151 127.914941 
L 97.892743 123.370418 
L 101.782865 117.300304 
L 102.755395 117.205698 
L 105.672986 112.929671 
L 107.618047 111.663119 
L 108.590578 111.900742 
L 120.260943 94.134799 
L 126.096126 84.00815 
L 127.068656 83.766937 
L 129.986248 79.918328 
L 131.931308 80.685739 
L 133.876369 78.682009 
L 140.684083 74.361152 
L 142.629143 74.661728 
L 149.436857 65.251639 
L 152.354448 65.150555 
L 154.299509 65.539064 
L 168.887466 60.54347 
L 171.805057 57.766438 
L 174.722648 55.926049 
L 176.667709 56.432392 
L 179.5853 57.777876 
L 182.502892 56.227838 
L 183.475422 55.1862 
L 187.365544 58.201433 
L 193.200727 53.098848 
L 196.118318 55.804062 
L 197.090848 54.925163 
L 198.063379 55.590848 
L 200.00844 55.142382 
L 203.898562 54.69843 
L 206.816153 53.88735 
L 209.733744 54.318597 
L 212.651336 53.252394 
L 215.568927 53.469911 
L 218.486518 52.316886 
L 222.37664 50.241949 
L 226.266762 52.592607 
L 237.937127 47.98614 
L 239.882188 49.308678 
L 244.74484 49.119959 
L 250.580023 52.197175 
L 254.470145 50.026576 
L 259.332797 48.828841 
L 260.305328 48.738905 
L 262.250388 47.340372 
L 271.975693 47.840049 
L 273.920754 48.068776 
L 276.838345 46.396524 
L 278.783406 46.723785 
L 282.673528 45.818732 
L 284.618589 46.521445 
L 286.56365 45.250861 
L 288.508711 44.527448 
L 288.508711 44.527448 
" clip-path="url(#pff45d23f86)" style="fill: none; stroke: #31688e; stroke-width: 1.5; stroke-linecap: round"/>
   </g>
   <g id="line2d_16">
    <path d="M 46.348629 180.073214 
L 47.32116 172.606336 
L 49.26622 173.70757 
L 52.183812 171.786955 
L 57.046464 168.420825 
L 69.68936 155.245293 
L 77.469603 145.374762 
L 78.442134 145.448503 
L 89.139969 128.779243 
L 90.112499 128.910246 
L 94.002621 124.116362 
L 94.975151 124.022514 
L 97.892743 119.252854 
L 101.782865 112.970637 
L 102.755395 112.953728 
L 105.672986 108.630151 
L 107.618047 107.495972 
L 108.590578 107.802392 
L 121.233474 87.642051 
L 124.151065 81.714774 
L 128.041187 77.063025 
L 129.986248 74.713494 
L 131.931308 75.496919 
L 133.876369 73.287047 
L 140.684083 68.773793 
L 142.629143 69.088271 
L 149.436857 59.352557 
L 152.354448 59.222926 
L 154.299509 59.62935 
L 162.079752 56.788575 
L 165.969874 55.432029 
L 169.859996 52.950136 
L 174.722648 49.7867 
L 176.667709 50.23792 
L 179.5853 51.660001 
L 182.502892 50.017133 
L 183.475422 48.998073 
L 187.365544 52.144212 
L 190.283135 48.528077 
L 193.200727 46.657037 
L 196.118318 49.550001 
L 197.090848 48.673394 
L 198.063379 49.348749 
L 200.00844 48.833316 
L 203.898562 48.371668 
L 208.761214 47.318694 
L 210.706275 47.3154 
L 212.651336 46.766891 
L 216.541457 46.844466 
L 218.486518 45.768382 
L 222.37664 43.223035 
L 226.266762 45.769274 
L 233.074475 43.555397 
L 234.047006 44.053079 
L 237.937127 40.811434 
L 239.882188 42.174834 
L 244.74484 41.717973 
L 246.689901 42.498903 
L 248.634962 43.696669 
L 250.580023 45.056845 
L 251.552554 44.508625 
L 252.525084 45.182392 
L 256.415206 41.955721 
L 260.305328 40.907222 
L 262.250388 39.469173 
L 270.030632 39.468814 
L 273.920754 40.048843 
L 276.838345 38.084996 
L 278.783406 38.392088 
L 282.673528 37.402169 
L 284.618589 38.066439 
L 286.56365 36.900732 
L 288.508711 35.877393 
L 288.508711 35.877393 
" clip-path="url(#pff45d23f86)" style="fill: none; stroke: #26828e; stroke-width: 1.5; stroke-linecap: round"/>
   </g>
   <g id="line2d_17">
    <path d="M 46.348629 179.570673 
L 47.32116 173.209786 
L 49.26622 174.368738 
L 52.183812 172.652344 
L 57.046464 169.781951 
L 70.66189 156.875987 
L 80.387195 144.946221 
L 89.139969 132.672397 
L 90.112499 132.761961 
L 94.002621 128.074445 
L 94.975151 127.928522 
L 97.892743 123.356219 
L 101.782865 117.293478 
L 102.755395 117.231698 
L 105.672986 112.918116 
L 107.618047 111.6739 
L 108.590578 111.89906 
L 120.260943 94.121382 
L 127.068656 83.790078 
L 129.986248 79.940593 
L 131.931308 80.700478 
L 133.876369 78.701606 
L 140.684083 74.368357 
L 142.629143 74.669214 
L 149.436857 65.257499 
L 152.354448 65.152988 
L 154.299509 65.538094 
L 168.887466 60.54135 
L 171.805057 57.783798 
L 174.722648 55.93151 
L 176.667709 56.418279 
L 179.5853 57.787412 
L 182.502892 56.236115 
L 183.475422 55.187749 
L 187.365544 58.199461 
L 193.200727 53.102165 
L 196.118318 55.803162 
L 197.090848 54.920891 
L 198.063379 55.587109 
L 200.00844 55.136405 
L 203.898562 54.695144 
L 206.816153 53.87984 
L 209.733744 54.319035 
L 212.651336 53.247035 
L 215.568927 53.46075 
L 218.486518 52.311206 
L 222.37664 50.244194 
L 226.266762 52.591168 
L 233.074475 50.614624 
L 235.019536 50.353367 
L 237.937127 47.97834 
L 239.882188 49.297022 
L 244.74484 49.108013 
L 250.580023 52.176662 
L 253.497614 51.422363 
L 255.442675 49.624196 
L 266.14051 47.7406 
L 268.085571 47.075423 
L 270.030632 47.419958 
L 272.948223 48.09996 
L 275.865815 47.036714 
L 276.838345 46.384805 
L 278.783406 46.71593 
L 282.673528 45.798721 
L 284.618589 46.505689 
L 286.56365 45.244133 
L 288.508711 44.511066 
L 288.508711 44.511066 
" clip-path="url(#pff45d23f86)" style="fill: none; stroke: #1f9e89; stroke-width: 1.5; stroke-linecap: round"/>
   </g>
   <g id="line2d_18">
    <path d="M 46.348629 182.166873 
L 48.29369 176.259944 
L 50.238751 175.986075 
L 66.771768 169.169205 
L 81.359725 156.727531 
L 83.304786 154.860553 
L 85.249847 153.746633 
L 87.194908 151.130576 
L 93.030091 146.407004 
L 97.892743 142.577151 
L 101.782865 138.299849 
L 102.755395 138.18664 
L 106.645517 134.38123 
L 109.563108 133.454899 
L 110.535639 132.873027 
L 112.4807 129.697555 
L 119.288413 123.458061 
L 126.096126 114.562979 
L 127.068656 114.510176 
L 129.986248 112.044298 
L 132.903839 111.440212 
L 137.766491 109.56742 
L 140.684083 108.265183 
L 142.629143 108.601033 
L 148.464326 102.535661 
L 150.409387 101.788324 
L 154.299509 101.990398 
L 163.052283 99.994272 
L 165.969874 99.382919 
L 168.887466 98.930299 
L 171.805057 97.143757 
L 174.722648 95.912101 
L 178.61277 96.739133 
L 180.557831 97.194906 
L 184.447953 96.197476 
L 189.310605 96.839465 
L 191.255666 95.005187 
L 194.173257 95.114274 
L 196.118318 96.448602 
L 199.035909 95.731353 
L 202.926031 96.273909 
L 206.816153 95.309705 
L 209.733744 95.933114 
L 212.651336 95.203161 
L 216.541457 95.296351 
L 233.074475 93.544576 
L 235.992066 92.681119 
L 237.937127 91.706127 
L 239.882188 92.250397 
L 247.662432 92.59224 
L 250.580023 93.698967 
L 265.16798 90.426084 
L 268.085571 89.983963 
L 271.003163 90.229816 
L 280.728467 88.443712 
L 282.673528 88.524769 
L 287.53618 87.774796 
L 288.508711 87.447065 
L 288.508711 87.447065 
" clip-path="url(#pff45d23f86)" style="fill: none; stroke: #35b779; stroke-width: 1.5; stroke-linecap: round"/>
   </g>
   <g id="line2d_19">
    <path d="M 46.348629 184.574985 
L 48.29369 177.945875 
L 55.101403 177.167582 
L 68.716829 173.989741 
L 106.645517 156.236165 
L 110.535639 155.555637 
L 113.45323 153.587915 
L 118.315882 151.533153 
L 129.013717 146.376075 
L 135.82143 146.703242 
L 139.711552 146.481755 
L 144.574204 146.23813 
L 148.464326 144.929773 
L 152.354448 145.295911 
L 157.2171 145.514046 
L 171.805057 145.269625 
L 173.750118 145.126245 
L 217.513988 149.580776 
L 224.321701 149.919938 
L 229.184353 150.234921 
L 247.662432 151.345073 
L 252.525084 152.253861 
L 257.387736 151.742275 
L 270.030632 152.033311 
L 287.53618 151.88588 
L 288.508711 151.86799 
L 288.508711 151.86799 
" clip-path="url(#pff45d23f86)" style="fill: none; stroke: #6ece58; stroke-width: 1.5; stroke-linecap: round"/>
   </g>
   <g id="line2d_20">
    <path d="M 46.348629 184.118464 
L 48.29369 178.806452 
L 122.206004 178.284321 
L 180.557831 178.347447 
L 234.047006 178.312526 
L 288.508711 178.311702 
L 288.508711 178.311702 
" clip-path="url(#pff45d23f86)" style="fill: none; stroke: #b5de2b; stroke-width: 1.5; stroke-linecap: round"/>
   </g>
   <g id="patch_3">
    <path d="M 34.240625 192.009865 
L 34.240625 28.442513 
" style="fill: none"/>
   </g>
   <g id="patch_4">
    <path d="M 300.616715 192.009865 
L 300.616715 28.442513 
" style="fill: none"/>
   </g>
   <g id="patch_5">
    <path d="M 34.240625 192.009865 
L 300.616715 192.009865 
" style="fill: none"/>
   </g>
   <g id="patch_6">
    <path d="M 34.240625 28.442513 
L 300.616715 28.442513 
" style="fill: none"/>
   </g>
  </g>
  <g id="text_14">
   <!-- train: pytorch -->
   <g style="fill: #838383" transform="translate(122.422281 16.318125) scale(0.12 -0.12)">
    <defs>
     <path id="DejaVuSans-69" d="M 603 3500 
L 1178 3500 
L 1178 0 
L 603 0 
L 603 3500 
z
M 603 4863 
L 1178 4863 
L 1178 4134 
L 603 4134 
L 603 4863 
z
" transform="scale(0.015625)"/>
     <path id="DejaVuSans-6e" d="M 3513 2113 
L 3513 0 
L 2938 0 
L 2938 2094 
Q 2938 2591 2744 2837 
Q 2550 3084 2163 3084 
Q 1697 3084 1428 2787 
Q 1159 2491 1159 1978 
L 1159 0 
L 581 0 
L 581 3500 
L 1159 3500 
L 1159 2956 
Q 1366 3272 1645 3428 
Q 1925 3584 2291 3584 
Q 2894 3584 3203 3211 
Q 3513 2838 3513 2113 
z
" transform="scale(0.015625)"/>
     <path id="DejaVuSans-3a" d="M 750 794 
L 1409 794 
L 1409 0 
L 750 0 
L 750 794 
z
M 750 3309 
L 1409 3309 
L 1409 2516 
L 750 2516 
L 750 3309 
z
" transform="scale(0.015625)"/>
     <path id="DejaVuSans-20" transform="scale(0.015625)"/>
     <path id="DejaVuSans-70" d="M 1159 525 
L 1159 -1331 
L 581 -1331 
L 581 3500 
L 1159 3500 
L 1159 2969 
Q 1341 3281 1617 3432 
Q 1894 3584 2278 3584 
Q 2916 3584 3314 3078 
Q 3713 2572 3713 1747 
Q 3713 922 3314 415 
Q 2916 -91 2278 -91 
Q 1894 -91 1617 61 
Q 1341 213 1159 525 
z
M 3116 1747 
Q 3116 2381 2855 2742 
Q 2594 3103 2138 3103 
Q 1681 3103 1420 2742 
Q 1159 2381 1159 1747 
Q 1159 1113 1420 752 
Q 1681 391 2138 391 
Q 2594 391 2855 752 
Q 3116 1113 3116 1747 
z
" transform="scale(0.015625)"/>
     <path id="DejaVuSans-79" d="M 2059 -325 
Q 1816 -950 1584 -1140 
Q 1353 -1331 966 -1331 
L 506 -1331 
L 506 -850 
L 844 -850 
Q 1081 -850 1212 -737 
Q 1344 -625 1503 -206 
L 1606 56 
L 191 3500 
L 800 3500 
L 1894 763 
L 2988 3500 
L 3597 3500 
L 2059 -325 
z
" transform="scale(0.015625)"/>
     <path id="DejaVuSans-63" d="M 3122 3366 
L 3122 2828 
Q 2878 2963 2633 3030 
Q 2388 3097 2138 3097 
Q 1578 3097 1268 2742 
Q 959 2388 959 1747 
Q 959 1106 1268 751 
Q 1578 397 2138 397 
Q 2388 397 2633 464 
Q 2878 531 3122 666 
L 3122 134 
Q 2881 22 2623 -34 
Q 2366 -91 2075 -91 
Q 1284 -91 818 406 
Q 353 903 353 1747 
Q 353 2603 823 3093 
Q 1294 3584 2113 3584 
Q 2378 3584 2631 3529 
Q 2884 3475 3122 3366 
z
" transform="scale(0.015625)"/>
     <path id="DejaVuSans-68" d="M 3513 2113 
L 3513 0 
L 2938 0 
L 2938 2094 
Q 2938 2591 2744 2837 
Q 2550 3084 2163 3084 
Q 1697 3084 1428 2787 
Q 1159 2491 1159 1978 
L 1159 0 
L 581 0 
L 581 4863 
L 1159 4863 
L 1159 2956 
Q 1366 3272 1645 3428 
Q 1925 3584 2291 3584 
Q 2894 3584 3203 3211 
Q 3513 2838 3513 2113 
z
" transform="scale(0.015625)"/>
    </defs>
    <use xlink:href="#DejaVuSans-74"/>
    <use xlink:href="#DejaVuSans-72" x="39.208984"/>
    <use xlink:href="#DejaVuSans-61" x="80.322266"/>
    <use xlink:href="#DejaVuSans-69" x="141.601562"/>
    <use xlink:href="#DejaVuSans-6e" x="169.384766"/>
    <use xlink:href="#DejaVuSans-3a" x="232.763672"/>
    <use xlink:href="#DejaVuSans-20" x="266.455078"/>
    <use xlink:href="#DejaVuSans-70" x="298.242188"/>
    <use xlink:href="#DejaVuSans-79" x="361.71875"/>
    <use xlink:href="#DejaVuSans-74" x="420.898438"/>
    <use xlink:href="#DejaVuSans-6f" x="460.107422"/>
    <use xlink:href="#DejaVuSans-72" x="521.289062"/>
    <use xlink:href="#DejaVuSans-63" x="560.152344"/>
    <use xlink:href="#DejaVuSans-68" x="615.132812"/>
   </g>
  </g>
 </g>
 <defs>
  <clipPath id="pff45d23f86">
   <rect x="34.240625" y="28.442513" width="266.37609" height="163.567352"/>
  </clipPath>
 </defs>
</svg>
