<?xml version="1.0" encoding="utf-8" standalone="no"?>
<!DOCTYPE svg PUBLIC "-//W3C//DTD SVG 1.1//EN"
  "http://www.w3.org/Graphics/SVG/1.1/DTD/svg11.dtd">
<svg xmlns:xlink="http://www.w3.org/1999/xlink" width="1129.412906pt" height="337.724537pt" viewBox="0 0 1129.412906 337.724537" xmlns="http://www.w3.org/2000/svg" version="1.1">
 <metadata>
  <rdf:RDF xmlns:dc="http://purl.org/dc/elements/1.1/" xmlns:cc="http://creativecommons.org/ns#" xmlns:rdf="http://www.w3.org/1999/02/22-rdf-syntax-ns#">
   <cc:Work>
    <dc:type rdf:resource="http://purl.org/dc/dcmitype/StillImage"/>
    <dc:date>2023-11-22T23:20:54.066759</dc:date>
    <dc:format>image/svg+xml</dc:format>
    <dc:creator>
     <cc:Agent>
      <dc:title>Matplotlib v3.8.2, https://matplotlib.org/</dc:title>
     </cc:Agent>
    </dc:creator>
   </cc:Work>
  </rdf:RDF>
 </metadata>
 <defs>
  <style type="text/css">*{stroke-linejoin: round; stroke-linecap: butt}</style>
 </defs>
 <g id="figure_1">
  <g id="patch_1">
   <path d="M 0 337.724537 
L 1129.412906 337.724537 
L 1129.412906 0 
L 0 0 
L 0 337.724537 
z
" style="fill: none"/>
  </g>
  <g id="axes_1">
   <g id="patch_2">
    <path d="M 50.852906 292.4421 
L 537.834724 292.4421 
L 537.834724 26.3301 
L 50.852906 26.3301 
L 50.852906 292.4421 
z
" style="fill: none"/>
   </g>
   <g id="matplotlib.axis_1">
    <g id="xtick_1">
     <g id="line2d_1">
      <path d="M 72.988443 292.4421 
L 72.988443 26.3301 
" clip-path="url(#pe830e28404)" style="fill: none; stroke-dasharray: 3.7,1.6; stroke-dashoffset: 0; stroke: #838383; stroke-opacity: 0.2"/>
     </g>
     <g id="text_1">
      <!-- 0 -->
      <g style="fill: #838383" transform="translate(69.489068 310.300381) scale(0.11 -0.11)">
       <defs>
        <path id="DejaVuSans-30" d="M 2034 4250 
Q 1547 4250 1301 3770 
Q 1056 3291 1056 2328 
Q 1056 1369 1301 889 
Q 1547 409 2034 409 
Q 2525 409 2770 889 
Q 3016 1369 3016 2328 
Q 3016 3291 2770 3770 
Q 2525 4250 2034 4250 
z
M 2034 4750 
Q 2819 4750 3233 4129 
Q 3647 3509 3647 2328 
Q 3647 1150 3233 529 
Q 2819 -91 2034 -91 
Q 1250 -91 836 529 
Q 422 1150 422 2328 
Q 422 3509 836 4129 
Q 1250 4750 2034 4750 
z
" transform="scale(0.015625)"/>
       </defs>
       <use xlink:href="#DejaVuSans-30"/>
      </g>
     </g>
    </g>
    <g id="xtick_2">
     <g id="line2d_2">
      <path d="M 128.605371 292.4421 
L 128.605371 26.3301 
" clip-path="url(#pe830e28404)" style="fill: none; stroke-dasharray: 3.7,1.6; stroke-dashoffset: 0; stroke: #838383; stroke-opacity: 0.2"/>
     </g>
     <g id="text_2">
      <!-- 25 -->
      <g style="fill: #838383" transform="translate(121.606621 310.300381) scale(0.11 -0.11)">
       <defs>
        <path id="DejaVuSans-32" d="M 1228 531 
L 3431 531 
L 3431 0 
L 469 0 
L 469 531 
Q 828 903 1448 1529 
Q 2069 2156 2228 2338 
Q 2531 2678 2651 2914 
Q 2772 3150 2772 3378 
Q 2772 3750 2511 3984 
Q 2250 4219 1831 4219 
Q 1534 4219 1204 4116 
Q 875 4013 500 3803 
L 500 4441 
Q 881 4594 1212 4672 
Q 1544 4750 1819 4750 
Q 2544 4750 2975 4387 
Q 3406 4025 3406 3419 
Q 3406 3131 3298 2873 
Q 3191 2616 2906 2266 
Q 2828 2175 2409 1742 
Q 1991 1309 1228 531 
z
" transform="scale(0.015625)"/>
        <path id="DejaVuSans-35" d="M 691 4666 
L 3169 4666 
L 3169 4134 
L 1269 4134 
L 1269 2991 
Q 1406 3038 1543 3061 
Q 1681 3084 1819 3084 
Q 2600 3084 3056 2656 
Q 3513 2228 3513 1497 
Q 3513 744 3044 326 
Q 2575 -91 1722 -91 
Q 1428 -91 1123 -41 
Q 819 9 494 109 
L 494 744 
Q 775 591 1075 516 
Q 1375 441 1709 441 
Q 2250 441 2565 725 
Q 2881 1009 2881 1497 
Q 2881 1984 2565 2268 
Q 2250 2553 1709 2553 
Q 1456 2553 1204 2497 
Q 953 2441 691 2322 
L 691 4666 
z
" transform="scale(0.015625)"/>
       </defs>
       <use xlink:href="#DejaVuSans-32"/>
       <use xlink:href="#DejaVuSans-35" x="63.623047"/>
      </g>
     </g>
    </g>
    <g id="xtick_3">
     <g id="line2d_3">
      <path d="M 184.222299 292.4421 
L 184.222299 26.3301 
" clip-path="url(#pe830e28404)" style="fill: none; stroke-dasharray: 3.7,1.6; stroke-dashoffset: 0; stroke: #838383; stroke-opacity: 0.2"/>
     </g>
     <g id="text_3">
      <!-- 50 -->
      <g style="fill: #838383" transform="translate(177.223549 310.300381) scale(0.11 -0.11)">
       <use xlink:href="#DejaVuSans-35"/>
       <use xlink:href="#DejaVuSans-30" x="63.623047"/>
      </g>
     </g>
    </g>
    <g id="xtick_4">
     <g id="line2d_4">
      <path d="M 239.839226 292.4421 
L 239.839226 26.3301 
" clip-path="url(#pe830e28404)" style="fill: none; stroke-dasharray: 3.7,1.6; stroke-dashoffset: 0; stroke: #838383; stroke-opacity: 0.2"/>
     </g>
     <g id="text_4">
      <!-- 75 -->
      <g style="fill: #838383" transform="translate(232.840476 310.300381) scale(0.11 -0.11)">
       <defs>
        <path id="DejaVuSans-37" d="M 525 4666 
L 3525 4666 
L 3525 4397 
L 1831 0 
L 1172 0 
L 2766 4134 
L 525 4134 
L 525 4666 
z
" transform="scale(0.015625)"/>
       </defs>
       <use xlink:href="#DejaVuSans-37"/>
       <use xlink:href="#DejaVuSans-35" x="63.623047"/>
      </g>
     </g>
    </g>
    <g id="xtick_5">
     <g id="line2d_5">
      <path d="M 295.456154 292.4421 
L 295.456154 26.3301 
" clip-path="url(#pe830e28404)" style="fill: none; stroke-dasharray: 3.7,1.6; stroke-dashoffset: 0; stroke: #838383; stroke-opacity: 0.2"/>
     </g>
     <g id="text_5">
      <!-- 100 -->
      <g style="fill: #838383" transform="translate(284.958029 310.300381) scale(0.11 -0.11)">
       <defs>
        <path id="DejaVuSans-31" d="M 794 531 
L 1825 531 
L 1825 4091 
L 703 3866 
L 703 4441 
L 1819 4666 
L 2450 4666 
L 2450 531 
L 3481 531 
L 3481 0 
L 794 0 
L 794 531 
z
" transform="scale(0.015625)"/>
       </defs>
       <use xlink:href="#DejaVuSans-31"/>
       <use xlink:href="#DejaVuSans-30" x="63.623047"/>
       <use xlink:href="#DejaVuSans-30" x="127.246094"/>
      </g>
     </g>
    </g>
    <g id="xtick_6">
     <g id="line2d_6">
      <path d="M 351.073082 292.4421 
L 351.073082 26.3301 
" clip-path="url(#pe830e28404)" style="fill: none; stroke-dasharray: 3.7,1.6; stroke-dashoffset: 0; stroke: #838383; stroke-opacity: 0.2"/>
     </g>
     <g id="text_6">
      <!-- 125 -->
      <g style="fill: #838383" transform="translate(340.574957 310.300381) scale(0.11 -0.11)">
       <use xlink:href="#DejaVuSans-31"/>
       <use xlink:href="#DejaVuSans-32" x="63.623047"/>
       <use xlink:href="#DejaVuSans-35" x="127.246094"/>
      </g>
     </g>
    </g>
    <g id="xtick_7">
     <g id="line2d_7">
      <path d="M 406.690009 292.4421 
L 406.690009 26.3301 
" clip-path="url(#pe830e28404)" style="fill: none; stroke-dasharray: 3.7,1.6; stroke-dashoffset: 0; stroke: #838383; stroke-opacity: 0.2"/>
     </g>
     <g id="text_7">
      <!-- 150 -->
      <g style="fill: #838383" transform="translate(396.191884 310.300381) scale(0.11 -0.11)">
       <use xlink:href="#DejaVuSans-31"/>
       <use xlink:href="#DejaVuSans-35" x="63.623047"/>
       <use xlink:href="#DejaVuSans-30" x="127.246094"/>
      </g>
     </g>
    </g>
    <g id="xtick_8">
     <g id="line2d_8">
      <path d="M 462.306937 292.4421 
L 462.306937 26.3301 
" clip-path="url(#pe830e28404)" style="fill: none; stroke-dasharray: 3.7,1.6; stroke-dashoffset: 0; stroke: #838383; stroke-opacity: 0.2"/>
     </g>
     <g id="text_8">
      <!-- 175 -->
      <g style="fill: #838383" transform="translate(451.808812 310.300381) scale(0.11 -0.11)">
       <use xlink:href="#DejaVuSans-31"/>
       <use xlink:href="#DejaVuSans-37" x="63.623047"/>
       <use xlink:href="#DejaVuSans-35" x="127.246094"/>
      </g>
     </g>
    </g>
    <g id="xtick_9">
     <g id="line2d_9">
      <path d="M 517.923864 292.4421 
L 517.923864 26.3301 
" clip-path="url(#pe830e28404)" style="fill: none; stroke-dasharray: 3.7,1.6; stroke-dashoffset: 0; stroke: #838383; stroke-opacity: 0.2"/>
     </g>
     <g id="text_9">
      <!-- 200 -->
      <g style="fill: #838383" transform="translate(507.425739 310.300381) scale(0.11 -0.11)">
       <use xlink:href="#DejaVuSans-32"/>
       <use xlink:href="#DejaVuSans-30" x="63.623047"/>
       <use xlink:href="#DejaVuSans-30" x="127.246094"/>
      </g>
     </g>
    </g>
    <g id="text_10">
     <!-- MD Step -->
     <g style="fill: #838383" transform="translate(263.90469 327.529787) scale(0.144 -0.144)">
      <defs>
       <path id="DejaVuSans-4d" d="M 628 4666 
L 1569 4666 
L 2759 1491 
L 3956 4666 
L 4897 4666 
L 4897 0 
L 4281 0 
L 4281 4097 
L 3078 897 
L 2444 897 
L 1241 4097 
L 1241 0 
L 628 0 
L 628 4666 
z
" transform="scale(0.015625)"/>
       <path id="DejaVuSans-44" d="M 1259 4147 
L 1259 519 
L 2022 519 
Q 2988 519 3436 956 
Q 3884 1394 3884 2338 
Q 3884 3275 3436 3711 
Q 2988 4147 2022 4147 
L 1259 4147 
z
M 628 4666 
L 1925 4666 
Q 3281 4666 3915 4102 
Q 4550 3538 4550 2338 
Q 4550 1131 3912 565 
Q 3275 0 1925 0 
L 628 0 
L 628 4666 
z
" transform="scale(0.015625)"/>
       <path id="DejaVuSans-20" transform="scale(0.015625)"/>
       <path id="DejaVuSans-53" d="M 3425 4513 
L 3425 3897 
Q 3066 4069 2747 4153 
Q 2428 4238 2131 4238 
Q 1616 4238 1336 4038 
Q 1056 3838 1056 3469 
Q 1056 3159 1242 3001 
Q 1428 2844 1947 2747 
L 2328 2669 
Q 3034 2534 3370 2195 
Q 3706 1856 3706 1288 
Q 3706 609 3251 259 
Q 2797 -91 1919 -91 
Q 1588 -91 1214 -16 
Q 841 59 441 206 
L 441 856 
Q 825 641 1194 531 
Q 1563 422 1919 422 
Q 2459 422 2753 634 
Q 3047 847 3047 1241 
Q 3047 1584 2836 1778 
Q 2625 1972 2144 2069 
L 1759 2144 
Q 1053 2284 737 2584 
Q 422 2884 422 3419 
Q 422 4038 858 4394 
Q 1294 4750 2059 4750 
Q 2388 4750 2728 4690 
Q 3069 4631 3425 4513 
z
" transform="scale(0.015625)"/>
       <path id="DejaVuSans-74" d="M 1172 4494 
L 1172 3500 
L 2356 3500 
L 2356 3053 
L 1172 3053 
L 1172 1153 
Q 1172 725 1289 603 
Q 1406 481 1766 481 
L 2356 481 
L 2356 0 
L 1766 0 
Q 1100 0 847 248 
Q 594 497 594 1153 
L 594 3053 
L 172 3053 
L 172 3500 
L 594 3500 
L 594 4494 
L 1172 4494 
z
" transform="scale(0.015625)"/>
       <path id="DejaVuSans-65" d="M 3597 1894 
L 3597 1613 
L 953 1613 
Q 991 1019 1311 708 
Q 1631 397 2203 397 
Q 2534 397 2845 478 
Q 3156 559 3463 722 
L 3463 178 
Q 3153 47 2828 -22 
Q 2503 -91 2169 -91 
Q 1331 -91 842 396 
Q 353 884 353 1716 
Q 353 2575 817 3079 
Q 1281 3584 2069 3584 
Q 2775 3584 3186 3129 
Q 3597 2675 3597 1894 
z
M 3022 2063 
Q 3016 2534 2758 2815 
Q 2500 3097 2075 3097 
Q 1594 3097 1305 2825 
Q 1016 2553 972 2059 
L 3022 2063 
z
" transform="scale(0.015625)"/>
       <path id="DejaVuSans-70" d="M 1159 525 
L 1159 -1331 
L 581 -1331 
L 581 3500 
L 1159 3500 
L 1159 2969 
Q 1341 3281 1617 3432 
Q 1894 3584 2278 3584 
Q 2916 3584 3314 3078 
Q 3713 2572 3713 1747 
Q 3713 922 3314 415 
Q 2916 -91 2278 -91 
Q 1894 -91 1617 61 
Q 1341 213 1159 525 
z
M 3116 1747 
Q 3116 2381 2855 2742 
Q 2594 3103 2138 3103 
Q 1681 3103 1420 2742 
Q 1159 2381 1159 1747 
Q 1159 1113 1420 752 
Q 1681 391 2138 391 
Q 2594 391 2855 752 
Q 3116 1113 3116 1747 
z
" transform="scale(0.015625)"/>
      </defs>
      <use xlink:href="#DejaVuSans-4d"/>
      <use xlink:href="#DejaVuSans-44" x="86.279297"/>
      <use xlink:href="#DejaVuSans-20" x="163.28125"/>
      <use xlink:href="#DejaVuSans-53" x="195.068359"/>
      <use xlink:href="#DejaVuSans-74" x="258.544922"/>
      <use xlink:href="#DejaVuSans-65" x="297.753906"/>
      <use xlink:href="#DejaVuSans-70" x="359.277344"/>
     </g>
    </g>
   </g>
   <g id="matplotlib.axis_2">
    <g id="ytick_1">
     <g id="line2d_10">
      <path d="M 50.852906 280.3461 
L 537.834724 280.3461 
" clip-path="url(#pe830e28404)" style="fill: none; stroke-dasharray: 3.7,1.6; stroke-dashoffset: 0; stroke: #838383; stroke-opacity: 0.2"/>
     </g>
     <g id="text_11">
      <!-- −8 -->
      <g style="fill: #838383" transform="translate(25.1365 284.525241) scale(0.11 -0.11)">
       <defs>
        <path id="DejaVuSans-2212" d="M 678 2272 
L 4684 2272 
L 4684 1741 
L 678 1741 
L 678 2272 
z
" transform="scale(0.015625)"/>
        <path id="DejaVuSans-38" d="M 2034 2216 
Q 1584 2216 1326 1975 
Q 1069 1734 1069 1313 
Q 1069 891 1326 650 
Q 1584 409 2034 409 
Q 2484 409 2743 651 
Q 3003 894 3003 1313 
Q 3003 1734 2745 1975 
Q 2488 2216 2034 2216 
z
M 1403 2484 
Q 997 2584 770 2862 
Q 544 3141 544 3541 
Q 544 4100 942 4425 
Q 1341 4750 2034 4750 
Q 2731 4750 3128 4425 
Q 3525 4100 3525 3541 
Q 3525 3141 3298 2862 
Q 3072 2584 2669 2484 
Q 3125 2378 3379 2068 
Q 3634 1759 3634 1313 
Q 3634 634 3220 271 
Q 2806 -91 2034 -91 
Q 1263 -91 848 271 
Q 434 634 434 1313 
Q 434 1759 690 2068 
Q 947 2378 1403 2484 
z
M 1172 3481 
Q 1172 3119 1398 2916 
Q 1625 2713 2034 2713 
Q 2441 2713 2670 2916 
Q 2900 3119 2900 3481 
Q 2900 3844 2670 4047 
Q 2441 4250 2034 4250 
Q 1625 4250 1398 4047 
Q 1172 3844 1172 3481 
z
" transform="scale(0.015625)"/>
       </defs>
       <use xlink:href="#DejaVuSans-2212"/>
       <use xlink:href="#DejaVuSans-38" x="83.789062"/>
      </g>
     </g>
    </g>
    <g id="ytick_2">
     <g id="line2d_11">
      <path d="M 50.852906 250.1061 
L 537.834724 250.1061 
" clip-path="url(#pe830e28404)" style="fill: none; stroke-dasharray: 3.7,1.6; stroke-dashoffset: 0; stroke: #838383; stroke-opacity: 0.2"/>
     </g>
     <g id="text_12">
      <!-- −6 -->
      <g style="fill: #838383" transform="translate(25.1365 254.285241) scale(0.11 -0.11)">
       <defs>
        <path id="DejaVuSans-36" d="M 2113 2584 
Q 1688 2584 1439 2293 
Q 1191 2003 1191 1497 
Q 1191 994 1439 701 
Q 1688 409 2113 409 
Q 2538 409 2786 701 
Q 3034 994 3034 1497 
Q 3034 2003 2786 2293 
Q 2538 2584 2113 2584 
z
M 3366 4563 
L 3366 3988 
Q 3128 4100 2886 4159 
Q 2644 4219 2406 4219 
Q 1781 4219 1451 3797 
Q 1122 3375 1075 2522 
Q 1259 2794 1537 2939 
Q 1816 3084 2150 3084 
Q 2853 3084 3261 2657 
Q 3669 2231 3669 1497 
Q 3669 778 3244 343 
Q 2819 -91 2113 -91 
Q 1303 -91 875 529 
Q 447 1150 447 2328 
Q 447 3434 972 4092 
Q 1497 4750 2381 4750 
Q 2619 4750 2861 4703 
Q 3103 4656 3366 4563 
z
" transform="scale(0.015625)"/>
       </defs>
       <use xlink:href="#DejaVuSans-2212"/>
       <use xlink:href="#DejaVuSans-36" x="83.789062"/>
      </g>
     </g>
    </g>
    <g id="ytick_3">
     <g id="line2d_12">
      <path d="M 50.852906 219.8661 
L 537.834724 219.8661 
" clip-path="url(#pe830e28404)" style="fill: none; stroke-dasharray: 3.7,1.6; stroke-dashoffset: 0; stroke: #838383; stroke-opacity: 0.2"/>
     </g>
     <g id="text_13">
      <!-- −4 -->
      <g style="fill: #838383" transform="translate(25.1365 224.045241) scale(0.11 -0.11)">
       <defs>
        <path id="DejaVuSans-34" d="M 2419 4116 
L 825 1625 
L 2419 1625 
L 2419 4116 
z
M 2253 4666 
L 3047 4666 
L 3047 1625 
L 3713 1625 
L 3713 1100 
L 3047 1100 
L 3047 0 
L 2419 0 
L 2419 1100 
L 313 1100 
L 313 1709 
L 2253 4666 
z
" transform="scale(0.015625)"/>
       </defs>
       <use xlink:href="#DejaVuSans-2212"/>
       <use xlink:href="#DejaVuSans-34" x="83.789062"/>
      </g>
     </g>
    </g>
    <g id="ytick_4">
     <g id="line2d_13">
      <path d="M 50.852906 189.6261 
L 537.834724 189.6261 
" clip-path="url(#pe830e28404)" style="fill: none; stroke-dasharray: 3.7,1.6; stroke-dashoffset: 0; stroke: #838383; stroke-opacity: 0.2"/>
     </g>
     <g id="text_14">
      <!-- −2 -->
      <g style="fill: #838383" transform="translate(25.1365 193.805241) scale(0.11 -0.11)">
       <use xlink:href="#DejaVuSans-2212"/>
       <use xlink:href="#DejaVuSans-32" x="83.789062"/>
      </g>
     </g>
    </g>
    <g id="ytick_5">
     <g id="line2d_14">
      <path d="M 50.852906 159.3861 
L 537.834724 159.3861 
" clip-path="url(#pe830e28404)" style="fill: none; stroke-dasharray: 3.7,1.6; stroke-dashoffset: 0; stroke: #838383; stroke-opacity: 0.2"/>
     </g>
     <g id="text_15">
      <!-- 0 -->
      <g style="fill: #838383" transform="translate(34.354156 163.565241) scale(0.11 -0.11)">
       <use xlink:href="#DejaVuSans-30"/>
      </g>
     </g>
    </g>
    <g id="ytick_6">
     <g id="line2d_15">
      <path d="M 50.852906 129.1461 
L 537.834724 129.1461 
" clip-path="url(#pe830e28404)" style="fill: none; stroke-dasharray: 3.7,1.6; stroke-dashoffset: 0; stroke: #838383; stroke-opacity: 0.2"/>
     </g>
     <g id="text_16">
      <!-- 2 -->
      <g style="fill: #838383" transform="translate(34.354156 133.325241) scale(0.11 -0.11)">
       <use xlink:href="#DejaVuSans-32"/>
      </g>
     </g>
    </g>
    <g id="ytick_7">
     <g id="line2d_16">
      <path d="M 50.852906 98.9061 
L 537.834724 98.9061 
" clip-path="url(#pe830e28404)" style="fill: none; stroke-dasharray: 3.7,1.6; stroke-dashoffset: 0; stroke: #838383; stroke-opacity: 0.2"/>
     </g>
     <g id="text_17">
      <!-- 4 -->
      <g style="fill: #838383" transform="translate(34.354156 103.085241) scale(0.11 -0.11)">
       <use xlink:href="#DejaVuSans-34"/>
      </g>
     </g>
    </g>
    <g id="ytick_8">
     <g id="line2d_17">
      <path d="M 50.852906 68.6661 
L 537.834724 68.6661 
" clip-path="url(#pe830e28404)" style="fill: none; stroke-dasharray: 3.7,1.6; stroke-dashoffset: 0; stroke: #838383; stroke-opacity: 0.2"/>
     </g>
     <g id="text_18">
      <!-- 6 -->
      <g style="fill: #838383" transform="translate(34.354156 72.845241) scale(0.11 -0.11)">
       <use xlink:href="#DejaVuSans-36"/>
      </g>
     </g>
    </g>
    <g id="ytick_9">
     <g id="line2d_18">
      <path d="M 50.852906 38.4261 
L 537.834724 38.4261 
" clip-path="url(#pe830e28404)" style="fill: none; stroke-dasharray: 3.7,1.6; stroke-dashoffset: 0; stroke: #838383; stroke-opacity: 0.2"/>
     </g>
     <g id="text_19">
      <!-- 8 -->
      <g style="fill: #838383" transform="translate(34.354156 42.605241) scale(0.11 -0.11)">
       <use xlink:href="#DejaVuSans-38"/>
      </g>
     </g>
    </g>
    <g id="text_20">
     <!-- dQint -->
     <g style="fill: #838383" transform="translate(18.14175 179.0106) rotate(-90) scale(0.144 -0.144)">
      <defs>
       <path id="DejaVuSans-64" d="M 2906 2969 
L 2906 4863 
L 3481 4863 
L 3481 0 
L 2906 0 
L 2906 525 
Q 2725 213 2448 61 
Q 2172 -91 1784 -91 
Q 1150 -91 751 415 
Q 353 922 353 1747 
Q 353 2572 751 3078 
Q 1150 3584 1784 3584 
Q 2172 3584 2448 3432 
Q 2725 3281 2906 2969 
z
M 947 1747 
Q 947 1113 1208 752 
Q 1469 391 1925 391 
Q 2381 391 2643 752 
Q 2906 1113 2906 1747 
Q 2906 2381 2643 2742 
Q 2381 3103 1925 3103 
Q 1469 3103 1208 2742 
Q 947 2381 947 1747 
z
" transform="scale(0.015625)"/>
       <path id="DejaVuSans-51" d="M 2522 4238 
Q 1834 4238 1429 3725 
Q 1025 3213 1025 2328 
Q 1025 1447 1429 934 
Q 1834 422 2522 422 
Q 3209 422 3611 934 
Q 4013 1447 4013 2328 
Q 4013 3213 3611 3725 
Q 3209 4238 2522 4238 
z
M 3406 84 
L 4238 -825 
L 3475 -825 
L 2784 -78 
Q 2681 -84 2626 -87 
Q 2572 -91 2522 -91 
Q 1538 -91 948 567 
Q 359 1225 359 2328 
Q 359 3434 948 4092 
Q 1538 4750 2522 4750 
Q 3503 4750 4090 4092 
Q 4678 3434 4678 2328 
Q 4678 1516 4351 937 
Q 4025 359 3406 84 
z
" transform="scale(0.015625)"/>
       <path id="DejaVuSans-69" d="M 603 3500 
L 1178 3500 
L 1178 0 
L 603 0 
L 603 3500 
z
M 603 4863 
L 1178 4863 
L 1178 4134 
L 603 4134 
L 603 4863 
z
" transform="scale(0.015625)"/>
       <path id="DejaVuSans-6e" d="M 3513 2113 
L 3513 0 
L 2938 0 
L 2938 2094 
Q 2938 2591 2744 2837 
Q 2550 3084 2163 3084 
Q 1697 3084 1428 2787 
Q 1159 2491 1159 1978 
L 1159 0 
L 581 0 
L 581 3500 
L 1159 3500 
L 1159 2956 
Q 1366 3272 1645 3428 
Q 1925 3584 2291 3584 
Q 2894 3584 3203 3211 
Q 3513 2838 3513 2113 
z
" transform="scale(0.015625)"/>
      </defs>
      <use xlink:href="#DejaVuSans-64"/>
      <use xlink:href="#DejaVuSans-51" x="63.476562"/>
      <use xlink:href="#DejaVuSans-69" x="142.1875"/>
      <use xlink:href="#DejaVuSans-6e" x="169.970703"/>
      <use xlink:href="#DejaVuSans-74" x="233.349609"/>
     </g>
    </g>
   </g>
   <g id="line2d_19">
    <path d="M 72.988443 68.666086 
L 75.213121 68.666107 
L 77.437798 98.906086 
L 81.887152 98.9061 
L 84.111829 114.026104 
L 90.78586 68.6661 
L 93.010537 68.6661 
L 95.235214 53.5461 
L 99.684569 83.7861 
L 106.3586 83.786107 
L 108.583277 98.906086 
L 117.481986 98.9061 
L 119.706663 83.786093 
L 121.93134 83.7861 
L 124.156017 68.6661 
L 128.605371 98.906093 
L 130.830048 83.7861 
L 133.054725 83.786107 
L 135.279402 98.9061 
L 139.728757 98.9061 
L 141.953434 83.7861 
L 144.178111 98.906093 
L 146.402788 68.6661 
L 153.076819 68.666093 
L 155.301496 83.786093 
L 159.750851 83.786107 
L 161.975528 98.906093 
L 173.098913 98.906104 
L 175.32359 83.786107 
L 177.548267 83.7861 
L 179.772944 98.9061 
L 181.997622 83.786093 
L 190.89633 83.7861 
L 193.121007 38.4261 
L 197.570361 38.4261 
L 199.795038 53.5461 
L 202.019716 53.546093 
L 204.244393 68.6661 
L 206.46907 53.5461 
L 210.918424 53.5461 
L 213.143101 68.6661 
L 215.367778 68.666093 
L 217.592455 83.786107 
L 224.266487 83.786107 
L 226.491164 98.906086 
L 228.715841 98.906107 
L 230.940518 83.786093 
L 233.165195 53.5461 
L 235.389872 68.6661 
L 242.063903 68.666093 
L 244.28858 53.546093 
L 246.513258 53.5461 
L 248.737935 68.666086 
L 253.187289 68.6661 
L 255.411966 83.7861 
L 259.86132 83.7861 
L 262.085997 68.666107 
L 264.310674 83.7861 
L 266.535352 83.786093 
L 268.760029 68.6661 
L 279.883414 68.6661 
L 282.108091 53.5461 
L 286.557445 83.7861 
L 288.782123 68.666086 
L 293.231477 68.6661 
L 295.456154 83.7861 
L 299.905508 83.786093 
L 306.579539 38.4261 
L 315.478248 98.9061 
L 319.927602 68.666086 
L 322.152279 68.666107 
L 324.376956 83.786114 
L 326.601633 83.786086 
L 328.82631 68.6661 
L 333.275665 68.666093 
L 335.500342 53.546093 
L 337.725019 53.5461 
L 339.949696 68.666093 
L 342.174373 53.5461 
L 351.073082 53.546093 
L 353.297759 38.4261 
L 355.522436 38.4261 
L 357.747113 53.5461 
L 362.196467 53.5461 
L 366.645821 83.786093 
L 368.870498 83.7861 
L 373.319853 53.5461 
L 375.54453 53.5461 
L 377.769207 68.6661 
L 395.566624 68.6661 
L 397.791301 83.7861 
L 402.240655 53.546107 
L 404.465332 83.786093 
L 422.262749 83.786093 
L 424.487426 98.9061 
L 426.712103 83.786093 
L 431.161457 83.7861 
L 433.386134 68.6661 
L 435.610811 68.666093 
L 437.835489 53.5461 
L 440.060166 53.546114 
L 442.284843 68.6661 
L 444.50952 68.6661 
L 446.734197 83.786107 
L 448.958874 83.786093 
L 451.183551 114.026104 
L 453.408228 114.026086 
L 455.632905 98.9061 
L 457.857583 114.0261 
L 466.756291 114.0261 
L 468.980968 98.9061 
L 471.205645 98.9061 
L 473.430322 83.786093 
L 477.879676 83.7861 
L 480.104354 98.9061 
L 482.329031 83.7861 
L 484.553708 83.786093 
L 486.778385 98.906093 
L 502.351125 98.906093 
L 504.575802 83.786086 
L 506.800479 53.5461 
L 509.025156 53.546107 
L 511.249833 38.4261 
L 515.699187 38.4261 
L 515.699187 38.4261 
" clip-path="url(#pe830e28404)" style="fill: none; stroke-dasharray: 1.5,2.475; stroke-dashoffset: 0; stroke: #ef5350; stroke-width: 1.5"/>
   </g>
   <g id="patch_3">
    <path d="M 50.852906 292.4421 
L 50.852906 26.3301 
" style="fill: none"/>
   </g>
   <g id="patch_4">
    <path d="M 537.834724 292.4421 
L 537.834724 26.3301 
" style="fill: none"/>
   </g>
   <g id="patch_5">
    <path d="M 50.852906 292.4421 
L 537.834724 292.4421 
" style="fill: none"/>
   </g>
   <g id="patch_6">
    <path d="M 50.852906 26.3301 
L 537.834724 26.3301 
" style="fill: none"/>
   </g>
   <g id="text_21">
    <!-- PyTorch -->
    <g style="fill: #838383" transform="translate(261.341715 20.3301) scale(0.1728 -0.1728)">
     <defs>
      <path id="DejaVuSans-50" d="M 1259 4147 
L 1259 2394 
L 2053 2394 
Q 2494 2394 2734 2622 
Q 2975 2850 2975 3272 
Q 2975 3691 2734 3919 
Q 2494 4147 2053 4147 
L 1259 4147 
z
M 628 4666 
L 2053 4666 
Q 2838 4666 3239 4311 
Q 3641 3956 3641 3272 
Q 3641 2581 3239 2228 
Q 2838 1875 2053 1875 
L 1259 1875 
L 1259 0 
L 628 0 
L 628 4666 
z
" transform="scale(0.015625)"/>
      <path id="DejaVuSans-79" d="M 2059 -325 
Q 1816 -950 1584 -1140 
Q 1353 -1331 966 -1331 
L 506 -1331 
L 506 -850 
L 844 -850 
Q 1081 -850 1212 -737 
Q 1344 -625 1503 -206 
L 1606 56 
L 191 3500 
L 800 3500 
L 1894 763 
L 2988 3500 
L 3597 3500 
L 2059 -325 
z
" transform="scale(0.015625)"/>
      <path id="DejaVuSans-54" d="M -19 4666 
L 3928 4666 
L 3928 4134 
L 2272 4134 
L 2272 0 
L 1638 0 
L 1638 4134 
L -19 4134 
L -19 4666 
z
" transform="scale(0.015625)"/>
      <path id="DejaVuSans-6f" d="M 1959 3097 
Q 1497 3097 1228 2736 
Q 959 2375 959 1747 
Q 959 1119 1226 758 
Q 1494 397 1959 397 
Q 2419 397 2687 759 
Q 2956 1122 2956 1747 
Q 2956 2369 2687 2733 
Q 2419 3097 1959 3097 
z
M 1959 3584 
Q 2709 3584 3137 3096 
Q 3566 2609 3566 1747 
Q 3566 888 3137 398 
Q 2709 -91 1959 -91 
Q 1206 -91 779 398 
Q 353 888 353 1747 
Q 353 2609 779 3096 
Q 1206 3584 1959 3584 
z
" transform="scale(0.015625)"/>
      <path id="DejaVuSans-72" d="M 2631 2963 
Q 2534 3019 2420 3045 
Q 2306 3072 2169 3072 
Q 1681 3072 1420 2755 
Q 1159 2438 1159 1844 
L 1159 0 
L 581 0 
L 581 3500 
L 1159 3500 
L 1159 2956 
Q 1341 3275 1631 3429 
Q 1922 3584 2338 3584 
Q 2397 3584 2469 3576 
Q 2541 3569 2628 3553 
L 2631 2963 
z
" transform="scale(0.015625)"/>
      <path id="DejaVuSans-63" d="M 3122 3366 
L 3122 2828 
Q 2878 2963 2633 3030 
Q 2388 3097 2138 3097 
Q 1578 3097 1268 2742 
Q 959 2388 959 1747 
Q 959 1106 1268 751 
Q 1578 397 2138 397 
Q 2388 397 2633 464 
Q 2878 531 3122 666 
L 3122 134 
Q 2881 22 2623 -34 
Q 2366 -91 2075 -91 
Q 1284 -91 818 406 
Q 353 903 353 1747 
Q 353 2603 823 3093 
Q 1294 3584 2113 3584 
Q 2378 3584 2631 3529 
Q 2884 3475 3122 3366 
z
" transform="scale(0.015625)"/>
      <path id="DejaVuSans-68" d="M 3513 2113 
L 3513 0 
L 2938 0 
L 2938 2094 
Q 2938 2591 2744 2837 
Q 2550 3084 2163 3084 
Q 1697 3084 1428 2787 
Q 1159 2491 1159 1978 
L 1159 0 
L 581 0 
L 581 4863 
L 1159 4863 
L 1159 2956 
Q 1366 3272 1645 3428 
Q 1925 3584 2291 3584 
Q 2894 3584 3203 3211 
Q 3513 2838 3513 2113 
z
" transform="scale(0.015625)"/>
     </defs>
     <use xlink:href="#DejaVuSans-50"/>
     <use xlink:href="#DejaVuSans-79" x="60.302734"/>
     <use xlink:href="#DejaVuSans-54" x="119.482422"/>
     <use xlink:href="#DejaVuSans-6f" x="163.566406"/>
     <use xlink:href="#DejaVuSans-72" x="224.748047"/>
     <use xlink:href="#DejaVuSans-63" x="263.611328"/>
     <use xlink:href="#DejaVuSans-68" x="318.591797"/>
    </g>
   </g>
   <g id="line2d_20">
    <path d="M 72.988443 234.9861 
L 75.213121 234.986093 
L 77.437798 250.1061 
L 86.336506 250.1061 
L 90.78586 219.866093 
L 93.010537 234.986093 
L 108.583277 234.9861 
L 110.807954 250.106093 
L 113.032631 234.986093 
L 119.706663 234.986093 
L 121.93134 250.106107 
L 157.526173 250.1061 
L 159.750851 265.226093 
L 193.121007 265.226114 
L 195.345684 250.1061 
L 197.570361 250.1061 
L 199.795038 265.226093 
L 202.019716 250.1061 
L 208.693747 250.106093 
L 210.918424 234.986093 
L 226.491164 234.986093 
L 228.715841 250.106093 
L 259.86132 250.106093 
L 262.085997 234.986093 
L 270.984706 234.986093 
L 273.209383 219.866107 
L 275.43406 219.8661 
L 277.658737 204.7461 
L 288.782123 204.746093 
L 291.0068 219.8661 
L 313.253571 219.866096 
L 315.478248 250.106086 
L 328.82631 250.1061 
L 331.050988 265.226093 
L 344.39905 265.2261 
L 346.623727 280.3461 
L 348.848404 265.226093 
L 353.297759 265.226093 
L 355.522436 280.3461 
L 375.54453 280.3461 
L 377.769207 250.106093 
L 379.993884 265.226107 
L 382.218561 250.106093 
L 384.443238 265.2261 
L 515.699187 265.2261 
L 515.699187 265.2261 
" clip-path="url(#pe830e28404)" style="fill: none; stroke: #666666; stroke-width: 2; stroke-linecap: round"/>
   </g>
   <g id="legend_1">
    <g id="patch_7">
     <path d="M 58.552906 286.9421 
L 212.13525 286.9421 
Q 214.33525 286.9421 214.33525 284.7421 
L 214.33525 269.696162 
Q 214.33525 267.496162 212.13525 267.496162 
L 58.552906 267.496162 
Q 56.352906 267.496162 56.352906 269.696162 
L 56.352906 284.7421 
Q 56.352906 286.9421 58.552906 286.9421 
L 58.552906 286.9421 
z
" style="fill: none; opacity: 0.8"/>
    </g>
    <g id="line2d_21">
     <path d="M 60.752906 276.404444 
L 71.752906 276.404444 
L 82.752906 276.404444 
" style="fill: none; stroke-dasharray: 1.5,2.475; stroke-dashoffset: 0; stroke: #ef5350; stroke-width: 1.5"/>
    </g>
    <g id="text_22">
     <!-- Trained -->
     <g style="fill: #939393" transform="translate(91.552906 280.254444) scale(0.11 -0.11)">
      <defs>
       <path id="DejaVuSans-61" d="M 2194 1759 
Q 1497 1759 1228 1600 
Q 959 1441 959 1056 
Q 959 750 1161 570 
Q 1363 391 1709 391 
Q 2188 391 2477 730 
Q 2766 1069 2766 1631 
L 2766 1759 
L 2194 1759 
z
M 3341 1997 
L 3341 0 
L 2766 0 
L 2766 531 
Q 2569 213 2275 61 
Q 1981 -91 1556 -91 
Q 1019 -91 701 211 
Q 384 513 384 1019 
Q 384 1609 779 1909 
Q 1175 2209 1959 2209 
L 2766 2209 
L 2766 2266 
Q 2766 2663 2505 2880 
Q 2244 3097 1772 3097 
Q 1472 3097 1187 3025 
Q 903 2953 641 2809 
L 641 3341 
Q 956 3463 1253 3523 
Q 1550 3584 1831 3584 
Q 2591 3584 2966 3190 
Q 3341 2797 3341 1997 
z
" transform="scale(0.015625)"/>
      </defs>
      <use xlink:href="#DejaVuSans-54"/>
      <use xlink:href="#DejaVuSans-72" x="46.333984"/>
      <use xlink:href="#DejaVuSans-61" x="87.447266"/>
      <use xlink:href="#DejaVuSans-69" x="148.726562"/>
      <use xlink:href="#DejaVuSans-6e" x="176.509766"/>
      <use xlink:href="#DejaVuSans-65" x="239.888672"/>
      <use xlink:href="#DejaVuSans-64" x="301.412109"/>
     </g>
    </g>
    <g id="line2d_22">
     <path d="M 153.690875 276.404444 
L 164.690875 276.404444 
L 175.690875 276.404444 
" style="fill: none; stroke: #666666; stroke-width: 2; stroke-linecap: round"/>
    </g>
    <g id="text_23">
     <!-- HMC -->
     <g style="fill: #939393" transform="translate(184.490875 280.254444) scale(0.11 -0.11)">
      <defs>
       <path id="DejaVuSans-48" d="M 628 4666 
L 1259 4666 
L 1259 2753 
L 3553 2753 
L 3553 4666 
L 4184 4666 
L 4184 0 
L 3553 0 
L 3553 2222 
L 1259 2222 
L 1259 0 
L 628 0 
L 628 4666 
z
" transform="scale(0.015625)"/>
       <path id="DejaVuSans-43" d="M 4122 4306 
L 4122 3641 
Q 3803 3938 3442 4084 
Q 3081 4231 2675 4231 
Q 1875 4231 1450 3742 
Q 1025 3253 1025 2328 
Q 1025 1406 1450 917 
Q 1875 428 2675 428 
Q 3081 428 3442 575 
Q 3803 722 4122 1019 
L 4122 359 
Q 3791 134 3420 21 
Q 3050 -91 2638 -91 
Q 1578 -91 968 557 
Q 359 1206 359 2328 
Q 359 3453 968 4101 
Q 1578 4750 2638 4750 
Q 3056 4750 3426 4639 
Q 3797 4528 4122 4306 
z
" transform="scale(0.015625)"/>
      </defs>
      <use xlink:href="#DejaVuSans-48"/>
      <use xlink:href="#DejaVuSans-4d" x="75.195312"/>
      <use xlink:href="#DejaVuSans-43" x="161.474609"/>
     </g>
    </g>
   </g>
  </g>
  <g id="axes_2">
   <g id="patch_8">
    <path d="M 635.231088 292.4421 
L 1122.212906 292.4421 
L 1122.212906 26.3301 
L 635.231088 26.3301 
L 635.231088 292.4421 
z
" style="fill: none"/>
   </g>
   <g id="matplotlib.axis_3">
    <g id="xtick_10">
     <g id="line2d_23">
      <path d="M 657.366625 292.4421 
L 657.366625 26.3301 
" clip-path="url(#p87b0097d97)" style="fill: none; stroke-dasharray: 3.7,1.6; stroke-dashoffset: 0; stroke: #838383; stroke-opacity: 0.2"/>
     </g>
     <g id="text_24">
      <!-- 0 -->
      <g style="fill: #838383" transform="translate(653.86725 310.300381) scale(0.11 -0.11)">
       <use xlink:href="#DejaVuSans-30"/>
      </g>
     </g>
    </g>
    <g id="xtick_11">
     <g id="line2d_24">
      <path d="M 712.983553 292.4421 
L 712.983553 26.3301 
" clip-path="url(#p87b0097d97)" style="fill: none; stroke-dasharray: 3.7,1.6; stroke-dashoffset: 0; stroke: #838383; stroke-opacity: 0.2"/>
     </g>
     <g id="text_25">
      <!-- 25 -->
      <g style="fill: #838383" transform="translate(705.984803 310.300381) scale(0.11 -0.11)">
       <use xlink:href="#DejaVuSans-32"/>
       <use xlink:href="#DejaVuSans-35" x="63.623047"/>
      </g>
     </g>
    </g>
    <g id="xtick_12">
     <g id="line2d_25">
      <path d="M 768.60048 292.4421 
L 768.60048 26.3301 
" clip-path="url(#p87b0097d97)" style="fill: none; stroke-dasharray: 3.7,1.6; stroke-dashoffset: 0; stroke: #838383; stroke-opacity: 0.2"/>
     </g>
     <g id="text_26">
      <!-- 50 -->
      <g style="fill: #838383" transform="translate(761.60173 310.300381) scale(0.11 -0.11)">
       <use xlink:href="#DejaVuSans-35"/>
       <use xlink:href="#DejaVuSans-30" x="63.623047"/>
      </g>
     </g>
    </g>
    <g id="xtick_13">
     <g id="line2d_26">
      <path d="M 824.217408 292.4421 
L 824.217408 26.3301 
" clip-path="url(#p87b0097d97)" style="fill: none; stroke-dasharray: 3.7,1.6; stroke-dashoffset: 0; stroke: #838383; stroke-opacity: 0.2"/>
     </g>
     <g id="text_27">
      <!-- 75 -->
      <g style="fill: #838383" transform="translate(817.218658 310.300381) scale(0.11 -0.11)">
       <use xlink:href="#DejaVuSans-37"/>
       <use xlink:href="#DejaVuSans-35" x="63.623047"/>
      </g>
     </g>
    </g>
    <g id="xtick_14">
     <g id="line2d_27">
      <path d="M 879.834336 292.4421 
L 879.834336 26.3301 
" clip-path="url(#p87b0097d97)" style="fill: none; stroke-dasharray: 3.7,1.6; stroke-dashoffset: 0; stroke: #838383; stroke-opacity: 0.2"/>
     </g>
     <g id="text_28">
      <!-- 100 -->
      <g style="fill: #838383" transform="translate(869.336211 310.300381) scale(0.11 -0.11)">
       <use xlink:href="#DejaVuSans-31"/>
       <use xlink:href="#DejaVuSans-30" x="63.623047"/>
       <use xlink:href="#DejaVuSans-30" x="127.246094"/>
      </g>
     </g>
    </g>
    <g id="xtick_15">
     <g id="line2d_28">
      <path d="M 935.451263 292.4421 
L 935.451263 26.3301 
" clip-path="url(#p87b0097d97)" style="fill: none; stroke-dasharray: 3.7,1.6; stroke-dashoffset: 0; stroke: #838383; stroke-opacity: 0.2"/>
     </g>
     <g id="text_29">
      <!-- 125 -->
      <g style="fill: #838383" transform="translate(924.953138 310.300381) scale(0.11 -0.11)">
       <use xlink:href="#DejaVuSans-31"/>
       <use xlink:href="#DejaVuSans-32" x="63.623047"/>
       <use xlink:href="#DejaVuSans-35" x="127.246094"/>
      </g>
     </g>
    </g>
    <g id="xtick_16">
     <g id="line2d_29">
      <path d="M 991.068191 292.4421 
L 991.068191 26.3301 
" clip-path="url(#p87b0097d97)" style="fill: none; stroke-dasharray: 3.7,1.6; stroke-dashoffset: 0; stroke: #838383; stroke-opacity: 0.2"/>
     </g>
     <g id="text_30">
      <!-- 150 -->
      <g style="fill: #838383" transform="translate(980.570066 310.300381) scale(0.11 -0.11)">
       <use xlink:href="#DejaVuSans-31"/>
       <use xlink:href="#DejaVuSans-35" x="63.623047"/>
       <use xlink:href="#DejaVuSans-30" x="127.246094"/>
      </g>
     </g>
    </g>
    <g id="xtick_17">
     <g id="line2d_30">
      <path d="M 1046.685119 292.4421 
L 1046.685119 26.3301 
" clip-path="url(#p87b0097d97)" style="fill: none; stroke-dasharray: 3.7,1.6; stroke-dashoffset: 0; stroke: #838383; stroke-opacity: 0.2"/>
     </g>
     <g id="text_31">
      <!-- 175 -->
      <g style="fill: #838383" transform="translate(1036.186994 310.300381) scale(0.11 -0.11)">
       <use xlink:href="#DejaVuSans-31"/>
       <use xlink:href="#DejaVuSans-37" x="63.623047"/>
       <use xlink:href="#DejaVuSans-35" x="127.246094"/>
      </g>
     </g>
    </g>
    <g id="xtick_18">
     <g id="line2d_31">
      <path d="M 1102.302046 292.4421 
L 1102.302046 26.3301 
" clip-path="url(#p87b0097d97)" style="fill: none; stroke-dasharray: 3.7,1.6; stroke-dashoffset: 0; stroke: #838383; stroke-opacity: 0.2"/>
     </g>
     <g id="text_32">
      <!-- 200 -->
      <g style="fill: #838383" transform="translate(1091.803921 310.300381) scale(0.11 -0.11)">
       <use xlink:href="#DejaVuSans-32"/>
       <use xlink:href="#DejaVuSans-30" x="63.623047"/>
       <use xlink:href="#DejaVuSans-30" x="127.246094"/>
      </g>
     </g>
    </g>
    <g id="text_33">
     <!-- MD Step -->
     <g style="fill: #838383" transform="translate(848.282872 327.529787) scale(0.144 -0.144)">
      <use xlink:href="#DejaVuSans-4d"/>
      <use xlink:href="#DejaVuSans-44" x="86.279297"/>
      <use xlink:href="#DejaVuSans-20" x="163.28125"/>
      <use xlink:href="#DejaVuSans-53" x="195.068359"/>
      <use xlink:href="#DejaVuSans-74" x="258.544922"/>
      <use xlink:href="#DejaVuSans-65" x="297.753906"/>
      <use xlink:href="#DejaVuSans-70" x="359.277344"/>
     </g>
    </g>
   </g>
   <g id="matplotlib.axis_4">
    <g id="ytick_10">
     <g id="line2d_32">
      <path d="M 635.231088 273.230806 
L 1122.212906 273.230806 
" clip-path="url(#p87b0097d97)" style="fill: none; stroke-dasharray: 3.7,1.6; stroke-dashoffset: 0; stroke: #838383; stroke-opacity: 0.2"/>
     </g>
     <g id="text_34">
      <!-- −7.5 -->
      <g style="fill: #838383" transform="translate(599.019994 277.409947) scale(0.11 -0.11)">
       <defs>
        <path id="DejaVuSans-2e" d="M 684 794 
L 1344 794 
L 1344 0 
L 684 0 
L 684 794 
z
" transform="scale(0.015625)"/>
       </defs>
       <use xlink:href="#DejaVuSans-2212"/>
       <use xlink:href="#DejaVuSans-37" x="83.789062"/>
       <use xlink:href="#DejaVuSans-2e" x="147.412109"/>
       <use xlink:href="#DejaVuSans-35" x="179.199219"/>
      </g>
     </g>
    </g>
    <g id="ytick_11">
     <g id="line2d_33">
      <path d="M 635.231088 237.654335 
L 1122.212906 237.654335 
" clip-path="url(#p87b0097d97)" style="fill: none; stroke-dasharray: 3.7,1.6; stroke-dashoffset: 0; stroke: #838383; stroke-opacity: 0.2"/>
     </g>
     <g id="text_35">
      <!-- −5.0 -->
      <g style="fill: #838383" transform="translate(599.019994 241.833476) scale(0.11 -0.11)">
       <use xlink:href="#DejaVuSans-2212"/>
       <use xlink:href="#DejaVuSans-35" x="83.789062"/>
       <use xlink:href="#DejaVuSans-2e" x="147.412109"/>
       <use xlink:href="#DejaVuSans-30" x="179.199219"/>
      </g>
     </g>
    </g>
    <g id="ytick_12">
     <g id="line2d_34">
      <path d="M 635.231088 202.077865 
L 1122.212906 202.077865 
" clip-path="url(#p87b0097d97)" style="fill: none; stroke-dasharray: 3.7,1.6; stroke-dashoffset: 0; stroke: #838383; stroke-opacity: 0.2"/>
     </g>
     <g id="text_36">
      <!-- −2.5 -->
      <g style="fill: #838383" transform="translate(599.019994 206.257005) scale(0.11 -0.11)">
       <use xlink:href="#DejaVuSans-2212"/>
       <use xlink:href="#DejaVuSans-32" x="83.789062"/>
       <use xlink:href="#DejaVuSans-2e" x="147.412109"/>
       <use xlink:href="#DejaVuSans-35" x="179.199219"/>
      </g>
     </g>
    </g>
    <g id="ytick_13">
     <g id="line2d_35">
      <path d="M 635.231088 166.501394 
L 1122.212906 166.501394 
" clip-path="url(#p87b0097d97)" style="fill: none; stroke-dasharray: 3.7,1.6; stroke-dashoffset: 0; stroke: #838383; stroke-opacity: 0.2"/>
     </g>
     <g id="text_37">
      <!-- 0.0 -->
      <g style="fill: #838383" transform="translate(608.237651 170.680535) scale(0.11 -0.11)">
       <use xlink:href="#DejaVuSans-30"/>
       <use xlink:href="#DejaVuSans-2e" x="63.623047"/>
       <use xlink:href="#DejaVuSans-30" x="95.410156"/>
      </g>
     </g>
    </g>
    <g id="ytick_14">
     <g id="line2d_36">
      <path d="M 635.231088 130.924924 
L 1122.212906 130.924924 
" clip-path="url(#p87b0097d97)" style="fill: none; stroke-dasharray: 3.7,1.6; stroke-dashoffset: 0; stroke: #838383; stroke-opacity: 0.2"/>
     </g>
     <g id="text_38">
      <!-- 2.5 -->
      <g style="fill: #838383" transform="translate(608.237651 135.104064) scale(0.11 -0.11)">
       <use xlink:href="#DejaVuSans-32"/>
       <use xlink:href="#DejaVuSans-2e" x="63.623047"/>
       <use xlink:href="#DejaVuSans-35" x="95.410156"/>
      </g>
     </g>
    </g>
    <g id="ytick_15">
     <g id="line2d_37">
      <path d="M 635.231088 95.348453 
L 1122.212906 95.348453 
" clip-path="url(#p87b0097d97)" style="fill: none; stroke-dasharray: 3.7,1.6; stroke-dashoffset: 0; stroke: #838383; stroke-opacity: 0.2"/>
     </g>
     <g id="text_39">
      <!-- 5.0 -->
      <g style="fill: #838383" transform="translate(608.237651 99.527594) scale(0.11 -0.11)">
       <use xlink:href="#DejaVuSans-35"/>
       <use xlink:href="#DejaVuSans-2e" x="63.623047"/>
       <use xlink:href="#DejaVuSans-30" x="95.410156"/>
      </g>
     </g>
    </g>
    <g id="ytick_16">
     <g id="line2d_38">
      <path d="M 635.231088 59.771982 
L 1122.212906 59.771982 
" clip-path="url(#p87b0097d97)" style="fill: none; stroke-dasharray: 3.7,1.6; stroke-dashoffset: 0; stroke: #838383; stroke-opacity: 0.2"/>
     </g>
     <g id="text_40">
      <!-- 7.5 -->
      <g style="fill: #838383" transform="translate(608.237651 63.951123) scale(0.11 -0.11)">
       <use xlink:href="#DejaVuSans-37"/>
       <use xlink:href="#DejaVuSans-2e" x="63.623047"/>
       <use xlink:href="#DejaVuSans-35" x="95.410156"/>
      </g>
     </g>
    </g>
   </g>
   <g id="line2d_39">
    <path d="M 657.366625 81.117865 
L 659.591302 95.34846 
L 664.040657 95.34846 
L 666.265334 109.579041 
L 668.490011 81.117878 
L 672.939365 81.117865 
L 675.164042 52.656702 
L 677.388719 52.656688 
L 679.613396 38.4261 
L 681.838073 38.4261 
L 684.062751 52.656688 
L 686.287428 52.656688 
L 688.512105 81.117851 
L 690.736782 95.348446 
L 692.961459 95.34846 
L 695.186136 109.579041 
L 704.084844 109.579041 
L 708.534199 138.040211 
L 710.758876 138.040218 
L 717.432907 95.348453 
L 719.657584 95.348453 
L 721.882261 109.579041 
L 724.106938 81.117858 
L 726.331615 95.348453 
L 730.78097 95.348446 
L 733.005647 109.579041 
L 735.230324 109.579041 
L 737.455001 95.348453 
L 739.679678 95.348439 
L 741.904355 81.117865 
L 744.129032 81.117851 
L 746.353709 95.348453 
L 748.578387 95.348433 
L 750.803064 81.117871 
L 753.027741 81.117865 
L 755.252418 95.34846 
L 757.477095 95.348453 
L 761.926449 66.88727 
L 764.151126 66.887276 
L 766.375803 95.348446 
L 770.825158 95.348467 
L 773.049835 123.809636 
L 775.274512 123.809633 
L 777.499189 109.579041 
L 779.723866 109.579034 
L 781.948543 95.348453 
L 784.17322 95.348446 
L 786.397897 81.117865 
L 788.622574 81.117858 
L 793.071929 109.579045 
L 795.296606 95.348453 
L 797.521283 95.34846 
L 799.74596 109.579045 
L 801.970637 109.579034 
L 804.195314 123.809629 
L 810.869345 123.809629 
L 813.094023 95.348467 
L 815.3187 109.579041 
L 817.543377 109.579034 
L 819.768054 123.809643 
L 824.217408 95.34846 
L 830.891439 95.348453 
L 833.116117 109.579028 
L 837.565471 109.579041 
L 839.790148 123.809623 
L 842.014825 95.348446 
L 844.239502 95.348446 
L 848.688856 123.809629 
L 850.913533 109.579045 
L 853.13821 109.579034 
L 855.362888 95.348453 
L 857.587565 95.34846 
L 859.812242 109.579028 
L 862.036919 95.34846 
L 868.71095 95.348453 
L 870.935627 123.809629 
L 873.160304 123.809629 
L 875.384982 152.270802 
L 877.609659 152.270813 
L 882.059013 123.809633 
L 884.28369 123.809619 
L 886.508367 109.579034 
L 888.733044 109.579034 
L 890.957721 95.348446 
L 893.182398 95.348446 
L 895.407075 66.887276 
L 897.631753 81.117865 
L 902.081107 81.117851 
L 904.305784 66.887263 
L 906.530461 81.117858 
L 908.755138 66.887276 
L 910.979815 66.887263 
L 913.204492 81.117858 
L 915.429169 81.117871 
L 917.653846 109.579041 
L 919.878524 95.348453 
L 922.103201 52.656688 
L 924.327878 52.656688 
L 926.552555 38.4261 
L 928.777232 66.887276 
L 931.001909 81.117858 
L 933.226586 81.117871 
L 935.451263 95.348453 
L 937.67594 95.348446 
L 939.900618 81.117865 
L 944.349972 81.117871 
L 946.574649 66.887263 
L 951.024003 95.348446 
L 955.473357 95.348446 
L 957.698034 109.579048 
L 959.922711 109.579034 
L 962.147389 123.809616 
L 968.82142 123.809629 
L 971.046097 95.348453 
L 973.270774 81.117865 
L 975.495451 95.348439 
L 977.720128 95.348446 
L 979.944805 123.809629 
L 982.169483 138.040207 
L 984.39416 138.040207 
L 986.618837 152.270802 
L 988.843514 138.040224 
L 991.068191 109.579055 
L 993.292868 109.579034 
L 995.517545 123.809633 
L 997.742222 109.579028 
L 1004.416254 109.579048 
L 1006.640931 123.809623 
L 1008.865608 123.809623 
L 1011.090285 109.579048 
L 1015.539639 109.579028 
L 1017.764316 123.809623 
L 1031.112379 123.809629 
L 1033.337056 138.040211 
L 1037.78641 138.040218 
L 1040.011087 109.579041 
L 1044.460441 109.579028 
L 1046.685119 123.809612 
L 1048.909796 123.809629 
L 1053.35915 95.348467 
L 1057.808504 123.809629 
L 1060.033181 109.579041 
L 1062.257858 81.117851 
L 1064.482535 95.348453 
L 1066.707212 81.117858 
L 1084.504629 81.117865 
L 1088.953984 109.579034 
L 1091.178661 95.348453 
L 1093.403338 95.348453 
L 1095.628015 81.117865 
L 1100.077369 81.117865 
L 1100.077369 81.117865 
" clip-path="url(#p87b0097d97)" style="fill: none; stroke-dasharray: 1.5,2.475; stroke-dashoffset: 0; stroke: #2196f3; stroke-width: 1.5"/>
   </g>
   <g id="patch_9">
    <path d="M 635.231088 292.4421 
L 635.231088 26.3301 
" style="fill: none"/>
   </g>
   <g id="patch_10">
    <path d="M 1122.212906 292.4421 
L 1122.212906 26.3301 
" style="fill: none"/>
   </g>
   <g id="patch_11">
    <path d="M 635.231088 292.4421 
L 1122.212906 292.4421 
" style="fill: none"/>
   </g>
   <g id="patch_12">
    <path d="M 635.231088 26.3301 
L 1122.212906 26.3301 
" style="fill: none"/>
   </g>
   <g id="text_41">
    <!-- TensorFlow -->
    <g style="fill: #838383" transform="translate(831.060247 20.3301) scale(0.1728 -0.1728)">
     <defs>
      <path id="DejaVuSans-73" d="M 2834 3397 
L 2834 2853 
Q 2591 2978 2328 3040 
Q 2066 3103 1784 3103 
Q 1356 3103 1142 2972 
Q 928 2841 928 2578 
Q 928 2378 1081 2264 
Q 1234 2150 1697 2047 
L 1894 2003 
Q 2506 1872 2764 1633 
Q 3022 1394 3022 966 
Q 3022 478 2636 193 
Q 2250 -91 1575 -91 
Q 1294 -91 989 -36 
Q 684 19 347 128 
L 347 722 
Q 666 556 975 473 
Q 1284 391 1588 391 
Q 1994 391 2212 530 
Q 2431 669 2431 922 
Q 2431 1156 2273 1281 
Q 2116 1406 1581 1522 
L 1381 1569 
Q 847 1681 609 1914 
Q 372 2147 372 2553 
Q 372 3047 722 3315 
Q 1072 3584 1716 3584 
Q 2034 3584 2315 3537 
Q 2597 3491 2834 3397 
z
" transform="scale(0.015625)"/>
      <path id="DejaVuSans-46" d="M 628 4666 
L 3309 4666 
L 3309 4134 
L 1259 4134 
L 1259 2759 
L 3109 2759 
L 3109 2228 
L 1259 2228 
L 1259 0 
L 628 0 
L 628 4666 
z
" transform="scale(0.015625)"/>
      <path id="DejaVuSans-6c" d="M 603 4863 
L 1178 4863 
L 1178 0 
L 603 0 
L 603 4863 
z
" transform="scale(0.015625)"/>
      <path id="DejaVuSans-77" d="M 269 3500 
L 844 3500 
L 1563 769 
L 2278 3500 
L 2956 3500 
L 3675 769 
L 4391 3500 
L 4966 3500 
L 4050 0 
L 3372 0 
L 2619 2869 
L 1863 0 
L 1184 0 
L 269 3500 
z
" transform="scale(0.015625)"/>
     </defs>
     <use xlink:href="#DejaVuSans-54"/>
     <use xlink:href="#DejaVuSans-65" x="44.083984"/>
     <use xlink:href="#DejaVuSans-6e" x="105.607422"/>
     <use xlink:href="#DejaVuSans-73" x="168.986328"/>
     <use xlink:href="#DejaVuSans-6f" x="221.085938"/>
     <use xlink:href="#DejaVuSans-72" x="282.267578"/>
     <use xlink:href="#DejaVuSans-46" x="323.380859"/>
     <use xlink:href="#DejaVuSans-6c" x="380.900391"/>
     <use xlink:href="#DejaVuSans-6f" x="408.683594"/>
     <use xlink:href="#DejaVuSans-77" x="469.865234"/>
    </g>
   </g>
   <g id="line2d_40">
    <path d="M 657.366625 280.3461 
L 724.106938 280.3461 
L 726.331615 266.115512 
L 744.129032 266.115498 
L 746.353709 280.3461 
L 748.578387 266.115519 
L 753.027741 266.115498 
L 757.477095 237.654335 
L 766.375803 237.654335 
L 768.60048 251.884937 
L 839.790148 251.88493 
L 842.014825 266.115512 
L 844.239502 266.115505 
L 846.464179 251.884937 
L 859.812242 251.884924 
L 864.261596 223.423761 
L 1100.077369 223.423733 
L 1100.077369 223.423733 
" clip-path="url(#p87b0097d97)" style="fill: none; stroke: #666666; stroke-width: 2; stroke-linecap: round"/>
   </g>
   <g id="legend_2">
    <g id="patch_13">
     <path d="M 960.930562 51.276037 
L 1114.512906 51.276037 
Q 1116.712906 51.276037 1116.712906 49.076037 
L 1116.712906 34.0301 
Q 1116.712906 31.8301 1114.512906 31.8301 
L 960.930562 31.8301 
Q 958.730562 31.8301 958.730562 34.0301 
L 958.730562 49.076037 
Q 958.730562 51.276037 960.930562 51.276037 
L 960.930562 51.276037 
z
" style="fill: none; opacity: 0.8"/>
    </g>
    <g id="line2d_41">
     <path d="M 963.130562 40.738381 
L 974.130562 40.738381 
L 985.130562 40.738381 
" style="fill: none; stroke-dasharray: 1.5,2.475; stroke-dashoffset: 0; stroke: #2196f3; stroke-width: 1.5"/>
    </g>
    <g id="text_42">
     <!-- Trained -->
     <g style="fill: #939393" transform="translate(993.930562 44.588381) scale(0.11 -0.11)">
      <use xlink:href="#DejaVuSans-54"/>
      <use xlink:href="#DejaVuSans-72" x="46.333984"/>
      <use xlink:href="#DejaVuSans-61" x="87.447266"/>
      <use xlink:href="#DejaVuSans-69" x="148.726562"/>
      <use xlink:href="#DejaVuSans-6e" x="176.509766"/>
      <use xlink:href="#DejaVuSans-65" x="239.888672"/>
      <use xlink:href="#DejaVuSans-64" x="301.412109"/>
     </g>
    </g>
    <g id="line2d_42">
     <path d="M 1056.068531 40.738381 
L 1067.068531 40.738381 
L 1078.068531 40.738381 
" style="fill: none; stroke: #666666; stroke-width: 2; stroke-linecap: round"/>
    </g>
    <g id="text_43">
     <!-- HMC -->
     <g style="fill: #939393" transform="translate(1086.868531 44.588381) scale(0.11 -0.11)">
      <use xlink:href="#DejaVuSans-48"/>
      <use xlink:href="#DejaVuSans-4d" x="75.195312"/>
      <use xlink:href="#DejaVuSans-43" x="161.474609"/>
     </g>
    </g>
   </g>
  </g>
 </g>
 <defs>
  <clipPath id="pe830e28404">
   <rect x="50.852906" y="26.3301" width="486.981818" height="266.112"/>
  </clipPath>
  <clipPath id="p87b0097d97">
   <rect x="635.231088" y="26.3301" width="486.981818" height="266.112"/>
  </clipPath>
 </defs>
</svg>
