<?xml version="1.0" encoding="utf-8" standalone="no"?>
<!DOCTYPE svg PUBLIC "-//W3C//DTD SVG 1.1//EN"
  "http://www.w3.org/Graphics/SVG/1.1/DTD/svg11.dtd">
<svg xmlns:xlink="http://www.w3.org/1999/xlink" width="223.65pt" height="174.899688pt" viewBox="0 0 223.65 174.899688" xmlns="http://www.w3.org/2000/svg" version="1.1">
 <metadata>
  <rdf:RDF xmlns:dc="http://purl.org/dc/elements/1.1/" xmlns:cc="http://creativecommons.org/ns#" xmlns:rdf="http://www.w3.org/1999/02/22-rdf-syntax-ns#">
   <cc:Work>
    <dc:type rdf:resource="http://purl.org/dc/dcmitype/StillImage"/>
    <dc:date>2023-11-22T22:39:46.471037</dc:date>
    <dc:format>image/svg+xml</dc:format>
    <dc:creator>
     <cc:Agent>
      <dc:title>Matplotlib v3.8.2, https://matplotlib.org/</dc:title>
     </cc:Agent>
    </dc:creator>
   </cc:Work>
  </rdf:RDF>
 </metadata>
 <defs>
  <style type="text/css">*{stroke-linejoin: round; stroke-linecap: butt}</style>
 </defs>
 <g id="figure_1">
  <g id="patch_1">
   <path d="M 0 174.899688 
L 223.65 174.899688 
L 223.65 0 
L 0 0 
L 0 174.899688 
z
" style="fill: none"/>
  </g>
  <g id="axes_1">
   <g id="patch_2">
    <path d="M 7.2 48.78 
L 216.45 48.78 
L 216.45 7.2 
L 7.2 7.2 
L 7.2 48.78 
z
" style="fill: none"/>
   </g>
   <g id="matplotlib.axis_1">
    <g id="xtick_1"/>
    <g id="xtick_2"/>
    <g id="xtick_3"/>
    <g id="xtick_4"/>
    <g id="xtick_5"/>
   </g>
   <g id="matplotlib.axis_2"/>
   <g id="line2d_1">
    <path d="M 7.2 48.78 
L 216.45 48.78 
" style="fill: none; stroke: #21918c; stroke-opacity: 0.9; stroke-linecap: round"/>
   </g>
   <g id="text_1">
    <!-- 0 -->
    <g style="fill: #21918c" transform="translate(7.2 47.93325) scale(0.12 -0.12)">
     <defs>
      <path id="DejaVuSans-Bold-30" d="M 2944 2338 
Q 2944 3213 2780 3570 
Q 2616 3928 2228 3928 
Q 1841 3928 1675 3570 
Q 1509 3213 1509 2338 
Q 1509 1453 1675 1090 
Q 1841 728 2228 728 
Q 2613 728 2778 1090 
Q 2944 1453 2944 2338 
z
M 4147 2328 
Q 4147 1169 3647 539 
Q 3147 -91 2228 -91 
Q 1306 -91 806 539 
Q 306 1169 306 2328 
Q 306 3491 806 4120 
Q 1306 4750 2228 4750 
Q 3147 4750 3647 4120 
Q 4147 3491 4147 2328 
z
" transform="scale(0.015625)"/>
     </defs>
     <use xlink:href="#DejaVuSans-Bold-30"/>
    </g>
   </g>
  </g>
  <g id="axes_2">
   <g id="patch_3">
    <path d="M 7.2 59.175 
L 216.45 59.175 
L 216.45 17.595 
L 7.2 17.595 
L 7.2 59.175 
z
" style="fill: none"/>
   </g>
   <g id="matplotlib.axis_3">
    <g id="xtick_6"/>
    <g id="xtick_7"/>
    <g id="xtick_8"/>
    <g id="xtick_9"/>
    <g id="xtick_10"/>
   </g>
   <g id="matplotlib.axis_4"/>
   <g id="line2d_2">
    <path d="M 7.2 59.175 
L 216.45 59.175 
" style="fill: none; stroke: #21918c; stroke-opacity: 0.9; stroke-linecap: round"/>
   </g>
   <g id="text_2">
    <!-- 1 -->
    <g style="fill: #21918c" transform="translate(7.2 58.32825) scale(0.12 -0.12)">
     <defs>
      <path id="DejaVuSans-Bold-31" d="M 750 831 
L 1813 831 
L 1813 3847 
L 722 3622 
L 722 4441 
L 1806 4666 
L 2950 4666 
L 2950 831 
L 4013 831 
L 4013 0 
L 750 0 
L 750 831 
z
" transform="scale(0.015625)"/>
     </defs>
     <use xlink:href="#DejaVuSans-Bold-31"/>
    </g>
   </g>
  </g>
  <g id="axes_3">
   <g id="patch_4">
    <path d="M 7.2 69.57 
L 216.45 69.57 
L 216.45 27.99 
L 7.2 27.99 
L 7.2 69.57 
z
" style="fill: none"/>
   </g>
   <g id="matplotlib.axis_5">
    <g id="xtick_11"/>
    <g id="xtick_12"/>
    <g id="xtick_13"/>
    <g id="xtick_14"/>
    <g id="xtick_15"/>
   </g>
   <g id="matplotlib.axis_6"/>
   <g id="line2d_3">
    <path d="M 7.2 69.57 
L 216.45 69.57 
" style="fill: none; stroke: #21918c; stroke-opacity: 0.9; stroke-linecap: round"/>
   </g>
   <g id="text_3">
    <!-- 2 -->
    <g style="fill: #21918c" transform="translate(7.2 68.72325) scale(0.12 -0.12)">
     <defs>
      <path id="DejaVuSans-Bold-32" d="M 1844 884 
L 3897 884 
L 3897 0 
L 506 0 
L 506 884 
L 2209 2388 
Q 2438 2594 2547 2791 
Q 2656 2988 2656 3200 
Q 2656 3528 2436 3728 
Q 2216 3928 1850 3928 
Q 1569 3928 1234 3808 
Q 900 3688 519 3450 
L 519 4475 
Q 925 4609 1322 4679 
Q 1719 4750 2100 4750 
Q 2938 4750 3402 4381 
Q 3866 4013 3866 3353 
Q 3866 2972 3669 2642 
Q 3472 2313 2841 1759 
L 1844 884 
z
" transform="scale(0.015625)"/>
     </defs>
     <use xlink:href="#DejaVuSans-Bold-32"/>
    </g>
   </g>
  </g>
  <g id="axes_4">
   <g id="patch_5">
    <path d="M 7.2 79.965 
L 216.45 79.965 
L 216.45 38.385 
L 7.2 38.385 
L 7.2 79.965 
z
" style="fill: none"/>
   </g>
   <g id="matplotlib.axis_7">
    <g id="xtick_16"/>
    <g id="xtick_17"/>
    <g id="xtick_18"/>
    <g id="xtick_19"/>
    <g id="xtick_20"/>
   </g>
   <g id="matplotlib.axis_8"/>
   <g id="line2d_4">
    <path d="M 7.2 79.965 
L 216.45 79.965 
" style="fill: none; stroke: #21918c; stroke-opacity: 0.9; stroke-linecap: round"/>
   </g>
   <g id="text_4">
    <!-- 3 -->
    <g style="fill: #21918c" transform="translate(7.2 79.11825) scale(0.12 -0.12)">
     <defs>
      <path id="DejaVuSans-Bold-33" d="M 2981 2516 
Q 3453 2394 3698 2092 
Q 3944 1791 3944 1325 
Q 3944 631 3412 270 
Q 2881 -91 1863 -91 
Q 1503 -91 1142 -33 
Q 781 25 428 141 
L 428 1069 
Q 766 900 1098 814 
Q 1431 728 1753 728 
Q 2231 728 2486 893 
Q 2741 1059 2741 1369 
Q 2741 1688 2480 1852 
Q 2219 2016 1709 2016 
L 1228 2016 
L 1228 2791 
L 1734 2791 
Q 2188 2791 2409 2933 
Q 2631 3075 2631 3366 
Q 2631 3634 2415 3781 
Q 2200 3928 1806 3928 
Q 1516 3928 1219 3862 
Q 922 3797 628 3669 
L 628 4550 
Q 984 4650 1334 4700 
Q 1684 4750 2022 4750 
Q 2931 4750 3382 4451 
Q 3834 4153 3834 3553 
Q 3834 3144 3618 2883 
Q 3403 2622 2981 2516 
z
" transform="scale(0.015625)"/>
     </defs>
     <use xlink:href="#DejaVuSans-Bold-33"/>
    </g>
   </g>
  </g>
  <g id="axes_5">
   <g id="patch_6">
    <path d="M 7.2 90.36 
L 216.45 90.36 
L 216.45 48.78 
L 7.2 48.78 
L 7.2 90.36 
z
" style="fill: none"/>
   </g>
   <g id="matplotlib.axis_9">
    <g id="xtick_21"/>
    <g id="xtick_22"/>
    <g id="xtick_23"/>
    <g id="xtick_24"/>
    <g id="xtick_25"/>
   </g>
   <g id="matplotlib.axis_10"/>
   <g id="line2d_5">
    <path d="M 7.2 90.36 
L 216.45 90.36 
" style="fill: none; stroke: #21918c; stroke-opacity: 0.9; stroke-linecap: round"/>
   </g>
   <g id="text_5">
    <!-- 4 -->
    <g style="fill: #21918c" transform="translate(7.2 89.51325) scale(0.12 -0.12)">
     <defs>
      <path id="DejaVuSans-Bold-34" d="M 2356 3675 
L 1038 1722 
L 2356 1722 
L 2356 3675 
z
M 2156 4666 
L 3494 4666 
L 3494 1722 
L 4159 1722 
L 4159 850 
L 3494 850 
L 3494 0 
L 2356 0 
L 2356 850 
L 288 850 
L 288 1881 
L 2156 4666 
z
" transform="scale(0.015625)"/>
     </defs>
     <use xlink:href="#DejaVuSans-Bold-34"/>
    </g>
   </g>
  </g>
  <g id="axes_6">
   <g id="patch_7">
    <path d="M 7.2 100.755 
L 216.45 100.755 
L 216.45 59.175 
L 7.2 59.175 
L 7.2 100.755 
z
" style="fill: none"/>
   </g>
   <g id="matplotlib.axis_11">
    <g id="xtick_26"/>
    <g id="xtick_27"/>
    <g id="xtick_28"/>
    <g id="xtick_29"/>
    <g id="xtick_30"/>
   </g>
   <g id="matplotlib.axis_12"/>
   <g id="PolyCollection_1">
    <defs>
     <path id="me25d6bf8ec" d="M 170.929447 -74.162197 
L 170.929447 -74.144688 
L 171.110398 -74.144688 
L 171.291349 -74.144688 
L 171.472299 -74.144688 
L 171.65325 -74.144688 
L 171.834201 -74.144688 
L 172.015152 -74.144688 
L 172.196102 -74.144688 
L 172.377053 -74.144688 
L 172.558004 -74.144688 
L 172.738954 -74.144688 
L 172.919905 -74.144688 
L 173.100856 -74.144688 
L 173.281806 -74.144688 
L 173.462757 -74.144688 
L 173.643708 -74.144688 
L 173.824659 -74.144688 
L 174.005609 -74.144688 
L 174.18656 -74.144688 
L 174.367511 -74.144688 
L 174.548461 -74.144688 
L 174.729412 -74.144688 
L 174.910363 -74.144688 
L 175.091313 -74.144688 
L 175.272264 -74.144688 
L 175.453215 -74.144688 
L 175.634166 -74.144688 
L 175.815116 -74.144688 
L 175.996067 -74.144688 
L 176.177018 -74.144688 
L 176.357968 -74.144688 
L 176.538919 -74.144688 
L 176.71987 -74.144688 
L 176.90082 -74.144688 
L 177.081771 -74.144688 
L 177.262722 -74.144688 
L 177.443673 -74.144688 
L 177.624623 -74.144688 
L 177.805574 -74.144688 
L 177.986525 -74.144688 
L 178.167475 -74.144688 
L 178.348426 -74.144688 
L 178.529377 -74.144688 
L 178.710327 -74.144688 
L 178.891278 -74.144688 
L 179.072229 -74.144688 
L 179.25318 -74.144688 
L 179.43413 -74.144688 
L 179.615081 -74.144688 
L 179.796032 -74.144688 
L 179.976982 -74.144688 
L 180.157933 -74.144688 
L 180.338884 -74.144688 
L 180.519834 -74.144688 
L 180.700785 -74.144688 
L 180.881736 -74.144688 
L 181.062686 -74.144688 
L 181.243637 -74.144688 
L 181.424588 -74.144688 
L 181.605539 -74.144688 
L 181.786489 -74.144688 
L 181.96744 -74.144688 
L 182.148391 -74.144688 
L 182.329341 -74.144688 
L 182.510292 -74.144688 
L 182.691243 -74.144688 
L 182.872193 -74.144688 
L 183.053144 -74.144688 
L 183.234095 -74.144688 
L 183.415046 -74.144688 
L 183.595996 -74.144688 
L 183.776947 -74.144688 
L 183.957898 -74.144688 
L 184.138848 -74.144688 
L 184.319799 -74.144688 
L 184.50075 -74.144688 
L 184.6817 -74.144688 
L 184.862651 -74.144688 
L 185.043602 -74.144688 
L 185.224553 -74.144688 
L 185.405503 -74.144688 
L 185.586454 -74.144688 
L 185.767405 -74.144688 
L 185.948355 -74.144688 
L 186.129306 -74.144688 
L 186.310257 -74.144688 
L 186.491207 -74.144688 
L 186.672158 -74.144688 
L 186.853109 -74.144688 
L 187.03406 -74.144688 
L 187.21501 -74.144688 
L 187.395961 -74.144688 
L 187.576912 -74.144688 
L 187.757862 -74.144688 
L 187.938813 -74.144688 
L 188.119764 -74.144688 
L 188.300714 -74.144688 
L 188.481665 -74.144688 
L 188.662616 -74.144688 
L 188.843567 -74.144688 
L 189.024517 -74.144688 
L 189.205468 -74.144688 
L 189.386419 -74.144688 
L 189.567369 -74.144688 
L 189.74832 -74.144688 
L 189.929271 -74.144688 
L 190.110221 -74.144688 
L 190.291172 -74.144688 
L 190.472123 -74.144688 
L 190.653074 -74.144688 
L 190.834024 -74.144688 
L 191.014975 -74.144688 
L 191.195926 -74.144688 
L 191.376876 -74.144688 
L 191.557827 -74.144688 
L 191.738778 -74.144688 
L 191.919728 -74.144688 
L 192.100679 -74.144688 
L 192.28163 -74.144688 
L 192.46258 -74.144688 
L 192.643531 -74.144688 
L 192.824482 -74.144688 
L 193.005433 -74.144688 
L 193.186383 -74.144688 
L 193.367334 -74.144688 
L 193.548285 -74.144688 
L 193.729235 -74.144688 
L 193.910186 -74.144688 
L 194.091137 -74.144688 
L 194.272087 -74.144688 
L 194.453038 -74.144688 
L 194.633989 -74.144688 
L 194.81494 -74.144688 
L 194.99589 -74.144688 
L 195.176841 -74.144688 
L 195.357792 -74.144688 
L 195.538742 -74.144688 
L 195.719693 -74.144688 
L 195.900644 -74.144688 
L 196.081594 -74.144688 
L 196.262545 -74.144688 
L 196.443496 -74.144688 
L 196.624447 -74.144688 
L 196.805397 -74.144688 
L 196.986348 -74.144688 
L 197.167299 -74.144688 
L 197.348249 -74.144688 
L 197.5292 -74.144688 
L 197.710151 -74.144688 
L 197.891101 -74.144688 
L 198.072052 -74.144688 
L 198.253003 -74.144688 
L 198.433954 -74.144688 
L 198.614904 -74.144688 
L 198.795855 -74.144688 
L 198.976806 -74.144688 
L 199.157756 -74.144688 
L 199.338707 -74.144688 
L 199.519658 -74.144688 
L 199.700608 -74.144688 
L 199.881559 -74.144688 
L 200.06251 -74.144688 
L 200.243461 -74.144688 
L 200.424411 -74.144688 
L 200.605362 -74.144688 
L 200.786313 -74.144688 
L 200.967263 -74.144688 
L 201.148214 -74.144688 
L 201.329165 -74.144688 
L 201.510115 -74.144688 
L 201.691066 -74.144688 
L 201.872017 -74.144688 
L 202.052968 -74.144688 
L 202.233918 -74.144688 
L 202.414869 -74.144688 
L 202.59582 -74.144688 
L 202.77677 -74.144688 
L 202.957721 -74.144688 
L 203.138672 -74.144688 
L 203.319622 -74.144688 
L 203.500573 -74.144688 
L 203.681524 -74.144688 
L 203.862474 -74.144688 
L 204.043425 -74.144688 
L 204.224376 -74.144688 
L 204.405327 -74.144688 
L 204.586277 -74.144688 
L 204.767228 -74.144688 
L 204.948179 -74.144688 
L 205.129129 -74.144688 
L 205.31008 -74.144688 
L 205.491031 -74.144688 
L 205.671981 -74.144688 
L 205.852932 -74.144688 
L 206.033883 -74.144688 
L 206.214834 -74.144688 
L 206.395784 -74.144688 
L 206.576735 -74.144688 
L 206.757686 -74.144688 
L 206.938636 -74.144688 
L 206.938636 -74.161826 
L 206.938636 -74.161826 
L 206.757686 -74.165965 
L 206.576735 -74.169644 
L 206.395784 -74.172397 
L 206.214834 -74.173915 
L 206.033883 -74.174162 
L 205.852932 -74.173416 
L 205.671981 -74.172226 
L 205.491031 -74.171278 
L 205.31008 -74.171234 
L 205.129129 -74.172583 
L 204.948179 -74.175561 
L 204.767228 -74.180161 
L 204.586277 -74.186207 
L 204.405327 -74.193479 
L 204.224376 -74.201813 
L 204.043425 -74.211174 
L 203.862474 -74.221678 
L 203.681524 -74.233579 
L 203.500573 -74.247243 
L 203.319622 -74.263083 
L 203.138672 -74.281482 
L 202.957721 -74.302673 
L 202.77677 -74.326634 
L 202.59582 -74.353043 
L 202.414869 -74.38135 
L 202.233918 -74.410976 
L 202.052968 -74.441595 
L 201.872017 -74.473389 
L 201.691066 -74.507183 
L 201.510115 -74.544416 
L 201.329165 -74.586937 
L 201.148214 -74.636718 
L 200.967263 -74.695534 
L 200.786313 -74.764691 
L 200.605362 -74.844844 
L 200.424411 -74.935938 
L 200.243461 -75.037314 
L 200.06251 -75.147982 
L 199.881559 -75.267047 
L 199.700608 -75.394184 
L 199.519658 -75.530006 
L 199.338707 -75.676192 
L 199.157756 -75.835262 
L 198.976806 -76.010065 
L 198.795855 -76.203163 
L 198.614904 -76.416387 
L 198.433954 -76.650813 
L 198.253003 -76.907223 
L 198.072052 -77.186885 
L 197.891101 -77.492242 
L 197.710151 -77.827113 
L 197.5292 -78.196168 
L 197.348249 -78.603829 
L 197.167299 -79.053036 
L 196.986348 -79.544425 
L 196.805397 -80.076229 
L 196.624447 -80.644842 
L 196.443496 -81.245676 
L 196.262545 -81.873894 
L 196.081594 -82.524781 
L 195.900644 -83.193821 
L 195.719693 -83.87671 
L 195.538742 -84.569487 
L 195.357792 -85.268794 
L 195.176841 -85.972115 
L 194.99589 -86.677849 
L 194.81494 -87.385173 
L 194.633989 -88.093821 
L 194.453038 -88.803954 
L 194.272087 -89.516184 
L 194.091137 -90.231639 
L 193.910186 -90.95187 
L 193.729235 -91.678427 
L 193.548285 -92.412177 
L 193.367334 -93.152653 
L 193.186383 -93.897827 
L 193.005433 -94.644547 
L 192.824482 -95.389467 
L 192.643531 -96.129997 
L 192.46258 -96.864613 
L 192.28163 -97.592162 
L 192.100679 -98.310362 
L 191.919728 -99.014283 
L 191.738778 -99.695859 
L 191.557827 -100.345104 
L 191.376876 -100.952824 
L 191.195926 -101.513566 
L 191.014975 -102.027084 
L 190.834024 -102.497052 
L 190.653074 -102.927101 
L 190.472123 -103.315884 
L 190.291172 -103.653773 
L 190.110221 -103.923441 
L 189.929271 -104.104886 
L 189.74832 -104.183309 
L 189.567369 -104.156682 
L 189.386419 -104.039677 
L 189.205468 -103.862046 
L 189.024517 -103.661808 
L 188.843567 -103.475664 
L 188.662616 -103.330059 
L 188.481665 -103.23576 
L 188.300714 -103.187218 
L 188.119764 -103.166109 
L 187.938813 -103.147119 
L 187.757862 -103.103819 
L 187.576912 -103.013079 
L 187.395961 -102.85756 
L 187.21501 -102.626605 
L 187.03406 -102.316159 
L 186.853109 -101.928137 
L 186.672158 -101.469298 
L 186.491207 -100.949512 
L 186.310257 -100.379403 
L 186.129306 -99.767729 
L 185.948355 -99.11917 
L 185.767405 -98.433319 
L 185.586454 -97.705394 
L 185.405503 -96.928715 
L 185.224553 -96.098317 
L 185.043602 -95.214624 
L 184.862651 -94.285952 
L 184.6817 -93.328891 
L 184.50075 -92.36625 
L 184.319799 -91.423023 
L 184.138848 -90.521475 
L 183.957898 -89.676745 
L 183.776947 -88.894162 
L 183.595996 -88.168968 
L 183.415046 -87.488367 
L 183.234095 -86.835193 
L 183.053144 -86.192092 
L 182.872193 -85.545152 
L 182.691243 -84.886245 
L 182.510292 -84.213887 
L 182.329341 -83.532841 
L 182.148391 -82.85291 
L 181.96744 -82.187327 
L 181.786489 -81.550922 
L 181.605539 -80.958156 
L 181.424588 -80.421049 
L 181.243637 -79.9472 
L 181.062686 -79.538278 
L 180.881736 -79.189404 
L 180.700785 -78.889754 
L 180.519834 -78.624407 
L 180.338884 -78.377114 
L 180.157933 -78.133359 
L 179.976982 -77.882982 
L 179.796032 -77.621718 
L 179.615081 -77.351346 
L 179.43413 -77.07849 
L 179.25318 -76.812524 
L 179.072229 -76.563189 
L 178.891278 -76.338544 
L 178.710327 -76.143625 
L 178.529377 -75.979949 
L 178.348426 -75.845709 
L 178.167475 -75.736425 
L 177.986525 -75.645822 
L 177.805574 -75.566772 
L 177.624623 -75.492234 
L 177.443673 -75.416105 
L 177.262722 -75.333907 
L 177.081771 -75.243213 
L 176.90082 -75.143758 
L 176.71987 -75.03725 
L 176.538919 -74.926946 
L 176.357968 -74.817078 
L 176.177018 -74.712225 
L 175.996067 -74.616672 
L 175.815116 -74.533817 
L 175.634166 -74.4657 
L 175.453215 -74.412729 
L 175.272264 -74.373682 
L 175.091313 -74.346008 
L 174.910363 -74.326375 
L 174.729412 -74.311356 
L 174.548461 -74.298071 
L 174.367511 -74.284633 
L 174.18656 -74.270291 
L 174.005609 -74.255266 
L 173.824659 -74.240365 
L 173.643708 -74.226541 
L 173.462757 -74.214533 
L 173.281806 -74.204703 
L 173.100856 -74.19705 
L 172.919905 -74.191345 
L 172.738954 -74.187269 
L 172.558004 -74.1845 
L 172.377053 -74.182711 
L 172.196102 -74.181533 
L 172.015152 -74.180538 
L 171.834201 -74.179272 
L 171.65325 -74.177352 
L 171.472299 -74.174564 
L 171.291349 -74.170926 
L 171.110398 -74.166676 
L 170.929447 -74.162197 
z
" style="stroke: #2a788e; stroke-width: 1.25"/>
    </defs>
    <g>
     <use xlink:href="#me25d6bf8ec" x="0" y="174.899688" style="fill: #2a788e; fill-opacity: 0.7; stroke: #2a788e; stroke-width: 1.25"/>
    </g>
   </g>
   <g id="line2d_6">
    <path d="M 7.2 100.755 
L 216.45 100.755 
" style="fill: none; stroke: #2a788e; stroke-opacity: 0.9; stroke-linecap: round"/>
   </g>
   <g id="text_6">
    <!-- 5 -->
    <g style="fill: #2a788e" transform="translate(7.2 99.90825) scale(0.12 -0.12)">
     <defs>
      <path id="DejaVuSans-Bold-35" d="M 678 4666 
L 3669 4666 
L 3669 3781 
L 1638 3781 
L 1638 3059 
Q 1775 3097 1914 3117 
Q 2053 3138 2203 3138 
Q 3056 3138 3531 2711 
Q 4006 2284 4006 1522 
Q 4006 766 3489 337 
Q 2972 -91 2053 -91 
Q 1656 -91 1267 -14 
Q 878 63 494 219 
L 494 1166 
Q 875 947 1217 837 
Q 1559 728 1863 728 
Q 2300 728 2551 942 
Q 2803 1156 2803 1522 
Q 2803 1891 2551 2103 
Q 2300 2316 1863 2316 
Q 1603 2316 1309 2248 
Q 1016 2181 678 2041 
L 678 4666 
z
" transform="scale(0.015625)"/>
     </defs>
     <use xlink:href="#DejaVuSans-Bold-35"/>
    </g>
   </g>
  </g>
  <g id="axes_7">
   <g id="patch_8">
    <path d="M 7.2 111.15 
L 216.45 111.15 
L 216.45 69.57 
L 7.2 69.57 
L 7.2 111.15 
z
" style="fill: none"/>
   </g>
   <g id="matplotlib.axis_13">
    <g id="xtick_31"/>
    <g id="xtick_32"/>
    <g id="xtick_33"/>
    <g id="xtick_34"/>
    <g id="xtick_35"/>
   </g>
   <g id="matplotlib.axis_14"/>
   <g id="PolyCollection_2">
    <defs>
     <path id="m0aa9d1b689" d="M 120.272108 -63.782142 
L 120.272108 -63.749688 
L 120.456245 -63.749688 
L 120.640383 -63.749688 
L 120.82452 -63.749688 
L 121.008657 -63.749688 
L 121.192794 -63.749688 
L 121.376931 -63.749688 
L 121.561068 -63.749688 
L 121.745205 -63.749688 
L 121.929343 -63.749688 
L 122.11348 -63.749688 
L 122.297617 -63.749688 
L 122.481754 -63.749688 
L 122.665891 -63.749688 
L 122.850028 -63.749688 
L 123.034165 -63.749688 
L 123.218302 -63.749688 
L 123.40244 -63.749688 
L 123.586577 -63.749688 
L 123.770714 -63.749688 
L 123.954851 -63.749688 
L 124.138988 -63.749688 
L 124.323125 -63.749688 
L 124.507262 -63.749688 
L 124.691399 -63.749688 
L 124.875537 -63.749688 
L 125.059674 -63.749688 
L 125.243811 -63.749688 
L 125.427948 -63.749688 
L 125.612085 -63.749688 
L 125.796222 -63.749688 
L 125.980359 -63.749688 
L 126.164497 -63.749688 
L 126.348634 -63.749688 
L 126.532771 -63.749688 
L 126.716908 -63.749688 
L 126.901045 -63.749688 
L 127.085182 -63.749688 
L 127.269319 -63.749688 
L 127.453456 -63.749688 
L 127.637594 -63.749688 
L 127.821731 -63.749688 
L 128.005868 -63.749688 
L 128.190005 -63.749688 
L 128.374142 -63.749688 
L 128.558279 -63.749688 
L 128.742416 -63.749688 
L 128.926554 -63.749688 
L 129.110691 -63.749688 
L 129.294828 -63.749688 
L 129.478965 -63.749688 
L 129.663102 -63.749688 
L 129.847239 -63.749688 
L 130.031376 -63.749688 
L 130.215513 -63.749688 
L 130.399651 -63.749688 
L 130.583788 -63.749688 
L 130.767925 -63.749688 
L 130.952062 -63.749688 
L 131.136199 -63.749688 
L 131.320336 -63.749688 
L 131.504473 -63.749688 
L 131.68861 -63.749688 
L 131.872748 -63.749688 
L 132.056885 -63.749688 
L 132.241022 -63.749688 
L 132.425159 -63.749688 
L 132.609296 -63.749688 
L 132.793433 -63.749688 
L 132.97757 -63.749688 
L 133.161708 -63.749688 
L 133.345845 -63.749688 
L 133.529982 -63.749688 
L 133.714119 -63.749688 
L 133.898256 -63.749688 
L 134.082393 -63.749688 
L 134.26653 -63.749688 
L 134.450667 -63.749688 
L 134.634805 -63.749688 
L 134.818942 -63.749688 
L 135.003079 -63.749688 
L 135.187216 -63.749688 
L 135.371353 -63.749688 
L 135.55549 -63.749688 
L 135.739627 -63.749688 
L 135.923764 -63.749688 
L 136.107902 -63.749688 
L 136.292039 -63.749688 
L 136.476176 -63.749688 
L 136.660313 -63.749688 
L 136.84445 -63.749688 
L 137.028587 -63.749688 
L 137.212724 -63.749688 
L 137.396862 -63.749688 
L 137.580999 -63.749688 
L 137.765136 -63.749688 
L 137.949273 -63.749688 
L 138.13341 -63.749688 
L 138.317547 -63.749688 
L 138.501684 -63.749688 
L 138.685821 -63.749688 
L 138.869959 -63.749688 
L 139.054096 -63.749688 
L 139.238233 -63.749688 
L 139.42237 -63.749688 
L 139.606507 -63.749688 
L 139.790644 -63.749688 
L 139.974781 -63.749688 
L 140.158919 -63.749688 
L 140.343056 -63.749688 
L 140.527193 -63.749688 
L 140.71133 -63.749688 
L 140.895467 -63.749688 
L 141.079604 -63.749688 
L 141.263741 -63.749688 
L 141.447878 -63.749688 
L 141.632016 -63.749688 
L 141.816153 -63.749688 
L 142.00029 -63.749688 
L 142.184427 -63.749688 
L 142.368564 -63.749688 
L 142.552701 -63.749688 
L 142.736838 -63.749688 
L 142.920975 -63.749688 
L 143.105113 -63.749688 
L 143.28925 -63.749688 
L 143.473387 -63.749688 
L 143.657524 -63.749688 
L 143.841661 -63.749688 
L 144.025798 -63.749688 
L 144.209935 -63.749688 
L 144.394073 -63.749688 
L 144.57821 -63.749688 
L 144.762347 -63.749688 
L 144.946484 -63.749688 
L 145.130621 -63.749688 
L 145.314758 -63.749688 
L 145.498895 -63.749688 
L 145.683032 -63.749688 
L 145.86717 -63.749688 
L 146.051307 -63.749688 
L 146.235444 -63.749688 
L 146.419581 -63.749688 
L 146.603718 -63.749688 
L 146.787855 -63.749688 
L 146.971992 -63.749688 
L 147.15613 -63.749688 
L 147.340267 -63.749688 
L 147.524404 -63.749688 
L 147.708541 -63.749688 
L 147.892678 -63.749688 
L 148.076815 -63.749688 
L 148.260952 -63.749688 
L 148.445089 -63.749688 
L 148.629227 -63.749688 
L 148.813364 -63.749688 
L 148.997501 -63.749688 
L 149.181638 -63.749688 
L 149.365775 -63.749688 
L 149.549912 -63.749688 
L 149.734049 -63.749688 
L 149.918186 -63.749688 
L 150.102324 -63.749688 
L 150.286461 -63.749688 
L 150.470598 -63.749688 
L 150.654735 -63.749688 
L 150.838872 -63.749688 
L 151.023009 -63.749688 
L 151.207146 -63.749688 
L 151.391284 -63.749688 
L 151.575421 -63.749688 
L 151.759558 -63.749688 
L 151.943695 -63.749688 
L 152.127832 -63.749688 
L 152.311969 -63.749688 
L 152.496106 -63.749688 
L 152.680243 -63.749688 
L 152.864381 -63.749688 
L 153.048518 -63.749688 
L 153.232655 -63.749688 
L 153.416792 -63.749688 
L 153.600929 -63.749688 
L 153.785066 -63.749688 
L 153.969203 -63.749688 
L 154.15334 -63.749688 
L 154.337478 -63.749688 
L 154.521615 -63.749688 
L 154.705752 -63.749688 
L 154.889889 -63.749688 
L 155.074026 -63.749688 
L 155.258163 -63.749688 
L 155.4423 -63.749688 
L 155.626438 -63.749688 
L 155.810575 -63.749688 
L 155.994712 -63.749688 
L 156.178849 -63.749688 
L 156.362986 -63.749688 
L 156.547123 -63.749688 
L 156.73126 -63.749688 
L 156.915397 -63.749688 
L 156.915397 -63.790552 
L 156.915397 -63.790552 
L 156.73126 -63.801403 
L 156.547123 -63.812309 
L 156.362986 -63.822374 
L 156.178849 -63.83077 
L 155.994712 -63.836929 
L 155.810575 -63.840694 
L 155.626438 -63.84238 
L 155.4423 -63.842733 
L 155.258163 -63.842805 
L 155.074026 -63.843782 
L 154.889889 -63.846828 
L 154.705752 -63.852951 
L 154.521615 -63.862943 
L 154.337478 -63.877345 
L 154.15334 -63.896453 
L 153.969203 -63.920332 
L 153.785066 -63.94884 
L 153.600929 -63.981672 
L 153.416792 -64.018427 
L 153.232655 -64.05869 
L 153.048518 -64.102119 
L 152.864381 -64.148494 
L 152.680243 -64.197719 
L 152.496106 -64.249756 
L 152.311969 -64.304528 
L 152.127832 -64.361842 
L 151.943695 -64.421376 
L 151.759558 -64.482793 
L 151.575421 -64.545945 
L 151.391284 -64.611127 
L 151.207146 -64.679287 
L 151.023009 -64.752098 
L 150.838872 -64.83187 
L 150.654735 -64.92132 
L 150.470598 -65.023266 
L 150.286461 -65.140333 
L 150.102324 -65.274736 
L 149.918186 -65.42816 
L 149.734049 -65.601749 
L 149.549912 -65.796176 
L 149.365775 -66.011809 
L 149.181638 -66.248906 
L 148.997501 -66.50782 
L 148.813364 -66.789081 
L 148.629227 -67.09327 
L 148.445089 -67.42063 
L 148.260952 -67.770491 
L 148.076815 -68.140692 
L 147.892678 -68.527281 
L 147.708541 -68.924732 
L 147.524404 -69.326766 
L 147.340267 -69.727623 
L 147.15613 -70.123441 
L 146.971992 -70.513309 
L 146.787855 -70.899617 
L 146.603718 -71.287602 
L 146.419581 -71.684245 
L 146.235444 -72.096913 
L 146.051307 -72.532203 
L 145.86717 -72.995294 
L 145.683032 -73.489874 
L 145.498895 -74.018428 
L 145.314758 -74.582536 
L 145.130621 -75.182854 
L 144.946484 -75.818627 
L 144.762347 -76.486874 
L 144.57821 -77.181601 
L 144.394073 -77.893491 
L 144.209935 -78.610459 
L 144.025798 -79.319178 
L 143.841661 -80.007357 
L 143.657524 -80.666212 
L 143.473387 -81.292391 
L 143.28925 -81.888692 
L 143.105113 -82.463226 
L 142.920975 -83.027159 
L 142.736838 -83.591615 
L 142.552701 -84.164635 
L 142.368564 -84.749052 
L 142.184427 -85.341825 
L 142.00029 -85.934926 
L 141.816153 -86.517357 
L 141.632016 -87.07766 
L 141.447878 -87.606168 
L 141.263741 -88.09649 
L 141.079604 -88.545965 
L 140.895467 -88.955148 
L 140.71133 -89.326591 
L 140.527193 -89.66332 
L 140.343056 -89.967425 
L 140.158919 -90.239096 
L 139.974781 -90.476367 
L 139.790644 -90.675585 
L 139.606507 -90.83248 
L 139.42237 -90.94353 
L 139.238233 -91.007206 
L 139.054096 -91.024724 
L 138.869959 -91.000058 
L 138.685821 -90.939199 
L 138.501684 -90.848886 
L 138.317547 -90.735229 
L 138.13341 -90.602637 
L 137.949273 -90.45336 
L 137.765136 -90.287705 
L 137.580999 -90.104742 
L 137.396862 -89.903181 
L 137.212724 -89.682085 
L 137.028587 -89.441203 
L 136.84445 -89.180883 
L 136.660313 -88.901628 
L 136.476176 -88.603478 
L 136.292039 -88.285371 
L 136.107902 -87.944653 
L 135.923764 -87.57685 
L 135.739627 -87.175818 
L 135.55549 -86.734329 
L 135.371353 -86.24507 
L 135.187216 -85.701934 
L 135.003079 -85.101367 
L 134.818942 -84.443476 
L 134.634805 -83.732644 
L 134.450667 -82.977486 
L 134.26653 -82.19012 
L 134.082393 -81.384898 
L 133.898256 -80.576827 
L 133.714119 -79.779993 
L 133.529982 -79.006245 
L 133.345845 -78.264376 
L 133.161708 -77.559835 
L 132.97757 -76.894896 
L 132.793433 -76.269097 
L 132.609296 -75.679752 
L 132.425159 -75.122431 
L 132.241022 -74.591477 
L 132.056885 -74.080673 
L 131.872748 -73.584165 
L 131.68861 -73.097559 
L 131.504473 -72.618912 
L 131.320336 -72.149226 
L 131.136199 -71.692127 
L 130.952062 -71.252706 
L 130.767925 -70.835804 
L 130.583788 -70.444301 
L 130.399651 -70.078008 
L 130.215513 -69.733531 
L 130.031376 -69.405137 
L 129.847239 -69.086292 
L 129.663102 -68.771314 
L 129.478965 -68.456651 
L 129.294828 -68.141451 
L 129.110691 -67.827388 
L 128.926554 -67.51794 
L 128.742416 -67.217412 
L 128.558279 -66.929983 
L 128.374142 -66.659006 
L 128.190005 -66.406623 
L 128.005868 -66.173719 
L 127.821731 -65.960138 
L 127.637594 -65.765042 
L 127.453456 -65.587289 
L 127.269319 -65.425724 
L 127.085182 -65.279332 
L 126.901045 -65.147252 
L 126.716908 -65.02872 
L 126.532771 -64.922981 
L 126.348634 -64.829208 
L 126.164497 -64.746432 
L 125.980359 -64.673461 
L 125.796222 -64.60881 
L 125.612085 -64.550673 
L 125.427948 -64.496995 
L 125.243811 -64.445665 
L 125.059674 -64.394794 
L 124.875537 -64.34302 
L 124.691399 -64.289722 
L 124.507262 -64.235091 
L 124.323125 -64.18003 
L 124.138988 -64.125929 
L 123.954851 -64.074366 
L 123.770714 -64.026821 
L 123.586577 -63.984458 
L 123.40244 -63.948003 
L 123.218302 -63.91772 
L 123.034165 -63.893476 
L 122.850028 -63.874841 
L 122.665891 -63.861192 
L 122.481754 -63.851785 
L 122.297617 -63.845782 
L 122.11348 -63.842254 
L 121.929343 -63.840189 
L 121.745205 -63.838541 
L 121.561068 -63.836329 
L 121.376931 -63.83277 
L 121.192794 -63.827403 
L 121.008657 -63.820161 
L 120.82452 -63.811359 
L 120.640383 -63.801599 
L 120.456245 -63.791621 
L 120.272108 -63.782142 
z
" style="stroke: #355f8d; stroke-width: 1.25"/>
    </defs>
    <g>
     <use xlink:href="#m0aa9d1b689" x="0" y="174.899688" style="fill: #355f8d; fill-opacity: 0.7; stroke: #355f8d; stroke-width: 1.25"/>
    </g>
   </g>
   <g id="line2d_7">
    <path d="M 7.2 111.15 
L 216.45 111.15 
" style="fill: none; stroke: #355f8d; stroke-opacity: 0.9; stroke-linecap: round"/>
   </g>
   <g id="text_7">
    <!-- 6 -->
    <g style="fill: #355f8d" transform="translate(7.2 110.30325) scale(0.12 -0.12)">
     <defs>
      <path id="DejaVuSans-Bold-36" d="M 2316 2303 
Q 2000 2303 1842 2098 
Q 1684 1894 1684 1484 
Q 1684 1075 1842 870 
Q 2000 666 2316 666 
Q 2634 666 2792 870 
Q 2950 1075 2950 1484 
Q 2950 1894 2792 2098 
Q 2634 2303 2316 2303 
z
M 3803 4544 
L 3803 3681 
Q 3506 3822 3243 3889 
Q 2981 3956 2731 3956 
Q 2194 3956 1894 3657 
Q 1594 3359 1544 2772 
Q 1750 2925 1990 3001 
Q 2231 3078 2516 3078 
Q 3231 3078 3670 2659 
Q 4109 2241 4109 1563 
Q 4109 813 3618 361 
Q 3128 -91 2303 -91 
Q 1394 -91 895 523 
Q 397 1138 397 2266 
Q 397 3422 980 4083 
Q 1563 4744 2578 4744 
Q 2900 4744 3203 4694 
Q 3506 4644 3803 4544 
z
" transform="scale(0.015625)"/>
     </defs>
     <use xlink:href="#DejaVuSans-Bold-36"/>
    </g>
   </g>
  </g>
  <g id="axes_8">
   <g id="patch_9">
    <path d="M 7.2 121.545 
L 216.45 121.545 
L 216.45 79.965 
L 7.2 79.965 
L 7.2 121.545 
z
" style="fill: none"/>
   </g>
   <g id="matplotlib.axis_15">
    <g id="xtick_36"/>
    <g id="xtick_37"/>
    <g id="xtick_38"/>
    <g id="xtick_39"/>
    <g id="xtick_40"/>
   </g>
   <g id="matplotlib.axis_16"/>
   <g id="PolyCollection_3">
    <defs>
     <path id="mb0a6bf8724" d="M 50.204577 -53.384974 
L 50.204577 -53.354688 
L 50.328802 -53.354688 
L 50.453028 -53.354688 
L 50.577254 -53.354688 
L 50.70148 -53.354688 
L 50.825705 -53.354688 
L 50.949931 -53.354688 
L 51.074157 -53.354688 
L 51.198382 -53.354688 
L 51.322608 -53.354688 
L 51.446834 -53.354688 
L 51.571059 -53.354688 
L 51.695285 -53.354688 
L 51.819511 -53.354688 
L 51.943737 -53.354688 
L 52.067962 -53.354688 
L 52.192188 -53.354688 
L 52.316414 -53.354688 
L 52.440639 -53.354688 
L 52.564865 -53.354688 
L 52.689091 -53.354688 
L 52.813316 -53.354688 
L 52.937542 -53.354688 
L 53.061768 -53.354688 
L 53.185994 -53.354688 
L 53.310219 -53.354688 
L 53.434445 -53.354688 
L 53.558671 -53.354688 
L 53.682896 -53.354688 
L 53.807122 -53.354688 
L 53.931348 -53.354688 
L 54.055573 -53.354688 
L 54.179799 -53.354688 
L 54.304025 -53.354688 
L 54.428251 -53.354688 
L 54.552476 -53.354688 
L 54.676702 -53.354688 
L 54.800928 -53.354688 
L 54.925153 -53.354688 
L 55.049379 -53.354688 
L 55.173605 -53.354688 
L 55.29783 -53.354688 
L 55.422056 -53.354688 
L 55.546282 -53.354688 
L 55.670508 -53.354688 
L 55.794733 -53.354688 
L 55.918959 -53.354688 
L 56.043185 -53.354688 
L 56.16741 -53.354688 
L 56.291636 -53.354688 
L 56.415862 -53.354688 
L 56.540087 -53.354688 
L 56.664313 -53.354688 
L 56.788539 -53.354688 
L 56.912765 -53.354688 
L 57.03699 -53.354688 
L 57.161216 -53.354688 
L 57.285442 -53.354688 
L 57.409667 -53.354688 
L 57.533893 -53.354688 
L 57.658119 -53.354688 
L 57.782345 -53.354688 
L 57.90657 -53.354688 
L 58.030796 -53.354688 
L 58.155022 -53.354688 
L 58.279247 -53.354688 
L 58.403473 -53.354688 
L 58.527699 -53.354688 
L 58.651924 -53.354688 
L 58.77615 -53.354688 
L 58.900376 -53.354688 
L 59.024602 -53.354688 
L 59.148827 -53.354688 
L 59.273053 -53.354688 
L 59.397279 -53.354688 
L 59.521504 -53.354688 
L 59.64573 -53.354688 
L 59.769956 -53.354688 
L 59.894181 -53.354688 
L 60.018407 -53.354688 
L 60.142633 -53.354688 
L 60.266859 -53.354688 
L 60.391084 -53.354688 
L 60.51531 -53.354688 
L 60.639536 -53.354688 
L 60.763761 -53.354688 
L 60.887987 -53.354688 
L 61.012213 -53.354688 
L 61.136438 -53.354688 
L 61.260664 -53.354688 
L 61.38489 -53.354688 
L 61.509116 -53.354688 
L 61.633341 -53.354688 
L 61.757567 -53.354688 
L 61.881793 -53.354688 
L 62.006018 -53.354688 
L 62.130244 -53.354688 
L 62.25447 -53.354688 
L 62.378695 -53.354688 
L 62.502921 -53.354688 
L 62.627147 -53.354688 
L 62.751373 -53.354688 
L 62.875598 -53.354688 
L 62.999824 -53.354688 
L 63.12405 -53.354688 
L 63.248275 -53.354688 
L 63.372501 -53.354688 
L 63.496727 -53.354688 
L 63.620952 -53.354688 
L 63.745178 -53.354688 
L 63.869404 -53.354688 
L 63.99363 -53.354688 
L 64.117855 -53.354688 
L 64.242081 -53.354688 
L 64.366307 -53.354688 
L 64.490532 -53.354688 
L 64.614758 -53.354688 
L 64.738984 -53.354688 
L 64.863209 -53.354688 
L 64.987435 -53.354688 
L 65.111661 -53.354688 
L 65.235887 -53.354688 
L 65.360112 -53.354688 
L 65.484338 -53.354688 
L 65.608564 -53.354688 
L 65.732789 -53.354688 
L 65.857015 -53.354688 
L 65.981241 -53.354688 
L 66.105466 -53.354688 
L 66.229692 -53.354688 
L 66.353918 -53.354688 
L 66.478144 -53.354688 
L 66.602369 -53.354688 
L 66.726595 -53.354688 
L 66.850821 -53.354688 
L 66.975046 -53.354688 
L 67.099272 -53.354688 
L 67.223498 -53.354688 
L 67.347723 -53.354688 
L 67.471949 -53.354688 
L 67.596175 -53.354688 
L 67.720401 -53.354688 
L 67.844626 -53.354688 
L 67.968852 -53.354688 
L 68.093078 -53.354688 
L 68.217303 -53.354688 
L 68.341529 -53.354688 
L 68.465755 -53.354688 
L 68.58998 -53.354688 
L 68.714206 -53.354688 
L 68.838432 -53.354688 
L 68.962658 -53.354688 
L 69.086883 -53.354688 
L 69.211109 -53.354688 
L 69.335335 -53.354688 
L 69.45956 -53.354688 
L 69.583786 -53.354688 
L 69.708012 -53.354688 
L 69.832238 -53.354688 
L 69.956463 -53.354688 
L 70.080689 -53.354688 
L 70.204915 -53.354688 
L 70.32914 -53.354688 
L 70.453366 -53.354688 
L 70.577592 -53.354688 
L 70.701817 -53.354688 
L 70.826043 -53.354688 
L 70.950269 -53.354688 
L 71.074495 -53.354688 
L 71.19872 -53.354688 
L 71.322946 -53.354688 
L 71.447172 -53.354688 
L 71.571397 -53.354688 
L 71.695623 -53.354688 
L 71.819849 -53.354688 
L 71.944074 -53.354688 
L 72.0683 -53.354688 
L 72.192526 -53.354688 
L 72.316752 -53.354688 
L 72.440977 -53.354688 
L 72.565203 -53.354688 
L 72.689429 -53.354688 
L 72.813654 -53.354688 
L 72.93788 -53.354688 
L 73.062106 -53.354688 
L 73.186331 -53.354688 
L 73.310557 -53.354688 
L 73.434783 -53.354688 
L 73.559009 -53.354688 
L 73.683234 -53.354688 
L 73.80746 -53.354688 
L 73.931686 -53.354688 
L 74.055911 -53.354688 
L 74.180137 -53.354688 
L 74.304363 -53.354688 
L 74.428588 -53.354688 
L 74.552814 -53.354688 
L 74.67704 -53.354688 
L 74.801266 -53.354688 
L 74.925491 -53.354688 
L 74.925491 -53.38576 
L 74.925491 -53.38576 
L 74.801266 -53.39644 
L 74.67704 -53.409366 
L 74.552814 -53.424673 
L 74.428588 -53.442403 
L 74.304363 -53.462418 
L 74.180137 -53.484296 
L 74.055911 -53.507273 
L 73.931686 -53.530286 
L 73.80746 -53.552153 
L 73.683234 -53.571884 
L 73.559009 -53.589034 
L 73.434783 -53.603984 
L 73.310557 -53.618022 
L 73.186331 -53.63317 
L 73.062106 -53.651776 
L 72.93788 -53.676003 
L 72.813654 -53.707368 
L 72.689429 -53.746484 
L 72.565203 -53.793076 
L 72.440977 -53.846265 
L 72.316752 -53.904991 
L 72.192526 -53.968452 
L 72.0683 -54.036397 
L 71.944074 -54.109194 
L 71.819849 -54.187688 
L 71.695623 -54.272921 
L 71.571397 -54.365867 
L 71.447172 -54.467322 
L 71.322946 -54.57802 
L 71.19872 -54.698943 
L 71.074495 -54.831677 
L 70.950269 -54.978604 
L 70.826043 -55.142764 
L 70.701817 -55.327369 
L 70.577592 -55.535108 
L 70.453366 -55.767533 
L 70.32914 -56.024838 
L 70.204915 -56.306149 
L 70.080689 -56.610232 
L 69.956463 -56.936267 
L 69.832238 -57.284337 
L 69.708012 -57.655377 
L 69.583786 -58.050683 
L 69.45956 -58.47131 
L 69.335335 -58.91775 
L 69.211109 -59.390105 
L 69.086883 -59.888635 
L 68.962658 -60.414281 
L 68.838432 -60.968716 
L 68.714206 -61.553719 
L 68.58998 -62.17007 
L 68.465755 -62.816498 
L 68.341529 -63.489332 
L 68.217303 -64.183221 
L 68.093078 -64.892837 
L 67.968852 -65.614998 
L 67.844626 -66.350363 
L 67.720401 -67.103946 
L 67.596175 -67.88414 
L 67.471949 -68.700461 
L 67.347723 -69.560765 
L 67.223498 -70.468886 
L 67.099272 -71.423553 
L 66.975046 -72.418952 
L 66.850821 -73.446718 
L 66.726595 -74.498565 
L 66.602369 -75.568486 
L 66.478144 -76.653567 
L 66.353918 -77.752957 
L 66.229692 -78.865283 
L 66.105466 -79.985507 
L 65.981241 -81.102582 
L 65.857015 -82.199129 
L 65.732789 -83.2537 
L 65.608564 -84.245213 
L 65.484338 -85.158232 
L 65.360112 -85.98731 
L 65.235887 -86.738738 
L 65.111661 -87.42893 
L 64.987435 -88.079737 
L 64.863209 -88.7121 
L 64.738984 -89.33993 
L 64.614758 -89.966 
L 64.490532 -90.580878 
L 64.366307 -91.164979 
L 64.242081 -91.69295 
L 64.117855 -92.139193 
L 63.99363 -92.483304 
L 63.869404 -92.714476 
L 63.745178 -92.834207 
L 63.620952 -92.856954 
L 63.496727 -92.8085 
L 63.372501 -92.72214 
L 63.248275 -92.633113 
L 63.12405 -92.57221 
L 62.999824 -92.559864 
L 62.875598 -92.602085 
L 62.751373 -92.689301 
L 62.627147 -92.798494 
L 62.502921 -92.898128 
L 62.378695 -92.954688 
L 62.25447 -92.939169 
L 62.130244 -92.831989 
L 62.006018 -92.625243 
L 61.881793 -92.322052 
L 61.757567 -91.933546 
L 61.633341 -91.474623 
L 61.509116 -90.959782 
L 61.38489 -90.400078 
L 61.260664 -89.801701 
L 61.136438 -89.166142 
L 61.012213 -88.491449 
L 60.887987 -87.774018 
L 60.763761 -87.010403 
L 60.639536 -86.19884 
L 60.51531 -85.340323 
L 60.391084 -84.439125 
L 60.266859 -83.502697 
L 60.142633 -82.540915 
L 60.018407 -81.564756 
L 59.894181 -80.584626 
L 59.769956 -79.608687 
L 59.64573 -78.641558 
L 59.521504 -77.683733 
L 59.397279 -76.731884 
L 59.273053 -75.780064 
L 59.148827 -74.8216 
L 59.024602 -73.851302 
L 58.900376 -72.867467 
L 58.77615 -71.873174 
L 58.651924 -70.876445 
L 58.527699 -69.889177 
L 58.403473 -68.925088 
L 58.279247 -67.997247 
L 58.155022 -67.115877 
L 58.030796 -66.287011 
L 57.90657 -65.512223 
L 57.782345 -64.789321 
L 57.658119 -64.11359 
L 57.533893 -63.479116 
L 57.409667 -62.879846 
L 57.285442 -62.310261 
L 57.161216 -61.765709 
L 57.03699 -61.242559 
L 56.912765 -60.738281 
L 56.788539 -60.251496 
L 56.664313 -59.781942 
L 56.540087 -59.330303 
L 56.415862 -58.897888 
L 56.291636 -58.486233 
L 56.16741 -58.096744 
L 56.043185 -57.730488 
L 55.918959 -57.388174 
L 55.794733 -57.070289 
L 55.670508 -56.777252 
L 55.546282 -56.509495 
L 55.422056 -56.267367 
L 55.29783 -56.050878 
L 55.173605 -55.859324 
L 55.049379 -55.690945 
L 54.925153 -55.542708 
L 54.800928 -55.41034 
L 54.676702 -55.288644 
L 54.552476 -55.172067 
L 54.428251 -55.055434 
L 54.304025 -54.934697 
L 54.179799 -54.807523 
L 54.055573 -54.673615 
L 53.931348 -54.534671 
L 53.807122 -54.394002 
L 53.682896 -54.255901 
L 53.558671 -54.12489 
L 53.434445 -54.005019 
L 53.310219 -53.899338 
L 53.185994 -53.809622 
L 53.061768 -53.736342 
L 52.937542 -53.678837 
L 52.813316 -53.635593 
L 52.689091 -53.604537 
L 52.564865 -53.583298 
L 52.440639 -53.569415 
L 52.316414 -53.560508 
L 52.192188 -53.554423 
L 52.067962 -53.54937 
L 51.943737 -53.544007 
L 51.819511 -53.537484 
L 51.695285 -53.529406 
L 51.571059 -53.519736 
L 51.446834 -53.508671 
L 51.322608 -53.49652 
L 51.198382 -53.483612 
L 51.074157 -53.470245 
L 50.949931 -53.456681 
L 50.825705 -53.443158 
L 50.70148 -53.429914 
L 50.577254 -53.417205 
L 50.453028 -53.405305 
L 50.328802 -53.394484 
L 50.204577 -53.384974 
z
" style="stroke: #414487; stroke-width: 1.25"/>
    </defs>
    <g>
     <use xlink:href="#mb0a6bf8724" x="0" y="174.899688" style="fill: #414487; fill-opacity: 0.7; stroke: #414487; stroke-width: 1.25"/>
    </g>
   </g>
   <g id="line2d_8">
    <path d="M 7.2 121.545 
L 216.45 121.545 
" style="fill: none; stroke: #414487; stroke-opacity: 0.9; stroke-linecap: round"/>
   </g>
   <g id="text_8">
    <!-- 7 -->
    <g style="fill: #414487" transform="translate(7.2 120.69825) scale(0.12 -0.12)">
     <defs>
      <path id="DejaVuSans-Bold-37" d="M 428 4666 
L 3944 4666 
L 3944 3988 
L 2125 0 
L 953 0 
L 2675 3781 
L 428 3781 
L 428 4666 
z
" transform="scale(0.015625)"/>
     </defs>
     <use xlink:href="#DejaVuSans-Bold-37"/>
    </g>
   </g>
  </g>
  <g id="axes_9">
   <g id="patch_10">
    <path d="M 7.2 131.94 
L 216.45 131.94 
L 216.45 90.36 
L 7.2 90.36 
L 7.2 131.94 
z
" style="fill: none"/>
   </g>
   <g id="matplotlib.axis_17">
    <g id="xtick_41">
     <g id="text_9">
      <!-- −8 -->
      <g style="fill: #838383" transform="translate(37.063497 149.798281) scale(0.11 -0.11)">
       <defs>
        <path id="DejaVuSans-2212" d="M 678 2272 
L 4684 2272 
L 4684 1741 
L 678 1741 
L 678 2272 
z
" transform="scale(0.015625)"/>
        <path id="DejaVuSans-38" d="M 2034 2216 
Q 1584 2216 1326 1975 
Q 1069 1734 1069 1313 
Q 1069 891 1326 650 
Q 1584 409 2034 409 
Q 2484 409 2743 651 
Q 3003 894 3003 1313 
Q 3003 1734 2745 1975 
Q 2488 2216 2034 2216 
z
M 1403 2484 
Q 997 2584 770 2862 
Q 544 3141 544 3541 
Q 544 4100 942 4425 
Q 1341 4750 2034 4750 
Q 2731 4750 3128 4425 
Q 3525 4100 3525 3541 
Q 3525 3141 3298 2862 
Q 3072 2584 2669 2484 
Q 3125 2378 3379 2068 
Q 3634 1759 3634 1313 
Q 3634 634 3220 271 
Q 2806 -91 2034 -91 
Q 1263 -91 848 271 
Q 434 634 434 1313 
Q 434 1759 690 2068 
Q 947 2378 1403 2484 
z
M 1172 3481 
Q 1172 3119 1398 2916 
Q 1625 2713 2034 2713 
Q 2441 2713 2670 2916 
Q 2900 3119 2900 3481 
Q 2900 3844 2670 4047 
Q 2441 4250 2034 4250 
Q 1625 4250 1398 4047 
Q 1172 3844 1172 3481 
z
" transform="scale(0.015625)"/>
       </defs>
       <use xlink:href="#DejaVuSans-2212"/>
       <use xlink:href="#DejaVuSans-38" x="83.789062"/>
      </g>
     </g>
    </g>
    <g id="xtick_42">
     <g id="text_10">
      <!-- −6 -->
      <g style="fill: #838383" transform="translate(75.524248 149.798281) scale(0.11 -0.11)">
       <defs>
        <path id="DejaVuSans-36" d="M 2113 2584 
Q 1688 2584 1439 2293 
Q 1191 2003 1191 1497 
Q 1191 994 1439 701 
Q 1688 409 2113 409 
Q 2538 409 2786 701 
Q 3034 994 3034 1497 
Q 3034 2003 2786 2293 
Q 2538 2584 2113 2584 
z
M 3366 4563 
L 3366 3988 
Q 3128 4100 2886 4159 
Q 2644 4219 2406 4219 
Q 1781 4219 1451 3797 
Q 1122 3375 1075 2522 
Q 1259 2794 1537 2939 
Q 1816 3084 2150 3084 
Q 2853 3084 3261 2657 
Q 3669 2231 3669 1497 
Q 3669 778 3244 343 
Q 2819 -91 2113 -91 
Q 1303 -91 875 529 
Q 447 1150 447 2328 
Q 447 3434 972 4092 
Q 1497 4750 2381 4750 
Q 2619 4750 2861 4703 
Q 3103 4656 3366 4563 
z
" transform="scale(0.015625)"/>
       </defs>
       <use xlink:href="#DejaVuSans-2212"/>
       <use xlink:href="#DejaVuSans-36" x="83.789062"/>
      </g>
     </g>
    </g>
    <g id="xtick_43">
     <g id="text_11">
      <!-- −4 -->
      <g style="fill: #838383" transform="translate(113.985 149.798281) scale(0.11 -0.11)">
       <defs>
        <path id="DejaVuSans-34" d="M 2419 4116 
L 825 1625 
L 2419 1625 
L 2419 4116 
z
M 2253 4666 
L 3047 4666 
L 3047 1625 
L 3713 1625 
L 3713 1100 
L 3047 1100 
L 3047 0 
L 2419 0 
L 2419 1100 
L 313 1100 
L 313 1709 
L 2253 4666 
z
" transform="scale(0.015625)"/>
       </defs>
       <use xlink:href="#DejaVuSans-2212"/>
       <use xlink:href="#DejaVuSans-34" x="83.789062"/>
      </g>
     </g>
    </g>
    <g id="xtick_44">
     <g id="text_12">
      <!-- −2 -->
      <g style="fill: #838383" transform="translate(152.445751 149.798281) scale(0.11 -0.11)">
       <defs>
        <path id="DejaVuSans-32" d="M 1228 531 
L 3431 531 
L 3431 0 
L 469 0 
L 469 531 
Q 828 903 1448 1529 
Q 2069 2156 2228 2338 
Q 2531 2678 2651 2914 
Q 2772 3150 2772 3378 
Q 2772 3750 2511 3984 
Q 2250 4219 1831 4219 
Q 1534 4219 1204 4116 
Q 875 4013 500 3803 
L 500 4441 
Q 881 4594 1212 4672 
Q 1544 4750 1819 4750 
Q 2544 4750 2975 4387 
Q 3406 4025 3406 3419 
Q 3406 3131 3298 2873 
Q 3191 2616 2906 2266 
Q 2828 2175 2409 1742 
Q 1991 1309 1228 531 
z
" transform="scale(0.015625)"/>
       </defs>
       <use xlink:href="#DejaVuSans-2212"/>
       <use xlink:href="#DejaVuSans-32" x="83.789062"/>
      </g>
     </g>
    </g>
    <g id="xtick_45">
     <g id="text_13">
      <!-- 0 -->
      <g style="fill: #838383" transform="translate(195.51533 149.798281) scale(0.11 -0.11)">
       <defs>
        <path id="DejaVuSans-30" d="M 2034 4250 
Q 1547 4250 1301 3770 
Q 1056 3291 1056 2328 
Q 1056 1369 1301 889 
Q 1547 409 2034 409 
Q 2525 409 2770 889 
Q 3016 1369 3016 2328 
Q 3016 3291 2770 3770 
Q 2525 4250 2034 4250 
z
M 2034 4750 
Q 2819 4750 3233 4129 
Q 3647 3509 3647 2328 
Q 3647 1150 3233 529 
Q 2819 -91 2034 -91 
Q 1250 -91 836 529 
Q 422 1150 422 2328 
Q 422 3509 836 4129 
Q 1250 4750 2034 4750 
z
" transform="scale(0.015625)"/>
       </defs>
       <use xlink:href="#DejaVuSans-30"/>
      </g>
     </g>
    </g>
    <g id="text_14">
     <!-- sldb -->
     <g style="fill: #bdbdbd" transform="translate(99.414375 165.204063) scale(0.12 -0.12)">
      <defs>
       <path id="DejaVuSans-73" d="M 2834 3397 
L 2834 2853 
Q 2591 2978 2328 3040 
Q 2066 3103 1784 3103 
Q 1356 3103 1142 2972 
Q 928 2841 928 2578 
Q 928 2378 1081 2264 
Q 1234 2150 1697 2047 
L 1894 2003 
Q 2506 1872 2764 1633 
Q 3022 1394 3022 966 
Q 3022 478 2636 193 
Q 2250 -91 1575 -91 
Q 1294 -91 989 -36 
Q 684 19 347 128 
L 347 722 
Q 666 556 975 473 
Q 1284 391 1588 391 
Q 1994 391 2212 530 
Q 2431 669 2431 922 
Q 2431 1156 2273 1281 
Q 2116 1406 1581 1522 
L 1381 1569 
Q 847 1681 609 1914 
Q 372 2147 372 2553 
Q 372 3047 722 3315 
Q 1072 3584 1716 3584 
Q 2034 3584 2315 3537 
Q 2597 3491 2834 3397 
z
" transform="scale(0.015625)"/>
       <path id="DejaVuSans-6c" d="M 603 4863 
L 1178 4863 
L 1178 0 
L 603 0 
L 603 4863 
z
" transform="scale(0.015625)"/>
       <path id="DejaVuSans-64" d="M 2906 2969 
L 2906 4863 
L 3481 4863 
L 3481 0 
L 2906 0 
L 2906 525 
Q 2725 213 2448 61 
Q 2172 -91 1784 -91 
Q 1150 -91 751 415 
Q 353 922 353 1747 
Q 353 2572 751 3078 
Q 1150 3584 1784 3584 
Q 2172 3584 2448 3432 
Q 2725 3281 2906 2969 
z
M 947 1747 
Q 947 1113 1208 752 
Q 1469 391 1925 391 
Q 2381 391 2643 752 
Q 2906 1113 2906 1747 
Q 2906 2381 2643 2742 
Q 2381 3103 1925 3103 
Q 1469 3103 1208 2742 
Q 947 2381 947 1747 
z
" transform="scale(0.015625)"/>
       <path id="DejaVuSans-62" d="M 3116 1747 
Q 3116 2381 2855 2742 
Q 2594 3103 2138 3103 
Q 1681 3103 1420 2742 
Q 1159 2381 1159 1747 
Q 1159 1113 1420 752 
Q 1681 391 2138 391 
Q 2594 391 2855 752 
Q 3116 1113 3116 1747 
z
M 1159 2969 
Q 1341 3281 1617 3432 
Q 1894 3584 2278 3584 
Q 2916 3584 3314 3078 
Q 3713 2572 3713 1747 
Q 3713 922 3314 415 
Q 2916 -91 2278 -91 
Q 1894 -91 1617 61 
Q 1341 213 1159 525 
L 1159 0 
L 581 0 
L 581 4863 
L 1159 4863 
L 1159 2969 
z
" transform="scale(0.015625)"/>
      </defs>
      <use xlink:href="#DejaVuSans-73"/>
      <use xlink:href="#DejaVuSans-6c" x="52.099609"/>
      <use xlink:href="#DejaVuSans-64" x="79.882812"/>
      <use xlink:href="#DejaVuSans-62" x="143.359375"/>
     </g>
    </g>
   </g>
   <g id="matplotlib.axis_18"/>
   <g id="PolyCollection_4">
    <defs>
     <path id="m967fd49950" d="M 16.711364 -42.980115 
L 16.711364 -42.959688 
L 16.859394 -42.959688 
L 17.007424 -42.959688 
L 17.155454 -42.959688 
L 17.303484 -42.959688 
L 17.451514 -42.959688 
L 17.599545 -42.959688 
L 17.747575 -42.959688 
L 17.895605 -42.959688 
L 18.043635 -42.959688 
L 18.191665 -42.959688 
L 18.339695 -42.959688 
L 18.487725 -42.959688 
L 18.635756 -42.959688 
L 18.783786 -42.959688 
L 18.931816 -42.959688 
L 19.079846 -42.959688 
L 19.227876 -42.959688 
L 19.375906 -42.959688 
L 19.523937 -42.959688 
L 19.671967 -42.959688 
L 19.819997 -42.959688 
L 19.968027 -42.959688 
L 20.116057 -42.959688 
L 20.264087 -42.959688 
L 20.412117 -42.959688 
L 20.560148 -42.959688 
L 20.708178 -42.959688 
L 20.856208 -42.959688 
L 21.004238 -42.959688 
L 21.152268 -42.959688 
L 21.300298 -42.959688 
L 21.448329 -42.959688 
L 21.596359 -42.959688 
L 21.744389 -42.959688 
L 21.892419 -42.959688 
L 22.040449 -42.959688 
L 22.188479 -42.959688 
L 22.336509 -42.959688 
L 22.48454 -42.959688 
L 22.63257 -42.959688 
L 22.7806 -42.959688 
L 22.92863 -42.959688 
L 23.07666 -42.959688 
L 23.22469 -42.959688 
L 23.372721 -42.959688 
L 23.520751 -42.959688 
L 23.668781 -42.959688 
L 23.816811 -42.959688 
L 23.964841 -42.959688 
L 24.112871 -42.959688 
L 24.260901 -42.959688 
L 24.408932 -42.959688 
L 24.556962 -42.959688 
L 24.704992 -42.959688 
L 24.853022 -42.959688 
L 25.001052 -42.959688 
L 25.149082 -42.959688 
L 25.297113 -42.959688 
L 25.445143 -42.959688 
L 25.593173 -42.959688 
L 25.741203 -42.959688 
L 25.889233 -42.959688 
L 26.037263 -42.959688 
L 26.185293 -42.959688 
L 26.333324 -42.959688 
L 26.481354 -42.959688 
L 26.629384 -42.959688 
L 26.777414 -42.959688 
L 26.925444 -42.959688 
L 27.073474 -42.959688 
L 27.221505 -42.959688 
L 27.369535 -42.959688 
L 27.517565 -42.959688 
L 27.665595 -42.959688 
L 27.813625 -42.959688 
L 27.961655 -42.959688 
L 28.109685 -42.959688 
L 28.257716 -42.959688 
L 28.405746 -42.959688 
L 28.553776 -42.959688 
L 28.701806 -42.959688 
L 28.849836 -42.959688 
L 28.997866 -42.959688 
L 29.145897 -42.959688 
L 29.293927 -42.959688 
L 29.441957 -42.959688 
L 29.589987 -42.959688 
L 29.738017 -42.959688 
L 29.886047 -42.959688 
L 30.034077 -42.959688 
L 30.182108 -42.959688 
L 30.330138 -42.959688 
L 30.478168 -42.959688 
L 30.626198 -42.959688 
L 30.774228 -42.959688 
L 30.922258 -42.959688 
L 31.070289 -42.959688 
L 31.218319 -42.959688 
L 31.366349 -42.959688 
L 31.514379 -42.959688 
L 31.662409 -42.959688 
L 31.810439 -42.959688 
L 31.958469 -42.959688 
L 32.1065 -42.959688 
L 32.25453 -42.959688 
L 32.40256 -42.959688 
L 32.55059 -42.959688 
L 32.69862 -42.959688 
L 32.84665 -42.959688 
L 32.994681 -42.959688 
L 33.142711 -42.959688 
L 33.290741 -42.959688 
L 33.438771 -42.959688 
L 33.586801 -42.959688 
L 33.734831 -42.959688 
L 33.882861 -42.959688 
L 34.030892 -42.959688 
L 34.178922 -42.959688 
L 34.326952 -42.959688 
L 34.474982 -42.959688 
L 34.623012 -42.959688 
L 34.771042 -42.959688 
L 34.919073 -42.959688 
L 35.067103 -42.959688 
L 35.215133 -42.959688 
L 35.363163 -42.959688 
L 35.511193 -42.959688 
L 35.659223 -42.959688 
L 35.807253 -42.959688 
L 35.955284 -42.959688 
L 36.103314 -42.959688 
L 36.251344 -42.959688 
L 36.399374 -42.959688 
L 36.547404 -42.959688 
L 36.695434 -42.959688 
L 36.843465 -42.959688 
L 36.991495 -42.959688 
L 37.139525 -42.959688 
L 37.287555 -42.959688 
L 37.435585 -42.959688 
L 37.583615 -42.959688 
L 37.731645 -42.959688 
L 37.879676 -42.959688 
L 38.027706 -42.959688 
L 38.175736 -42.959688 
L 38.323766 -42.959688 
L 38.471796 -42.959688 
L 38.619826 -42.959688 
L 38.767857 -42.959688 
L 38.915887 -42.959688 
L 39.063917 -42.959688 
L 39.211947 -42.959688 
L 39.359977 -42.959688 
L 39.508007 -42.959688 
L 39.656037 -42.959688 
L 39.804068 -42.959688 
L 39.952098 -42.959688 
L 40.100128 -42.959688 
L 40.248158 -42.959688 
L 40.396188 -42.959688 
L 40.544218 -42.959688 
L 40.692249 -42.959688 
L 40.840279 -42.959688 
L 40.988309 -42.959688 
L 41.136339 -42.959688 
L 41.284369 -42.959688 
L 41.432399 -42.959688 
L 41.580429 -42.959688 
L 41.72846 -42.959688 
L 41.87649 -42.959688 
L 42.02452 -42.959688 
L 42.17255 -42.959688 
L 42.32058 -42.959688 
L 42.46861 -42.959688 
L 42.616641 -42.959688 
L 42.764671 -42.959688 
L 42.912701 -42.959688 
L 43.060731 -42.959688 
L 43.208761 -42.959688 
L 43.356791 -42.959688 
L 43.504821 -42.959688 
L 43.652852 -42.959688 
L 43.800882 -42.959688 
L 43.948912 -42.959688 
L 44.096942 -42.959688 
L 44.244972 -42.959688 
L 44.393002 -42.959688 
L 44.541033 -42.959688 
L 44.689063 -42.959688 
L 44.837093 -42.959688 
L 44.985123 -42.959688 
L 45.133153 -42.959688 
L 45.281183 -42.959688 
L 45.429213 -42.959688 
L 45.577244 -42.959688 
L 45.725274 -42.959688 
L 45.873304 -42.959688 
L 46.021334 -42.959688 
L 46.169364 -42.959688 
L 46.169364 -42.988189 
L 46.169364 -42.988189 
L 46.021334 -42.998007 
L 45.873304 -43.009614 
L 45.725274 -43.022979 
L 45.577244 -43.038047 
L 45.429213 -43.054732 
L 45.281183 -43.072856 
L 45.133153 -43.092052 
L 44.985123 -43.111667 
L 44.837093 -43.130708 
L 44.689063 -43.147891 
L 44.541033 -43.161824 
L 44.393002 -43.171293 
L 44.244972 -43.175585 
L 44.096942 -43.174769 
L 43.948912 -43.169827 
L 43.800882 -43.162587 
L 43.652852 -43.155489 
L 43.504821 -43.151241 
L 43.356791 -43.152485 
L 43.208761 -43.161547 
L 43.060731 -43.180317 
L 42.912701 -43.210243 
L 42.764671 -43.252375 
L 42.616641 -43.307433 
L 42.46861 -43.375857 
L 42.32058 -43.457859 
L 42.17255 -43.553477 
L 42.02452 -43.662604 
L 41.87649 -43.784977 
L 41.72846 -43.920066 
L 41.580429 -44.066913 
L 41.432399 -44.223973 
L 41.284369 -44.389063 
L 41.136339 -44.559516 
L 40.988309 -44.732541 
L 40.840279 -44.905744 
L 40.692249 -45.077705 
L 40.544218 -45.248493 
L 40.396188 -45.420022 
L 40.248158 -45.596183 
L 40.100128 -45.782682 
L 39.952098 -45.986579 
L 39.804068 -46.215556 
L 39.656037 -46.477012 
L 39.508007 -46.777146 
L 39.359977 -47.120233 
L 39.211947 -47.508239 
L 39.063917 -47.940881 
L 38.915887 -48.416135 
L 38.767857 -48.931071 
L 38.619826 -49.482799 
L 38.471796 -50.069229 
L 38.323766 -50.689368 
L 38.175736 -51.34296 
L 38.027706 -52.029587 
L 37.879676 -52.747532 
L 37.731645 -53.492952 
L 37.583615 -54.259821 
L 37.435585 -55.040853 
L 37.287555 -55.829221 
L 37.139525 -56.620504 
L 36.991495 -57.414137 
L 36.843465 -58.213771 
L 36.695434 -59.026315 
L 36.547404 -59.859915 
L 36.399374 -60.721505 
L 36.251344 -61.614669 
L 36.103314 -62.538409 
L 35.955284 -63.487031 
L 35.807253 -64.450986 
L 35.659223 -65.418252 
L 35.511193 -66.375846 
L 35.363163 -67.311155 
L 35.215133 -68.212974 
L 35.067103 -69.072215 
L 34.919073 -69.882291 
L 34.771042 -70.639122 
L 34.623012 -71.340779 
L 34.474982 -71.98686 
L 34.326952 -72.577815 
L 34.178922 -73.114458 
L 34.030892 -73.597842 
L 33.882861 -74.029515 
L 33.734831 -74.412066 
L 33.586801 -74.749772 
L 33.438771 -75.049137 
L 33.290741 -75.319077 
L 33.142711 -75.570456 
L 32.994681 -75.814803 
L 32.84665 -76.062248 
L 32.69862 -76.3191 
L 32.55059 -76.585861 
L 32.40256 -76.85654 
L 32.25453 -77.11979 
L 32.1065 -77.36172 
L 31.958469 -77.569468 
L 31.810439 -77.734198 
L 31.662409 -77.852343 
L 31.514379 -77.924628 
L 31.366349 -77.953383 
L 31.218319 -77.939396 
L 31.070289 -77.87973 
L 30.922258 -77.767446 
L 30.774228 -77.593265 
L 30.626198 -77.348371 
L 30.478168 -77.027063 
L 30.330138 -76.628158 
L 30.182108 -76.154634 
L 30.034077 -75.611798 
L 29.886047 -75.004904 
L 29.738017 -74.337316 
L 29.589987 -73.610055 
L 29.441957 -72.82293 
L 29.293927 -71.976743 
L 29.145897 -71.075585 
L 28.997866 -70.128184 
L 28.849836 -69.147672 
L 28.701806 -68.149821 
L 28.553776 -67.150413 
L 28.405746 -66.162784 
L 28.257716 -65.196383 
L 28.109685 -64.256736 
L 27.961655 -63.346503 
L 27.813625 -62.466914 
L 27.665595 -61.618776 
L 27.517565 -60.802624 
L 27.369535 -60.018128 
L 27.221505 -59.263304 
L 27.073474 -58.534187 
L 26.925444 -57.825325 
L 26.777414 -57.130958 
L 26.629384 -56.446378 
L 26.481354 -55.768826 
L 26.333324 -55.097625 
L 26.185293 -54.43361 
L 26.037263 -53.778326 
L 25.889233 -53.133465 
L 25.741203 -52.500826 
L 25.593173 -51.882658 
L 25.445143 -51.282031 
L 25.297113 -50.702839 
L 25.149082 -50.149308 
L 25.001052 -49.625156 
L 24.853022 -49.132808 
L 24.704992 -48.67302 
L 24.556962 -48.245083 
L 24.408932 -47.847485 
L 24.260901 -47.478725 
L 24.112871 -47.1379 
L 23.964841 -46.824822 
L 23.816811 -46.539613 
L 23.668781 -46.281941 
L 23.520751 -46.050236 
L 23.372721 -45.841206 
L 23.22469 -45.64993 
L 23.07666 -45.470578 
L 22.92863 -45.297597 
L 22.7806 -45.126998 
L 22.63257 -44.957319 
L 22.48454 -44.789914 
L 22.336509 -44.628421 
L 22.188479 -44.477537 
L 22.040449 -44.341483 
L 21.892419 -44.222619 
L 21.744389 -44.120634 
L 21.596359 -44.032541 
L 21.448329 -43.953418 
L 21.300298 -43.877659 
L 21.152268 -43.800325 
L 21.004238 -43.718232 
L 20.856208 -43.630511 
L 20.708178 -43.538572 
L 20.560148 -43.445574 
L 20.412117 -43.355593 
L 20.264087 -43.272744 
L 20.116057 -43.200444 
L 19.968027 -43.140947 
L 19.819997 -43.095151 
L 19.671967 -43.062662 
L 19.523937 -43.042005 
L 19.375906 -43.03094 
L 19.227876 -43.026803 
L 19.079846 -43.026863 
L 18.931816 -43.028649 
L 18.783786 -43.030232 
L 18.635756 -43.030401 
L 18.487725 -43.028712 
L 18.339695 -43.025377 
L 18.191665 -43.02102 
L 18.043635 -43.016383 
L 17.895605 -43.012052 
L 17.747575 -43.008284 
L 17.599545 -43.004995 
L 17.451514 -43.001856 
L 17.303484 -42.998479 
L 17.155454 -42.994581 
L 17.007424 -42.990092 
L 16.859394 -42.985165 
L 16.711364 -42.980115 
z
" style="stroke: #482475; stroke-width: 1.25"/>
    </defs>
    <g>
     <use xlink:href="#m967fd49950" x="0" y="174.899688" style="fill: #482475; fill-opacity: 0.7; stroke: #482475; stroke-width: 1.25"/>
    </g>
   </g>
   <g id="line2d_9">
    <path d="M 7.2 131.94 
L 216.45 131.94 
" style="fill: none; stroke: #482475; stroke-opacity: 0.9; stroke-linecap: round"/>
   </g>
   <g id="text_15">
    <!-- 8 -->
    <g style="fill: #482475" transform="translate(7.2 131.09325) scale(0.12 -0.12)">
     <defs>
      <path id="DejaVuSans-Bold-38" d="M 2228 2088 
Q 1891 2088 1709 1903 
Q 1528 1719 1528 1375 
Q 1528 1031 1709 848 
Q 1891 666 2228 666 
Q 2563 666 2741 848 
Q 2919 1031 2919 1375 
Q 2919 1722 2741 1905 
Q 2563 2088 2228 2088 
z
M 1350 2484 
Q 925 2613 709 2878 
Q 494 3144 494 3541 
Q 494 4131 934 4440 
Q 1375 4750 2228 4750 
Q 3075 4750 3515 4442 
Q 3956 4134 3956 3541 
Q 3956 3144 3739 2878 
Q 3522 2613 3097 2484 
Q 3572 2353 3814 2058 
Q 4056 1763 4056 1313 
Q 4056 619 3595 264 
Q 3134 -91 2228 -91 
Q 1319 -91 855 264 
Q 391 619 391 1313 
Q 391 1763 633 2058 
Q 875 2353 1350 2484 
z
M 1631 3419 
Q 1631 3141 1786 2991 
Q 1941 2841 2228 2841 
Q 2509 2841 2662 2991 
Q 2816 3141 2816 3419 
Q 2816 3697 2662 3845 
Q 2509 3994 2228 3994 
Q 1941 3994 1786 3844 
Q 1631 3694 1631 3419 
z
" transform="scale(0.015625)"/>
     </defs>
     <use xlink:href="#DejaVuSans-Bold-38"/>
    </g>
   </g>
  </g>
 </g>
</svg>
