<?xml version="1.0" encoding="utf-8" standalone="no"?>
<!DOCTYPE svg PUBLIC "-//W3C//DTD SVG 1.1//EN"
  "http://www.w3.org/Graphics/SVG/1.1/DTD/svg11.dtd">
<svg xmlns:xlink="http://www.w3.org/1999/xlink" width="223.65pt" height="174.899688pt" viewBox="0 0 223.65 174.899688" xmlns="http://www.w3.org/2000/svg" version="1.1">
 <metadata>
  <rdf:RDF xmlns:dc="http://purl.org/dc/elements/1.1/" xmlns:cc="http://creativecommons.org/ns#" xmlns:rdf="http://www.w3.org/1999/02/22-rdf-syntax-ns#">
   <cc:Work>
    <dc:type rdf:resource="http://purl.org/dc/dcmitype/StillImage"/>
    <dc:date>2023-11-22T22:39:45.713672</dc:date>
    <dc:format>image/svg+xml</dc:format>
    <dc:creator>
     <cc:Agent>
      <dc:title>Matplotlib v3.8.2, https://matplotlib.org/</dc:title>
     </cc:Agent>
    </dc:creator>
   </cc:Work>
  </rdf:RDF>
 </metadata>
 <defs>
  <style type="text/css">*{stroke-linejoin: round; stroke-linecap: butt}</style>
 </defs>
 <g id="figure_1">
  <g id="patch_1">
   <path d="M 0 174.899688 
L 223.65 174.899688 
L 223.65 0 
L 0 0 
L 0 174.899688 
z
" style="fill: none"/>
  </g>
  <g id="axes_1">
   <g id="patch_2">
    <path d="M 7.2 48.78 
L 216.45 48.78 
L 216.45 7.2 
L 7.2 7.2 
L 7.2 48.78 
z
" style="fill: none"/>
   </g>
   <g id="matplotlib.axis_1">
    <g id="xtick_1"/>
    <g id="xtick_2"/>
    <g id="xtick_3"/>
    <g id="xtick_4"/>
   </g>
   <g id="matplotlib.axis_2"/>
   <g id="line2d_1">
    <path d="M 7.2 48.78 
L 216.45 48.78 
" style="fill: none; stroke: #482475; stroke-opacity: 0.9; stroke-linecap: round"/>
   </g>
   <g id="text_1">
    <!-- 0 -->
    <g style="fill: #482475" transform="translate(7.2 47.93325) scale(0.12 -0.12)">
     <defs>
      <path id="DejaVuSans-Bold-30" d="M 2944 2338 
Q 2944 3213 2780 3570 
Q 2616 3928 2228 3928 
Q 1841 3928 1675 3570 
Q 1509 3213 1509 2338 
Q 1509 1453 1675 1090 
Q 1841 728 2228 728 
Q 2613 728 2778 1090 
Q 2944 1453 2944 2338 
z
M 4147 2328 
Q 4147 1169 3647 539 
Q 3147 -91 2228 -91 
Q 1306 -91 806 539 
Q 306 1169 306 2328 
Q 306 3491 806 4120 
Q 1306 4750 2228 4750 
Q 3147 4750 3647 4120 
Q 4147 3491 4147 2328 
z
" transform="scale(0.015625)"/>
     </defs>
     <use xlink:href="#DejaVuSans-Bold-30"/>
    </g>
   </g>
  </g>
  <g id="axes_2">
   <g id="patch_3">
    <path d="M 7.2 59.175 
L 216.45 59.175 
L 216.45 17.595 
L 7.2 17.595 
L 7.2 59.175 
z
" style="fill: none"/>
   </g>
   <g id="matplotlib.axis_3">
    <g id="xtick_5"/>
    <g id="xtick_6"/>
    <g id="xtick_7"/>
    <g id="xtick_8"/>
   </g>
   <g id="matplotlib.axis_4"/>
   <g id="PolyCollection_1">
    <defs>
     <path id="m7c764a4f0f" d="M 16.711364 -115.750826 
L 16.711364 -115.724688 
L 16.779552 -115.724688 
L 16.84774 -115.724688 
L 16.915929 -115.724688 
L 16.984117 -115.724688 
L 17.052305 -115.724688 
L 17.120494 -115.724688 
L 17.188682 -115.724688 
L 17.25687 -115.724688 
L 17.325059 -115.724688 
L 17.393247 -115.724688 
L 17.461436 -115.724688 
L 17.529624 -115.724688 
L 17.597812 -115.724688 
L 17.666001 -115.724688 
L 17.734189 -115.724688 
L 17.802377 -115.724688 
L 17.870566 -115.724688 
L 17.938754 -115.724688 
L 18.006942 -115.724688 
L 18.075131 -115.724688 
L 18.143319 -115.724688 
L 18.211507 -115.724688 
L 18.279696 -115.724688 
L 18.347884 -115.724688 
L 18.416072 -115.724688 
L 18.484261 -115.724688 
L 18.552449 -115.724688 
L 18.620637 -115.724688 
L 18.688826 -115.724688 
L 18.757014 -115.724688 
L 18.825203 -115.724688 
L 18.893391 -115.724688 
L 18.961579 -115.724688 
L 19.029768 -115.724688 
L 19.097956 -115.724688 
L 19.166144 -115.724688 
L 19.234333 -115.724688 
L 19.302521 -115.724688 
L 19.370709 -115.724688 
L 19.438898 -115.724688 
L 19.507086 -115.724688 
L 19.575274 -115.724688 
L 19.643463 -115.724688 
L 19.711651 -115.724688 
L 19.779839 -115.724688 
L 19.848028 -115.724688 
L 19.916216 -115.724688 
L 19.984405 -115.724688 
L 20.052593 -115.724688 
L 20.120781 -115.724688 
L 20.18897 -115.724688 
L 20.257158 -115.724688 
L 20.325346 -115.724688 
L 20.393535 -115.724688 
L 20.461723 -115.724688 
L 20.529911 -115.724688 
L 20.5981 -115.724688 
L 20.666288 -115.724688 
L 20.734476 -115.724688 
L 20.802665 -115.724688 
L 20.870853 -115.724688 
L 20.939041 -115.724688 
L 21.00723 -115.724688 
L 21.075418 -115.724688 
L 21.143606 -115.724688 
L 21.211795 -115.724688 
L 21.279983 -115.724688 
L 21.348172 -115.724688 
L 21.41636 -115.724688 
L 21.484548 -115.724688 
L 21.552737 -115.724688 
L 21.620925 -115.724688 
L 21.689113 -115.724688 
L 21.757302 -115.724688 
L 21.82549 -115.724688 
L 21.893678 -115.724688 
L 21.961867 -115.724688 
L 22.030055 -115.724688 
L 22.098243 -115.724688 
L 22.166432 -115.724688 
L 22.23462 -115.724688 
L 22.302808 -115.724688 
L 22.370997 -115.724688 
L 22.439185 -115.724688 
L 22.507374 -115.724688 
L 22.575562 -115.724688 
L 22.64375 -115.724688 
L 22.711939 -115.724688 
L 22.780127 -115.724688 
L 22.848315 -115.724688 
L 22.916504 -115.724688 
L 22.984692 -115.724688 
L 23.05288 -115.724688 
L 23.121069 -115.724688 
L 23.189257 -115.724688 
L 23.257445 -115.724688 
L 23.325634 -115.724688 
L 23.393822 -115.724688 
L 23.46201 -115.724688 
L 23.530199 -115.724688 
L 23.598387 -115.724688 
L 23.666575 -115.724688 
L 23.734764 -115.724688 
L 23.802952 -115.724688 
L 23.871141 -115.724688 
L 23.939329 -115.724688 
L 24.007517 -115.724688 
L 24.075706 -115.724688 
L 24.143894 -115.724688 
L 24.212082 -115.724688 
L 24.280271 -115.724688 
L 24.348459 -115.724688 
L 24.416647 -115.724688 
L 24.484836 -115.724688 
L 24.553024 -115.724688 
L 24.621212 -115.724688 
L 24.689401 -115.724688 
L 24.757589 -115.724688 
L 24.825777 -115.724688 
L 24.893966 -115.724688 
L 24.962154 -115.724688 
L 25.030342 -115.724688 
L 25.098531 -115.724688 
L 25.166719 -115.724688 
L 25.234908 -115.724688 
L 25.303096 -115.724688 
L 25.371284 -115.724688 
L 25.439473 -115.724688 
L 25.507661 -115.724688 
L 25.575849 -115.724688 
L 25.644038 -115.724688 
L 25.712226 -115.724688 
L 25.780414 -115.724688 
L 25.848603 -115.724688 
L 25.916791 -115.724688 
L 25.984979 -115.724688 
L 26.053168 -115.724688 
L 26.121356 -115.724688 
L 26.189544 -115.724688 
L 26.257733 -115.724688 
L 26.325921 -115.724688 
L 26.39411 -115.724688 
L 26.462298 -115.724688 
L 26.530486 -115.724688 
L 26.598675 -115.724688 
L 26.666863 -115.724688 
L 26.735051 -115.724688 
L 26.80324 -115.724688 
L 26.871428 -115.724688 
L 26.939616 -115.724688 
L 27.007805 -115.724688 
L 27.075993 -115.724688 
L 27.144181 -115.724688 
L 27.21237 -115.724688 
L 27.280558 -115.724688 
L 27.348746 -115.724688 
L 27.416935 -115.724688 
L 27.485123 -115.724688 
L 27.553311 -115.724688 
L 27.6215 -115.724688 
L 27.689688 -115.724688 
L 27.757877 -115.724688 
L 27.826065 -115.724688 
L 27.894253 -115.724688 
L 27.962442 -115.724688 
L 28.03063 -115.724688 
L 28.098818 -115.724688 
L 28.167007 -115.724688 
L 28.235195 -115.724688 
L 28.303383 -115.724688 
L 28.371572 -115.724688 
L 28.43976 -115.724688 
L 28.507948 -115.724688 
L 28.576137 -115.724688 
L 28.644325 -115.724688 
L 28.712513 -115.724688 
L 28.780702 -115.724688 
L 28.84889 -115.724688 
L 28.917079 -115.724688 
L 28.985267 -115.724688 
L 29.053455 -115.724688 
L 29.121644 -115.724688 
L 29.189832 -115.724688 
L 29.25802 -115.724688 
L 29.326209 -115.724688 
L 29.394397 -115.724688 
L 29.462585 -115.724688 
L 29.530774 -115.724688 
L 29.598962 -115.724688 
L 29.66715 -115.724688 
L 29.735339 -115.724688 
L 29.803527 -115.724688 
L 29.871715 -115.724688 
L 29.939904 -115.724688 
L 30.008092 -115.724688 
L 30.07628 -115.724688 
L 30.144469 -115.724688 
L 30.212657 -115.724688 
L 30.280846 -115.724688 
L 30.280846 -115.789488 
L 30.280846 -115.789488 
L 30.212657 -115.807778 
L 30.144469 -115.826463 
L 30.07628 -115.843836 
L 30.008092 -115.858131 
L 29.939904 -115.8679 
L 29.871715 -115.872402 
L 29.803527 -115.871892 
L 29.735339 -115.867733 
L 29.66715 -115.862294 
L 29.598962 -115.858656 
L 29.530774 -115.860187 
L 29.462585 -115.870056 
L 29.394397 -115.890777 
L 29.326209 -115.923823 
L 29.25802 -115.969353 
L 29.189832 -116.026106 
L 29.121644 -116.091495 
L 29.053455 -116.161942 
L 28.985267 -116.23348 
L 28.917079 -116.302542 
L 28.84889 -116.366806 
L 28.780702 -116.425879 
L 28.712513 -116.481615 
L 28.644325 -116.537913 
L 28.576137 -116.600011 
L 28.507948 -116.673415 
L 28.43976 -116.762719 
L 28.371572 -116.870641 
L 28.303383 -116.99747 
L 28.235195 -117.141091 
L 28.167007 -117.297556 
L 28.098818 -117.462109 
L 28.03063 -117.630456 
L 27.962442 -117.80007 
L 27.894253 -117.971221 
L 27.826065 -118.14752 
L 27.757877 -118.335753 
L 27.689688 -118.544983 
L 27.6215 -118.785058 
L 27.553311 -119.064871 
L 27.485123 -119.390812 
L 27.416935 -119.76583 
L 27.348746 -120.189317 
L 27.280558 -120.65778 
L 27.21237 -121.165969 
L 27.144181 -121.708046 
L 27.075993 -122.27839 
L 27.007805 -122.871879 
L 26.939616 -123.483726 
L 26.871428 -124.109187 
L 26.80324 -124.743451 
L 26.735051 -125.381962 
L 26.666863 -126.021127 
L 26.598675 -126.659198 
L 26.530486 -127.296978 
L 26.462298 -127.938038 
L 26.39411 -128.588301 
L 26.325921 -129.255049 
L 26.257733 -129.945579 
L 26.189544 -130.665866 
L 26.121356 -131.419556 
L 26.053168 -132.207568 
L 25.984979 -133.028338 
L 25.916791 -133.878593 
L 25.848603 -134.754277 
L 25.780414 -135.65124 
L 25.712226 -136.565378 
L 25.644038 -137.492201 
L 25.575849 -138.426155 
L 25.507661 -139.36022 
L 25.439473 -140.286325 
L 25.371284 -141.196709 
L 25.303096 -142.085934 
L 25.234908 -142.952733 
L 25.166719 -143.800823 
L 25.098531 -144.638069 
L 25.030342 -145.474039 
L 24.962154 -146.31666 
L 24.893966 -147.169107 
L 24.825777 -148.027984 
L 24.757589 -148.883396 
L 24.689401 -149.72077 
L 24.621212 -150.523711 
L 24.553024 -151.276917 
L 24.484836 -151.968315 
L 24.416647 -152.590028 
L 24.348459 -153.138249 
L 24.280271 -153.612432 
L 24.212082 -154.014341 
L 24.143894 -154.347336 
L 24.075706 -154.616101 
L 24.007517 -154.826729 
L 23.939329 -154.98686 
L 23.871141 -155.105496 
L 23.802952 -155.192135 
L 23.734764 -155.25512 
L 23.666575 -155.299454 
L 23.598387 -155.324688 
L 23.530199 -155.323683 
L 23.46201 -155.282937 
L 23.393822 -155.18471 
L 23.325634 -155.010645 
L 23.257445 -154.746019 
L 23.189257 -154.383539 
L 23.121069 -153.925679 
L 23.05288 -153.384954 
L 22.984692 -152.782034 
L 22.916504 -152.142113 
L 22.848315 -151.490342 
L 22.780127 -150.847306 
L 22.711939 -150.225522 
L 22.64375 -149.627666 
L 22.575562 -149.046847 
L 22.507374 -148.468744 
L 22.439185 -147.875037 
L 22.370997 -147.247322 
L 22.302808 -146.57069 
L 22.23462 -145.836339 
L 22.166432 -145.042865 
L 22.098243 -144.196149 
L 22.030055 -143.308024 
L 21.961867 -142.394044 
L 21.893678 -141.470813 
L 21.82549 -140.553365 
L 21.757302 -139.653044 
L 21.689113 -138.776226 
L 21.620925 -137.924015 
L 21.552737 -137.092854 
L 21.484548 -136.275806 
L 21.41636 -135.464147 
L 21.348172 -134.64896 
L 21.279983 -133.82247 
L 21.211795 -132.979052 
L 21.143606 -132.115918 
L 21.075418 -131.233601 
L 21.00723 -130.336275 
L 20.939041 -129.431842 
L 20.870853 -128.531632 
L 20.802665 -127.649504 
L 20.734476 -126.800293 
L 20.666288 -125.997751 
L 20.5981 -125.252405 
L 20.529911 -124.569885 
L 20.461723 -123.950215 
L 20.393535 -123.3883 
L 20.325346 -122.875466 
L 20.257158 -122.40158 
L 20.18897 -121.957125 
L 20.120781 -121.534668 
L 20.052593 -121.12948 
L 19.984405 -120.739348 
L 19.916216 -120.363917 
L 19.848028 -120.003936 
L 19.779839 -119.660707 
L 19.711651 -119.3358 
L 19.643463 -119.03095 
L 19.575274 -118.747957 
L 19.507086 -118.488447 
L 19.438898 -118.253503 
L 19.370709 -118.043248 
L 19.302521 -117.856546 
L 19.234333 -117.690951 
L 19.166144 -117.542944 
L 19.097956 -117.408418 
L 19.029768 -117.28328 
L 18.961579 -117.164025 
L 18.893391 -117.048167 
L 18.825203 -116.934426 
L 18.757014 -116.822686 
L 18.688826 -116.713746 
L 18.620637 -116.608978 
L 18.552449 -116.509974 
L 18.484261 -116.418248 
L 18.416072 -116.335053 
L 18.347884 -116.261254 
L 18.279696 -116.197276 
L 18.211507 -116.143056 
L 18.143319 -116.098028 
L 18.075131 -116.061151 
L 18.006942 -116.03101 
L 17.938754 -116.00599 
L 17.870566 -115.984488 
L 17.802377 -115.965123 
L 17.734189 -115.946875 
L 17.666001 -115.92913 
L 17.597812 -115.911639 
L 17.529624 -115.894424 
L 17.461436 -115.877661 
L 17.393247 -115.861583 
L 17.325059 -115.846401 
L 17.25687 -115.832252 
L 17.188682 -115.819177 
L 17.120494 -115.807119 
L 17.052305 -115.795957 
L 16.984117 -115.785555 
L 16.915929 -115.775816 
L 16.84774 -115.766726 
L 16.779552 -115.758353 
L 16.711364 -115.750826 
z
" style="stroke: #414487; stroke-width: 1.25"/>
    </defs>
    <g>
     <use xlink:href="#m7c764a4f0f" x="0" y="174.899688" style="fill: #414487; fill-opacity: 0.7; stroke: #414487; stroke-width: 1.25"/>
    </g>
   </g>
   <g id="line2d_2">
    <path d="M 7.2 59.175 
L 216.45 59.175 
" style="fill: none; stroke: #414487; stroke-opacity: 0.9; stroke-linecap: round"/>
   </g>
   <g id="text_2">
    <!-- 1 -->
    <g style="fill: #414487" transform="translate(7.2 58.32825) scale(0.12 -0.12)">
     <defs>
      <path id="DejaVuSans-Bold-31" d="M 750 831 
L 1813 831 
L 1813 3847 
L 722 3622 
L 722 4441 
L 1806 4666 
L 2950 4666 
L 2950 831 
L 4013 831 
L 4013 0 
L 750 0 
L 750 831 
z
" transform="scale(0.015625)"/>
     </defs>
     <use xlink:href="#DejaVuSans-Bold-31"/>
    </g>
   </g>
  </g>
  <g id="axes_3">
   <g id="patch_4">
    <path d="M 7.2 69.57 
L 216.45 69.57 
L 216.45 27.99 
L 7.2 27.99 
L 7.2 69.57 
z
" style="fill: none"/>
   </g>
   <g id="matplotlib.axis_5">
    <g id="xtick_9"/>
    <g id="xtick_10"/>
    <g id="xtick_11"/>
    <g id="xtick_12"/>
   </g>
   <g id="matplotlib.axis_6"/>
   <g id="PolyCollection_2">
    <defs>
     <path id="m3b9d6dbbe5" d="M 108.292101 -105.391863 
L 108.292101 -105.329688 
L 108.368965 -105.329688 
L 108.445828 -105.329688 
L 108.522691 -105.329688 
L 108.599555 -105.329688 
L 108.676418 -105.329688 
L 108.753282 -105.329688 
L 108.830145 -105.329688 
L 108.907008 -105.329688 
L 108.983872 -105.329688 
L 109.060735 -105.329688 
L 109.137599 -105.329688 
L 109.214462 -105.329688 
L 109.291325 -105.329688 
L 109.368189 -105.329688 
L 109.445052 -105.329688 
L 109.521915 -105.329688 
L 109.598779 -105.329688 
L 109.675642 -105.329688 
L 109.752506 -105.329688 
L 109.829369 -105.329688 
L 109.906232 -105.329688 
L 109.983096 -105.329688 
L 110.059959 -105.329688 
L 110.136823 -105.329688 
L 110.213686 -105.329688 
L 110.290549 -105.329688 
L 110.367413 -105.329688 
L 110.444276 -105.329688 
L 110.52114 -105.329688 
L 110.598003 -105.329688 
L 110.674866 -105.329688 
L 110.75173 -105.329688 
L 110.828593 -105.329688 
L 110.905457 -105.329688 
L 110.98232 -105.329688 
L 111.059183 -105.329688 
L 111.136047 -105.329688 
L 111.21291 -105.329688 
L 111.289774 -105.329688 
L 111.366637 -105.329688 
L 111.4435 -105.329688 
L 111.520364 -105.329688 
L 111.597227 -105.329688 
L 111.67409 -105.329688 
L 111.750954 -105.329688 
L 111.827817 -105.329688 
L 111.904681 -105.329688 
L 111.981544 -105.329688 
L 112.058407 -105.329688 
L 112.135271 -105.329688 
L 112.212134 -105.329688 
L 112.288998 -105.329688 
L 112.365861 -105.329688 
L 112.442724 -105.329688 
L 112.519588 -105.329688 
L 112.596451 -105.329688 
L 112.673315 -105.329688 
L 112.750178 -105.329688 
L 112.827041 -105.329688 
L 112.903905 -105.329688 
L 112.980768 -105.329688 
L 113.057632 -105.329688 
L 113.134495 -105.329688 
L 113.211358 -105.329688 
L 113.288222 -105.329688 
L 113.365085 -105.329688 
L 113.441948 -105.329688 
L 113.518812 -105.329688 
L 113.595675 -105.329688 
L 113.672539 -105.329688 
L 113.749402 -105.329688 
L 113.826265 -105.329688 
L 113.903129 -105.329688 
L 113.979992 -105.329688 
L 114.056856 -105.329688 
L 114.133719 -105.329688 
L 114.210582 -105.329688 
L 114.287446 -105.329688 
L 114.364309 -105.329688 
L 114.441173 -105.329688 
L 114.518036 -105.329688 
L 114.594899 -105.329688 
L 114.671763 -105.329688 
L 114.748626 -105.329688 
L 114.82549 -105.329688 
L 114.902353 -105.329688 
L 114.979216 -105.329688 
L 115.05608 -105.329688 
L 115.132943 -105.329688 
L 115.209807 -105.329688 
L 115.28667 -105.329688 
L 115.363533 -105.329688 
L 115.440397 -105.329688 
L 115.51726 -105.329688 
L 115.594123 -105.329688 
L 115.670987 -105.329688 
L 115.74785 -105.329688 
L 115.824714 -105.329688 
L 115.901577 -105.329688 
L 115.97844 -105.329688 
L 116.055304 -105.329688 
L 116.132167 -105.329688 
L 116.209031 -105.329688 
L 116.285894 -105.329688 
L 116.362757 -105.329688 
L 116.439621 -105.329688 
L 116.516484 -105.329688 
L 116.593348 -105.329688 
L 116.670211 -105.329688 
L 116.747074 -105.329688 
L 116.823938 -105.329688 
L 116.900801 -105.329688 
L 116.977665 -105.329688 
L 117.054528 -105.329688 
L 117.131391 -105.329688 
L 117.208255 -105.329688 
L 117.285118 -105.329688 
L 117.361982 -105.329688 
L 117.438845 -105.329688 
L 117.515708 -105.329688 
L 117.592572 -105.329688 
L 117.669435 -105.329688 
L 117.746298 -105.329688 
L 117.823162 -105.329688 
L 117.900025 -105.329688 
L 117.976889 -105.329688 
L 118.053752 -105.329688 
L 118.130615 -105.329688 
L 118.207479 -105.329688 
L 118.284342 -105.329688 
L 118.361206 -105.329688 
L 118.438069 -105.329688 
L 118.514932 -105.329688 
L 118.591796 -105.329688 
L 118.668659 -105.329688 
L 118.745523 -105.329688 
L 118.822386 -105.329688 
L 118.899249 -105.329688 
L 118.976113 -105.329688 
L 119.052976 -105.329688 
L 119.12984 -105.329688 
L 119.206703 -105.329688 
L 119.283566 -105.329688 
L 119.36043 -105.329688 
L 119.437293 -105.329688 
L 119.514156 -105.329688 
L 119.59102 -105.329688 
L 119.667883 -105.329688 
L 119.744747 -105.329688 
L 119.82161 -105.329688 
L 119.898473 -105.329688 
L 119.975337 -105.329688 
L 120.0522 -105.329688 
L 120.129064 -105.329688 
L 120.205927 -105.329688 
L 120.28279 -105.329688 
L 120.359654 -105.329688 
L 120.436517 -105.329688 
L 120.513381 -105.329688 
L 120.590244 -105.329688 
L 120.667107 -105.329688 
L 120.743971 -105.329688 
L 120.820834 -105.329688 
L 120.897698 -105.329688 
L 120.974561 -105.329688 
L 121.051424 -105.329688 
L 121.128288 -105.329688 
L 121.205151 -105.329688 
L 121.282015 -105.329688 
L 121.358878 -105.329688 
L 121.435741 -105.329688 
L 121.512605 -105.329688 
L 121.589468 -105.329688 
L 121.666331 -105.329688 
L 121.743195 -105.329688 
L 121.820058 -105.329688 
L 121.896922 -105.329688 
L 121.973785 -105.329688 
L 122.050648 -105.329688 
L 122.127512 -105.329688 
L 122.204375 -105.329688 
L 122.281239 -105.329688 
L 122.358102 -105.329688 
L 122.434965 -105.329688 
L 122.511829 -105.329688 
L 122.588692 -105.329688 
L 122.665556 -105.329688 
L 122.742419 -105.329688 
L 122.819282 -105.329688 
L 122.896146 -105.329688 
L 122.973009 -105.329688 
L 123.049873 -105.329688 
L 123.126736 -105.329688 
L 123.203599 -105.329688 
L 123.280463 -105.329688 
L 123.357326 -105.329688 
L 123.434189 -105.329688 
L 123.511053 -105.329688 
L 123.587916 -105.329688 
L 123.587916 -105.355945 
L 123.587916 -105.355945 
L 123.511053 -105.364163 
L 123.434189 -105.373649 
L 123.357326 -105.384245 
L 123.280463 -105.395705 
L 123.203599 -105.407695 
L 123.126736 -105.419805 
L 123.049873 -105.431569 
L 122.973009 -105.442524 
L 122.896146 -105.452278 
L 122.819282 -105.460603 
L 122.742419 -105.467504 
L 122.665556 -105.473248 
L 122.588692 -105.478336 
L 122.511829 -105.483414 
L 122.434965 -105.489167 
L 122.358102 -105.496208 
L 122.281239 -105.505027 
L 122.204375 -105.515995 
L 122.127512 -105.529421 
L 122.050648 -105.545634 
L 121.973785 -105.56505 
L 121.896922 -105.588195 
L 121.820058 -105.615667 
L 121.743195 -105.648046 
L 121.666331 -105.68578 
L 121.589468 -105.729081 
L 121.512605 -105.77786 
L 121.435741 -105.831734 
L 121.358878 -105.890105 
L 121.282015 -105.952285 
L 121.205151 -106.017631 
L 121.128288 -106.085664 
L 121.051424 -106.156115 
L 120.974561 -106.2289 
L 120.897698 -106.304059 
L 120.820834 -106.381678 
L 120.743971 -106.46189 
L 120.667107 -106.545004 
L 120.590244 -106.631765 
L 120.513381 -106.723716 
L 120.436517 -106.823541 
L 120.359654 -106.935222 
L 120.28279 -107.063901 
L 120.205927 -107.215381 
L 120.129064 -107.395356 
L 120.0522 -107.60855 
L 119.975337 -107.858016 
L 119.898473 -108.144768 
L 119.82161 -108.467807 
L 119.744747 -108.824461 
L 119.667883 -109.210849 
L 119.59102 -109.622308 
L 119.514156 -110.053699 
L 119.437293 -110.499665 
L 119.36043 -110.954961 
L 119.283566 -111.414975 
L 119.206703 -111.87644 
L 119.12984 -112.33817 
L 119.052976 -112.801557 
L 118.976113 -113.270587 
L 118.899249 -113.751256 
L 118.822386 -114.250508 
L 118.745523 -114.774932 
L 118.668659 -115.329569 
L 118.591796 -115.91709 
L 118.514932 -116.537462 
L 118.438069 -117.188079 
L 118.361206 -117.864252 
L 118.284342 -118.5599 
L 118.207479 -119.268371 
L 118.130615 -119.983314 
L 118.053752 -120.699545 
L 117.976889 -121.413795 
L 117.900025 -122.125175 
L 117.823162 -122.835174 
L 117.746298 -123.547065 
L 117.669435 -124.264753 
L 117.592572 -124.991308 
L 117.515708 -125.727577 
L 117.438845 -126.471366 
L 117.361982 -127.217518 
L 117.285118 -127.958976 
L 117.208255 -128.688528 
L 117.131391 -129.40067 
L 117.054528 -130.092945 
L 116.977665 -130.766258 
L 116.900801 -131.424062 
L 116.823938 -132.070706 
L 116.747074 -132.70952 
L 116.670211 -133.341286 
L 116.593348 -133.963559 
L 116.516484 -134.570946 
L 116.439621 -135.15615 
L 116.362757 -135.711389 
L 116.285894 -136.229774 
L 116.209031 -136.706374 
L 116.132167 -137.138826 
L 116.055304 -137.527464 
L 115.97844 -137.874988 
L 115.901577 -138.185683 
L 115.824714 -138.464303 
L 115.74785 -138.714807 
L 115.670987 -138.939256 
L 115.594123 -139.137221 
L 115.51726 -139.305876 
L 115.440397 -139.440741 
L 115.363533 -139.536739 
L 115.28667 -139.589149 
L 115.209807 -139.594118 
L 115.132943 -139.548672 
L 115.05608 -139.450459 
L 114.979216 -139.297621 
L 114.902353 -139.089082 
L 114.82549 -138.82526 
L 114.748626 -138.508928 
L 114.671763 -138.145732 
L 114.594899 -137.744006 
L 114.518036 -137.313773 
L 114.441173 -136.865154 
L 114.364309 -136.406624 
L 114.287446 -135.943556 
L 114.210582 -135.477325 
L 114.133719 -135.005043 
L 114.056856 -134.519849 
L 113.979992 -134.011667 
L 113.903129 -133.468433 
L 113.826265 -132.877802 
L 113.749402 -132.229284 
L 113.672539 -131.516548 
L 113.595675 -130.739389 
L 113.518812 -129.904742 
L 113.441948 -129.026246 
L 113.365085 -128.122236 
L 113.288222 -127.212521 
L 113.211358 -126.314773 
L 113.134495 -125.441529 
L 113.057632 -124.598633 
L 112.980768 -123.785519 
L 112.903905 -122.997102 
L 112.827041 -122.226552 
L 112.750178 -121.468036 
L 112.673315 -120.718585 
L 112.596451 -119.978691 
L 112.519588 -119.251709 
L 112.442724 -118.542546 
L 112.365861 -117.856244 
L 112.288998 -117.196948 
L 112.212134 -116.567443 
L 112.135271 -115.969162 
L 112.058407 -115.402354 
L 111.981544 -114.866171 
L 111.904681 -114.358583 
L 111.827817 -113.876231 
L 111.750954 -113.414438 
L 111.67409 -112.967584 
L 111.597227 -112.529855 
L 111.520364 -112.096234 
L 111.4435 -111.663447 
L 111.366637 -111.230601 
L 111.289774 -110.799344 
L 111.21291 -110.373549 
L 111.136047 -109.958637 
L 111.059183 -109.560722 
L 110.98232 -109.185732 
L 110.905457 -108.838634 
L 110.828593 -108.522817 
L 110.75173 -108.239693 
L 110.674866 -107.988566 
L 110.598003 -107.766799 
L 110.52114 -107.57029 
L 110.444276 -107.394167 
L 110.367413 -107.233589 
L 110.290549 -107.08446 
L 110.213686 -106.943921 
L 110.136823 -106.810533 
L 110.059959 -106.684147 
L 109.983096 -106.565567 
L 109.906232 -106.4561 
L 109.829369 -106.35711 
L 109.752506 -106.269633 
L 109.675642 -106.194093 
L 109.598779 -106.130102 
L 109.521915 -106.076376 
L 109.445052 -106.030788 
L 109.368189 -105.990573 
L 109.291325 -105.952686 
L 109.214462 -105.914264 
L 109.137599 -105.873087 
L 109.060735 -105.827921 
L 108.983872 -105.778665 
L 108.907008 -105.726251 
L 108.830145 -105.67236 
L 108.753282 -105.619016 
L 108.676418 -105.568207 
L 108.599555 -105.521577 
L 108.522691 -105.480265 
L 108.445828 -105.444866 
L 108.368965 -105.41549 
L 108.292101 -105.391863 
z
" style="stroke: #355f8d; stroke-width: 1.25"/>
    </defs>
    <g>
     <use xlink:href="#m3b9d6dbbe5" x="0" y="174.899688" style="fill: #355f8d; fill-opacity: 0.7; stroke: #355f8d; stroke-width: 1.25"/>
    </g>
   </g>
   <g id="line2d_3">
    <path d="M 7.2 69.57 
L 216.45 69.57 
" style="fill: none; stroke: #355f8d; stroke-opacity: 0.9; stroke-linecap: round"/>
   </g>
   <g id="text_3">
    <!-- 2 -->
    <g style="fill: #355f8d" transform="translate(7.2 68.72325) scale(0.12 -0.12)">
     <defs>
      <path id="DejaVuSans-Bold-32" d="M 1844 884 
L 3897 884 
L 3897 0 
L 506 0 
L 506 884 
L 2209 2388 
Q 2438 2594 2547 2791 
Q 2656 2988 2656 3200 
Q 2656 3528 2436 3728 
Q 2216 3928 1850 3928 
Q 1569 3928 1234 3808 
Q 900 3688 519 3450 
L 519 4475 
Q 925 4609 1322 4679 
Q 1719 4750 2100 4750 
Q 2938 4750 3402 4381 
Q 3866 4013 3866 3353 
Q 3866 2972 3669 2642 
Q 3472 2313 2841 1759 
L 1844 884 
z
" transform="scale(0.015625)"/>
     </defs>
     <use xlink:href="#DejaVuSans-Bold-32"/>
    </g>
   </g>
  </g>
  <g id="axes_4">
   <g id="patch_5">
    <path d="M 7.2 79.965 
L 216.45 79.965 
L 216.45 38.385 
L 7.2 38.385 
L 7.2 79.965 
z
" style="fill: none"/>
   </g>
   <g id="matplotlib.axis_7">
    <g id="xtick_13"/>
    <g id="xtick_14"/>
    <g id="xtick_15"/>
    <g id="xtick_16"/>
   </g>
   <g id="matplotlib.axis_8"/>
   <g id="PolyCollection_3">
    <defs>
     <path id="m6817e0d1c8" d="M 168.233014 -94.973708 
L 168.233014 -94.934688 
L 168.313614 -94.934688 
L 168.394215 -94.934688 
L 168.474815 -94.934688 
L 168.555416 -94.934688 
L 168.636016 -94.934688 
L 168.716616 -94.934688 
L 168.797217 -94.934688 
L 168.877817 -94.934688 
L 168.958418 -94.934688 
L 169.039018 -94.934688 
L 169.119618 -94.934688 
L 169.200219 -94.934688 
L 169.280819 -94.934688 
L 169.36142 -94.934688 
L 169.44202 -94.934688 
L 169.52262 -94.934688 
L 169.603221 -94.934688 
L 169.683821 -94.934688 
L 169.764422 -94.934688 
L 169.845022 -94.934688 
L 169.925622 -94.934688 
L 170.006223 -94.934688 
L 170.086823 -94.934688 
L 170.167424 -94.934688 
L 170.248024 -94.934688 
L 170.328624 -94.934688 
L 170.409225 -94.934688 
L 170.489825 -94.934688 
L 170.570426 -94.934688 
L 170.651026 -94.934688 
L 170.731626 -94.934688 
L 170.812227 -94.934688 
L 170.892827 -94.934688 
L 170.973428 -94.934688 
L 171.054028 -94.934688 
L 171.134628 -94.934688 
L 171.215229 -94.934688 
L 171.295829 -94.934688 
L 171.37643 -94.934688 
L 171.45703 -94.934688 
L 171.53763 -94.934688 
L 171.618231 -94.934688 
L 171.698831 -94.934688 
L 171.779432 -94.934688 
L 171.860032 -94.934688 
L 171.940632 -94.934688 
L 172.021233 -94.934688 
L 172.101833 -94.934688 
L 172.182434 -94.934688 
L 172.263034 -94.934688 
L 172.343634 -94.934688 
L 172.424235 -94.934688 
L 172.504835 -94.934688 
L 172.585436 -94.934688 
L 172.666036 -94.934688 
L 172.746636 -94.934688 
L 172.827237 -94.934688 
L 172.907837 -94.934688 
L 172.988438 -94.934688 
L 173.069038 -94.934688 
L 173.149638 -94.934688 
L 173.230239 -94.934688 
L 173.310839 -94.934688 
L 173.39144 -94.934688 
L 173.47204 -94.934688 
L 173.55264 -94.934688 
L 173.633241 -94.934688 
L 173.713841 -94.934688 
L 173.794442 -94.934688 
L 173.875042 -94.934688 
L 173.955642 -94.934688 
L 174.036243 -94.934688 
L 174.116843 -94.934688 
L 174.197444 -94.934688 
L 174.278044 -94.934688 
L 174.358645 -94.934688 
L 174.439245 -94.934688 
L 174.519845 -94.934688 
L 174.600446 -94.934688 
L 174.681046 -94.934688 
L 174.761647 -94.934688 
L 174.842247 -94.934688 
L 174.922847 -94.934688 
L 175.003448 -94.934688 
L 175.084048 -94.934688 
L 175.164649 -94.934688 
L 175.245249 -94.934688 
L 175.325849 -94.934688 
L 175.40645 -94.934688 
L 175.48705 -94.934688 
L 175.567651 -94.934688 
L 175.648251 -94.934688 
L 175.728851 -94.934688 
L 175.809452 -94.934688 
L 175.890052 -94.934688 
L 175.970653 -94.934688 
L 176.051253 -94.934688 
L 176.131853 -94.934688 
L 176.212454 -94.934688 
L 176.293054 -94.934688 
L 176.373655 -94.934688 
L 176.454255 -94.934688 
L 176.534855 -94.934688 
L 176.615456 -94.934688 
L 176.696056 -94.934688 
L 176.776657 -94.934688 
L 176.857257 -94.934688 
L 176.937857 -94.934688 
L 177.018458 -94.934688 
L 177.099058 -94.934688 
L 177.179659 -94.934688 
L 177.260259 -94.934688 
L 177.340859 -94.934688 
L 177.42146 -94.934688 
L 177.50206 -94.934688 
L 177.582661 -94.934688 
L 177.663261 -94.934688 
L 177.743861 -94.934688 
L 177.824462 -94.934688 
L 177.905062 -94.934688 
L 177.985663 -94.934688 
L 178.066263 -94.934688 
L 178.146863 -94.934688 
L 178.227464 -94.934688 
L 178.308064 -94.934688 
L 178.388665 -94.934688 
L 178.469265 -94.934688 
L 178.549865 -94.934688 
L 178.630466 -94.934688 
L 178.711066 -94.934688 
L 178.791667 -94.934688 
L 178.872267 -94.934688 
L 178.952867 -94.934688 
L 179.033468 -94.934688 
L 179.114068 -94.934688 
L 179.194669 -94.934688 
L 179.275269 -94.934688 
L 179.355869 -94.934688 
L 179.43647 -94.934688 
L 179.51707 -94.934688 
L 179.597671 -94.934688 
L 179.678271 -94.934688 
L 179.758871 -94.934688 
L 179.839472 -94.934688 
L 179.920072 -94.934688 
L 180.000673 -94.934688 
L 180.081273 -94.934688 
L 180.161873 -94.934688 
L 180.242474 -94.934688 
L 180.323074 -94.934688 
L 180.403675 -94.934688 
L 180.484275 -94.934688 
L 180.564875 -94.934688 
L 180.645476 -94.934688 
L 180.726076 -94.934688 
L 180.806677 -94.934688 
L 180.887277 -94.934688 
L 180.967878 -94.934688 
L 181.048478 -94.934688 
L 181.129078 -94.934688 
L 181.209679 -94.934688 
L 181.290279 -94.934688 
L 181.37088 -94.934688 
L 181.45148 -94.934688 
L 181.53208 -94.934688 
L 181.612681 -94.934688 
L 181.693281 -94.934688 
L 181.773882 -94.934688 
L 181.854482 -94.934688 
L 181.935082 -94.934688 
L 182.015683 -94.934688 
L 182.096283 -94.934688 
L 182.176884 -94.934688 
L 182.257484 -94.934688 
L 182.338084 -94.934688 
L 182.418685 -94.934688 
L 182.499285 -94.934688 
L 182.579886 -94.934688 
L 182.660486 -94.934688 
L 182.741086 -94.934688 
L 182.821687 -94.934688 
L 182.902287 -94.934688 
L 182.982888 -94.934688 
L 183.063488 -94.934688 
L 183.144088 -94.934688 
L 183.224689 -94.934688 
L 183.305289 -94.934688 
L 183.38589 -94.934688 
L 183.46649 -94.934688 
L 183.54709 -94.934688 
L 183.627691 -94.934688 
L 183.708291 -94.934688 
L 183.788892 -94.934688 
L 183.869492 -94.934688 
L 183.950092 -94.934688 
L 184.030693 -94.934688 
L 184.111293 -94.934688 
L 184.191894 -94.934688 
L 184.272494 -94.934688 
L 184.272494 -94.955481 
L 184.272494 -94.955481 
L 184.191894 -94.960563 
L 184.111293 -94.965193 
L 184.030693 -94.968859 
L 183.950092 -94.971235 
L 183.869492 -94.972286 
L 183.788892 -94.972295 
L 183.708291 -94.97178 
L 183.627691 -94.971318 
L 183.54709 -94.97136 
L 183.46649 -94.972113 
L 183.38589 -94.973538 
L 183.305289 -94.975511 
L 183.224689 -94.978071 
L 183.144088 -94.981699 
L 183.063488 -94.98751 
L 182.982888 -94.997267 
L 182.902287 -95.013186 
L 182.821687 -95.037523 
L 182.741086 -95.072005 
L 182.660486 -95.117229 
L 182.579886 -95.172182 
L 182.499285 -95.234043 
L 182.418685 -95.298418 
L 182.338084 -95.36003 
L 182.257484 -95.413768 
L 182.176884 -95.455831 
L 182.096283 -95.484634 
L 182.015683 -95.501193 
L 181.935082 -95.508865 
L 181.854482 -95.512581 
L 181.773882 -95.517859 
L 181.693281 -95.529959 
L 181.612681 -95.553418 
L 181.53208 -95.591952 
L 181.45148 -95.648573 
L 181.37088 -95.725649 
L 181.290279 -95.824752 
L 181.209679 -95.946309 
L 181.129078 -96.089231 
L 181.048478 -96.250797 
L 180.967878 -96.426979 
L 180.887277 -96.613286 
L 180.806677 -96.805949 
L 180.726076 -97.003118 
L 180.645476 -97.205635 
L 180.564875 -97.417026 
L 180.484275 -97.642606 
L 180.403675 -97.887928 
L 180.323074 -98.157125 
L 180.242474 -98.451797 
L 180.161873 -98.770909 
L 180.081273 -99.111819 
L 180.000673 -99.472047 
L 179.920072 -99.851146 
L 179.839472 -100.251957 
L 179.758871 -100.680765 
L 179.678271 -101.146248 
L 179.597671 -101.657464 
L 179.51707 -102.221403 
L 179.43647 -102.840728 
L 179.355869 -103.512345 
L 179.275269 -104.227267 
L 179.194669 -104.971973 
L 179.114068 -105.731004 
L 179.033468 -106.49013 
L 178.952867 -107.239163 
L 178.872267 -107.973606 
L 178.791667 -108.694803 
L 178.711066 -109.408876 
L 178.630466 -110.125147 
L 178.549865 -110.854775 
L 178.469265 -111.609904 
L 178.388665 -112.403126 
L 178.308064 -113.2467 
L 178.227464 -114.151117 
L 178.146863 -115.123049 
L 178.066263 -116.163245 
L 177.985663 -117.265181 
L 177.905062 -118.415099 
L 177.824462 -119.593527 
L 177.743861 -120.77784 
L 177.663261 -121.945068 
L 177.582661 -123.074253 
L 177.50206 -124.147996 
L 177.42146 -125.153257 
L 177.340859 -126.081634 
L 177.260259 -126.929287 
L 177.179659 -127.696457 
L 177.099058 -128.386452 
L 177.018458 -129.00423 
L 176.937857 -129.55508 
L 176.857257 -130.044032 
L 176.776657 -130.476387 
L 176.696056 -130.858989 
L 176.615456 -131.201274 
L 176.534855 -131.514968 
L 176.454255 -131.811957 
L 176.373655 -132.100853 
L 176.293054 -132.383575 
L 176.212454 -132.653349 
L 176.131853 -132.894853 
L 176.051253 -133.086271 
L 175.970653 -133.202388 
L 175.890052 -133.217833 
L 175.809452 -133.110048 
L 175.728851 -132.862016 
L 175.648251 -132.464852 
L 175.567651 -131.920018 
L 175.48705 -131.240514 
L 175.40645 -130.450259 
L 175.325849 -129.581272 
L 175.245249 -128.669022 
L 175.164649 -127.746945 
L 175.084048 -126.841538 
L 175.003448 -125.969206 
L 174.922847 -125.13545 
L 174.842247 -124.336275 
L 174.761647 -123.561057 
L 174.681046 -122.795925 
L 174.600446 -122.026841 
L 174.519845 -121.241959 
L 174.439245 -120.433199 
L 174.358645 -119.597125 
L 174.278044 -118.735162 
L 174.197444 -117.853081 
L 174.116843 -116.959688 
L 174.036243 -116.064883 
L 173.955642 -115.17757 
L 173.875042 -114.304081 
L 173.794442 -113.447669 
L 173.713841 -112.609186 
L 173.633241 -111.78852 
L 173.55264 -110.985997 
L 173.47204 -110.20297 
L 173.39144 -109.441275 
L 173.310839 -108.70184 
L 173.230239 -107.983251 
L 173.149638 -107.281153 
L 173.069038 -106.588981 
L 172.988438 -105.899885 
L 172.907837 -105.209135 
L 172.827237 -104.516059 
L 172.746636 -103.824769 
L 172.666036 -103.143488 
L 172.585436 -102.482765 
L 172.504835 -101.853262 
L 172.424235 -101.263803 
L 172.343634 -100.720167 
L 172.263034 -100.224813 
L 172.182434 -99.777418 
L 172.101833 -99.375856 
L 172.021233 -99.017181 
L 171.940632 -98.698203 
L 171.860032 -98.415455 
L 171.779432 -98.164681 
L 171.698831 -97.940255 
L 171.618231 -97.735067 
L 171.53763 -97.541211 
L 171.45703 -97.35144 
L 171.37643 -97.160905 
L 171.295829 -96.968451 
L 171.215229 -96.776867 
L 171.134628 -96.591882 
L 171.054028 -96.420246 
L 170.973428 -96.267584 
L 170.892827 -96.136783 
L 170.812227 -96.027401 
L 170.731626 -95.936146 
L 170.651026 -95.858096 
L 170.570426 -95.78811 
L 170.489825 -95.721948 
L 170.409225 -95.656832 
L 170.328624 -95.591449 
L 170.248024 -95.525602 
L 170.167424 -95.459772 
L 170.086823 -95.394811 
L 170.006223 -95.331814 
L 169.925622 -95.272102 
L 169.845022 -95.217198 
L 169.764422 -95.168674 
L 169.683821 -95.127888 
L 169.603221 -95.095681 
L 169.52262 -95.07217 
L 169.44202 -95.056726 
L 169.36142 -95.048118 
L 169.280819 -95.044773 
L 169.200219 -95.04503 
L 169.119618 -95.047317 
L 169.039018 -95.050229 
L 168.958418 -95.052536 
L 168.877817 -95.053189 
L 168.797217 -95.051356 
L 168.716616 -95.046504 
L 168.636016 -95.038493 
L 168.555416 -95.027637 
L 168.474815 -95.014669 
L 168.394215 -95.000623 
L 168.313614 -94.98663 
L 168.233014 -94.973708 
z
" style="stroke: #2a788e; stroke-width: 1.25"/>
    </defs>
    <g>
     <use xlink:href="#m6817e0d1c8" x="0" y="174.899688" style="fill: #2a788e; fill-opacity: 0.7; stroke: #2a788e; stroke-width: 1.25"/>
    </g>
   </g>
   <g id="line2d_4">
    <path d="M 7.2 79.965 
L 216.45 79.965 
" style="fill: none; stroke: #2a788e; stroke-opacity: 0.9; stroke-linecap: round"/>
   </g>
   <g id="text_4">
    <!-- 3 -->
    <g style="fill: #2a788e" transform="translate(7.2 79.11825) scale(0.12 -0.12)">
     <defs>
      <path id="DejaVuSans-Bold-33" d="M 2981 2516 
Q 3453 2394 3698 2092 
Q 3944 1791 3944 1325 
Q 3944 631 3412 270 
Q 2881 -91 1863 -91 
Q 1503 -91 1142 -33 
Q 781 25 428 141 
L 428 1069 
Q 766 900 1098 814 
Q 1431 728 1753 728 
Q 2231 728 2486 893 
Q 2741 1059 2741 1369 
Q 2741 1688 2480 1852 
Q 2219 2016 1709 2016 
L 1228 2016 
L 1228 2791 
L 1734 2791 
Q 2188 2791 2409 2933 
Q 2631 3075 2631 3366 
Q 2631 3634 2415 3781 
Q 2200 3928 1806 3928 
Q 1516 3928 1219 3862 
Q 922 3797 628 3669 
L 628 4550 
Q 984 4650 1334 4700 
Q 1684 4750 2022 4750 
Q 2931 4750 3382 4451 
Q 3834 4153 3834 3553 
Q 3834 3144 3618 2883 
Q 3403 2622 2981 2516 
z
" transform="scale(0.015625)"/>
     </defs>
     <use xlink:href="#DejaVuSans-Bold-33"/>
    </g>
   </g>
  </g>
  <g id="axes_5">
   <g id="patch_6">
    <path d="M 7.2 90.36 
L 216.45 90.36 
L 216.45 48.78 
L 7.2 48.78 
L 7.2 90.36 
z
" style="fill: none"/>
   </g>
   <g id="matplotlib.axis_9">
    <g id="xtick_17"/>
    <g id="xtick_18"/>
    <g id="xtick_19"/>
    <g id="xtick_20"/>
   </g>
   <g id="matplotlib.axis_10"/>
   <g id="PolyCollection_4">
    <defs>
     <path id="md01884bd5f" d="M 171.259893 -84.55928 
L 171.259893 -84.539688 
L 171.439183 -84.539688 
L 171.618473 -84.539688 
L 171.797764 -84.539688 
L 171.977054 -84.539688 
L 172.156344 -84.539688 
L 172.335634 -84.539688 
L 172.514924 -84.539688 
L 172.694214 -84.539688 
L 172.873505 -84.539688 
L 173.052795 -84.539688 
L 173.232085 -84.539688 
L 173.411375 -84.539688 
L 173.590665 -84.539688 
L 173.769955 -84.539688 
L 173.949246 -84.539688 
L 174.128536 -84.539688 
L 174.307826 -84.539688 
L 174.487116 -84.539688 
L 174.666406 -84.539688 
L 174.845696 -84.539688 
L 175.024987 -84.539688 
L 175.204277 -84.539688 
L 175.383567 -84.539688 
L 175.562857 -84.539688 
L 175.742147 -84.539688 
L 175.921437 -84.539688 
L 176.100728 -84.539688 
L 176.280018 -84.539688 
L 176.459308 -84.539688 
L 176.638598 -84.539688 
L 176.817888 -84.539688 
L 176.997178 -84.539688 
L 177.176469 -84.539688 
L 177.355759 -84.539688 
L 177.535049 -84.539688 
L 177.714339 -84.539688 
L 177.893629 -84.539688 
L 178.072919 -84.539688 
L 178.25221 -84.539688 
L 178.4315 -84.539688 
L 178.61079 -84.539688 
L 178.79008 -84.539688 
L 178.96937 -84.539688 
L 179.14866 -84.539688 
L 179.327951 -84.539688 
L 179.507241 -84.539688 
L 179.686531 -84.539688 
L 179.865821 -84.539688 
L 180.045111 -84.539688 
L 180.224401 -84.539688 
L 180.403692 -84.539688 
L 180.582982 -84.539688 
L 180.762272 -84.539688 
L 180.941562 -84.539688 
L 181.120852 -84.539688 
L 181.300142 -84.539688 
L 181.479433 -84.539688 
L 181.658723 -84.539688 
L 181.838013 -84.539688 
L 182.017303 -84.539688 
L 182.196593 -84.539688 
L 182.375883 -84.539688 
L 182.555174 -84.539688 
L 182.734464 -84.539688 
L 182.913754 -84.539688 
L 183.093044 -84.539688 
L 183.272334 -84.539688 
L 183.451624 -84.539688 
L 183.630915 -84.539688 
L 183.810205 -84.539688 
L 183.989495 -84.539688 
L 184.168785 -84.539688 
L 184.348075 -84.539688 
L 184.527365 -84.539688 
L 184.706656 -84.539688 
L 184.885946 -84.539688 
L 185.065236 -84.539688 
L 185.244526 -84.539688 
L 185.423816 -84.539688 
L 185.603106 -84.539688 
L 185.782397 -84.539688 
L 185.961687 -84.539688 
L 186.140977 -84.539688 
L 186.320267 -84.539688 
L 186.499557 -84.539688 
L 186.678847 -84.539688 
L 186.858138 -84.539688 
L 187.037428 -84.539688 
L 187.216718 -84.539688 
L 187.396008 -84.539688 
L 187.575298 -84.539688 
L 187.754588 -84.539688 
L 187.933879 -84.539688 
L 188.113169 -84.539688 
L 188.292459 -84.539688 
L 188.471749 -84.539688 
L 188.651039 -84.539688 
L 188.830329 -84.539688 
L 189.00962 -84.539688 
L 189.18891 -84.539688 
L 189.3682 -84.539688 
L 189.54749 -84.539688 
L 189.72678 -84.539688 
L 189.90607 -84.539688 
L 190.085361 -84.539688 
L 190.264651 -84.539688 
L 190.443941 -84.539688 
L 190.623231 -84.539688 
L 190.802521 -84.539688 
L 190.981811 -84.539688 
L 191.161102 -84.539688 
L 191.340392 -84.539688 
L 191.519682 -84.539688 
L 191.698972 -84.539688 
L 191.878262 -84.539688 
L 192.057552 -84.539688 
L 192.236843 -84.539688 
L 192.416133 -84.539688 
L 192.595423 -84.539688 
L 192.774713 -84.539688 
L 192.954003 -84.539688 
L 193.133293 -84.539688 
L 193.312584 -84.539688 
L 193.491874 -84.539688 
L 193.671164 -84.539688 
L 193.850454 -84.539688 
L 194.029744 -84.539688 
L 194.209034 -84.539688 
L 194.388325 -84.539688 
L 194.567615 -84.539688 
L 194.746905 -84.539688 
L 194.926195 -84.539688 
L 195.105485 -84.539688 
L 195.284775 -84.539688 
L 195.464066 -84.539688 
L 195.643356 -84.539688 
L 195.822646 -84.539688 
L 196.001936 -84.539688 
L 196.181226 -84.539688 
L 196.360516 -84.539688 
L 196.539807 -84.539688 
L 196.719097 -84.539688 
L 196.898387 -84.539688 
L 197.077677 -84.539688 
L 197.256967 -84.539688 
L 197.436258 -84.539688 
L 197.615548 -84.539688 
L 197.794838 -84.539688 
L 197.974128 -84.539688 
L 198.153418 -84.539688 
L 198.332708 -84.539688 
L 198.511999 -84.539688 
L 198.691289 -84.539688 
L 198.870579 -84.539688 
L 199.049869 -84.539688 
L 199.229159 -84.539688 
L 199.408449 -84.539688 
L 199.58774 -84.539688 
L 199.76703 -84.539688 
L 199.94632 -84.539688 
L 200.12561 -84.539688 
L 200.3049 -84.539688 
L 200.48419 -84.539688 
L 200.663481 -84.539688 
L 200.842771 -84.539688 
L 201.022061 -84.539688 
L 201.201351 -84.539688 
L 201.380641 -84.539688 
L 201.559931 -84.539688 
L 201.739222 -84.539688 
L 201.918512 -84.539688 
L 202.097802 -84.539688 
L 202.277092 -84.539688 
L 202.456382 -84.539688 
L 202.635672 -84.539688 
L 202.814963 -84.539688 
L 202.994253 -84.539688 
L 203.173543 -84.539688 
L 203.352833 -84.539688 
L 203.532123 -84.539688 
L 203.711413 -84.539688 
L 203.890704 -84.539688 
L 204.069994 -84.539688 
L 204.249284 -84.539688 
L 204.428574 -84.539688 
L 204.607864 -84.539688 
L 204.787154 -84.539688 
L 204.966445 -84.539688 
L 205.145735 -84.539688 
L 205.325025 -84.539688 
L 205.504315 -84.539688 
L 205.683605 -84.539688 
L 205.862895 -84.539688 
L 206.042186 -84.539688 
L 206.221476 -84.539688 
L 206.400766 -84.539688 
L 206.580056 -84.539688 
L 206.759346 -84.539688 
L 206.938636 -84.539688 
L 206.938636 -84.548785 
L 206.938636 -84.548785 
L 206.759346 -84.551014 
L 206.580056 -84.553165 
L 206.400766 -84.555075 
L 206.221476 -84.556641 
L 206.042186 -84.55785 
L 205.862895 -84.558787 
L 205.683605 -84.559604 
L 205.504315 -84.560471 
L 205.325025 -84.561508 
L 205.145735 -84.562748 
L 204.966445 -84.564115 
L 204.787154 -84.565453 
L 204.607864 -84.566573 
L 204.428574 -84.567329 
L 204.249284 -84.567683 
L 204.069994 -84.567759 
L 203.890704 -84.567864 
L 203.711413 -84.568491 
L 203.532123 -84.57028 
L 203.352833 -84.573964 
L 203.173543 -84.580307 
L 202.994253 -84.590035 
L 202.814963 -84.603784 
L 202.635672 -84.622045 
L 202.456382 -84.645111 
L 202.277092 -84.673013 
L 202.097802 -84.705444 
L 201.918512 -84.741713 
L 201.739222 -84.780758 
L 201.559931 -84.82127 
L 201.380641 -84.861949 
L 201.201351 -84.901846 
L 201.022061 -84.940708 
L 200.842771 -84.979198 
L 200.663481 -85.018879 
L 200.48419 -85.061915 
L 200.3049 -85.110544 
L 200.12561 -85.166463 
L 199.94632 -85.230311 
L 199.76703 -85.30143 
L 199.58774 -85.377999 
L 199.408449 -85.45751 
L 199.229159 -85.537464 
L 199.049869 -85.61607 
L 198.870579 -85.692764 
L 198.691289 -85.768398 
L 198.511999 -85.845058 
L 198.332708 -85.925605 
L 198.153418 -86.013061 
L 197.974128 -86.110069 
L 197.794838 -86.21856 
L 197.615548 -86.339742 
L 197.436258 -86.474397 
L 197.256967 -86.623345 
L 197.077677 -86.787881 
L 196.898387 -86.969952 
L 196.719097 -87.171917 
L 196.539807 -87.395903 
L 196.360516 -87.642914 
L 196.181226 -87.912021 
L 196.001936 -88.199933 
L 195.822646 -88.501213 
L 195.643356 -88.809113 
L 195.464066 -89.116862 
L 195.284775 -89.419015 
L 195.105485 -89.712512 
L 194.926195 -89.997154 
L 194.746905 -90.275426 
L 194.567615 -90.551777 
L 194.388325 -90.831607 
L 194.209034 -91.120232 
L 194.029744 -91.42207 
L 193.850454 -91.740178 
L 193.671164 -92.076165 
L 193.491874 -92.430394 
L 193.312584 -92.802353 
L 193.133293 -93.191 
L 192.954003 -93.594927 
L 192.774713 -94.012262 
L 192.595423 -94.440338 
L 192.416133 -94.87532 
L 192.236843 -95.312042 
L 192.057552 -95.744303 
L 191.878262 -96.165633 
L 191.698972 -96.570341 
L 191.519682 -96.954447 
L 191.340392 -97.316105 
L 191.161102 -97.655333 
L 190.981811 -97.973187 
L 190.802521 -98.270773 
L 190.623231 -98.548543 
L 190.443941 -98.806155 
L 190.264651 -99.042895 
L 190.085361 -99.258364 
L 189.90607 -99.45303 
L 189.72678 -99.628324 
L 189.54749 -99.786159 
L 189.3682 -99.928016 
L 189.18891 -100.053913 
L 189.00962 -100.161668 
L 188.830329 -100.246804 
L 188.651039 -100.303268 
L 188.471749 -100.324888 
L 188.292459 -100.307179 
L 188.113169 -100.248949 
L 187.933879 -100.153108 
L 187.754588 -100.026351 
L 187.575298 -99.877745 
L 187.396008 -99.716706 
L 187.216718 -99.551044 
L 187.037428 -99.385734 
L 186.858138 -99.222722 
L 186.678847 -99.061644 
L 186.499557 -98.900984 
L 186.320267 -98.739106 
L 186.140977 -98.574768 
L 185.961687 -98.407027 
L 185.782397 -98.234773 
L 185.603106 -98.056206 
L 185.423816 -97.868556 
L 185.244526 -97.668153 
L 185.065236 -97.450787 
L 184.885946 -97.212221 
L 184.706656 -96.948727 
L 184.527365 -96.657536 
L 184.348075 -96.337174 
L 184.168785 -95.987661 
L 183.989495 -95.610574 
L 183.810205 -95.209007 
L 183.630915 -94.787446 
L 183.451624 -94.351554 
L 183.272334 -93.907834 
L 183.093044 -93.463123 
L 182.913754 -93.0239 
L 182.734464 -92.595499 
L 182.555174 -92.181416 
L 182.375883 -91.782936 
L 182.196593 -91.399257 
L 182.017303 -91.028121 
L 181.838013 -90.666748 
L 181.658723 -90.312798 
L 181.479433 -89.965033 
L 181.300142 -89.623511 
L 181.120852 -89.289328 
L 180.941562 -88.964092 
L 180.762272 -88.649384 
L 180.582982 -88.34643 
L 180.403692 -88.056057 
L 180.224401 -87.778871 
L 180.045111 -87.515527 
L 179.865821 -87.266899 
L 179.686531 -87.034103 
L 179.507241 -86.81837 
L 179.327951 -86.620839 
L 179.14866 -86.442369 
L 178.96937 -86.283376 
L 178.79008 -86.143709 
L 178.61079 -86.022522 
L 178.4315 -85.918157 
L 178.25221 -85.828086 
L 178.072919 -85.748996 
L 177.893629 -85.677065 
L 177.714339 -85.608421 
L 177.535049 -85.539707 
L 177.355759 -85.468582 
L 177.176469 -85.394046 
L 176.997178 -85.316466 
L 176.817888 -85.23731 
L 176.638598 -85.158674 
L 176.459308 -85.082744 
L 176.280018 -85.011358 
L 176.100728 -84.945763 
L 175.921437 -84.886607 
L 175.742147 -84.834093 
L 175.562857 -84.78819 
L 175.383567 -84.748816 
L 175.204277 -84.715906 
L 175.024987 -84.689388 
L 174.845696 -84.669088 
L 174.666406 -84.654639 
L 174.487116 -84.645426 
L 174.307826 -84.640585 
L 174.128536 -84.639067 
L 173.949246 -84.639718 
L 173.769955 -84.641385 
L 173.590665 -84.643015 
L 173.411375 -84.643741 
L 173.232085 -84.642944 
L 173.052795 -84.64028 
L 172.873505 -84.635673 
L 172.694214 -84.629265 
L 172.514924 -84.621362 
L 172.335634 -84.612364 
L 172.156344 -84.602718 
L 171.977054 -84.592873 
L 171.797764 -84.583262 
L 171.618473 -84.574267 
L 171.439183 -84.566201 
L 171.259893 -84.55928 
z
" style="stroke: #21918c; stroke-width: 1.25"/>
    </defs>
    <g>
     <use xlink:href="#md01884bd5f" x="0" y="174.899688" style="fill: #21918c; fill-opacity: 0.7; stroke: #21918c; stroke-width: 1.25"/>
    </g>
   </g>
   <g id="line2d_5">
    <path d="M 7.2 90.36 
L 216.45 90.36 
" style="fill: none; stroke: #21918c; stroke-opacity: 0.9; stroke-linecap: round"/>
   </g>
   <g id="text_5">
    <!-- 4 -->
    <g style="fill: #21918c" transform="translate(7.2 89.51325) scale(0.12 -0.12)">
     <defs>
      <path id="DejaVuSans-Bold-34" d="M 2356 3675 
L 1038 1722 
L 2356 1722 
L 2356 3675 
z
M 2156 4666 
L 3494 4666 
L 3494 1722 
L 4159 1722 
L 4159 850 
L 3494 850 
L 3494 0 
L 2356 0 
L 2356 850 
L 288 850 
L 288 1881 
L 2156 4666 
z
" transform="scale(0.015625)"/>
     </defs>
     <use xlink:href="#DejaVuSans-Bold-34"/>
    </g>
   </g>
  </g>
  <g id="axes_6">
   <g id="patch_7">
    <path d="M 7.2 100.755 
L 216.45 100.755 
L 216.45 59.175 
L 7.2 59.175 
L 7.2 100.755 
z
" style="fill: none"/>
   </g>
   <g id="matplotlib.axis_11">
    <g id="xtick_21"/>
    <g id="xtick_22"/>
    <g id="xtick_23"/>
    <g id="xtick_24"/>
   </g>
   <g id="matplotlib.axis_12"/>
   <g id="line2d_6">
    <path d="M 7.2 100.755 
L 216.45 100.755 
" style="fill: none; stroke: #482475; stroke-opacity: 0.9; stroke-linecap: round"/>
   </g>
   <g id="text_6">
    <!-- 5 -->
    <g style="fill: #482475" transform="translate(7.2 99.90825) scale(0.12 -0.12)">
     <defs>
      <path id="DejaVuSans-Bold-35" d="M 678 4666 
L 3669 4666 
L 3669 3781 
L 1638 3781 
L 1638 3059 
Q 1775 3097 1914 3117 
Q 2053 3138 2203 3138 
Q 3056 3138 3531 2711 
Q 4006 2284 4006 1522 
Q 4006 766 3489 337 
Q 2972 -91 2053 -91 
Q 1656 -91 1267 -14 
Q 878 63 494 219 
L 494 1166 
Q 875 947 1217 837 
Q 1559 728 1863 728 
Q 2300 728 2551 942 
Q 2803 1156 2803 1522 
Q 2803 1891 2551 2103 
Q 2300 2316 1863 2316 
Q 1603 2316 1309 2248 
Q 1016 2181 678 2041 
L 678 4666 
z
" transform="scale(0.015625)"/>
     </defs>
     <use xlink:href="#DejaVuSans-Bold-35"/>
    </g>
   </g>
  </g>
  <g id="axes_7">
   <g id="patch_8">
    <path d="M 7.2 111.15 
L 216.45 111.15 
L 216.45 69.57 
L 7.2 69.57 
L 7.2 111.15 
z
" style="fill: none"/>
   </g>
   <g id="matplotlib.axis_13">
    <g id="xtick_25"/>
    <g id="xtick_26"/>
    <g id="xtick_27"/>
    <g id="xtick_28"/>
   </g>
   <g id="matplotlib.axis_14"/>
   <g id="line2d_7">
    <path d="M 7.2 111.15 
L 216.45 111.15 
" style="fill: none; stroke: #482475; stroke-opacity: 0.9; stroke-linecap: round"/>
   </g>
   <g id="text_7">
    <!-- 6 -->
    <g style="fill: #482475" transform="translate(7.2 110.30325) scale(0.12 -0.12)">
     <defs>
      <path id="DejaVuSans-Bold-36" d="M 2316 2303 
Q 2000 2303 1842 2098 
Q 1684 1894 1684 1484 
Q 1684 1075 1842 870 
Q 2000 666 2316 666 
Q 2634 666 2792 870 
Q 2950 1075 2950 1484 
Q 2950 1894 2792 2098 
Q 2634 2303 2316 2303 
z
M 3803 4544 
L 3803 3681 
Q 3506 3822 3243 3889 
Q 2981 3956 2731 3956 
Q 2194 3956 1894 3657 
Q 1594 3359 1544 2772 
Q 1750 2925 1990 3001 
Q 2231 3078 2516 3078 
Q 3231 3078 3670 2659 
Q 4109 2241 4109 1563 
Q 4109 813 3618 361 
Q 3128 -91 2303 -91 
Q 1394 -91 895 523 
Q 397 1138 397 2266 
Q 397 3422 980 4083 
Q 1563 4744 2578 4744 
Q 2900 4744 3203 4694 
Q 3506 4644 3803 4544 
z
" transform="scale(0.015625)"/>
     </defs>
     <use xlink:href="#DejaVuSans-Bold-36"/>
    </g>
   </g>
  </g>
  <g id="axes_8">
   <g id="patch_9">
    <path d="M 7.2 121.545 
L 216.45 121.545 
L 216.45 79.965 
L 7.2 79.965 
L 7.2 121.545 
z
" style="fill: none"/>
   </g>
   <g id="matplotlib.axis_15">
    <g id="xtick_29"/>
    <g id="xtick_30"/>
    <g id="xtick_31"/>
    <g id="xtick_32"/>
   </g>
   <g id="matplotlib.axis_16"/>
   <g id="line2d_8">
    <path d="M 7.2 121.545 
L 216.45 121.545 
" style="fill: none; stroke: #482475; stroke-opacity: 0.9; stroke-linecap: round"/>
   </g>
   <g id="text_8">
    <!-- 7 -->
    <g style="fill: #482475" transform="translate(7.2 120.69825) scale(0.12 -0.12)">
     <defs>
      <path id="DejaVuSans-Bold-37" d="M 428 4666 
L 3944 4666 
L 3944 3988 
L 2125 0 
L 953 0 
L 2675 3781 
L 428 3781 
L 428 4666 
z
" transform="scale(0.015625)"/>
     </defs>
     <use xlink:href="#DejaVuSans-Bold-37"/>
    </g>
   </g>
  </g>
  <g id="axes_9">
   <g id="patch_10">
    <path d="M 7.2 131.94 
L 216.45 131.94 
L 216.45 90.36 
L 7.2 90.36 
L 7.2 131.94 
z
" style="fill: none"/>
   </g>
   <g id="matplotlib.axis_17">
    <g id="xtick_33">
     <g id="text_9">
      <!-- 2 -->
      <g style="fill: #838383" transform="translate(29.093594 149.798281) scale(0.11 -0.11)">
       <defs>
        <path id="DejaVuSans-32" d="M 1228 531 
L 3431 531 
L 3431 0 
L 469 0 
L 469 531 
Q 828 903 1448 1529 
Q 2069 2156 2228 2338 
Q 2531 2678 2651 2914 
Q 2772 3150 2772 3378 
Q 2772 3750 2511 3984 
Q 2250 4219 1831 4219 
Q 1534 4219 1204 4116 
Q 875 4013 500 3803 
L 500 4441 
Q 881 4594 1212 4672 
Q 1544 4750 1819 4750 
Q 2544 4750 2975 4387 
Q 3406 4025 3406 3419 
Q 3406 3131 3298 2873 
Q 3191 2616 2906 2266 
Q 2828 2175 2409 1742 
Q 1991 1309 1228 531 
z
" transform="scale(0.015625)"/>
       </defs>
       <use xlink:href="#DejaVuSans-32"/>
      </g>
     </g>
    </g>
    <g id="xtick_34">
     <g id="text_10">
      <!-- 4 -->
      <g style="fill: #838383" transform="translate(75.571388 149.798281) scale(0.11 -0.11)">
       <defs>
        <path id="DejaVuSans-34" d="M 2419 4116 
L 825 1625 
L 2419 1625 
L 2419 4116 
z
M 2253 4666 
L 3047 4666 
L 3047 1625 
L 3713 1625 
L 3713 1100 
L 3047 1100 
L 3047 0 
L 2419 0 
L 2419 1100 
L 313 1100 
L 313 1709 
L 2253 4666 
z
" transform="scale(0.015625)"/>
       </defs>
       <use xlink:href="#DejaVuSans-34"/>
      </g>
     </g>
    </g>
    <g id="xtick_35">
     <g id="text_11">
      <!-- 6 -->
      <g style="fill: #838383" transform="translate(122.049182 149.798281) scale(0.11 -0.11)">
       <defs>
        <path id="DejaVuSans-36" d="M 2113 2584 
Q 1688 2584 1439 2293 
Q 1191 2003 1191 1497 
Q 1191 994 1439 701 
Q 1688 409 2113 409 
Q 2538 409 2786 701 
Q 3034 994 3034 1497 
Q 3034 2003 2786 2293 
Q 2538 2584 2113 2584 
z
M 3366 4563 
L 3366 3988 
Q 3128 4100 2886 4159 
Q 2644 4219 2406 4219 
Q 1781 4219 1451 3797 
Q 1122 3375 1075 2522 
Q 1259 2794 1537 2939 
Q 1816 3084 2150 3084 
Q 2853 3084 3261 2657 
Q 3669 2231 3669 1497 
Q 3669 778 3244 343 
Q 2819 -91 2113 -91 
Q 1303 -91 875 529 
Q 447 1150 447 2328 
Q 447 3434 972 4092 
Q 1497 4750 2381 4750 
Q 2619 4750 2861 4703 
Q 3103 4656 3366 4563 
z
" transform="scale(0.015625)"/>
       </defs>
       <use xlink:href="#DejaVuSans-36"/>
      </g>
     </g>
    </g>
    <g id="xtick_36">
     <g id="text_12">
      <!-- 8 -->
      <g style="fill: #838383" transform="translate(168.526977 149.798281) scale(0.11 -0.11)">
       <defs>
        <path id="DejaVuSans-38" d="M 2034 2216 
Q 1584 2216 1326 1975 
Q 1069 1734 1069 1313 
Q 1069 891 1326 650 
Q 1584 409 2034 409 
Q 2484 409 2743 651 
Q 3003 894 3003 1313 
Q 3003 1734 2745 1975 
Q 2488 2216 2034 2216 
z
M 1403 2484 
Q 997 2584 770 2862 
Q 544 3141 544 3541 
Q 544 4100 942 4425 
Q 1341 4750 2034 4750 
Q 2731 4750 3128 4425 
Q 3525 4100 3525 3541 
Q 3525 3141 3298 2862 
Q 3072 2584 2669 2484 
Q 3125 2378 3379 2068 
Q 3634 1759 3634 1313 
Q 3634 634 3220 271 
Q 2806 -91 2034 -91 
Q 1263 -91 848 271 
Q 434 634 434 1313 
Q 434 1759 690 2068 
Q 947 2378 1403 2484 
z
M 1172 3481 
Q 1172 3119 1398 2916 
Q 1625 2713 2034 2713 
Q 2441 2713 2670 2916 
Q 2900 3119 2900 3481 
Q 2900 3844 2670 4047 
Q 2441 4250 2034 4250 
Q 1625 4250 1398 4047 
Q 1172 3844 1172 3481 
z
" transform="scale(0.015625)"/>
       </defs>
       <use xlink:href="#DejaVuSans-38"/>
      </g>
     </g>
    </g>
    <g id="text_13">
     <!-- sldf -->
     <g style="fill: #bdbdbd" transform="translate(101.11125 165.204063) scale(0.12 -0.12)">
      <defs>
       <path id="DejaVuSans-73" d="M 2834 3397 
L 2834 2853 
Q 2591 2978 2328 3040 
Q 2066 3103 1784 3103 
Q 1356 3103 1142 2972 
Q 928 2841 928 2578 
Q 928 2378 1081 2264 
Q 1234 2150 1697 2047 
L 1894 2003 
Q 2506 1872 2764 1633 
Q 3022 1394 3022 966 
Q 3022 478 2636 193 
Q 2250 -91 1575 -91 
Q 1294 -91 989 -36 
Q 684 19 347 128 
L 347 722 
Q 666 556 975 473 
Q 1284 391 1588 391 
Q 1994 391 2212 530 
Q 2431 669 2431 922 
Q 2431 1156 2273 1281 
Q 2116 1406 1581 1522 
L 1381 1569 
Q 847 1681 609 1914 
Q 372 2147 372 2553 
Q 372 3047 722 3315 
Q 1072 3584 1716 3584 
Q 2034 3584 2315 3537 
Q 2597 3491 2834 3397 
z
" transform="scale(0.015625)"/>
       <path id="DejaVuSans-6c" d="M 603 4863 
L 1178 4863 
L 1178 0 
L 603 0 
L 603 4863 
z
" transform="scale(0.015625)"/>
       <path id="DejaVuSans-64" d="M 2906 2969 
L 2906 4863 
L 3481 4863 
L 3481 0 
L 2906 0 
L 2906 525 
Q 2725 213 2448 61 
Q 2172 -91 1784 -91 
Q 1150 -91 751 415 
Q 353 922 353 1747 
Q 353 2572 751 3078 
Q 1150 3584 1784 3584 
Q 2172 3584 2448 3432 
Q 2725 3281 2906 2969 
z
M 947 1747 
Q 947 1113 1208 752 
Q 1469 391 1925 391 
Q 2381 391 2643 752 
Q 2906 1113 2906 1747 
Q 2906 2381 2643 2742 
Q 2381 3103 1925 3103 
Q 1469 3103 1208 2742 
Q 947 2381 947 1747 
z
" transform="scale(0.015625)"/>
       <path id="DejaVuSans-66" d="M 2375 4863 
L 2375 4384 
L 1825 4384 
Q 1516 4384 1395 4259 
Q 1275 4134 1275 3809 
L 1275 3500 
L 2222 3500 
L 2222 3053 
L 1275 3053 
L 1275 0 
L 697 0 
L 697 3053 
L 147 3053 
L 147 3500 
L 697 3500 
L 697 3744 
Q 697 4328 969 4595 
Q 1241 4863 1831 4863 
L 2375 4863 
z
" transform="scale(0.015625)"/>
      </defs>
      <use xlink:href="#DejaVuSans-73"/>
      <use xlink:href="#DejaVuSans-6c" x="52.099609"/>
      <use xlink:href="#DejaVuSans-64" x="79.882812"/>
      <use xlink:href="#DejaVuSans-66" x="143.359375"/>
     </g>
    </g>
   </g>
   <g id="matplotlib.axis_18"/>
   <g id="line2d_9">
    <path d="M 7.2 131.94 
L 216.45 131.94 
" style="fill: none; stroke: #482475; stroke-opacity: 0.9; stroke-linecap: round"/>
   </g>
   <g id="text_14">
    <!-- 8 -->
    <g style="fill: #482475" transform="translate(7.2 131.09325) scale(0.12 -0.12)">
     <defs>
      <path id="DejaVuSans-Bold-38" d="M 2228 2088 
Q 1891 2088 1709 1903 
Q 1528 1719 1528 1375 
Q 1528 1031 1709 848 
Q 1891 666 2228 666 
Q 2563 666 2741 848 
Q 2919 1031 2919 1375 
Q 2919 1722 2741 1905 
Q 2563 2088 2228 2088 
z
M 1350 2484 
Q 925 2613 709 2878 
Q 494 3144 494 3541 
Q 494 4131 934 4440 
Q 1375 4750 2228 4750 
Q 3075 4750 3515 4442 
Q 3956 4134 3956 3541 
Q 3956 3144 3739 2878 
Q 3522 2613 3097 2484 
Q 3572 2353 3814 2058 
Q 4056 1763 4056 1313 
Q 4056 619 3595 264 
Q 3134 -91 2228 -91 
Q 1319 -91 855 264 
Q 391 619 391 1313 
Q 391 1763 633 2058 
Q 875 2353 1350 2484 
z
M 1631 3419 
Q 1631 3141 1786 2991 
Q 1941 2841 2228 2841 
Q 2509 2841 2662 2991 
Q 2816 3141 2816 3419 
Q 2816 3697 2662 3845 
Q 2509 3994 2228 3994 
Q 1941 3994 1786 3844 
Q 1631 3694 1631 3419 
z
" transform="scale(0.015625)"/>
     </defs>
     <use xlink:href="#DejaVuSans-Bold-38"/>
    </g>
   </g>
  </g>
 </g>
</svg>
