<?xml version="1.0" encoding="utf-8" standalone="no"?>
<!DOCTYPE svg PUBLIC "-//W3C//DTD SVG 1.1//EN"
  "http://www.w3.org/Graphics/SVG/1.1/DTD/svg11.dtd">
<svg xmlns:xlink="http://www.w3.org/1999/xlink" width="930.6975pt" height="231.597813pt" viewBox="0 0 930.6975 231.597813" xmlns="http://www.w3.org/2000/svg" version="1.1">
 <metadata>
  <rdf:RDF xmlns:dc="http://purl.org/dc/elements/1.1/" xmlns:cc="http://creativecommons.org/ns#" xmlns:rdf="http://www.w3.org/1999/02/22-rdf-syntax-ns#">
   <cc:Work>
    <dc:type rdf:resource="http://purl.org/dc/dcmitype/StillImage"/>
    <dc:date>2023-11-22T23:46:21.981879</dc:date>
    <dc:format>image/svg+xml</dc:format>
    <dc:creator>
     <cc:Agent>
      <dc:title>Matplotlib v3.8.2, https://matplotlib.org/</dc:title>
     </cc:Agent>
    </dc:creator>
   </cc:Work>
  </rdf:RDF>
 </metadata>
 <defs>
  <style type="text/css">*{stroke-linejoin: round; stroke-linecap: butt}</style>
 </defs>
 <g id="figure_1">
  <g id="patch_1">
   <path d="M 0 231.597813 
L 930.6975 231.597813 
L 930.6975 -0 
L 0 -0 
L 0 231.597813 
z
" style="fill: none"/>
  </g>
  <g id="axes_1">
   <g id="patch_2">
    <path d="M 30.6975 188.638125 
L 436.515682 188.638125 
L 436.515682 22.318125 
L 30.6975 22.318125 
L 30.6975 188.638125 
z
" style="fill: none"/>
   </g>
   <g id="matplotlib.axis_1">
    <g id="xtick_1">
     <g id="line2d_1">
      <path d="M 49.143781 188.638125 
L 49.143781 22.318125 
" clip-path="url(#p38d47f19ab)" style="fill: none; stroke-dasharray: 1.85,0.8; stroke-dashoffset: 0; stroke: #838383; stroke-opacity: 0.33; stroke-width: 0.5"/>
     </g>
     <g id="text_1">
      <!-- 0 -->
      <g style="fill: #838383" transform="translate(45.644406 206.496406) scale(0.11 -0.11)">
       <defs>
        <path id="DejaVuSans-30" d="M 2034 4250 
Q 1547 4250 1301 3770 
Q 1056 3291 1056 2328 
Q 1056 1369 1301 889 
Q 1547 409 2034 409 
Q 2525 409 2770 889 
Q 3016 1369 3016 2328 
Q 3016 3291 2770 3770 
Q 2525 4250 2034 4250 
z
M 2034 4750 
Q 2819 4750 3233 4129 
Q 3647 3509 3647 2328 
Q 3647 1150 3233 529 
Q 2819 -91 2034 -91 
Q 1250 -91 836 529 
Q 422 1150 422 2328 
Q 422 3509 836 4129 
Q 1250 4750 2034 4750 
z
" transform="scale(0.015625)"/>
       </defs>
       <use xlink:href="#DejaVuSans-30"/>
      </g>
     </g>
    </g>
    <g id="xtick_2">
     <g id="line2d_2">
      <path d="M 110.631384 188.638125 
L 110.631384 22.318125 
" clip-path="url(#p38d47f19ab)" style="fill: none; stroke-dasharray: 1.85,0.8; stroke-dashoffset: 0; stroke: #838383; stroke-opacity: 0.33; stroke-width: 0.5"/>
     </g>
     <g id="text_2">
      <!-- 2 -->
      <g style="fill: #838383" transform="translate(107.132009 206.496406) scale(0.11 -0.11)">
       <defs>
        <path id="DejaVuSans-32" d="M 1228 531 
L 3431 531 
L 3431 0 
L 469 0 
L 469 531 
Q 828 903 1448 1529 
Q 2069 2156 2228 2338 
Q 2531 2678 2651 2914 
Q 2772 3150 2772 3378 
Q 2772 3750 2511 3984 
Q 2250 4219 1831 4219 
Q 1534 4219 1204 4116 
Q 875 4013 500 3803 
L 500 4441 
Q 881 4594 1212 4672 
Q 1544 4750 1819 4750 
Q 2544 4750 2975 4387 
Q 3406 4025 3406 3419 
Q 3406 3131 3298 2873 
Q 3191 2616 2906 2266 
Q 2828 2175 2409 1742 
Q 1991 1309 1228 531 
z
" transform="scale(0.015625)"/>
       </defs>
       <use xlink:href="#DejaVuSans-32"/>
      </g>
     </g>
    </g>
    <g id="xtick_3">
     <g id="line2d_3">
      <path d="M 172.118988 188.638125 
L 172.118988 22.318125 
" clip-path="url(#p38d47f19ab)" style="fill: none; stroke-dasharray: 1.85,0.8; stroke-dashoffset: 0; stroke: #838383; stroke-opacity: 0.33; stroke-width: 0.5"/>
     </g>
     <g id="text_3">
      <!-- 4 -->
      <g style="fill: #838383" transform="translate(168.619613 206.496406) scale(0.11 -0.11)">
       <defs>
        <path id="DejaVuSans-34" d="M 2419 4116 
L 825 1625 
L 2419 1625 
L 2419 4116 
z
M 2253 4666 
L 3047 4666 
L 3047 1625 
L 3713 1625 
L 3713 1100 
L 3047 1100 
L 3047 0 
L 2419 0 
L 2419 1100 
L 313 1100 
L 313 1709 
L 2253 4666 
z
" transform="scale(0.015625)"/>
       </defs>
       <use xlink:href="#DejaVuSans-34"/>
      </g>
     </g>
    </g>
    <g id="xtick_4">
     <g id="line2d_4">
      <path d="M 233.606591 188.638125 
L 233.606591 22.318125 
" clip-path="url(#p38d47f19ab)" style="fill: none; stroke-dasharray: 1.85,0.8; stroke-dashoffset: 0; stroke: #838383; stroke-opacity: 0.33; stroke-width: 0.5"/>
     </g>
     <g id="text_4">
      <!-- 6 -->
      <g style="fill: #838383" transform="translate(230.107216 206.496406) scale(0.11 -0.11)">
       <defs>
        <path id="DejaVuSans-36" d="M 2113 2584 
Q 1688 2584 1439 2293 
Q 1191 2003 1191 1497 
Q 1191 994 1439 701 
Q 1688 409 2113 409 
Q 2538 409 2786 701 
Q 3034 994 3034 1497 
Q 3034 2003 2786 2293 
Q 2538 2584 2113 2584 
z
M 3366 4563 
L 3366 3988 
Q 3128 4100 2886 4159 
Q 2644 4219 2406 4219 
Q 1781 4219 1451 3797 
Q 1122 3375 1075 2522 
Q 1259 2794 1537 2939 
Q 1816 3084 2150 3084 
Q 2853 3084 3261 2657 
Q 3669 2231 3669 1497 
Q 3669 778 3244 343 
Q 2819 -91 2113 -91 
Q 1303 -91 875 529 
Q 447 1150 447 2328 
Q 447 3434 972 4092 
Q 1497 4750 2381 4750 
Q 2619 4750 2861 4703 
Q 3103 4656 3366 4563 
z
" transform="scale(0.015625)"/>
       </defs>
       <use xlink:href="#DejaVuSans-36"/>
      </g>
     </g>
    </g>
    <g id="xtick_5">
     <g id="line2d_5">
      <path d="M 295.094194 188.638125 
L 295.094194 22.318125 
" clip-path="url(#p38d47f19ab)" style="fill: none; stroke-dasharray: 1.85,0.8; stroke-dashoffset: 0; stroke: #838383; stroke-opacity: 0.33; stroke-width: 0.5"/>
     </g>
     <g id="text_5">
      <!-- 8 -->
      <g style="fill: #838383" transform="translate(291.594819 206.496406) scale(0.11 -0.11)">
       <defs>
        <path id="DejaVuSans-38" d="M 2034 2216 
Q 1584 2216 1326 1975 
Q 1069 1734 1069 1313 
Q 1069 891 1326 650 
Q 1584 409 2034 409 
Q 2484 409 2743 651 
Q 3003 894 3003 1313 
Q 3003 1734 2745 1975 
Q 2488 2216 2034 2216 
z
M 1403 2484 
Q 997 2584 770 2862 
Q 544 3141 544 3541 
Q 544 4100 942 4425 
Q 1341 4750 2034 4750 
Q 2731 4750 3128 4425 
Q 3525 4100 3525 3541 
Q 3525 3141 3298 2862 
Q 3072 2584 2669 2484 
Q 3125 2378 3379 2068 
Q 3634 1759 3634 1313 
Q 3634 634 3220 271 
Q 2806 -91 2034 -91 
Q 1263 -91 848 271 
Q 434 634 434 1313 
Q 434 1759 690 2068 
Q 947 2378 1403 2484 
z
M 1172 3481 
Q 1172 3119 1398 2916 
Q 1625 2713 2034 2713 
Q 2441 2713 2670 2916 
Q 2900 3119 2900 3481 
Q 2900 3844 2670 4047 
Q 2441 4250 2034 4250 
Q 1625 4250 1398 4047 
Q 1172 3844 1172 3481 
z
" transform="scale(0.015625)"/>
       </defs>
       <use xlink:href="#DejaVuSans-38"/>
      </g>
     </g>
    </g>
    <g id="xtick_6">
     <g id="line2d_6">
      <path d="M 356.581798 188.638125 
L 356.581798 22.318125 
" clip-path="url(#p38d47f19ab)" style="fill: none; stroke-dasharray: 1.85,0.8; stroke-dashoffset: 0; stroke: #838383; stroke-opacity: 0.33; stroke-width: 0.5"/>
     </g>
     <g id="text_6">
      <!-- 10 -->
      <g style="fill: #838383" transform="translate(349.583048 206.496406) scale(0.11 -0.11)">
       <defs>
        <path id="DejaVuSans-31" d="M 794 531 
L 1825 531 
L 1825 4091 
L 703 3866 
L 703 4441 
L 1819 4666 
L 2450 4666 
L 2450 531 
L 3481 531 
L 3481 0 
L 794 0 
L 794 531 
z
" transform="scale(0.015625)"/>
       </defs>
       <use xlink:href="#DejaVuSans-31"/>
       <use xlink:href="#DejaVuSans-30" x="63.623047"/>
      </g>
     </g>
    </g>
    <g id="xtick_7">
     <g id="line2d_7">
      <path d="M 418.069401 188.638125 
L 418.069401 22.318125 
" clip-path="url(#p38d47f19ab)" style="fill: none; stroke-dasharray: 1.85,0.8; stroke-dashoffset: 0; stroke: #838383; stroke-opacity: 0.33; stroke-width: 0.5"/>
     </g>
     <g id="text_7">
      <!-- 12 -->
      <g style="fill: #838383" transform="translate(411.070651 206.496406) scale(0.11 -0.11)">
       <use xlink:href="#DejaVuSans-31"/>
       <use xlink:href="#DejaVuSans-32" x="63.623047"/>
      </g>
     </g>
    </g>
    <g id="text_8">
     <!-- # tunneling events / 195 configurations -->
     <g style="fill: #838383" transform="translate(114.033153 221.902188) scale(0.12 -0.12)">
      <defs>
       <path id="DejaVuSans-23" d="M 3272 2816 
L 2363 2816 
L 2100 1772 
L 3016 1772 
L 3272 2816 
z
M 2803 4594 
L 2478 3297 
L 3391 3297 
L 3719 4594 
L 4219 4594 
L 3897 3297 
L 4872 3297 
L 4872 2816 
L 3775 2816 
L 3519 1772 
L 4513 1772 
L 4513 1294 
L 3397 1294 
L 3072 0 
L 2572 0 
L 2894 1294 
L 1978 1294 
L 1656 0 
L 1153 0 
L 1478 1294 
L 494 1294 
L 494 1772 
L 1594 1772 
L 1856 2816 
L 850 2816 
L 850 3297 
L 1978 3297 
L 2297 4594 
L 2803 4594 
z
" transform="scale(0.015625)"/>
       <path id="DejaVuSans-20" transform="scale(0.015625)"/>
       <path id="DejaVuSans-74" d="M 1172 4494 
L 1172 3500 
L 2356 3500 
L 2356 3053 
L 1172 3053 
L 1172 1153 
Q 1172 725 1289 603 
Q 1406 481 1766 481 
L 2356 481 
L 2356 0 
L 1766 0 
Q 1100 0 847 248 
Q 594 497 594 1153 
L 594 3053 
L 172 3053 
L 172 3500 
L 594 3500 
L 594 4494 
L 1172 4494 
z
" transform="scale(0.015625)"/>
       <path id="DejaVuSans-75" d="M 544 1381 
L 544 3500 
L 1119 3500 
L 1119 1403 
Q 1119 906 1312 657 
Q 1506 409 1894 409 
Q 2359 409 2629 706 
Q 2900 1003 2900 1516 
L 2900 3500 
L 3475 3500 
L 3475 0 
L 2900 0 
L 2900 538 
Q 2691 219 2414 64 
Q 2138 -91 1772 -91 
Q 1169 -91 856 284 
Q 544 659 544 1381 
z
M 1991 3584 
L 1991 3584 
z
" transform="scale(0.015625)"/>
       <path id="DejaVuSans-6e" d="M 3513 2113 
L 3513 0 
L 2938 0 
L 2938 2094 
Q 2938 2591 2744 2837 
Q 2550 3084 2163 3084 
Q 1697 3084 1428 2787 
Q 1159 2491 1159 1978 
L 1159 0 
L 581 0 
L 581 3500 
L 1159 3500 
L 1159 2956 
Q 1366 3272 1645 3428 
Q 1925 3584 2291 3584 
Q 2894 3584 3203 3211 
Q 3513 2838 3513 2113 
z
" transform="scale(0.015625)"/>
       <path id="DejaVuSans-65" d="M 3597 1894 
L 3597 1613 
L 953 1613 
Q 991 1019 1311 708 
Q 1631 397 2203 397 
Q 2534 397 2845 478 
Q 3156 559 3463 722 
L 3463 178 
Q 3153 47 2828 -22 
Q 2503 -91 2169 -91 
Q 1331 -91 842 396 
Q 353 884 353 1716 
Q 353 2575 817 3079 
Q 1281 3584 2069 3584 
Q 2775 3584 3186 3129 
Q 3597 2675 3597 1894 
z
M 3022 2063 
Q 3016 2534 2758 2815 
Q 2500 3097 2075 3097 
Q 1594 3097 1305 2825 
Q 1016 2553 972 2059 
L 3022 2063 
z
" transform="scale(0.015625)"/>
       <path id="DejaVuSans-6c" d="M 603 4863 
L 1178 4863 
L 1178 0 
L 603 0 
L 603 4863 
z
" transform="scale(0.015625)"/>
       <path id="DejaVuSans-69" d="M 603 3500 
L 1178 3500 
L 1178 0 
L 603 0 
L 603 3500 
z
M 603 4863 
L 1178 4863 
L 1178 4134 
L 603 4134 
L 603 4863 
z
" transform="scale(0.015625)"/>
       <path id="DejaVuSans-67" d="M 2906 1791 
Q 2906 2416 2648 2759 
Q 2391 3103 1925 3103 
Q 1463 3103 1205 2759 
Q 947 2416 947 1791 
Q 947 1169 1205 825 
Q 1463 481 1925 481 
Q 2391 481 2648 825 
Q 2906 1169 2906 1791 
z
M 3481 434 
Q 3481 -459 3084 -895 
Q 2688 -1331 1869 -1331 
Q 1566 -1331 1297 -1286 
Q 1028 -1241 775 -1147 
L 775 -588 
Q 1028 -725 1275 -790 
Q 1522 -856 1778 -856 
Q 2344 -856 2625 -561 
Q 2906 -266 2906 331 
L 2906 616 
Q 2728 306 2450 153 
Q 2172 0 1784 0 
Q 1141 0 747 490 
Q 353 981 353 1791 
Q 353 2603 747 3093 
Q 1141 3584 1784 3584 
Q 2172 3584 2450 3431 
Q 2728 3278 2906 2969 
L 2906 3500 
L 3481 3500 
L 3481 434 
z
" transform="scale(0.015625)"/>
       <path id="DejaVuSans-76" d="M 191 3500 
L 800 3500 
L 1894 563 
L 2988 3500 
L 3597 3500 
L 2284 0 
L 1503 0 
L 191 3500 
z
" transform="scale(0.015625)"/>
       <path id="DejaVuSans-73" d="M 2834 3397 
L 2834 2853 
Q 2591 2978 2328 3040 
Q 2066 3103 1784 3103 
Q 1356 3103 1142 2972 
Q 928 2841 928 2578 
Q 928 2378 1081 2264 
Q 1234 2150 1697 2047 
L 1894 2003 
Q 2506 1872 2764 1633 
Q 3022 1394 3022 966 
Q 3022 478 2636 193 
Q 2250 -91 1575 -91 
Q 1294 -91 989 -36 
Q 684 19 347 128 
L 347 722 
Q 666 556 975 473 
Q 1284 391 1588 391 
Q 1994 391 2212 530 
Q 2431 669 2431 922 
Q 2431 1156 2273 1281 
Q 2116 1406 1581 1522 
L 1381 1569 
Q 847 1681 609 1914 
Q 372 2147 372 2553 
Q 372 3047 722 3315 
Q 1072 3584 1716 3584 
Q 2034 3584 2315 3537 
Q 2597 3491 2834 3397 
z
" transform="scale(0.015625)"/>
       <path id="DejaVuSans-2f" d="M 1625 4666 
L 2156 4666 
L 531 -594 
L 0 -594 
L 1625 4666 
z
" transform="scale(0.015625)"/>
       <path id="DejaVuSans-39" d="M 703 97 
L 703 672 
Q 941 559 1184 500 
Q 1428 441 1663 441 
Q 2288 441 2617 861 
Q 2947 1281 2994 2138 
Q 2813 1869 2534 1725 
Q 2256 1581 1919 1581 
Q 1219 1581 811 2004 
Q 403 2428 403 3163 
Q 403 3881 828 4315 
Q 1253 4750 1959 4750 
Q 2769 4750 3195 4129 
Q 3622 3509 3622 2328 
Q 3622 1225 3098 567 
Q 2575 -91 1691 -91 
Q 1453 -91 1209 -44 
Q 966 3 703 97 
z
M 1959 2075 
Q 2384 2075 2632 2365 
Q 2881 2656 2881 3163 
Q 2881 3666 2632 3958 
Q 2384 4250 1959 4250 
Q 1534 4250 1286 3958 
Q 1038 3666 1038 3163 
Q 1038 2656 1286 2365 
Q 1534 2075 1959 2075 
z
" transform="scale(0.015625)"/>
       <path id="DejaVuSans-35" d="M 691 4666 
L 3169 4666 
L 3169 4134 
L 1269 4134 
L 1269 2991 
Q 1406 3038 1543 3061 
Q 1681 3084 1819 3084 
Q 2600 3084 3056 2656 
Q 3513 2228 3513 1497 
Q 3513 744 3044 326 
Q 2575 -91 1722 -91 
Q 1428 -91 1123 -41 
Q 819 9 494 109 
L 494 744 
Q 775 591 1075 516 
Q 1375 441 1709 441 
Q 2250 441 2565 725 
Q 2881 1009 2881 1497 
Q 2881 1984 2565 2268 
Q 2250 2553 1709 2553 
Q 1456 2553 1204 2497 
Q 953 2441 691 2322 
L 691 4666 
z
" transform="scale(0.015625)"/>
       <path id="DejaVuSans-63" d="M 3122 3366 
L 3122 2828 
Q 2878 2963 2633 3030 
Q 2388 3097 2138 3097 
Q 1578 3097 1268 2742 
Q 959 2388 959 1747 
Q 959 1106 1268 751 
Q 1578 397 2138 397 
Q 2388 397 2633 464 
Q 2878 531 3122 666 
L 3122 134 
Q 2881 22 2623 -34 
Q 2366 -91 2075 -91 
Q 1284 -91 818 406 
Q 353 903 353 1747 
Q 353 2603 823 3093 
Q 1294 3584 2113 3584 
Q 2378 3584 2631 3529 
Q 2884 3475 3122 3366 
z
" transform="scale(0.015625)"/>
       <path id="DejaVuSans-6f" d="M 1959 3097 
Q 1497 3097 1228 2736 
Q 959 2375 959 1747 
Q 959 1119 1226 758 
Q 1494 397 1959 397 
Q 2419 397 2687 759 
Q 2956 1122 2956 1747 
Q 2956 2369 2687 2733 
Q 2419 3097 1959 3097 
z
M 1959 3584 
Q 2709 3584 3137 3096 
Q 3566 2609 3566 1747 
Q 3566 888 3137 398 
Q 2709 -91 1959 -91 
Q 1206 -91 779 398 
Q 353 888 353 1747 
Q 353 2609 779 3096 
Q 1206 3584 1959 3584 
z
" transform="scale(0.015625)"/>
       <path id="DejaVuSans-66" d="M 2375 4863 
L 2375 4384 
L 1825 4384 
Q 1516 4384 1395 4259 
Q 1275 4134 1275 3809 
L 1275 3500 
L 2222 3500 
L 2222 3053 
L 1275 3053 
L 1275 0 
L 697 0 
L 697 3053 
L 147 3053 
L 147 3500 
L 697 3500 
L 697 3744 
Q 697 4328 969 4595 
Q 1241 4863 1831 4863 
L 2375 4863 
z
" transform="scale(0.015625)"/>
       <path id="DejaVuSans-72" d="M 2631 2963 
Q 2534 3019 2420 3045 
Q 2306 3072 2169 3072 
Q 1681 3072 1420 2755 
Q 1159 2438 1159 1844 
L 1159 0 
L 581 0 
L 581 3500 
L 1159 3500 
L 1159 2956 
Q 1341 3275 1631 3429 
Q 1922 3584 2338 3584 
Q 2397 3584 2469 3576 
Q 2541 3569 2628 3553 
L 2631 2963 
z
" transform="scale(0.015625)"/>
       <path id="DejaVuSans-61" d="M 2194 1759 
Q 1497 1759 1228 1600 
Q 959 1441 959 1056 
Q 959 750 1161 570 
Q 1363 391 1709 391 
Q 2188 391 2477 730 
Q 2766 1069 2766 1631 
L 2766 1759 
L 2194 1759 
z
M 3341 1997 
L 3341 0 
L 2766 0 
L 2766 531 
Q 2569 213 2275 61 
Q 1981 -91 1556 -91 
Q 1019 -91 701 211 
Q 384 513 384 1019 
Q 384 1609 779 1909 
Q 1175 2209 1959 2209 
L 2766 2209 
L 2766 2266 
Q 2766 2663 2505 2880 
Q 2244 3097 1772 3097 
Q 1472 3097 1187 3025 
Q 903 2953 641 2809 
L 641 3341 
Q 956 3463 1253 3523 
Q 1550 3584 1831 3584 
Q 2591 3584 2966 3190 
Q 3341 2797 3341 1997 
z
" transform="scale(0.015625)"/>
      </defs>
      <use xlink:href="#DejaVuSans-23"/>
      <use xlink:href="#DejaVuSans-20" x="83.789062"/>
      <use xlink:href="#DejaVuSans-74" x="115.576172"/>
      <use xlink:href="#DejaVuSans-75" x="154.785156"/>
      <use xlink:href="#DejaVuSans-6e" x="218.164062"/>
      <use xlink:href="#DejaVuSans-6e" x="281.542969"/>
      <use xlink:href="#DejaVuSans-65" x="344.921875"/>
      <use xlink:href="#DejaVuSans-6c" x="406.445312"/>
      <use xlink:href="#DejaVuSans-69" x="434.228516"/>
      <use xlink:href="#DejaVuSans-6e" x="462.011719"/>
      <use xlink:href="#DejaVuSans-67" x="525.390625"/>
      <use xlink:href="#DejaVuSans-20" x="588.867188"/>
      <use xlink:href="#DejaVuSans-65" x="620.654297"/>
      <use xlink:href="#DejaVuSans-76" x="682.177734"/>
      <use xlink:href="#DejaVuSans-65" x="741.357422"/>
      <use xlink:href="#DejaVuSans-6e" x="802.880859"/>
      <use xlink:href="#DejaVuSans-74" x="866.259766"/>
      <use xlink:href="#DejaVuSans-73" x="905.46875"/>
      <use xlink:href="#DejaVuSans-20" x="957.568359"/>
      <use xlink:href="#DejaVuSans-2f" x="989.355469"/>
      <use xlink:href="#DejaVuSans-20" x="1023.046875"/>
      <use xlink:href="#DejaVuSans-31" x="1054.833984"/>
      <use xlink:href="#DejaVuSans-39" x="1118.457031"/>
      <use xlink:href="#DejaVuSans-35" x="1182.080078"/>
      <use xlink:href="#DejaVuSans-20" x="1245.703125"/>
      <use xlink:href="#DejaVuSans-63" x="1277.490234"/>
      <use xlink:href="#DejaVuSans-6f" x="1332.470703"/>
      <use xlink:href="#DejaVuSans-6e" x="1393.652344"/>
      <use xlink:href="#DejaVuSans-66" x="1457.03125"/>
      <use xlink:href="#DejaVuSans-69" x="1492.236328"/>
      <use xlink:href="#DejaVuSans-67" x="1520.019531"/>
      <use xlink:href="#DejaVuSans-75" x="1583.496094"/>
      <use xlink:href="#DejaVuSans-72" x="1646.875"/>
      <use xlink:href="#DejaVuSans-61" x="1687.988281"/>
      <use xlink:href="#DejaVuSans-74" x="1749.267578"/>
      <use xlink:href="#DejaVuSans-69" x="1788.476562"/>
      <use xlink:href="#DejaVuSans-6f" x="1816.259766"/>
      <use xlink:href="#DejaVuSans-6e" x="1877.441406"/>
      <use xlink:href="#DejaVuSans-73" x="1940.820312"/>
     </g>
    </g>
   </g>
   <g id="matplotlib.axis_2">
    <g id="ytick_1">
     <g id="line2d_8">
      <path d="M 30.6975 188.638125 
L 436.515682 188.638125 
" clip-path="url(#p38d47f19ab)" style="fill: none; stroke-dasharray: 1.85,0.8; stroke-dashoffset: 0; stroke: #838383; stroke-opacity: 0.33; stroke-width: 0.5"/>
     </g>
     <g id="text_9">
      <!-- 0 -->
      <g style="fill: #838383" transform="translate(14.19875 192.817266) scale(0.11 -0.11)">
       <use xlink:href="#DejaVuSans-30"/>
      </g>
     </g>
    </g>
    <g id="ytick_2">
     <g id="line2d_9">
      <path d="M 30.6975 148.02274 
L 436.515682 148.02274 
" clip-path="url(#p38d47f19ab)" style="fill: none; stroke-dasharray: 1.85,0.8; stroke-dashoffset: 0; stroke: #838383; stroke-opacity: 0.33; stroke-width: 0.5"/>
     </g>
     <g id="text_10">
      <!-- 20 -->
      <g style="fill: #838383" transform="translate(7.2 152.201881) scale(0.11 -0.11)">
       <use xlink:href="#DejaVuSans-32"/>
       <use xlink:href="#DejaVuSans-30" x="63.623047"/>
      </g>
     </g>
    </g>
    <g id="ytick_3">
     <g id="line2d_10">
      <path d="M 30.6975 107.407356 
L 436.515682 107.407356 
" clip-path="url(#p38d47f19ab)" style="fill: none; stroke-dasharray: 1.85,0.8; stroke-dashoffset: 0; stroke: #838383; stroke-opacity: 0.33; stroke-width: 0.5"/>
     </g>
     <g id="text_11">
      <!-- 40 -->
      <g style="fill: #838383" transform="translate(7.2 111.586496) scale(0.11 -0.11)">
       <use xlink:href="#DejaVuSans-34"/>
       <use xlink:href="#DejaVuSans-30" x="63.623047"/>
      </g>
     </g>
    </g>
    <g id="ytick_4">
     <g id="line2d_11">
      <path d="M 30.6975 66.791971 
L 436.515682 66.791971 
" clip-path="url(#p38d47f19ab)" style="fill: none; stroke-dasharray: 1.85,0.8; stroke-dashoffset: 0; stroke: #838383; stroke-opacity: 0.33; stroke-width: 0.5"/>
     </g>
     <g id="text_12">
      <!-- 60 -->
      <g style="fill: #838383" transform="translate(7.2 70.971112) scale(0.11 -0.11)">
       <use xlink:href="#DejaVuSans-36"/>
       <use xlink:href="#DejaVuSans-30" x="63.623047"/>
      </g>
     </g>
    </g>
    <g id="ytick_5">
     <g id="line2d_12">
      <path d="M 30.6975 26.176587 
L 436.515682 26.176587 
" clip-path="url(#p38d47f19ab)" style="fill: none; stroke-dasharray: 1.85,0.8; stroke-dashoffset: 0; stroke: #838383; stroke-opacity: 0.33; stroke-width: 0.5"/>
     </g>
     <g id="text_13">
      <!-- 80 -->
      <g style="fill: #838383" transform="translate(7.2 30.355727) scale(0.11 -0.11)">
       <use xlink:href="#DejaVuSans-38"/>
       <use xlink:href="#DejaVuSans-30" x="63.623047"/>
      </g>
     </g>
    </g>
   </g>
   <g id="patch_3">
    <path d="M 79.887583 188.638125 
L 110.631384 188.638125 
L 110.631384 178.484279 
L 79.887583 178.484279 
z
" clip-path="url(#p38d47f19ab)" style="fill: #2196f3; opacity: 0.4"/>
   </g>
   <g id="patch_4">
    <path d="M 110.631384 188.638125 
L 141.375186 188.638125 
L 141.375186 166.299663 
L 110.631384 166.299663 
z
" clip-path="url(#p38d47f19ab)" style="fill: #2196f3; opacity: 0.4"/>
   </g>
   <g id="patch_5">
    <path d="M 141.375186 188.638125 
L 172.118988 188.638125 
L 172.118988 148.02274 
L 141.375186 148.02274 
z
" clip-path="url(#p38d47f19ab)" style="fill: #2196f3; opacity: 0.4"/>
   </g>
   <g id="patch_6">
    <path d="M 172.118988 188.638125 
L 202.862789 188.638125 
L 202.862789 131.776587 
L 172.118988 131.776587 
z
" clip-path="url(#p38d47f19ab)" style="fill: #2196f3; opacity: 0.4"/>
   </g>
   <g id="patch_7">
    <path d="M 202.862789 188.638125 
L 233.606591 188.638125 
L 233.606591 129.745817 
L 202.862789 129.745817 
z
" clip-path="url(#p38d47f19ab)" style="fill: #2196f3; opacity: 0.4"/>
   </g>
   <g id="patch_8">
    <path d="M 233.606591 188.638125 
L 264.350393 188.638125 
L 264.350393 131.776587 
L 233.606591 131.776587 
z
" clip-path="url(#p38d47f19ab)" style="fill: #2196f3; opacity: 0.4"/>
   </g>
   <g id="patch_9">
    <path d="M 264.350393 188.638125 
L 295.094194 188.638125 
L 295.094194 127.715048 
L 264.350393 127.715048 
z
" clip-path="url(#p38d47f19ab)" style="fill: #2196f3; opacity: 0.4"/>
   </g>
   <g id="patch_10">
    <path d="M 295.094194 188.638125 
L 325.837996 188.638125 
L 325.837996 145.991971 
L 295.094194 145.991971 
z
" clip-path="url(#p38d47f19ab)" style="fill: #2196f3; opacity: 0.4"/>
   </g>
   <g id="patch_11">
    <path d="M 325.837996 188.638125 
L 356.581798 188.638125 
L 356.581798 170.361202 
L 325.837996 170.361202 
z
" clip-path="url(#p38d47f19ab)" style="fill: #2196f3; opacity: 0.4"/>
   </g>
   <g id="patch_12">
    <path d="M 356.581798 188.638125 
L 387.325599 188.638125 
L 387.325599 176.45351 
L 356.581798 176.45351 
z
" clip-path="url(#p38d47f19ab)" style="fill: #2196f3; opacity: 0.4"/>
   </g>
   <g id="patch_13">
    <path d="M 387.325599 188.638125 
L 418.069401 188.638125 
L 418.069401 172.391971 
L 387.325599 172.391971 
z
" clip-path="url(#p38d47f19ab)" style="fill: #2196f3; opacity: 0.4"/>
   </g>
   <g id="patch_14">
    <path d="M 49.143781 188.638125 
L 69.639649 188.638125 
L 69.639649 30.238125 
L 49.143781 30.238125 
z
" clip-path="url(#p38d47f19ab)" style="fill: #ef5350; opacity: 0.4"/>
   </g>
   <g id="patch_15">
    <path d="M 69.639649 188.638125 
L 90.135517 188.638125 
L 90.135517 81.007356 
L 69.639649 81.007356 
z
" clip-path="url(#p38d47f19ab)" style="fill: #ef5350; opacity: 0.4"/>
   </g>
   <g id="patch_16">
    <path d="M 90.135517 188.638125 
L 110.631384 188.638125 
L 110.631384 188.638125 
L 90.135517 188.638125 
z
" clip-path="url(#p38d47f19ab)" style="fill: #ef5350; opacity: 0.4"/>
   </g>
   <g id="patch_17">
    <path d="M 110.631384 188.638125 
L 131.127252 188.638125 
L 131.127252 97.25351 
L 110.631384 97.25351 
z
" clip-path="url(#p38d47f19ab)" style="fill: #ef5350; opacity: 0.4"/>
   </g>
   <g id="patch_18">
    <path d="M 131.127252 188.638125 
L 151.62312 188.638125 
L 151.62312 162.238125 
L 131.127252 162.238125 
z
" clip-path="url(#p38d47f19ab)" style="fill: #ef5350; opacity: 0.4"/>
   </g>
   <g id="patch_19">
    <path d="M 151.62312 188.638125 
L 172.118988 188.638125 
L 172.118988 188.638125 
L 151.62312 188.638125 
z
" clip-path="url(#p38d47f19ab)" style="fill: #ef5350; opacity: 0.4"/>
   </g>
   <g id="patch_20">
    <path d="M 172.118988 188.638125 
L 192.614855 188.638125 
L 192.614855 186.607356 
L 172.118988 186.607356 
z
" clip-path="url(#p38d47f19ab)" style="fill: #ef5350; opacity: 0.4"/>
   </g>
   <g id="patch_21">
    <path d="M 192.614855 188.638125 
L 213.110723 188.638125 
L 213.110723 180.515048 
L 192.614855 180.515048 
z
" clip-path="url(#p38d47f19ab)" style="fill: #ef5350; opacity: 0.4"/>
   </g>
   <g id="patch_22">
    <path d="M 213.110723 188.638125 
L 233.606591 188.638125 
L 233.606591 186.607356 
L 213.110723 186.607356 
z
" clip-path="url(#p38d47f19ab)" style="fill: #ef5350; opacity: 0.4"/>
   </g>
   <g id="patch_23">
    <path d="M 30.6975 188.638125 
L 30.6975 22.318125 
" style="fill: none"/>
   </g>
   <g id="patch_24">
    <path d="M 436.515682 188.638125 
L 436.515682 22.318125 
" style="fill: none"/>
   </g>
   <g id="patch_25">
    <path d="M 30.6975 188.638125 
L 436.515682 188.638125 
" style="fill: none"/>
   </g>
   <g id="patch_26">
    <path d="M 30.6975 22.318125 
L 436.515682 22.318125 
" style="fill: none"/>
   </g>
   <g id="text_14">
    <!-- PyTorch -->
    <g style="fill: #838383" transform="translate(210.688466 16.318125) scale(0.12 -0.12)">
     <defs>
      <path id="DejaVuSans-50" d="M 1259 4147 
L 1259 2394 
L 2053 2394 
Q 2494 2394 2734 2622 
Q 2975 2850 2975 3272 
Q 2975 3691 2734 3919 
Q 2494 4147 2053 4147 
L 1259 4147 
z
M 628 4666 
L 2053 4666 
Q 2838 4666 3239 4311 
Q 3641 3956 3641 3272 
Q 3641 2581 3239 2228 
Q 2838 1875 2053 1875 
L 1259 1875 
L 1259 0 
L 628 0 
L 628 4666 
z
" transform="scale(0.015625)"/>
      <path id="DejaVuSans-79" d="M 2059 -325 
Q 1816 -950 1584 -1140 
Q 1353 -1331 966 -1331 
L 506 -1331 
L 506 -850 
L 844 -850 
Q 1081 -850 1212 -737 
Q 1344 -625 1503 -206 
L 1606 56 
L 191 3500 
L 800 3500 
L 1894 763 
L 2988 3500 
L 3597 3500 
L 2059 -325 
z
" transform="scale(0.015625)"/>
      <path id="DejaVuSans-54" d="M -19 4666 
L 3928 4666 
L 3928 4134 
L 2272 4134 
L 2272 0 
L 1638 0 
L 1638 4134 
L -19 4134 
L -19 4666 
z
" transform="scale(0.015625)"/>
      <path id="DejaVuSans-68" d="M 3513 2113 
L 3513 0 
L 2938 0 
L 2938 2094 
Q 2938 2591 2744 2837 
Q 2550 3084 2163 3084 
Q 1697 3084 1428 2787 
Q 1159 2491 1159 1978 
L 1159 0 
L 581 0 
L 581 4863 
L 1159 4863 
L 1159 2956 
Q 1366 3272 1645 3428 
Q 1925 3584 2291 3584 
Q 2894 3584 3203 3211 
Q 3513 2838 3513 2113 
z
" transform="scale(0.015625)"/>
     </defs>
     <use xlink:href="#DejaVuSans-50"/>
     <use xlink:href="#DejaVuSans-79" x="60.302734"/>
     <use xlink:href="#DejaVuSans-54" x="119.482422"/>
     <use xlink:href="#DejaVuSans-6f" x="163.566406"/>
     <use xlink:href="#DejaVuSans-72" x="224.748047"/>
     <use xlink:href="#DejaVuSans-63" x="263.611328"/>
     <use xlink:href="#DejaVuSans-68" x="318.591797"/>
    </g>
   </g>
   <g id="legend_1">
    <g id="patch_27">
     <path d="M 370.371307 40.576406 
L 392.371307 40.576406 
L 392.371307 32.876406 
L 370.371307 32.876406 
z
" style="fill: #2196f3; opacity: 0.4"/>
    </g>
    <g id="text_15">
     <!-- Eval -->
     <g style="fill: #838383" transform="translate(401.171307 40.576406) scale(0.11 -0.11)">
      <defs>
       <path id="DejaVuSans-45" d="M 628 4666 
L 3578 4666 
L 3578 4134 
L 1259 4134 
L 1259 2753 
L 3481 2753 
L 3481 2222 
L 1259 2222 
L 1259 531 
L 3634 531 
L 3634 0 
L 628 0 
L 628 4666 
z
" transform="scale(0.015625)"/>
      </defs>
      <use xlink:href="#DejaVuSans-45"/>
      <use xlink:href="#DejaVuSans-76" x="63.183594"/>
      <use xlink:href="#DejaVuSans-61" x="122.363281"/>
      <use xlink:href="#DejaVuSans-6c" x="183.642578"/>
     </g>
    </g>
    <g id="patch_28">
     <path d="M 370.371307 56.722344 
L 392.371307 56.722344 
L 392.371307 49.022344 
L 370.371307 49.022344 
z
" style="fill: #ef5350; opacity: 0.4"/>
    </g>
    <g id="text_16">
     <!-- HMC -->
     <g style="fill: #838383" transform="translate(401.171307 56.722344) scale(0.11 -0.11)">
      <defs>
       <path id="DejaVuSans-48" d="M 628 4666 
L 1259 4666 
L 1259 2753 
L 3553 2753 
L 3553 4666 
L 4184 4666 
L 4184 0 
L 3553 0 
L 3553 2222 
L 1259 2222 
L 1259 0 
L 628 0 
L 628 4666 
z
" transform="scale(0.015625)"/>
       <path id="DejaVuSans-4d" d="M 628 4666 
L 1569 4666 
L 2759 1491 
L 3956 4666 
L 4897 4666 
L 4897 0 
L 4281 0 
L 4281 4097 
L 3078 897 
L 2444 897 
L 1241 4097 
L 1241 0 
L 628 0 
L 628 4666 
z
" transform="scale(0.015625)"/>
       <path id="DejaVuSans-43" d="M 4122 4306 
L 4122 3641 
Q 3803 3938 3442 4084 
Q 3081 4231 2675 4231 
Q 1875 4231 1450 3742 
Q 1025 3253 1025 2328 
Q 1025 1406 1450 917 
Q 1875 428 2675 428 
Q 3081 428 3442 575 
Q 3803 722 4122 1019 
L 4122 359 
Q 3791 134 3420 21 
Q 3050 -91 2638 -91 
Q 1578 -91 968 557 
Q 359 1206 359 2328 
Q 359 3453 968 4101 
Q 1578 4750 2638 4750 
Q 3056 4750 3426 4639 
Q 3797 4528 4122 4306 
z
" transform="scale(0.015625)"/>
      </defs>
      <use xlink:href="#DejaVuSans-48"/>
      <use xlink:href="#DejaVuSans-4d" x="75.195312"/>
      <use xlink:href="#DejaVuSans-43" x="161.474609"/>
     </g>
    </g>
   </g>
  </g>
  <g id="axes_2">
   <g id="patch_29">
    <path d="M 517.679318 188.638125 
L 923.4975 188.638125 
L 923.4975 22.318125 
L 517.679318 22.318125 
L 517.679318 188.638125 
z
" style="fill: none"/>
   </g>
   <g id="matplotlib.axis_3">
    <g id="xtick_8">
     <g id="line2d_13">
      <path d="M 536.125599 188.638125 
L 536.125599 22.318125 
" clip-path="url(#pd3840356b0)" style="fill: none; stroke-dasharray: 1.85,0.8; stroke-dashoffset: 0; stroke: #838383; stroke-opacity: 0.33; stroke-width: 0.5"/>
     </g>
     <g id="text_17">
      <!-- 0 -->
      <g style="fill: #838383" transform="translate(532.626224 206.496406) scale(0.11 -0.11)">
       <use xlink:href="#DejaVuSans-30"/>
      </g>
     </g>
    </g>
    <g id="xtick_9">
     <g id="line2d_14">
      <path d="M 588.829259 188.638125 
L 588.829259 22.318125 
" clip-path="url(#pd3840356b0)" style="fill: none; stroke-dasharray: 1.85,0.8; stroke-dashoffset: 0; stroke: #838383; stroke-opacity: 0.33; stroke-width: 0.5"/>
     </g>
     <g id="text_18">
      <!-- 2 -->
      <g style="fill: #838383" transform="translate(585.329884 206.496406) scale(0.11 -0.11)">
       <use xlink:href="#DejaVuSans-32"/>
      </g>
     </g>
    </g>
    <g id="xtick_10">
     <g id="line2d_15">
      <path d="M 641.532919 188.638125 
L 641.532919 22.318125 
" clip-path="url(#pd3840356b0)" style="fill: none; stroke-dasharray: 1.85,0.8; stroke-dashoffset: 0; stroke: #838383; stroke-opacity: 0.33; stroke-width: 0.5"/>
     </g>
     <g id="text_19">
      <!-- 4 -->
      <g style="fill: #838383" transform="translate(638.033544 206.496406) scale(0.11 -0.11)">
       <use xlink:href="#DejaVuSans-34"/>
      </g>
     </g>
    </g>
    <g id="xtick_11">
     <g id="line2d_16">
      <path d="M 694.236579 188.638125 
L 694.236579 22.318125 
" clip-path="url(#pd3840356b0)" style="fill: none; stroke-dasharray: 1.85,0.8; stroke-dashoffset: 0; stroke: #838383; stroke-opacity: 0.33; stroke-width: 0.5"/>
     </g>
     <g id="text_20">
      <!-- 6 -->
      <g style="fill: #838383" transform="translate(690.737204 206.496406) scale(0.11 -0.11)">
       <use xlink:href="#DejaVuSans-36"/>
      </g>
     </g>
    </g>
    <g id="xtick_12">
     <g id="line2d_17">
      <path d="M 746.940239 188.638125 
L 746.940239 22.318125 
" clip-path="url(#pd3840356b0)" style="fill: none; stroke-dasharray: 1.85,0.8; stroke-dashoffset: 0; stroke: #838383; stroke-opacity: 0.33; stroke-width: 0.5"/>
     </g>
     <g id="text_21">
      <!-- 8 -->
      <g style="fill: #838383" transform="translate(743.440864 206.496406) scale(0.11 -0.11)">
       <use xlink:href="#DejaVuSans-38"/>
      </g>
     </g>
    </g>
    <g id="xtick_13">
     <g id="line2d_18">
      <path d="M 799.643899 188.638125 
L 799.643899 22.318125 
" clip-path="url(#pd3840356b0)" style="fill: none; stroke-dasharray: 1.85,0.8; stroke-dashoffset: 0; stroke: #838383; stroke-opacity: 0.33; stroke-width: 0.5"/>
     </g>
     <g id="text_22">
      <!-- 10 -->
      <g style="fill: #838383" transform="translate(792.645149 206.496406) scale(0.11 -0.11)">
       <use xlink:href="#DejaVuSans-31"/>
       <use xlink:href="#DejaVuSans-30" x="63.623047"/>
      </g>
     </g>
    </g>
    <g id="xtick_14">
     <g id="line2d_19">
      <path d="M 852.347559 188.638125 
L 852.347559 22.318125 
" clip-path="url(#pd3840356b0)" style="fill: none; stroke-dasharray: 1.85,0.8; stroke-dashoffset: 0; stroke: #838383; stroke-opacity: 0.33; stroke-width: 0.5"/>
     </g>
     <g id="text_23">
      <!-- 12 -->
      <g style="fill: #838383" transform="translate(845.348809 206.496406) scale(0.11 -0.11)">
       <use xlink:href="#DejaVuSans-31"/>
       <use xlink:href="#DejaVuSans-32" x="63.623047"/>
      </g>
     </g>
    </g>
    <g id="xtick_15">
     <g id="line2d_20">
      <path d="M 905.051219 188.638125 
L 905.051219 22.318125 
" clip-path="url(#pd3840356b0)" style="fill: none; stroke-dasharray: 1.85,0.8; stroke-dashoffset: 0; stroke: #838383; stroke-opacity: 0.33; stroke-width: 0.5"/>
     </g>
     <g id="text_24">
      <!-- 14 -->
      <g style="fill: #838383" transform="translate(898.052469 206.496406) scale(0.11 -0.11)">
       <use xlink:href="#DejaVuSans-31"/>
       <use xlink:href="#DejaVuSans-34" x="63.623047"/>
      </g>
     </g>
    </g>
    <g id="text_25">
     <!-- # tunneling events / 195 configurations -->
     <g style="fill: #838383" transform="translate(601.014972 221.902188) scale(0.12 -0.12)">
      <use xlink:href="#DejaVuSans-23"/>
      <use xlink:href="#DejaVuSans-20" x="83.789062"/>
      <use xlink:href="#DejaVuSans-74" x="115.576172"/>
      <use xlink:href="#DejaVuSans-75" x="154.785156"/>
      <use xlink:href="#DejaVuSans-6e" x="218.164062"/>
      <use xlink:href="#DejaVuSans-6e" x="281.542969"/>
      <use xlink:href="#DejaVuSans-65" x="344.921875"/>
      <use xlink:href="#DejaVuSans-6c" x="406.445312"/>
      <use xlink:href="#DejaVuSans-69" x="434.228516"/>
      <use xlink:href="#DejaVuSans-6e" x="462.011719"/>
      <use xlink:href="#DejaVuSans-67" x="525.390625"/>
      <use xlink:href="#DejaVuSans-20" x="588.867188"/>
      <use xlink:href="#DejaVuSans-65" x="620.654297"/>
      <use xlink:href="#DejaVuSans-76" x="682.177734"/>
      <use xlink:href="#DejaVuSans-65" x="741.357422"/>
      <use xlink:href="#DejaVuSans-6e" x="802.880859"/>
      <use xlink:href="#DejaVuSans-74" x="866.259766"/>
      <use xlink:href="#DejaVuSans-73" x="905.46875"/>
      <use xlink:href="#DejaVuSans-20" x="957.568359"/>
      <use xlink:href="#DejaVuSans-2f" x="989.355469"/>
      <use xlink:href="#DejaVuSans-20" x="1023.046875"/>
      <use xlink:href="#DejaVuSans-31" x="1054.833984"/>
      <use xlink:href="#DejaVuSans-39" x="1118.457031"/>
      <use xlink:href="#DejaVuSans-35" x="1182.080078"/>
      <use xlink:href="#DejaVuSans-20" x="1245.703125"/>
      <use xlink:href="#DejaVuSans-63" x="1277.490234"/>
      <use xlink:href="#DejaVuSans-6f" x="1332.470703"/>
      <use xlink:href="#DejaVuSans-6e" x="1393.652344"/>
      <use xlink:href="#DejaVuSans-66" x="1457.03125"/>
      <use xlink:href="#DejaVuSans-69" x="1492.236328"/>
      <use xlink:href="#DejaVuSans-67" x="1520.019531"/>
      <use xlink:href="#DejaVuSans-75" x="1583.496094"/>
      <use xlink:href="#DejaVuSans-72" x="1646.875"/>
      <use xlink:href="#DejaVuSans-61" x="1687.988281"/>
      <use xlink:href="#DejaVuSans-74" x="1749.267578"/>
      <use xlink:href="#DejaVuSans-69" x="1788.476562"/>
      <use xlink:href="#DejaVuSans-6f" x="1816.259766"/>
      <use xlink:href="#DejaVuSans-6e" x="1877.441406"/>
      <use xlink:href="#DejaVuSans-73" x="1940.820312"/>
     </g>
    </g>
   </g>
   <g id="matplotlib.axis_4">
    <g id="ytick_6">
     <g id="line2d_21">
      <path d="M 517.679318 188.638125 
L 923.4975 188.638125 
" clip-path="url(#pd3840356b0)" style="fill: none; stroke-dasharray: 1.85,0.8; stroke-dashoffset: 0; stroke: #838383; stroke-opacity: 0.33; stroke-width: 0.5"/>
     </g>
     <g id="text_26">
      <!-- 0 -->
      <g style="fill: #838383" transform="translate(501.180568 192.817266) scale(0.11 -0.11)">
       <use xlink:href="#DejaVuSans-30"/>
      </g>
     </g>
    </g>
    <g id="ytick_7">
     <g id="line2d_22">
      <path d="M 517.679318 150.923839 
L 923.4975 150.923839 
" clip-path="url(#pd3840356b0)" style="fill: none; stroke-dasharray: 1.85,0.8; stroke-dashoffset: 0; stroke: #838383; stroke-opacity: 0.33; stroke-width: 0.5"/>
     </g>
     <g id="text_27">
      <!-- 20 -->
      <g style="fill: #838383" transform="translate(494.181818 155.10298) scale(0.11 -0.11)">
       <use xlink:href="#DejaVuSans-32"/>
       <use xlink:href="#DejaVuSans-30" x="63.623047"/>
      </g>
     </g>
    </g>
    <g id="ytick_8">
     <g id="line2d_23">
      <path d="M 517.679318 113.209554 
L 923.4975 113.209554 
" clip-path="url(#pd3840356b0)" style="fill: none; stroke-dasharray: 1.85,0.8; stroke-dashoffset: 0; stroke: #838383; stroke-opacity: 0.33; stroke-width: 0.5"/>
     </g>
     <g id="text_28">
      <!-- 40 -->
      <g style="fill: #838383" transform="translate(494.181818 117.388694) scale(0.11 -0.11)">
       <use xlink:href="#DejaVuSans-34"/>
       <use xlink:href="#DejaVuSans-30" x="63.623047"/>
      </g>
     </g>
    </g>
    <g id="ytick_9">
     <g id="line2d_24">
      <path d="M 517.679318 75.495268 
L 923.4975 75.495268 
" clip-path="url(#pd3840356b0)" style="fill: none; stroke-dasharray: 1.85,0.8; stroke-dashoffset: 0; stroke: #838383; stroke-opacity: 0.33; stroke-width: 0.5"/>
     </g>
     <g id="text_29">
      <!-- 60 -->
      <g style="fill: #838383" transform="translate(494.181818 79.674408) scale(0.11 -0.11)">
       <use xlink:href="#DejaVuSans-36"/>
       <use xlink:href="#DejaVuSans-30" x="63.623047"/>
      </g>
     </g>
    </g>
    <g id="ytick_10">
     <g id="line2d_25">
      <path d="M 517.679318 37.780982 
L 923.4975 37.780982 
" clip-path="url(#pd3840356b0)" style="fill: none; stroke-dasharray: 1.85,0.8; stroke-dashoffset: 0; stroke: #838383; stroke-opacity: 0.33; stroke-width: 0.5"/>
     </g>
     <g id="text_30">
      <!-- 80 -->
      <g style="fill: #838383" transform="translate(494.181818 41.960123) scale(0.11 -0.11)">
       <use xlink:href="#DejaVuSans-38"/>
       <use xlink:href="#DejaVuSans-30" x="63.623047"/>
      </g>
     </g>
    </g>
   </g>
   <g id="patch_30">
    <path d="M 588.829259 188.638125 
L 623.965032 188.638125 
L 623.965032 145.266696 
L 588.829259 145.266696 
z
" clip-path="url(#pd3840356b0)" style="fill: #2196f3; opacity: 0.4"/>
   </g>
   <g id="patch_31">
    <path d="M 623.965032 188.638125 
L 659.100806 188.638125 
L 659.100806 128.295268 
L 623.965032 128.295268 
z
" clip-path="url(#pd3840356b0)" style="fill: #2196f3; opacity: 0.4"/>
   </g>
   <g id="patch_32">
    <path d="M 659.100806 188.638125 
L 694.236579 188.638125 
L 694.236579 139.609554 
L 659.100806 139.609554 
z
" clip-path="url(#pd3840356b0)" style="fill: #2196f3; opacity: 0.4"/>
   </g>
   <g id="patch_33">
    <path d="M 694.236579 188.638125 
L 729.372352 188.638125 
L 729.372352 92.466696 
L 694.236579 92.466696 
z
" clip-path="url(#pd3840356b0)" style="fill: #2196f3; opacity: 0.4"/>
   </g>
   <g id="patch_34">
    <path d="M 729.372352 188.638125 
L 764.508126 188.638125 
L 764.508126 135.838125 
L 729.372352 135.838125 
z
" clip-path="url(#pd3840356b0)" style="fill: #2196f3; opacity: 0.4"/>
   </g>
   <g id="patch_35">
    <path d="M 764.508126 188.638125 
L 799.643899 188.638125 
L 799.643899 162.238125 
L 764.508126 162.238125 
z
" clip-path="url(#pd3840356b0)" style="fill: #2196f3; opacity: 0.4"/>
   </g>
   <g id="patch_36">
    <path d="M 799.643899 188.638125 
L 834.779672 188.638125 
L 834.779672 154.695268 
L 799.643899 154.695268 
z
" clip-path="url(#pd3840356b0)" style="fill: #2196f3; opacity: 0.4"/>
   </g>
   <g id="patch_37">
    <path d="M 834.779672 188.638125 
L 869.915446 188.638125 
L 869.915446 184.866696 
L 834.779672 184.866696 
z
" clip-path="url(#pd3840356b0)" style="fill: #2196f3; opacity: 0.4"/>
   </g>
   <g id="patch_38">
    <path d="M 869.915446 188.638125 
L 905.051219 188.638125 
L 905.051219 186.752411 
L 869.915446 186.752411 
z
" clip-path="url(#pd3840356b0)" style="fill: #2196f3; opacity: 0.4"/>
   </g>
   <g id="patch_39">
    <path d="M 536.125599 188.638125 
L 544.909543 188.638125 
L 544.909543 30.238125 
L 536.125599 30.238125 
z
" clip-path="url(#pd3840356b0)" style="fill: #ef5350; opacity: 0.4"/>
   </g>
   <g id="patch_40">
    <path d="M 544.909543 188.638125 
L 553.693486 188.638125 
L 553.693486 188.638125 
L 544.909543 188.638125 
z
" clip-path="url(#pd3840356b0)" style="fill: #ef5350; opacity: 0.4"/>
   </g>
   <g id="patch_41">
    <path d="M 553.693486 188.638125 
L 562.477429 188.638125 
L 562.477429 188.638125 
L 553.693486 188.638125 
z
" clip-path="url(#pd3840356b0)" style="fill: #ef5350; opacity: 0.4"/>
   </g>
   <g id="patch_42">
    <path d="M 562.477429 188.638125 
L 571.261372 188.638125 
L 571.261372 56.638125 
L 562.477429 56.638125 
z
" clip-path="url(#pd3840356b0)" style="fill: #ef5350; opacity: 0.4"/>
   </g>
   <g id="patch_43">
    <path d="M 571.261372 188.638125 
L 580.045316 188.638125 
L 580.045316 188.638125 
L 571.261372 188.638125 
z
" clip-path="url(#pd3840356b0)" style="fill: #ef5350; opacity: 0.4"/>
   </g>
   <g id="patch_44">
    <path d="M 580.045316 188.638125 
L 588.829259 188.638125 
L 588.829259 188.638125 
L 580.045316 188.638125 
z
" clip-path="url(#pd3840356b0)" style="fill: #ef5350; opacity: 0.4"/>
   </g>
   <g id="patch_45">
    <path d="M 588.829259 188.638125 
L 597.613202 188.638125 
L 597.613202 139.609554 
L 588.829259 139.609554 
z
" clip-path="url(#pd3840356b0)" style="fill: #ef5350; opacity: 0.4"/>
   </g>
   <g id="patch_46">
    <path d="M 597.613202 188.638125 
L 606.397146 188.638125 
L 606.397146 188.638125 
L 597.613202 188.638125 
z
" clip-path="url(#pd3840356b0)" style="fill: #ef5350; opacity: 0.4"/>
   </g>
   <g id="patch_47">
    <path d="M 606.397146 188.638125 
L 615.181089 188.638125 
L 615.181089 188.638125 
L 606.397146 188.638125 
z
" clip-path="url(#pd3840356b0)" style="fill: #ef5350; opacity: 0.4"/>
   </g>
   <g id="patch_48">
    <path d="M 615.181089 188.638125 
L 623.965032 188.638125 
L 623.965032 167.895268 
L 615.181089 167.895268 
z
" clip-path="url(#pd3840356b0)" style="fill: #ef5350; opacity: 0.4"/>
   </g>
   <g id="patch_49">
    <path d="M 623.965032 188.638125 
L 632.748976 188.638125 
L 632.748976 188.638125 
L 623.965032 188.638125 
z
" clip-path="url(#pd3840356b0)" style="fill: #ef5350; opacity: 0.4"/>
   </g>
   <g id="patch_50">
    <path d="M 632.748976 188.638125 
L 641.532919 188.638125 
L 641.532919 181.095268 
L 632.748976 181.095268 
z
" clip-path="url(#pd3840356b0)" style="fill: #ef5350; opacity: 0.4"/>
   </g>
   <g id="patch_51">
    <path d="M 517.679318 188.638125 
L 517.679318 22.318125 
" style="fill: none"/>
   </g>
   <g id="patch_52">
    <path d="M 923.4975 188.638125 
L 923.4975 22.318125 
" style="fill: none"/>
   </g>
   <g id="patch_53">
    <path d="M 517.679318 188.638125 
L 923.4975 188.638125 
" style="fill: none"/>
   </g>
   <g id="patch_54">
    <path d="M 517.679318 22.318125 
L 923.4975 22.318125 
" style="fill: none"/>
   </g>
   <g id="text_31">
    <!-- TensorFlow -->
    <g style="fill: #838383" transform="translate(687.489972 16.318125) scale(0.12 -0.12)">
     <defs>
      <path id="DejaVuSans-46" d="M 628 4666 
L 3309 4666 
L 3309 4134 
L 1259 4134 
L 1259 2759 
L 3109 2759 
L 3109 2228 
L 1259 2228 
L 1259 0 
L 628 0 
L 628 4666 
z
" transform="scale(0.015625)"/>
      <path id="DejaVuSans-77" d="M 269 3500 
L 844 3500 
L 1563 769 
L 2278 3500 
L 2956 3500 
L 3675 769 
L 4391 3500 
L 4966 3500 
L 4050 0 
L 3372 0 
L 2619 2869 
L 1863 0 
L 1184 0 
L 269 3500 
z
" transform="scale(0.015625)"/>
     </defs>
     <use xlink:href="#DejaVuSans-54"/>
     <use xlink:href="#DejaVuSans-65" x="44.083984"/>
     <use xlink:href="#DejaVuSans-6e" x="105.607422"/>
     <use xlink:href="#DejaVuSans-73" x="168.986328"/>
     <use xlink:href="#DejaVuSans-6f" x="221.085938"/>
     <use xlink:href="#DejaVuSans-72" x="282.267578"/>
     <use xlink:href="#DejaVuSans-46" x="323.380859"/>
     <use xlink:href="#DejaVuSans-6c" x="380.900391"/>
     <use xlink:href="#DejaVuSans-6f" x="408.683594"/>
     <use xlink:href="#DejaVuSans-77" x="469.865234"/>
    </g>
   </g>
   <g id="legend_2">
    <g id="patch_55">
     <path d="M 857.353125 40.576406 
L 879.353125 40.576406 
L 879.353125 32.876406 
L 857.353125 32.876406 
z
" style="fill: #2196f3; opacity: 0.4"/>
    </g>
    <g id="text_32">
     <!-- Eval -->
     <g style="fill: #838383" transform="translate(888.153125 40.576406) scale(0.11 -0.11)">
      <use xlink:href="#DejaVuSans-45"/>
      <use xlink:href="#DejaVuSans-76" x="63.183594"/>
      <use xlink:href="#DejaVuSans-61" x="122.363281"/>
      <use xlink:href="#DejaVuSans-6c" x="183.642578"/>
     </g>
    </g>
    <g id="patch_56">
     <path d="M 857.353125 56.722344 
L 879.353125 56.722344 
L 879.353125 49.022344 
L 857.353125 49.022344 
z
" style="fill: #ef5350; opacity: 0.4"/>
    </g>
    <g id="text_33">
     <!-- HMC -->
     <g style="fill: #838383" transform="translate(888.153125 56.722344) scale(0.11 -0.11)">
      <use xlink:href="#DejaVuSans-48"/>
      <use xlink:href="#DejaVuSans-4d" x="75.195312"/>
      <use xlink:href="#DejaVuSans-43" x="161.474609"/>
     </g>
    </g>
   </g>
  </g>
 </g>
 <defs>
  <clipPath id="p38d47f19ab">
   <rect x="30.6975" y="22.318125" width="405.818182" height="166.32"/>
  </clipPath>
  <clipPath id="pd3840356b0">
   <rect x="517.679318" y="22.318125" width="405.818182" height="166.32"/>
  </clipPath>
 </defs>
</svg>
