<?xml version="1.0" encoding="utf-8" standalone="no"?>
<!DOCTYPE svg PUBLIC "-//W3C//DTD SVG 1.1//EN"
  "http://www.w3.org/Graphics/SVG/1.1/DTD/svg11.dtd">
<svg xmlns:xlink="http://www.w3.org/1999/xlink" width="656.39952pt" height="224.39952pt" viewBox="0 0 656.39952 224.39952" xmlns="http://www.w3.org/2000/svg" version="1.1">
 <metadata>
  <rdf:RDF xmlns:dc="http://purl.org/dc/elements/1.1/" xmlns:cc="http://creativecommons.org/ns#" xmlns:rdf="http://www.w3.org/1999/02/22-rdf-syntax-ns#">
   <cc:Work>
    <dc:type rdf:resource="http://purl.org/dc/dcmitype/StillImage"/>
    <dc:date>2023-11-23T14:19:50.357551</dc:date>
    <dc:format>image/svg+xml</dc:format>
    <dc:creator>
     <cc:Agent>
      <dc:title>Matplotlib v3.8.2, https://matplotlib.org/</dc:title>
     </cc:Agent>
    </dc:creator>
   </cc:Work>
  </rdf:RDF>
 </metadata>
 <defs>
  <style type="text/css">*{stroke-linejoin: round; stroke-linecap: butt}</style>
 </defs>
 <g id="figure_1">
  <g id="patch_1">
   <path d="M 0 224.39952 
L 656.39952 224.39952 
L 656.39952 0 
L 0 0 
L 0 224.39952 
z
" style="fill: none"/>
  </g>
  <g id="axes_1">
   <g id="patch_2">
    <path d="M 49.18 178.07952 
L 597.627176 178.07952 
L 597.627176 7.2 
L 49.18 7.2 
L 49.18 178.07952 
z
" style="fill: none"/>
   </g>
   <g id="matplotlib.axis_1">
    <g id="xtick_1">
     <g id="line2d_1">
      <defs>
       <path id="m0182ff948d" d="M 0 0 
L 0 6 
" style="stroke: #000000; stroke-opacity: 0; stroke-width: 1.25"/>
      </defs>
      <g>
       <use xlink:href="#m0182ff948d" x="74.109417" y="178.07952" style="fill-opacity: 0; stroke: #000000; stroke-opacity: 0; stroke-width: 1.25"/>
      </g>
     </g>
     <g id="text_1">
      <!-- 0 -->
      <g style="fill: #838383" transform="translate(70.809417 195.71952) scale(0.11 -0.11)">
       <defs>
        <path id="IBMPlexSans-Regular-30" d="M 1920 -77 
Q 1120 -77 752 531 
Q 384 1139 384 2234 
Q 384 3328 752 3936 
Q 1120 4544 1920 4544 
Q 2720 4544 3088 3936 
Q 3456 3328 3456 2234 
Q 3456 1139 3088 531 
Q 2720 -77 1920 -77 
z
M 1920 390 
Q 2182 390 2368 499 
Q 2554 608 2669 806 
Q 2784 1005 2838 1273 
Q 2893 1542 2893 1869 
L 2893 2598 
Q 2893 2925 2838 3193 
Q 2784 3462 2669 3660 
Q 2554 3859 2368 3968 
Q 2182 4077 1920 4077 
Q 1658 4077 1472 3968 
Q 1286 3859 1171 3660 
Q 1056 3462 1001 3193 
Q 947 2925 947 2598 
L 947 1869 
Q 947 1542 1001 1273 
Q 1056 1005 1171 806 
Q 1286 608 1472 499 
Q 1658 390 1920 390 
z
" transform="scale(0.015625)"/>
       </defs>
       <use xlink:href="#IBMPlexSans-Regular-30"/>
      </g>
     </g>
    </g>
    <g id="xtick_2">
     <g id="line2d_2">
      <g>
       <use xlink:href="#m0182ff948d" x="174.026921" y="178.07952" style="fill-opacity: 0; stroke: #000000; stroke-opacity: 0; stroke-width: 1.25"/>
      </g>
     </g>
     <g id="text_2">
      <!-- 2000 -->
      <g style="fill: #838383" transform="translate(160.826921 195.71952) scale(0.11 -0.11)">
       <defs>
        <path id="IBMPlexSans-Regular-32" d="M 3411 0 
L 480 0 
L 480 550 
L 1939 1894 
Q 2253 2182 2464 2505 
Q 2675 2829 2675 3155 
L 2675 3232 
Q 2675 3603 2470 3833 
Q 2266 4064 1850 4064 
Q 1645 4064 1491 4006 
Q 1338 3949 1226 3846 
Q 1114 3744 1040 3606 
Q 966 3469 922 3309 
L 442 3494 
Q 506 3693 618 3881 
Q 730 4070 899 4217 
Q 1069 4365 1309 4454 
Q 1549 4544 1875 4544 
Q 2202 4544 2458 4448 
Q 2714 4352 2886 4179 
Q 3059 4006 3152 3769 
Q 3245 3533 3245 3245 
Q 3245 2982 3171 2758 
Q 3098 2534 2970 2332 
Q 2842 2131 2659 1939 
Q 2477 1747 2266 1555 
L 1062 474 
L 3411 474 
L 3411 0 
z
" transform="scale(0.015625)"/>
       </defs>
       <use xlink:href="#IBMPlexSans-Regular-32"/>
       <use xlink:href="#IBMPlexSans-Regular-30" x="59.999985"/>
       <use xlink:href="#IBMPlexSans-Regular-30" x="119.999969"/>
       <use xlink:href="#IBMPlexSans-Regular-30" x="179.999954"/>
      </g>
     </g>
    </g>
    <g id="xtick_3">
     <g id="line2d_3">
      <g>
       <use xlink:href="#m0182ff948d" x="273.944424" y="178.07952" style="fill-opacity: 0; stroke: #000000; stroke-opacity: 0; stroke-width: 1.25"/>
      </g>
     </g>
     <g id="text_3">
      <!-- 4000 -->
      <g style="fill: #838383" transform="translate(260.744424 195.71952) scale(0.11 -0.11)">
       <defs>
        <path id="IBMPlexSans-Regular-34" d="M 2400 0 
L 2400 877 
L 243 877 
L 243 1350 
L 2112 4467 
L 2912 4467 
L 2912 1325 
L 3558 1325 
L 3558 877 
L 2912 877 
L 2912 0 
L 2400 0 
z
M 749 1325 
L 2400 1325 
L 2400 4051 
L 2368 4051 
L 749 1325 
z
" transform="scale(0.015625)"/>
       </defs>
       <use xlink:href="#IBMPlexSans-Regular-34"/>
       <use xlink:href="#IBMPlexSans-Regular-30" x="59.999985"/>
       <use xlink:href="#IBMPlexSans-Regular-30" x="119.999969"/>
       <use xlink:href="#IBMPlexSans-Regular-30" x="179.999954"/>
      </g>
     </g>
    </g>
    <g id="xtick_4">
     <g id="line2d_4">
      <g>
       <use xlink:href="#m0182ff948d" x="373.861927" y="178.07952" style="fill-opacity: 0; stroke: #000000; stroke-opacity: 0; stroke-width: 1.25"/>
      </g>
     </g>
     <g id="text_4">
      <!-- 6000 -->
      <g style="fill: #838383" transform="translate(360.661927 195.71952) scale(0.11 -0.11)">
       <defs>
        <path id="IBMPlexSans-Regular-36" d="M 1926 -77 
Q 1581 -77 1302 41 
Q 1024 160 829 381 
Q 634 602 531 922 
Q 429 1242 429 1638 
Q 429 2138 576 2576 
Q 723 3014 956 3376 
Q 1190 3738 1472 4016 
Q 1754 4294 2022 4467 
L 2714 4467 
Q 2355 4205 2073 3955 
Q 1792 3706 1581 3434 
Q 1370 3162 1222 2851 
Q 1075 2541 986 2150 
L 1018 2138 
Q 1178 2413 1430 2595 
Q 1683 2778 2093 2778 
Q 2381 2778 2624 2682 
Q 2867 2586 3040 2406 
Q 3213 2227 3312 1971 
Q 3411 1715 3411 1402 
Q 3411 1075 3305 803 
Q 3200 531 3005 336 
Q 2810 141 2534 32 
Q 2259 -77 1926 -77 
z
M 1920 390 
Q 2362 390 2608 633 
Q 2854 877 2854 1331 
L 2854 1382 
Q 2854 1837 2608 2080 
Q 2362 2323 1920 2323 
Q 1478 2323 1232 2080 
Q 986 1837 986 1382 
L 986 1331 
Q 986 877 1232 633 
Q 1478 390 1920 390 
z
" transform="scale(0.015625)"/>
       </defs>
       <use xlink:href="#IBMPlexSans-Regular-36"/>
       <use xlink:href="#IBMPlexSans-Regular-30" x="59.999985"/>
       <use xlink:href="#IBMPlexSans-Regular-30" x="119.999969"/>
       <use xlink:href="#IBMPlexSans-Regular-30" x="179.999954"/>
      </g>
     </g>
    </g>
    <g id="xtick_5">
     <g id="line2d_5">
      <g>
       <use xlink:href="#m0182ff948d" x="473.779431" y="178.07952" style="fill-opacity: 0; stroke: #000000; stroke-opacity: 0; stroke-width: 1.25"/>
      </g>
     </g>
     <g id="text_5">
      <!-- 8000 -->
      <g style="fill: #838383" transform="translate(460.579431 195.71952) scale(0.11 -0.11)">
       <defs>
        <path id="IBMPlexSans-Regular-38" d="M 1920 -77 
Q 1536 -77 1248 22 
Q 960 122 765 294 
Q 570 467 470 704 
Q 371 941 371 1216 
Q 371 1677 620 1945 
Q 870 2214 1274 2323 
L 1274 2374 
Q 922 2496 714 2768 
Q 506 3040 506 3424 
Q 506 3936 877 4240 
Q 1248 4544 1920 4544 
Q 2592 4544 2963 4240 
Q 3334 3936 3334 3424 
Q 3334 3040 3126 2768 
Q 2918 2496 2566 2374 
L 2566 2323 
Q 2970 2214 3219 1945 
Q 3469 1677 3469 1216 
Q 3469 941 3369 704 
Q 3270 467 3075 294 
Q 2880 122 2592 22 
Q 2304 -77 1920 -77 
z
M 1920 390 
Q 2387 390 2643 598 
Q 2899 806 2899 1190 
L 2899 1325 
Q 2899 1709 2643 1917 
Q 2387 2125 1920 2125 
Q 1453 2125 1197 1917 
Q 941 1709 941 1325 
L 941 1190 
Q 941 806 1197 598 
Q 1453 390 1920 390 
z
M 1920 2573 
Q 2342 2573 2560 2752 
Q 2778 2931 2778 3277 
L 2778 3373 
Q 2778 3718 2560 3897 
Q 2342 4077 1920 4077 
Q 1498 4077 1280 3897 
Q 1062 3718 1062 3373 
L 1062 3277 
Q 1062 2931 1280 2752 
Q 1498 2573 1920 2573 
z
" transform="scale(0.015625)"/>
       </defs>
       <use xlink:href="#IBMPlexSans-Regular-38"/>
       <use xlink:href="#IBMPlexSans-Regular-30" x="59.999985"/>
       <use xlink:href="#IBMPlexSans-Regular-30" x="119.999969"/>
       <use xlink:href="#IBMPlexSans-Regular-30" x="179.999954"/>
      </g>
     </g>
    </g>
    <g id="xtick_6">
     <g id="line2d_6">
      <g>
       <use xlink:href="#m0182ff948d" x="573.696934" y="178.07952" style="fill-opacity: 0; stroke: #000000; stroke-opacity: 0; stroke-width: 1.25"/>
      </g>
     </g>
     <g id="text_6">
      <!-- 10000 -->
      <g style="fill: #838383" transform="translate(557.196934 195.71952) scale(0.11 -0.11)">
       <defs>
        <path id="IBMPlexSans-Regular-31" d="M 563 0 
L 563 474 
L 1811 474 
L 1811 4070 
L 1766 4070 
L 640 3021 
L 326 3360 
L 1510 4467 
L 2349 4467 
L 2349 474 
L 3501 474 
L 3501 0 
L 563 0 
z
" transform="scale(0.015625)"/>
       </defs>
       <use xlink:href="#IBMPlexSans-Regular-31"/>
       <use xlink:href="#IBMPlexSans-Regular-30" x="59.999985"/>
       <use xlink:href="#IBMPlexSans-Regular-30" x="119.999969"/>
       <use xlink:href="#IBMPlexSans-Regular-30" x="179.999954"/>
       <use xlink:href="#IBMPlexSans-Regular-30" x="239.999939"/>
      </g>
     </g>
    </g>
    <g id="text_7">
     <!-- Step -->
     <g style="fill: #838383" transform="translate(571.502801 214.79952) scale(0.12 -0.12)">
      <defs>
       <path id="IBMPlexSans-Bold-53" d="M 1939 -77 
Q 1350 -77 940 124 
Q 531 326 243 646 
L 883 1293 
Q 1338 781 2003 781 
Q 2362 781 2534 928 
Q 2707 1075 2707 1318 
Q 2707 1504 2604 1629 
Q 2502 1754 2189 1798 
L 1747 1856 
Q 1037 1946 707 2285 
Q 378 2624 378 3187 
Q 378 3488 493 3737 
Q 608 3987 822 4166 
Q 1037 4346 1347 4445 
Q 1658 4544 2054 4544 
Q 2560 4544 2944 4384 
Q 3328 4224 3603 3917 
L 2957 3264 
Q 2797 3450 2569 3568 
Q 2342 3686 1997 3686 
Q 1670 3686 1510 3571 
Q 1350 3456 1350 3251 
Q 1350 3021 1475 2918 
Q 1600 2816 1882 2771 
L 2323 2701 
Q 3014 2592 3347 2275 
Q 3680 1958 3680 1376 
Q 3680 1056 3565 787 
Q 3450 518 3229 326 
Q 3008 134 2681 28 
Q 2355 -77 1939 -77 
z
" transform="scale(0.015625)"/>
       <path id="IBMPlexSans-Bold-74" d="M 1619 0 
Q 1126 0 873 249 
Q 621 499 621 979 
L 621 2624 
L 147 2624 
L 147 3360 
L 384 3360 
Q 576 3360 646 3453 
Q 717 3546 717 3718 
L 717 4269 
L 1568 4269 
L 1568 3360 
L 2234 3360 
L 2234 2624 
L 1568 2624 
L 1568 736 
L 2182 736 
L 2182 0 
L 1619 0 
z
" transform="scale(0.015625)"/>
       <path id="IBMPlexSans-Bold-65" d="M 1843 -77 
Q 1459 -77 1158 48 
Q 858 173 650 400 
Q 442 627 336 953 
Q 230 1280 230 1683 
Q 230 2080 332 2403 
Q 435 2726 636 2956 
Q 838 3187 1132 3312 
Q 1427 3437 1805 3437 
Q 2221 3437 2518 3296 
Q 2816 3155 3005 2918 
Q 3194 2682 3280 2371 
Q 3366 2061 3366 1722 
L 3366 1440 
L 1210 1440 
L 1210 1389 
Q 1210 1056 1389 861 
Q 1568 666 1952 666 
Q 2246 666 2432 784 
Q 2618 902 2778 1069 
L 3251 480 
Q 3027 218 2665 70 
Q 2304 -77 1843 -77 
z
M 1824 2739 
Q 1536 2739 1373 2550 
Q 1210 2362 1210 2048 
L 1210 1997 
L 2387 1997 
L 2387 2054 
Q 2387 2362 2249 2550 
Q 2112 2739 1824 2739 
z
" transform="scale(0.015625)"/>
       <path id="IBMPlexSans-Bold-70" d="M 442 3360 
L 1389 3360 
L 1389 2797 
L 1421 2797 
Q 1491 3078 1744 3257 
Q 1997 3437 2323 3437 
Q 2963 3437 3289 2989 
Q 3616 2541 3616 1683 
Q 3616 826 3289 374 
Q 2963 -77 2323 -77 
Q 2157 -77 2009 -29 
Q 1862 19 1744 105 
Q 1626 192 1542 310 
Q 1459 429 1421 563 
L 1389 563 
L 1389 -1280 
L 442 -1280 
L 442 3360 
z
M 2010 691 
Q 2278 691 2454 880 
Q 2630 1069 2630 1389 
L 2630 1971 
Q 2630 2291 2454 2480 
Q 2278 2669 2010 2669 
Q 1741 2669 1565 2537 
Q 1389 2406 1389 2176 
L 1389 1184 
Q 1389 954 1565 822 
Q 1741 691 2010 691 
z
" transform="scale(0.015625)"/>
      </defs>
      <use xlink:href="#IBMPlexSans-Bold-53"/>
      <use xlink:href="#IBMPlexSans-Bold-74" x="62.399994"/>
      <use xlink:href="#IBMPlexSans-Bold-65" x="100.699982"/>
      <use xlink:href="#IBMPlexSans-Bold-70" x="156.899979"/>
     </g>
    </g>
   </g>
   <g id="matplotlib.axis_2">
    <g id="ytick_1">
     <g id="line2d_7">
      <defs>
       <path id="m7fd20b8dc7" d="M 0 0 
L -6 0 
" style="stroke: #000000; stroke-opacity: 0; stroke-width: 1.25"/>
      </defs>
      <g>
       <use xlink:href="#m7fd20b8dc7" x="49.18" y="153.054763" style="fill-opacity: 0; stroke: #000000; stroke-opacity: 0; stroke-width: 1.25"/>
      </g>
     </g>
     <g id="text_8">
      <!-- 0 -->
      <g style="fill: #2196f3" transform="translate(33.08 157.124763) scale(0.11 -0.11)">
       <use xlink:href="#IBMPlexSans-Regular-30"/>
      </g>
     </g>
    </g>
    <g id="ytick_2">
     <g id="line2d_8">
      <g>
       <use xlink:href="#m7fd20b8dc7" x="49.18" y="120.608462" style="fill-opacity: 0; stroke: #000000; stroke-opacity: 0; stroke-width: 1.25"/>
      </g>
     </g>
     <g id="text_9">
      <!-- 20 -->
      <g style="fill: #2196f3" transform="translate(26.48 124.678462) scale(0.11 -0.11)">
       <use xlink:href="#IBMPlexSans-Regular-32"/>
       <use xlink:href="#IBMPlexSans-Regular-30" x="59.999985"/>
      </g>
     </g>
    </g>
    <g id="ytick_3">
     <g id="line2d_9">
      <g>
       <use xlink:href="#m7fd20b8dc7" x="49.18" y="88.162162" style="fill-opacity: 0; stroke: #000000; stroke-opacity: 0; stroke-width: 1.25"/>
      </g>
     </g>
     <g id="text_10">
      <!-- 40 -->
      <g style="fill: #2196f3" transform="translate(26.48 92.232162) scale(0.11 -0.11)">
       <use xlink:href="#IBMPlexSans-Regular-34"/>
       <use xlink:href="#IBMPlexSans-Regular-30" x="59.999985"/>
      </g>
     </g>
    </g>
    <g id="ytick_4">
     <g id="line2d_10">
      <g>
       <use xlink:href="#m7fd20b8dc7" x="49.18" y="55.715861" style="fill-opacity: 0; stroke: #000000; stroke-opacity: 0; stroke-width: 1.25"/>
      </g>
     </g>
     <g id="text_11">
      <!-- 60 -->
      <g style="fill: #2196f3" transform="translate(26.48 59.785861) scale(0.11 -0.11)">
       <use xlink:href="#IBMPlexSans-Regular-36"/>
       <use xlink:href="#IBMPlexSans-Regular-30" x="59.999985"/>
      </g>
     </g>
    </g>
    <g id="ytick_5">
     <g id="line2d_11">
      <g>
       <use xlink:href="#m7fd20b8dc7" x="49.18" y="23.26956" style="fill-opacity: 0; stroke: #000000; stroke-opacity: 0; stroke-width: 1.25"/>
      </g>
     </g>
     <g id="text_12">
      <!-- 80 -->
      <g style="fill: #2196f3" transform="translate(26.48 27.33956) scale(0.11 -0.11)">
       <use xlink:href="#IBMPlexSans-Regular-38"/>
       <use xlink:href="#IBMPlexSans-Regular-30" x="59.999985"/>
      </g>
     </g>
    </g>
    <g id="text_13">
     <!-- loss -->
     <g style="fill: #2196f3" transform="translate(16.08 29.701875) rotate(-90) scale(0.12 -0.12)">
      <defs>
       <path id="IBMPlexSans-Bold-6c" d="M 1382 0 
Q 896 0 669 237 
Q 442 474 442 922 
L 442 4736 
L 1389 4736 
L 1389 736 
L 1811 736 
L 1811 0 
L 1382 0 
z
" transform="scale(0.015625)"/>
       <path id="IBMPlexSans-Bold-6f" d="M 1805 -77 
Q 1434 -77 1142 44 
Q 851 166 649 396 
Q 448 627 339 953 
Q 230 1280 230 1683 
Q 230 2086 339 2412 
Q 448 2739 649 2966 
Q 851 3194 1142 3315 
Q 1434 3437 1805 3437 
Q 2176 3437 2467 3315 
Q 2758 3194 2960 2966 
Q 3162 2739 3270 2412 
Q 3379 2086 3379 1683 
Q 3379 1280 3270 953 
Q 3162 627 2960 396 
Q 2758 166 2467 44 
Q 2176 -77 1805 -77 
z
M 1805 672 
Q 2086 672 2240 845 
Q 2394 1018 2394 1338 
L 2394 2022 
Q 2394 2342 2240 2515 
Q 2086 2688 1805 2688 
Q 1523 2688 1369 2515 
Q 1216 2342 1216 2022 
L 1216 1338 
Q 1216 1018 1369 845 
Q 1523 672 1805 672 
z
" transform="scale(0.015625)"/>
       <path id="IBMPlexSans-Bold-73" d="M 1581 -77 
Q 1094 -77 761 80 
Q 429 237 166 525 
L 723 1088 
Q 902 890 1120 774 
Q 1338 659 1613 659 
Q 1894 659 2003 745 
Q 2112 832 2112 979 
Q 2112 1216 1773 1261 
L 1408 1306 
Q 275 1446 275 2342 
Q 275 2586 368 2787 
Q 461 2989 630 3133 
Q 800 3277 1040 3357 
Q 1280 3437 1581 3437 
Q 1843 3437 2044 3401 
Q 2246 3366 2403 3299 
Q 2560 3232 2691 3133 
Q 2822 3034 2950 2912 
L 2406 2355 
Q 2246 2515 2044 2608 
Q 1843 2701 1632 2701 
Q 1389 2701 1286 2624 
Q 1184 2547 1184 2419 
Q 1184 2285 1257 2211 
Q 1331 2138 1536 2106 
L 1914 2054 
Q 3021 1907 3021 1043 
Q 3021 800 2918 595 
Q 2816 390 2627 240 
Q 2438 90 2172 6 
Q 1907 -77 1581 -77 
z
" transform="scale(0.015625)"/>
      </defs>
      <use xlink:href="#IBMPlexSans-Bold-6c"/>
      <use xlink:href="#IBMPlexSans-Bold-6f" x="30.299988"/>
      <use xlink:href="#IBMPlexSans-Bold-73" x="86.699982"/>
      <use xlink:href="#IBMPlexSans-Bold-73" x="137.099976"/>
     </g>
    </g>
   </g>
   <g id="line2d_12">
    <path d="M 74.109417 14.967251 
L 76.107767 129.165921 
L 77.106942 128.130613 
L 78.106117 128.797242 
L 79.105292 131.44482 
L 80.104467 130.124585 
L 81.103642 133.609749 
L 83.101992 133.292651 
L 84.101167 133.076027 
L 87.098693 136.439736 
L 89.097043 138.593828 
L 90.096218 140.289037 
L 91.095393 139.658776 
L 96.091268 144.549707 
L 97.090443 143.348948 
L 98.089618 145.066531 
L 99.088793 144.310489 
L 101.087143 145.556834 
L 104.084668 146.462714 
L 106.083018 149.360547 
L 107.082193 147.678484 
L 110.079718 149.77974 
L 112.078068 150.164342 
L 114.076418 151.51114 
L 117.073944 150.497989 
L 119.072294 153.72479 
L 121.070644 152.514499 
L 123.068994 154.428821 
L 124.068169 153.707624 
L 125.067344 155.272664 
L 126.066519 153.152237 
L 128.064869 153.816089 
L 136.058269 157.736786 
L 138.056619 155.700629 
L 139.055794 157.094321 
L 140.054969 155.063035 
L 142.053319 157.672501 
L 143.052494 156.588805 
L 144.051669 158.87937 
L 146.05002 156.936775 
L 147.049195 159.016429 
L 150.04672 158.634881 
L 152.04507 160.792085 
L 155.042595 159.472374 
L 159.039295 161.095225 
L 160.03847 159.290166 
L 161.037645 161.615068 
L 162.03682 160.187076 
L 163.035995 160.977544 
L 164.03517 159.398451 
L 166.03352 161.888749 
L 167.032695 159.969065 
L 169.031045 162.149208 
L 173.027745 160.708633 
L 174.026921 163.065019 
L 178.023621 160.547165 
L 184.018671 163.621788 
L 185.017846 161.616308 
L 186.017021 163.767372 
L 187.016196 162.494595 
L 188.015371 163.539444 
L 189.014546 161.039468 
L 192.012071 162.61312 
L 203.002997 163.170775 
L 204.002172 162.308688 
L 206.000522 163.39286 
L 208.998047 163.956009 
L 210.996397 163.306262 
L 211.995572 163.241305 
L 212.994747 166.548943 
L 213.993922 164.331466 
L 215.992272 165.450219 
L 217.990622 163.201544 
L 220.988147 164.364971 
L 222.986497 162.450707 
L 224.984847 165.994095 
L 226.983197 165.120331 
L 229.980722 164.725269 
L 230.979897 162.852294 
L 234.976598 165.506726 
L 235.975773 163.766886 
L 237.974123 167.294123 
L 238.973298 164.06378 
L 240.971648 164.772398 
L 241.970823 165.55836 
L 243.969173 165.190415 
L 244.968348 166.394016 
L 246.966698 163.595474 
L 247.965873 164.968758 
L 248.965048 163.994355 
L 252.961748 165.82496 
L 254.960098 164.465845 
L 255.959273 166.523753 
L 256.958448 163.779585 
L 257.957623 165.780099 
L 260.955148 164.750627 
L 261.954324 165.441235 
L 262.953499 164.504388 
L 266.950199 166.046249 
L 267.949374 164.758574 
L 269.947724 165.413056 
L 273.944424 165.389513 
L 274.943599 166.234396 
L 275.942774 164.186607 
L 276.941949 165.683061 
L 278.940299 165.232839 
L 280.938649 163.991752 
L 282.936999 167.109275 
L 283.936174 165.657176 
L 284.935349 166.253776 
L 286.933699 165.572507 
L 288.932049 163.816302 
L 289.931224 165.477018 
L 290.9304 164.703036 
L 294.9271 165.99385 
L 295.926275 165.280349 
L 297.924625 166.216029 
L 299.922975 165.603935 
L 301.921325 166.257108 
L 302.9205 165.463837 
L 303.919675 166.464794 
L 304.91885 164.926497 
L 306.9172 166.261018 
L 307.916375 164.528322 
L 311.913075 166.86581 
L 312.91225 163.751215 
L 314.9106 168.183047 
L 316.90895 164.046208 
L 317.908125 165.561625 
L 320.905651 164.812113 
L 322.904001 167.353372 
L 323.903176 166.112938 
L 324.902351 166.857323 
L 325.901526 165.16442 
L 327.899876 166.91713 
L 330.897401 164.910191 
L 332.895751 166.671314 
L 333.894926 166.822273 
L 334.894101 164.77678 
L 335.893276 165.010737 
L 336.892451 167.686164 
L 339.889976 164.478744 
L 341.888326 167.26721 
L 342.887501 167.117026 
L 344.885851 163.480743 
L 345.885026 167.148531 
L 347.883376 164.677864 
L 348.882551 167.299956 
L 349.881727 165.806071 
L 352.879252 168.112011 
L 353.878427 164.655393 
L 354.877602 167.017683 
L 359.873477 165.051934 
L 361.871827 167.923978 
L 364.869352 167.632688 
L 366.867702 167.173576 
L 367.866877 165.318236 
L 368.866052 165.932688 
L 370.864402 165.311288 
L 371.863577 166.137887 
L 372.862752 165.529254 
L 374.861102 166.808069 
L 375.860277 166.554188 
L 376.859452 164.597929 
L 377.858627 165.874014 
L 378.857803 164.96307 
L 379.856978 167.448316 
L 380.856153 166.99002 
L 381.855328 165.352415 
L 382.854503 167.757515 
L 383.853678 165.833793 
L 386.851203 166.819787 
L 390.847903 164.814285 
L 391.847078 164.514583 
L 392.846253 166.221618 
L 393.845428 164.867647 
L 395.843778 165.477365 
L 396.842953 168.444632 
L 397.842128 163.23852 
L 399.840478 167.179273 
L 401.838828 166.850583 
L 402.838003 167.4991 
L 405.835528 166.304431 
L 409.832229 165.826982 
L 411.830579 168.384042 
L 412.829754 165.284195 
L 413.828929 166.814295 
L 415.827279 165.475931 
L 416.826454 167.880286 
L 419.823979 165.544994 
L 421.822329 168.565706 
L 423.820679 166.452203 
L 424.819854 166.496936 
L 425.819029 165.22974 
L 426.818204 167.759538 
L 427.817379 166.067881 
L 428.816554 167.959238 
L 431.814079 165.407791 
L 433.812429 166.14326 
L 435.810779 164.669528 
L 438.808305 165.387835 
L 439.80748 167.418761 
L 440.806655 166.324524 
L 441.80583 169.679931 
L 443.80418 166.766559 
L 444.803355 168.505571 
L 446.801705 164.525209 
L 447.80088 168.324954 
L 449.79923 165.369348 
L 452.796755 165.280058 
L 453.79593 167.750204 
L 454.795105 165.897452 
L 458.791805 168.066852 
L 460.790155 164.04979 
L 461.78933 168.329337 
L 462.788505 166.409609 
L 463.78768 167.585996 
L 464.786855 165.672047 
L 465.78603 166.012882 
L 466.785206 164.672808 
L 469.782731 168.554294 
L 471.781081 165.536462 
L 472.780256 168.229536 
L 474.778606 166.135229 
L 475.777781 168.032255 
L 477.776131 165.992821 
L 478.775306 165.587476 
L 479.774481 166.934777 
L 480.773656 165.865457 
L 483.771181 168.457326 
L 485.769531 166.871402 
L 486.768706 167.598877 
L 488.767056 164.831576 
L 490.765406 168.681533 
L 491.764581 167.285827 
L 493.762931 169.635097 
L 494.762106 166.64694 
L 495.761282 167.964597 
L 496.760457 166.099572 
L 497.759632 167.847083 
L 498.758807 165.580403 
L 500.757157 167.880596 
L 502.755507 166.067853 
L 503.754682 166.432274 
L 504.753857 170.141334 
L 506.752207 168.220846 
L 509.749732 166.457291 
L 510.748907 168.2086 
L 512.747257 166.382555 
L 513.746432 169.588802 
L 515.744782 166.973941 
L 516.743957 166.202659 
L 518.742307 167.733859 
L 519.741482 168.383916 
L 520.740657 166.352292 
L 522.739007 168.118554 
L 525.736533 167.502137 
L 526.735708 166.088901 
L 527.734883 168.447638 
L 528.734058 167.160003 
L 530.732408 169.318666 
L 533.729933 166.494631 
L 534.729108 168.094545 
L 536.727458 167.57775 
L 537.726633 169.054573 
L 539.724983 166.352135 
L 540.724158 169.580991 
L 541.723333 167.656561 
L 543.721683 168.366591 
L 545.720033 167.271191 
L 547.718383 167.160334 
L 548.717558 165.759281 
L 549.716733 167.939097 
L 550.715908 167.137117 
L 551.715083 168.39388 
L 553.713433 167.826038 
L 554.712609 168.148747 
L 556.710959 166.699763 
L 559.708484 168.523119 
L 560.707659 170.115023 
L 561.706834 167.601005 
L 562.706009 168.365912 
L 563.705184 167.001509 
L 564.704359 168.53936 
L 566.702709 166.350676 
L 567.701884 167.305619 
L 568.701059 170.312269 
L 570.699409 167.949899 
L 571.698584 167.734436 
L 572.697759 168.693002 
L 572.697759 168.693002 
" clip-path="url(#pdc16538b0c)" style="fill: none; stroke: #2196f3; stroke-opacity: 0.9; stroke-width: 1.5; stroke-linecap: round"/>
   </g>
   <g id="patch_3">
    <path d="M 49.18 178.07952 
L 49.18 7.2 
" style="fill: none"/>
   </g>
   <g id="patch_4">
    <path d="M 597.627176 178.07952 
L 597.627176 7.2 
" style="fill: none"/>
   </g>
   <g id="patch_5">
    <path d="M 49.18 178.07952 
L 597.627176 178.07952 
" style="fill: none"/>
   </g>
   <g id="patch_6">
    <path d="M 49.18 7.2 
L 597.627176 7.2 
" style="fill: none"/>
   </g>
  </g>
  <g id="axes_2">
   <g id="matplotlib.axis_3">
    <g id="ytick_6">
     <g id="line2d_13">
      <defs>
       <path id="m1e514a76a2" d="M 0 0 
L 6 0 
" style="stroke: #000000; stroke-opacity: 0; stroke-width: 1.25"/>
      </defs>
      <g>
       <use xlink:href="#m1e514a76a2" x="597.627176" y="172.739539" style="fill-opacity: 0; stroke: #000000; stroke-opacity: 0; stroke-width: 1.25"/>
      </g>
     </g>
     <g id="text_14">
      <!-- 0.00 -->
      <g style="fill: #ef5350" transform="translate(607.127176 176.809539) scale(0.11 -0.11)">
       <defs>
        <path id="IBMPlexSans-Regular-2e" d="M 870 -77 
Q 666 -77 573 25 
Q 480 128 480 294 
L 480 378 
Q 480 544 573 646 
Q 666 749 870 749 
Q 1075 749 1168 646 
Q 1261 544 1261 378 
L 1261 294 
Q 1261 128 1168 25 
Q 1075 -77 870 -77 
z
" transform="scale(0.015625)"/>
       </defs>
       <use xlink:href="#IBMPlexSans-Regular-30"/>
       <use xlink:href="#IBMPlexSans-Regular-2e" x="59.999985"/>
       <use xlink:href="#IBMPlexSans-Regular-30" x="87.199982"/>
       <use xlink:href="#IBMPlexSans-Regular-30" x="147.199966"/>
      </g>
     </g>
    </g>
    <g id="ytick_7">
     <g id="line2d_14">
      <g>
       <use xlink:href="#m1e514a76a2" x="597.627176" y="147.884391" style="fill-opacity: 0; stroke: #000000; stroke-opacity: 0; stroke-width: 1.25"/>
      </g>
     </g>
     <g id="text_15">
      <!-- 0.02 -->
      <g style="fill: #ef5350" transform="translate(607.127176 151.954391) scale(0.11 -0.11)">
       <use xlink:href="#IBMPlexSans-Regular-30"/>
       <use xlink:href="#IBMPlexSans-Regular-2e" x="59.999985"/>
       <use xlink:href="#IBMPlexSans-Regular-30" x="87.199982"/>
       <use xlink:href="#IBMPlexSans-Regular-32" x="147.199966"/>
      </g>
     </g>
    </g>
    <g id="ytick_8">
     <g id="line2d_15">
      <g>
       <use xlink:href="#m1e514a76a2" x="597.627176" y="123.029243" style="fill-opacity: 0; stroke: #000000; stroke-opacity: 0; stroke-width: 1.25"/>
      </g>
     </g>
     <g id="text_16">
      <!-- 0.04 -->
      <g style="fill: #ef5350" transform="translate(607.127176 127.099243) scale(0.11 -0.11)">
       <use xlink:href="#IBMPlexSans-Regular-30"/>
       <use xlink:href="#IBMPlexSans-Regular-2e" x="59.999985"/>
       <use xlink:href="#IBMPlexSans-Regular-30" x="87.199982"/>
       <use xlink:href="#IBMPlexSans-Regular-34" x="147.199966"/>
      </g>
     </g>
    </g>
    <g id="ytick_9">
     <g id="line2d_16">
      <g>
       <use xlink:href="#m1e514a76a2" x="597.627176" y="98.174095" style="fill-opacity: 0; stroke: #000000; stroke-opacity: 0; stroke-width: 1.25"/>
      </g>
     </g>
     <g id="text_17">
      <!-- 0.06 -->
      <g style="fill: #ef5350" transform="translate(607.127176 102.244095) scale(0.11 -0.11)">
       <use xlink:href="#IBMPlexSans-Regular-30"/>
       <use xlink:href="#IBMPlexSans-Regular-2e" x="59.999985"/>
       <use xlink:href="#IBMPlexSans-Regular-30" x="87.199982"/>
       <use xlink:href="#IBMPlexSans-Regular-36" x="147.199966"/>
      </g>
     </g>
    </g>
    <g id="ytick_10">
     <g id="line2d_17">
      <g>
       <use xlink:href="#m1e514a76a2" x="597.627176" y="73.318947" style="fill-opacity: 0; stroke: #000000; stroke-opacity: 0; stroke-width: 1.25"/>
      </g>
     </g>
     <g id="text_18">
      <!-- 0.08 -->
      <g style="fill: #ef5350" transform="translate(607.127176 77.388947) scale(0.11 -0.11)">
       <use xlink:href="#IBMPlexSans-Regular-30"/>
       <use xlink:href="#IBMPlexSans-Regular-2e" x="59.999985"/>
       <use xlink:href="#IBMPlexSans-Regular-30" x="87.199982"/>
       <use xlink:href="#IBMPlexSans-Regular-38" x="147.199966"/>
      </g>
     </g>
    </g>
    <g id="ytick_11">
     <g id="line2d_18">
      <g>
       <use xlink:href="#m1e514a76a2" x="597.627176" y="48.463799" style="fill-opacity: 0; stroke: #000000; stroke-opacity: 0; stroke-width: 1.25"/>
      </g>
     </g>
     <g id="text_19">
      <!-- 0.10 -->
      <g style="fill: #ef5350" transform="translate(607.127176 52.533799) scale(0.11 -0.11)">
       <use xlink:href="#IBMPlexSans-Regular-30"/>
       <use xlink:href="#IBMPlexSans-Regular-2e" x="59.999985"/>
       <use xlink:href="#IBMPlexSans-Regular-31" x="87.199982"/>
       <use xlink:href="#IBMPlexSans-Regular-30" x="147.199966"/>
      </g>
     </g>
    </g>
    <g id="ytick_12">
     <g id="line2d_19">
      <g>
       <use xlink:href="#m1e514a76a2" x="597.627176" y="23.60865" style="fill-opacity: 0; stroke: #000000; stroke-opacity: 0; stroke-width: 1.25"/>
      </g>
     </g>
     <g id="text_20">
      <!-- 0.12 -->
      <g style="fill: #ef5350" transform="translate(607.127176 27.67865) scale(0.11 -0.11)">
       <use xlink:href="#IBMPlexSans-Regular-30"/>
       <use xlink:href="#IBMPlexSans-Regular-2e" x="59.999985"/>
       <use xlink:href="#IBMPlexSans-Regular-31" x="87.199982"/>
       <use xlink:href="#IBMPlexSans-Regular-32" x="147.199966"/>
      </g>
     </g>
    </g>
    <g id="text_21">
     <!-- dQint -->
     <g style="fill: #ef5350" transform="translate(646.79952 38.2425) rotate(-90) scale(0.12 -0.12)">
      <defs>
       <path id="IBMPlexSans-Bold-64" d="M 2502 563 
L 2470 563 
Q 2432 429 2349 310 
Q 2266 192 2147 105 
Q 2029 19 1878 -29 
Q 1728 -77 1568 -77 
Q 928 -77 601 374 
Q 275 826 275 1683 
Q 275 2541 601 2989 
Q 928 3437 1568 3437 
Q 1894 3437 2147 3257 
Q 2400 3078 2470 2797 
L 2502 2797 
L 2502 4736 
L 3450 4736 
L 3450 0 
L 2502 0 
L 2502 563 
z
M 1882 691 
Q 2150 691 2326 822 
Q 2502 954 2502 1184 
L 2502 2176 
Q 2502 2406 2326 2537 
Q 2150 2669 1882 2669 
Q 1613 2669 1437 2480 
Q 1261 2291 1261 1971 
L 1261 1389 
Q 1261 1069 1437 880 
Q 1613 691 1882 691 
z
" transform="scale(0.015625)"/>
       <path id="IBMPlexSans-Bold-51" d="M 3469 -1178 
L 2867 -1178 
Q 2349 -1178 2112 -934 
Q 1875 -691 1875 -230 
L 1875 -45 
Q 1158 83 739 656 
Q 320 1229 320 2234 
Q 320 2803 461 3235 
Q 602 3667 858 3958 
Q 1114 4250 1478 4397 
Q 1843 4544 2285 4544 
Q 2726 4544 3091 4397 
Q 3456 4250 3712 3958 
Q 3968 3667 4109 3235 
Q 4250 2803 4250 2234 
Q 4250 1261 3856 691 
Q 3462 122 2784 -26 
L 2784 -384 
L 3469 -384 
L 3469 -1178 
z
M 2285 787 
Q 2726 787 2972 1075 
Q 3219 1363 3219 1901 
L 3219 2566 
Q 3219 3104 2972 3392 
Q 2726 3680 2285 3680 
Q 1843 3680 1596 3392 
Q 1350 3104 1350 2566 
L 1350 1901 
Q 1350 1363 1596 1075 
Q 1843 787 2285 787 
z
" transform="scale(0.015625)"/>
       <path id="IBMPlexSans-Bold-69" d="M 915 3718 
Q 627 3718 496 3849 
Q 365 3981 365 4186 
L 365 4326 
Q 365 4531 496 4662 
Q 627 4794 915 4794 
Q 1203 4794 1334 4662 
Q 1466 4531 1466 4326 
L 1466 4186 
Q 1466 3981 1334 3849 
Q 1203 3718 915 3718 
z
M 442 3360 
L 1389 3360 
L 1389 0 
L 442 0 
L 442 3360 
z
" transform="scale(0.015625)"/>
       <path id="IBMPlexSans-Bold-6e" d="M 442 0 
L 442 3360 
L 1389 3360 
L 1389 2790 
L 1427 2790 
Q 1517 3053 1741 3245 
Q 1965 3437 2362 3437 
Q 2880 3437 3145 3091 
Q 3411 2746 3411 2106 
L 3411 0 
L 2464 0 
L 2464 2029 
Q 2464 2355 2361 2512 
Q 2259 2669 1997 2669 
Q 1882 2669 1773 2640 
Q 1664 2611 1577 2547 
Q 1491 2483 1440 2390 
Q 1389 2298 1389 2176 
L 1389 0 
L 442 0 
z
" transform="scale(0.015625)"/>
      </defs>
      <use xlink:href="#IBMPlexSans-Bold-64"/>
      <use xlink:href="#IBMPlexSans-Bold-51" x="60.799988"/>
      <use xlink:href="#IBMPlexSans-Bold-69" x="132.199982"/>
      <use xlink:href="#IBMPlexSans-Bold-6e" x="160.799973"/>
      <use xlink:href="#IBMPlexSans-Bold-74" x="220.399963"/>
     </g>
    </g>
   </g>
   <g id="line2d_20">
    <path d="M 74.109417 170.312269 
L 76.107767 156.355249 
L 77.106942 166.064251 
L 78.106117 165.457475 
L 80.104467 162.423387 
L 81.103642 161.209757 
L 82.102817 157.568858 
L 83.101992 163.030196 
L 85.100342 159.389311 
L 87.098693 157.568842 
L 88.097868 159.996111 
L 90.096218 154.53479 
L 91.095393 155.141595 
L 93.093743 155.141586 
L 95.092093 151.500699 
L 96.091268 154.534777 
L 97.090443 153.927944 
L 100.087968 145.432525 
L 102.086318 149.073406 
L 103.085493 150.287041 
L 104.084668 148.466575 
L 106.083018 138.150699 
L 107.082193 144.825661 
L 108.081368 136.93709 
L 110.079718 144.825675 
L 112.078068 134.509813 
L 113.077243 135.11663 
L 114.076418 145.432469 
L 115.075594 135.723459 
L 116.074769 138.757496 
L 118.073119 131.475721 
L 120.071469 129.048442 
L 121.070644 141.791565 
L 123.068994 124.193939 
L 126.066519 129.048451 
L 127.065694 124.193921 
L 128.064869 126.621181 
L 129.064044 120.553039 
L 131.062394 127.227987 
L 132.061569 116.305315 
L 133.060744 122.980277 
L 134.059919 121.159822 
L 135.059094 112.057609 
L 136.058269 112.664419 
L 138.056619 121.766656 
L 139.055794 119.946201 
L 140.054969 104.775818 
L 142.053319 124.800713 
L 145.050845 103.562197 
L 146.05002 98.100874 
L 147.049195 109.630348 
L 148.04837 104.168984 
L 149.047545 105.382651 
L 150.04672 111.450812 
L 151.045895 98.100851 
L 152.04507 108.416722 
L 153.044245 102.348576 
L 154.04342 104.169012 
L 155.042595 112.057627 
L 156.04177 100.528126 
L 157.040945 115.091675 
L 159.039295 92.032728 
L 160.03847 108.416736 
L 161.037645 94.459979 
L 162.03682 113.271239 
L 163.035995 99.3145 
L 164.03517 105.382633 
L 166.03352 98.10086 
L 167.032695 98.70768 
L 168.03187 109.023524 
L 169.031045 85.357752 
L 170.03022 109.630339 
L 172.02857 82.323676 
L 173.027745 90.819079 
L 174.026921 88.391809 
L 176.025271 102.955363 
L 177.024446 101.741751 
L 182.020321 82.93051 
L 183.019496 96.887235 
L 184.018671 94.45996 
L 185.017846 96.280387 
L 186.017021 73.828264 
L 188.015371 87.785003 
L 189.014546 87.784994 
L 191.012896 75.6487 
L 192.012071 94.45996 
L 193.011246 88.391809 
L 194.010421 90.212273 
L 195.009596 96.28041 
L 197.007946 81.716852 
L 198.007121 98.707676 
L 199.006296 82.9305 
L 200.005471 93.853164 
L 202.003821 80.503231 
L 204.002172 88.998615 
L 206.999697 82.323648 
L 207.998872 81.110027 
L 208.998047 99.314468 
L 209.997222 82.323639 
L 211.995572 90.212254 
L 212.994747 72.614597 
L 214.993097 82.323658 
L 215.992272 70.79417 
L 219.988972 80.503212 
L 220.988147 75.041876 
L 221.987322 86.571345 
L 222.986497 71.400985 
L 224.984847 75.648691 
L 225.984022 76.255488 
L 226.983197 83.537279 
L 227.982372 80.503203 
L 229.980722 71.400985 
L 232.978248 92.639506 
L 235.975773 75.648672 
L 236.974948 68.366891 
L 238.973298 81.716824 
L 240.971648 71.400985 
L 241.970823 73.828236 
L 242.969998 71.400985 
L 243.969173 73.828246 
L 244.968348 64.119194 
L 245.967523 88.998596 
L 247.965873 70.79417 
L 248.965048 77.469099 
L 250.963398 60.478294 
L 251.962573 84.144103 
L 252.961748 62.298758 
L 254.960098 82.930463 
L 255.959273 55.623773 
L 256.958448 84.144103 
L 258.956798 64.726 
L 259.955973 64.119194 
L 260.955148 84.750881 
L 263.952674 61.085118 
L 264.951849 82.323676 
L 268.948549 59.871479 
L 270.946899 76.255469 
L 271.946074 75.041839 
L 272.945249 65.93963 
L 273.944424 79.289545 
L 275.942774 62.905536 
L 276.941949 63.512351 
L 277.941124 84.750881 
L 278.940299 76.25546 
L 279.939474 76.862284 
L 282.936999 55.623782 
L 283.936174 72.614597 
L 284.935349 72.007809 
L 285.934524 70.187327 
L 286.933699 84.750881 
L 287.932874 74.435024 
L 288.932049 79.89636 
L 289.931224 65.93963 
L 290.9304 73.828236 
L 291.929575 73.221393 
L 292.92875 68.973706 
L 294.9271 81.716824 
L 296.92545 61.691924 
L 297.924625 59.871479 
L 299.922975 86.571326 
L 300.92215 65.332815 
L 302.9205 84.144084 
L 303.919675 67.153279 
L 304.91885 75.648691 
L 306.9172 70.794151 
L 307.916375 70.187336 
L 308.91555 68.366909 
L 309.914725 74.435042 
L 310.9139 60.478303 
L 311.913075 62.905564 
L 312.91225 80.503175 
L 313.911425 78.075914 
L 315.909775 56.230597 
L 316.90895 63.51236 
L 317.908125 79.289582 
L 318.9073 64.725991 
L 319.906476 67.760066 
L 320.905651 77.469118 
L 322.904001 61.085109 
L 323.903176 61.691906 
L 326.900701 77.469099 
L 327.899876 71.400948 
L 328.899051 76.862303 
L 329.898226 54.410142 
L 330.897401 77.469109 
L 331.896576 61.691933 
L 332.895751 64.119176 
L 333.894926 58.051052 
L 334.894101 72.007772 
L 335.893276 62.298739 
L 336.892451 65.939621 
L 337.891626 63.512351 
L 338.890801 70.794151 
L 339.889976 69.580521 
L 340.889151 56.837422 
L 341.888326 65.939639 
L 342.887501 59.871479 
L 343.886676 72.614597 
L 345.885026 62.905573 
L 346.884201 67.15326 
L 347.883376 65.332834 
L 348.882551 54.410142 
L 349.881727 56.230588 
L 351.880077 72.007763 
L 352.879252 69.580503 
L 354.877602 56.837412 
L 355.876777 73.221393 
L 356.875952 72.007782 
L 357.875127 68.973724 
L 358.874302 61.085109 
L 359.873477 61.691943 
L 360.872652 70.187345 
L 361.871827 61.691924 
L 362.871002 43.487498 
L 364.869352 69.58054 
L 365.868527 41.060219 
L 366.867702 61.691924 
L 367.866877 61.085109 
L 368.866052 59.264664 
L 369.865227 64.726 
L 370.864402 63.51237 
L 371.863577 64.726 
L 372.862752 53.196531 
L 373.861927 59.264664 
L 374.861102 55.623782 
L 376.859452 56.837412 
L 377.858627 51.376085 
L 378.857803 73.221412 
L 380.856153 36.205707 
L 381.855328 66.546445 
L 382.854503 41.667062 
L 383.853678 53.803346 
L 384.852853 50.76927 
L 385.852028 52.589706 
L 387.850378 48.948825 
L 388.849553 60.478312 
L 390.847903 57.444227 
L 391.847078 63.51237 
L 392.846253 46.521546 
L 393.845428 57.444255 
L 394.844603 52.589716 
L 395.843778 62.298749 
L 396.842953 45.307952 
L 397.842128 66.546436 
L 398.841303 55.623773 
L 399.840478 65.332797 
L 400.839653 50.769233 
L 401.838828 52.589716 
L 402.838003 60.478312 
L 403.837178 44.701119 
L 404.836353 67.153279 
L 405.835528 58.657867 
L 407.833879 70.187336 
L 409.832229 48.342 
L 412.829754 65.93963 
L 413.828929 61.691896 
L 414.828104 68.973706 
L 416.826454 58.051033 
L 417.825629 67.15327 
L 419.823979 61.085109 
L 420.823154 60.478275 
L 421.822329 50.769252 
L 423.820679 63.51237 
L 425.819029 53.196512 
L 427.817379 61.085109 
L 429.815729 51.376067 
L 430.814904 63.512388 
L 432.813254 56.837422 
L 434.811604 58.657848 
L 435.810779 66.546445 
L 436.809955 65.939667 
L 438.808305 51.376104 
L 439.80748 57.444237 
L 441.80583 44.094304 
L 442.805005 63.512388 
L 444.803355 48.948806 
L 445.80253 51.376067 
L 446.801705 56.837422 
L 448.800055 50.76927 
L 449.79923 60.478312 
L 450.798405 59.871488 
L 451.79758 63.512388 
L 452.796755 56.83744 
L 453.79593 39.846598 
L 456.793455 54.410161 
L 458.791805 44.094322 
L 459.79098 50.162446 
L 460.790155 63.512397 
L 462.788505 46.521564 
L 464.786855 45.307952 
L 466.785206 53.196521 
L 467.784381 49.55564 
L 468.783556 56.837422 
L 470.781906 44.094322 
L 471.781081 44.701119 
L 472.780256 39.846579 
L 474.778606 50.76927 
L 475.777781 57.444246 
L 477.776131 54.410161 
L 478.775306 55.016976 
L 479.774481 33.17165 
L 481.772831 57.444255 
L 483.771181 31.351204 
L 484.770356 34.38528 
L 487.767881 54.410161 
L 488.767056 53.803346 
L 490.765406 27.103498 
L 491.764581 42.880655 
L 493.762931 28.923981 
L 494.762106 52.589734 
L 495.761282 33.778465 
L 496.760457 47.735232 
L 497.759632 28.317119 
L 498.758807 51.982937 
L 499.757982 30.137574 
L 500.757157 33.171668 
L 502.755507 58.657867 
L 503.754682 51.98291 
L 504.753857 25.889886 
L 505.753032 38.632949 
L 506.752207 34.385298 
L 507.751382 36.205725 
L 508.750557 30.137574 
L 509.749732 35.598919 
L 510.748907 29.530777 
L 511.748082 42.273867 
L 512.747257 27.710313 
L 514.745607 52.589734 
L 515.744782 35.59891 
L 517.743132 44.094313 
L 519.741482 42.880673 
L 520.740657 33.171668 
L 521.739832 49.555677 
L 523.738182 39.239782 
L 525.736533 33.778474 
L 526.735708 48.342028 
L 530.732408 31.958038 
L 531.731583 31.958019 
L 532.730758 44.701137 
L 533.729933 43.487507 
L 534.729108 28.317128 
L 535.728283 42.880692 
L 536.727458 40.45345 
L 537.726633 32.564853 
L 538.725808 33.778502 
L 539.724983 48.34201 
L 540.724158 31.958038 
L 541.723333 37.419337 
L 542.722508 33.17165 
L 544.720858 42.88071 
L 547.718383 33.778465 
L 548.717558 47.735204 
L 549.716733 41.060256 
L 550.715908 41.667089 
L 551.715083 24.06945 
L 553.713433 51.9829 
L 555.711784 31.351223 
L 557.710134 38.633014 
L 560.707659 19.821754 
L 561.706834 23.462607 
L 562.706009 42.880701 
L 563.705184 31.351213 
L 564.704359 44.701137 
L 565.703534 27.710341 
L 567.701884 34.385289 
L 568.701059 14.967251 
L 569.700234 34.385317 
L 570.699409 29.530777 
L 572.697759 37.419393 
L 572.697759 37.419393 
" clip-path="url(#pdc16538b0c)" style="fill: none; stroke: #ef5350; stroke-opacity: 0.9; stroke-width: 1.5; stroke-linecap: round"/>
   </g>
   <g id="patch_7">
    <path d="M 49.18 178.07952 
L 49.18 7.2 
" style="fill: none"/>
   </g>
   <g id="patch_8">
    <path d="M 597.627176 178.07952 
L 597.627176 7.2 
" style="fill: none"/>
   </g>
   <g id="patch_9">
    <path d="M 49.18 178.07952 
L 597.627176 178.07952 
" style="fill: none"/>
   </g>
   <g id="patch_10">
    <path d="M 49.18 7.2 
L 597.627176 7.2 
" style="fill: none"/>
   </g>
  </g>
 </g>
 <defs>
  <clipPath id="pdc16538b0c">
   <rect x="49.18" y="7.2" width="548.447176" height="170.87952"/>
  </clipPath>
 </defs>
</svg>
