<?xml version="1.0" encoding="utf-8" standalone="no"?>
<!DOCTYPE svg PUBLIC "-//W3C//DTD SVG 1.1//EN"
  "http://www.w3.org/Graphics/SVG/1.1/DTD/svg11.dtd">
<svg xmlns:xlink="http://www.w3.org/1999/xlink" width="656.39952pt" height="224.39952pt" viewBox="0 0 656.39952 224.39952" xmlns="http://www.w3.org/2000/svg" version="1.1">
 <metadata>
  <rdf:RDF xmlns:dc="http://purl.org/dc/elements/1.1/" xmlns:cc="http://creativecommons.org/ns#" xmlns:rdf="http://www.w3.org/1999/02/22-rdf-syntax-ns#">
   <cc:Work>
    <dc:type rdf:resource="http://purl.org/dc/dcmitype/StillImage"/>
    <dc:date>2023-12-02T16:16:42.420921</dc:date>
    <dc:format>image/svg+xml</dc:format>
    <dc:creator>
     <cc:Agent>
      <dc:title>Matplotlib v3.8.2, https://matplotlib.org/</dc:title>
     </cc:Agent>
    </dc:creator>
   </cc:Work>
  </rdf:RDF>
 </metadata>
 <defs>
  <style type="text/css">*{stroke-linejoin: round; stroke-linecap: butt}</style>
 </defs>
 <g id="figure_1">
  <g id="patch_1">
   <path d="M 0 224.39952 
L 656.39952 224.39952 
L 656.39952 -0 
L 0 -0 
L 0 224.39952 
z
" style="fill: none"/>
  </g>
  <g id="axes_1">
   <g id="patch_2">
    <path d="M 75.66 154.45952 
L 561.554833 154.45952 
L 561.554833 7.2 
L 75.66 7.2 
L 75.66 154.45952 
z
" style="fill: none"/>
   </g>
   <g id="matplotlib.axis_1">
    <g id="xtick_1">
     <g id="line2d_1">
      <defs>
       <path id="m3dc3796011" d="M 0 0 
L 0 12 
" style="stroke: #000000; stroke-opacity: 0; stroke-width: 2.5"/>
      </defs>
      <g>
       <use xlink:href="#m3dc3796011" x="97.746129" y="154.45952" style="fill-opacity: 0; stroke: #000000; stroke-opacity: 0; stroke-width: 2.5"/>
      </g>
     </g>
     <g id="text_1">
      <!-- 0 -->
      <g style="fill: #838383" transform="translate(91.146129 186.23952) scale(0.22 -0.22)">
       <defs>
        <path id="IBMPlexSans-Regular-30" d="M 1920 -77 
Q 1120 -77 752 531 
Q 384 1139 384 2234 
Q 384 3328 752 3936 
Q 1120 4544 1920 4544 
Q 2720 4544 3088 3936 
Q 3456 3328 3456 2234 
Q 3456 1139 3088 531 
Q 2720 -77 1920 -77 
z
M 1920 390 
Q 2182 390 2368 499 
Q 2554 608 2669 806 
Q 2784 1005 2838 1273 
Q 2893 1542 2893 1869 
L 2893 2598 
Q 2893 2925 2838 3193 
Q 2784 3462 2669 3660 
Q 2554 3859 2368 3968 
Q 2182 4077 1920 4077 
Q 1658 4077 1472 3968 
Q 1286 3859 1171 3660 
Q 1056 3462 1001 3193 
Q 947 2925 947 2598 
L 947 1869 
Q 947 1542 1001 1273 
Q 1056 1005 1171 806 
Q 1286 608 1472 499 
Q 1658 390 1920 390 
z
" transform="scale(0.015625)"/>
       </defs>
       <use xlink:href="#IBMPlexSans-Regular-30"/>
      </g>
     </g>
    </g>
    <g id="xtick_2">
     <g id="line2d_2">
      <g>
       <use xlink:href="#m3dc3796011" x="184.699392" y="154.45952" style="fill-opacity: 0; stroke: #000000; stroke-opacity: 0; stroke-width: 2.5"/>
      </g>
     </g>
     <g id="text_2">
      <!-- 500 -->
      <g style="fill: #838383" transform="translate(164.899392 186.23952) scale(0.22 -0.22)">
       <defs>
        <path id="IBMPlexSans-Regular-35" d="M 3187 3994 
L 1229 3994 
L 1101 2291 
L 1146 2291 
Q 1306 2515 1507 2649 
Q 1709 2784 2061 2784 
Q 2349 2784 2592 2688 
Q 2835 2592 3014 2416 
Q 3194 2240 3293 1984 
Q 3392 1728 3392 1402 
Q 3392 1075 3289 803 
Q 3187 531 2992 336 
Q 2797 141 2518 32 
Q 2240 -77 1888 -77 
Q 1606 -77 1392 -13 
Q 1178 51 1011 160 
Q 845 269 720 403 
Q 595 538 493 685 
L 896 992 
Q 979 858 1072 749 
Q 1165 640 1277 563 
Q 1389 486 1536 444 
Q 1683 403 1888 403 
Q 2349 403 2585 646 
Q 2822 890 2822 1331 
L 2822 1395 
Q 2822 1837 2585 2080 
Q 2349 2323 1888 2323 
Q 1581 2323 1405 2211 
Q 1229 2099 1088 1946 
L 634 2010 
L 794 4467 
L 3187 4467 
L 3187 3994 
z
" transform="scale(0.015625)"/>
       </defs>
       <use xlink:href="#IBMPlexSans-Regular-35"/>
       <use xlink:href="#IBMPlexSans-Regular-30" x="59.999985"/>
       <use xlink:href="#IBMPlexSans-Regular-30" x="119.999969"/>
      </g>
     </g>
    </g>
    <g id="xtick_3">
     <g id="line2d_3">
      <g>
       <use xlink:href="#m3dc3796011" x="271.652654" y="154.45952" style="fill-opacity: 0; stroke: #000000; stroke-opacity: 0; stroke-width: 2.5"/>
      </g>
     </g>
     <g id="text_3">
      <!-- 1000 -->
      <g style="fill: #838383" transform="translate(245.252654 186.23952) scale(0.22 -0.22)">
       <defs>
        <path id="IBMPlexSans-Regular-31" d="M 563 0 
L 563 474 
L 1811 474 
L 1811 4070 
L 1766 4070 
L 640 3021 
L 326 3360 
L 1510 4467 
L 2349 4467 
L 2349 474 
L 3501 474 
L 3501 0 
L 563 0 
z
" transform="scale(0.015625)"/>
       </defs>
       <use xlink:href="#IBMPlexSans-Regular-31"/>
       <use xlink:href="#IBMPlexSans-Regular-30" x="59.999985"/>
       <use xlink:href="#IBMPlexSans-Regular-30" x="119.999969"/>
       <use xlink:href="#IBMPlexSans-Regular-30" x="179.999954"/>
      </g>
     </g>
    </g>
    <g id="xtick_4">
     <g id="line2d_4">
      <g>
       <use xlink:href="#m3dc3796011" x="358.605917" y="154.45952" style="fill-opacity: 0; stroke: #000000; stroke-opacity: 0; stroke-width: 2.5"/>
      </g>
     </g>
     <g id="text_4">
      <!-- 1500 -->
      <g style="fill: #838383" transform="translate(332.205917 186.23952) scale(0.22 -0.22)">
       <use xlink:href="#IBMPlexSans-Regular-31"/>
       <use xlink:href="#IBMPlexSans-Regular-35" x="59.999985"/>
       <use xlink:href="#IBMPlexSans-Regular-30" x="119.999969"/>
       <use xlink:href="#IBMPlexSans-Regular-30" x="179.999954"/>
      </g>
     </g>
    </g>
    <g id="xtick_5">
     <g id="line2d_5">
      <g>
       <use xlink:href="#m3dc3796011" x="445.55918" y="154.45952" style="fill-opacity: 0; stroke: #000000; stroke-opacity: 0; stroke-width: 2.5"/>
      </g>
     </g>
     <g id="text_5">
      <!-- 2000 -->
      <g style="fill: #838383" transform="translate(419.15918 186.23952) scale(0.22 -0.22)">
       <defs>
        <path id="IBMPlexSans-Regular-32" d="M 3411 0 
L 480 0 
L 480 550 
L 1939 1894 
Q 2253 2182 2464 2505 
Q 2675 2829 2675 3155 
L 2675 3232 
Q 2675 3603 2470 3833 
Q 2266 4064 1850 4064 
Q 1645 4064 1491 4006 
Q 1338 3949 1226 3846 
Q 1114 3744 1040 3606 
Q 966 3469 922 3309 
L 442 3494 
Q 506 3693 618 3881 
Q 730 4070 899 4217 
Q 1069 4365 1309 4454 
Q 1549 4544 1875 4544 
Q 2202 4544 2458 4448 
Q 2714 4352 2886 4179 
Q 3059 4006 3152 3769 
Q 3245 3533 3245 3245 
Q 3245 2982 3171 2758 
Q 3098 2534 2970 2332 
Q 2842 2131 2659 1939 
Q 2477 1747 2266 1555 
L 1062 474 
L 3411 474 
L 3411 0 
z
" transform="scale(0.015625)"/>
       </defs>
       <use xlink:href="#IBMPlexSans-Regular-32"/>
       <use xlink:href="#IBMPlexSans-Regular-30" x="59.999985"/>
       <use xlink:href="#IBMPlexSans-Regular-30" x="119.999969"/>
       <use xlink:href="#IBMPlexSans-Regular-30" x="179.999954"/>
      </g>
     </g>
    </g>
    <g id="xtick_6">
     <g id="line2d_6">
      <g>
       <use xlink:href="#m3dc3796011" x="532.512443" y="154.45952" style="fill-opacity: 0; stroke: #000000; stroke-opacity: 0; stroke-width: 2.5"/>
      </g>
     </g>
     <g id="text_6">
      <!-- 2500 -->
      <g style="fill: #838383" transform="translate(506.112443 186.23952) scale(0.22 -0.22)">
       <use xlink:href="#IBMPlexSans-Regular-32"/>
       <use xlink:href="#IBMPlexSans-Regular-35" x="59.999985"/>
       <use xlink:href="#IBMPlexSans-Regular-30" x="119.999969"/>
       <use xlink:href="#IBMPlexSans-Regular-30" x="179.999954"/>
      </g>
     </g>
    </g>
    <g id="text_7">
     <!-- Step -->
     <g style="fill: #838383" transform="translate(293.876166 212.39952) scale(0.24 -0.24)">
      <defs>
       <path id="IBMPlexSans-Regular-53" d="M 1850 -77 
Q 1306 -77 922 131 
Q 538 339 269 704 
L 666 1037 
Q 902 723 1190 560 
Q 1478 397 1869 397 
Q 2349 397 2601 627 
Q 2854 858 2854 1242 
Q 2854 1562 2662 1734 
Q 2470 1907 2029 2010 
L 1664 2093 
Q 1050 2234 726 2518 
Q 403 2803 403 3322 
Q 403 3616 512 3846 
Q 621 4077 816 4230 
Q 1011 4384 1283 4464 
Q 1555 4544 1882 4544 
Q 2387 4544 2748 4358 
Q 3110 4173 3360 3814 
L 2957 3520 
Q 2771 3776 2508 3923 
Q 2246 4070 1856 4070 
Q 1427 4070 1180 3888 
Q 934 3706 934 3341 
Q 934 3021 1142 2857 
Q 1350 2694 1773 2598 
L 2138 2515 
Q 2797 2368 3091 2067 
Q 3386 1766 3386 1267 
Q 3386 960 3280 710 
Q 3174 461 2976 288 
Q 2778 115 2493 19 
Q 2208 -77 1850 -77 
z
" transform="scale(0.015625)"/>
       <path id="IBMPlexSans-Regular-74" d="M 1274 0 
Q 1005 0 867 150 
Q 730 301 730 544 
L 730 2854 
L 186 2854 
L 186 3302 
L 493 3302 
Q 659 3302 720 3369 
Q 781 3437 781 3603 
L 781 4218 
L 1242 4218 
L 1242 3302 
L 1965 3302 
L 1965 2854 
L 1242 2854 
L 1242 448 
L 1914 448 
L 1914 0 
L 1274 0 
z
" transform="scale(0.015625)"/>
       <path id="IBMPlexSans-Regular-65" d="M 1786 -77 
Q 1446 -77 1174 44 
Q 902 166 707 393 
Q 512 621 406 937 
Q 301 1254 301 1651 
Q 301 2042 406 2362 
Q 512 2682 707 2909 
Q 902 3136 1174 3257 
Q 1446 3379 1786 3379 
Q 2118 3379 2380 3257 
Q 2643 3136 2828 2921 
Q 3014 2707 3113 2412 
Q 3213 2118 3213 1766 
L 3213 1523 
L 838 1523 
L 838 1370 
Q 838 1158 905 976 
Q 973 794 1097 659 
Q 1222 525 1404 448 
Q 1587 371 1818 371 
Q 2131 371 2364 518 
Q 2598 666 2726 941 
L 3091 678 
Q 2931 339 2592 131 
Q 2253 -77 1786 -77 
z
M 1786 2950 
Q 1574 2950 1401 2876 
Q 1229 2803 1104 2668 
Q 979 2534 908 2352 
Q 838 2170 838 1952 
L 838 1907 
L 2662 1907 
L 2662 1978 
Q 2662 2419 2422 2684 
Q 2182 2950 1786 2950 
z
" transform="scale(0.015625)"/>
       <path id="IBMPlexSans-Regular-70" d="M 544 3302 
L 1056 3302 
L 1056 2765 
L 1082 2765 
Q 1210 3078 1456 3228 
Q 1702 3379 2048 3379 
Q 2355 3379 2604 3257 
Q 2854 3136 3030 2912 
Q 3206 2688 3299 2368 
Q 3392 2048 3392 1651 
Q 3392 1254 3299 934 
Q 3206 614 3030 390 
Q 2854 166 2604 44 
Q 2355 -77 2048 -77 
Q 1376 -77 1082 538 
L 1056 538 
L 1056 -1280 
L 544 -1280 
L 544 3302 
z
M 1907 384 
Q 2342 384 2592 656 
Q 2842 928 2842 1370 
L 2842 1933 
Q 2842 2374 2592 2646 
Q 2342 2918 1907 2918 
Q 1734 2918 1577 2870 
Q 1421 2822 1305 2739 
Q 1190 2656 1123 2537 
Q 1056 2419 1056 2285 
L 1056 1056 
Q 1056 896 1123 771 
Q 1190 646 1305 560 
Q 1421 474 1577 429 
Q 1734 384 1907 384 
z
" transform="scale(0.015625)"/>
      </defs>
      <use xlink:href="#IBMPlexSans-Regular-53"/>
      <use xlink:href="#IBMPlexSans-Regular-74" x="58.099991"/>
      <use xlink:href="#IBMPlexSans-Regular-65" x="93.199982"/>
      <use xlink:href="#IBMPlexSans-Regular-70" x="148.099976"/>
     </g>
    </g>
   </g>
   <g id="matplotlib.axis_2">
    <g id="ytick_1">
     <g id="line2d_7">
      <defs>
       <path id="m9c46d73b5b" d="M 0 0 
L -12 0 
" style="stroke: #000000; stroke-opacity: 0; stroke-width: 2.5"/>
      </defs>
      <g>
       <use xlink:href="#m9c46d73b5b" x="75.66" y="136.646892" style="fill-opacity: 0; stroke: #000000; stroke-opacity: 0; stroke-width: 2.5"/>
      </g>
     </g>
     <g id="text_8">
      <!-- 0 -->
      <g style="fill: #2196f3" transform="translate(46.96 144.786892) scale(0.22 -0.22)">
       <use xlink:href="#IBMPlexSans-Regular-30"/>
      </g>
     </g>
    </g>
    <g id="ytick_2">
     <g id="line2d_8">
      <g>
       <use xlink:href="#m9c46d73b5b" x="75.66" y="64.202856" style="fill-opacity: 0; stroke: #000000; stroke-opacity: 0; stroke-width: 2.5"/>
      </g>
     </g>
     <g id="text_9">
      <!-- 50 -->
      <g style="fill: #2196f3" transform="translate(33.76 72.342856) scale(0.22 -0.22)">
       <use xlink:href="#IBMPlexSans-Regular-35"/>
       <use xlink:href="#IBMPlexSans-Regular-30" x="59.999985"/>
      </g>
     </g>
    </g>
    <g id="text_10">
     <!-- loss -->
     <g style="fill: #2196f3" transform="translate(24.96 102.502885) rotate(-90) scale(0.24 -0.24)">
      <defs>
       <path id="IBMPlexSans-Regular-6c" d="M 1088 0 
Q 819 0 681 150 
Q 544 301 544 531 
L 544 4736 
L 1056 4736 
L 1056 448 
L 1542 448 
L 1542 0 
L 1088 0 
z
" transform="scale(0.015625)"/>
       <path id="IBMPlexSans-Regular-6f" d="M 1792 -77 
Q 1459 -77 1184 44 
Q 909 166 713 393 
Q 518 621 409 937 
Q 301 1254 301 1651 
Q 301 2042 409 2362 
Q 518 2682 713 2909 
Q 909 3136 1184 3257 
Q 1459 3379 1792 3379 
Q 2125 3379 2397 3257 
Q 2669 3136 2867 2909 
Q 3066 2682 3174 2362 
Q 3283 2042 3283 1651 
Q 3283 1254 3174 937 
Q 3066 621 2867 393 
Q 2669 166 2397 44 
Q 2125 -77 1792 -77 
z
M 1792 378 
Q 2208 378 2470 634 
Q 2733 890 2733 1414 
L 2733 1888 
Q 2733 2413 2470 2669 
Q 2208 2925 1792 2925 
Q 1376 2925 1113 2669 
Q 851 2413 851 1888 
L 851 1414 
Q 851 890 1113 634 
Q 1376 378 1792 378 
z
" transform="scale(0.015625)"/>
       <path id="IBMPlexSans-Regular-73" d="M 1536 -77 
Q 1075 -77 764 99 
Q 454 275 230 570 
L 595 864 
Q 787 621 1024 489 
Q 1261 358 1574 358 
Q 1901 358 2083 499 
Q 2266 640 2266 896 
Q 2266 1088 2141 1225 
Q 2016 1363 1690 1414 
L 1427 1453 
Q 1197 1485 1005 1552 
Q 813 1619 669 1731 
Q 525 1843 445 2009 
Q 365 2176 365 2406 
Q 365 2650 454 2832 
Q 544 3014 701 3136 
Q 858 3258 1075 3318 
Q 1293 3379 1542 3379 
Q 1946 3379 2218 3238 
Q 2490 3098 2694 2848 
L 2355 2541 
Q 2246 2694 2035 2819 
Q 1824 2944 1504 2944 
Q 1184 2944 1021 2806 
Q 858 2669 858 2432 
Q 858 2189 1021 2080 
Q 1184 1971 1491 1920 
L 1747 1882 
Q 2298 1798 2528 1564 
Q 2758 1331 2758 954 
Q 2758 474 2432 198 
Q 2106 -77 1536 -77 
z
" transform="scale(0.015625)"/>
      </defs>
      <use xlink:href="#IBMPlexSans-Regular-6c"/>
      <use xlink:href="#IBMPlexSans-Regular-6f" x="27.199997"/>
      <use xlink:href="#IBMPlexSans-Regular-73" x="83.199982"/>
      <use xlink:href="#IBMPlexSans-Regular-73" x="131.899979"/>
     </g>
    </g>
   </g>
   <g id="line2d_9">
    <path d="M 97.746129 13.893615 
L 101.224259 95.789032 
L 104.70239 113.998569 
L 115.136781 117.906154 
L 118.614912 117.017674 
L 125.571173 119.078939 
L 129.049303 117.899388 
L 132.527434 119.810637 
L 136.005564 120.08715 
L 139.483695 123.223091 
L 142.961825 120.983279 
L 153.396217 124.505403 
L 156.874347 123.469572 
L 160.352478 123.627701 
L 163.830608 126.402616 
L 198.611914 132.32374 
L 202.090044 130.564469 
L 205.568175 132.424271 
L 209.046305 132.19574 
L 212.524436 133.686302 
L 216.002566 132.301003 
L 226.436958 133.762433 
L 236.871349 133.276071 
L 240.34948 133.105706 
L 243.82761 135.189583 
L 247.305741 133.528579 
L 250.783871 136.043553 
L 254.262002 135.240571 
L 257.740132 136.681093 
L 268.174524 136.259865 
L 271.652654 137.06034 
L 275.130785 135.479643 
L 278.608915 137.939123 
L 289.043307 136.807388 
L 295.999568 138.20776 
L 299.477698 136.569174 
L 306.433959 137.706884 
L 309.91209 136.714052 
L 313.39022 139.580134 
L 316.868351 138.096443 
L 320.346482 138.522343 
L 323.824612 137.739762 
L 344.693395 139.755366 
L 351.649656 138.196288 
L 362.084048 140.361446 
L 365.562178 139.723129 
L 369.040309 140.351375 
L 372.518439 139.266258 
L 375.99657 139.896476 
L 379.4747 141.597758 
L 382.952831 140.364111 
L 386.430961 141.209859 
L 389.909092 139.812344 
L 393.387222 142.12522 
L 396.865353 140.919902 
L 407.299744 141.84061 
L 417.734136 143.60299 
L 421.212266 142.693803 
L 431.646658 143.926682 
L 438.602919 144.004449 
L 445.55918 145.215592 
L 452.515441 144.588065 
L 455.993571 145.268647 
L 459.471702 144.310441 
L 466.427963 145.4274 
L 473.384224 145.252604 
L 483.818616 146.292322 
L 487.296746 145.380945 
L 490.774877 146.659031 
L 501.209268 145.656994 
L 504.687399 146.313919 
L 511.64366 145.045631 
L 515.12179 146.386211 
L 518.599921 146.40964 
L 522.078051 147.557305 
L 525.556182 146.852943 
L 529.034312 144.584232 
L 532.512443 147.765905 
L 535.990573 145.947321 
L 539.468704 146.047171 
L 539.468704 146.047171 
" clip-path="url(#pfc289d0469)" style="fill: none; stroke: #2196f3; stroke-opacity: 0.9; stroke-width: 3; stroke-linecap: round"/>
   </g>
   <g id="patch_3">
    <path d="M 75.66 154.45952 
L 75.66 7.2 
" style="fill: none"/>
   </g>
   <g id="patch_4">
    <path d="M 561.554833 154.45952 
L 561.554833 7.2 
" style="fill: none"/>
   </g>
   <g id="patch_5">
    <path d="M 75.66 154.45952 
L 561.554833 154.45952 
" style="fill: none"/>
   </g>
   <g id="patch_6">
    <path d="M 75.66 7.2 
L 561.554833 7.2 
" style="fill: none"/>
   </g>
  </g>
  <g id="axes_2">
   <g id="matplotlib.axis_3">
    <g id="ytick_3">
     <g id="line2d_10">
      <defs>
       <path id="m8f385ce22d" d="M 0 0 
L 12 0 
" style="stroke: #000000; stroke-opacity: 0; stroke-width: 2.5"/>
      </defs>
      <g>
       <use xlink:href="#m8f385ce22d" x="561.554833" y="150.915846" style="fill-opacity: 0; stroke: #000000; stroke-opacity: 0; stroke-width: 2.5"/>
      </g>
     </g>
     <g id="text_11">
      <!-- 0.00 -->
      <g style="fill: #ef5350" transform="translate(577.054833 159.055846) scale(0.22 -0.22)">
       <defs>
        <path id="IBMPlexSans-Regular-2e" d="M 870 -77 
Q 666 -77 573 25 
Q 480 128 480 294 
L 480 378 
Q 480 544 573 646 
Q 666 749 870 749 
Q 1075 749 1168 646 
Q 1261 544 1261 378 
L 1261 294 
Q 1261 128 1168 25 
Q 1075 -77 870 -77 
z
" transform="scale(0.015625)"/>
       </defs>
       <use xlink:href="#IBMPlexSans-Regular-30"/>
       <use xlink:href="#IBMPlexSans-Regular-2e" x="59.999985"/>
       <use xlink:href="#IBMPlexSans-Regular-30" x="87.199982"/>
       <use xlink:href="#IBMPlexSans-Regular-30" x="147.199966"/>
      </g>
     </g>
    </g>
    <g id="ytick_4">
     <g id="line2d_11">
      <g>
       <use xlink:href="#m8f385ce22d" x="561.554833" y="70.277786" style="fill-opacity: 0; stroke: #000000; stroke-opacity: 0; stroke-width: 2.5"/>
      </g>
     </g>
     <g id="text_12">
      <!-- 0.05 -->
      <g style="fill: #ef5350" transform="translate(577.054833 78.417786) scale(0.22 -0.22)">
       <use xlink:href="#IBMPlexSans-Regular-30"/>
       <use xlink:href="#IBMPlexSans-Regular-2e" x="59.999985"/>
       <use xlink:href="#IBMPlexSans-Regular-30" x="87.199982"/>
       <use xlink:href="#IBMPlexSans-Regular-35" x="147.199966"/>
      </g>
     </g>
    </g>
    <g id="text_13">
     <!-- dQint -->
     <g style="fill: #ef5350" transform="translate(644.39952 110.31226) rotate(-90) scale(0.24 -0.24)">
      <defs>
       <path id="IBMPlexSans-Regular-64" d="M 2656 538 
L 2630 538 
Q 2330 -77 1664 -77 
Q 1357 -77 1107 44 
Q 858 166 682 390 
Q 506 614 413 934 
Q 320 1254 320 1651 
Q 320 2048 413 2368 
Q 506 2688 682 2912 
Q 858 3136 1107 3257 
Q 1357 3379 1664 3379 
Q 2010 3379 2256 3228 
Q 2502 3078 2630 2765 
L 2656 2765 
L 2656 4736 
L 3168 4736 
L 3168 0 
L 2656 0 
L 2656 538 
z
M 1805 384 
Q 1978 384 2134 429 
Q 2291 474 2406 560 
Q 2522 646 2589 771 
Q 2656 896 2656 1056 
L 2656 2285 
Q 2656 2419 2589 2537 
Q 2522 2656 2406 2739 
Q 2291 2822 2134 2870 
Q 1978 2918 1805 2918 
Q 1370 2918 1120 2646 
Q 870 2374 870 1933 
L 870 1370 
Q 870 928 1120 656 
Q 1370 384 1805 384 
z
" transform="scale(0.015625)"/>
       <path id="IBMPlexSans-Regular-51" d="M 3251 -1050 
L 2592 -1050 
Q 2323 -1050 2188 -899 
Q 2054 -749 2054 -525 
L 2054 -70 
Q 1670 -32 1356 134 
Q 1043 301 825 592 
Q 608 883 489 1296 
Q 371 1709 371 2234 
Q 371 2797 505 3225 
Q 640 3654 886 3948 
Q 1133 4243 1481 4393 
Q 1830 4544 2266 4544 
Q 2694 4544 3046 4393 
Q 3398 4243 3644 3948 
Q 3891 3654 4025 3225 
Q 4160 2797 4160 2234 
Q 4160 1203 3731 624 
Q 3302 45 2566 -58 
L 2566 -602 
L 3251 -602 
L 3251 -1050 
z
M 2266 403 
Q 2554 403 2797 505 
Q 3040 608 3216 800 
Q 3392 992 3488 1261 
Q 3584 1530 3584 1862 
L 3584 2605 
Q 3584 2938 3488 3206 
Q 3392 3475 3216 3667 
Q 3040 3859 2797 3961 
Q 2554 4064 2266 4064 
Q 1978 4064 1734 3961 
Q 1491 3859 1315 3667 
Q 1139 3475 1043 3206 
Q 947 2938 947 2605 
L 947 1862 
Q 947 1530 1043 1261 
Q 1139 992 1315 800 
Q 1491 608 1734 505 
Q 1978 403 2266 403 
z
" transform="scale(0.015625)"/>
       <path id="IBMPlexSans-Regular-69" d="M 800 4077 
Q 634 4077 560 4157 
Q 486 4237 486 4365 
L 486 4448 
Q 486 4576 560 4656 
Q 634 4736 800 4736 
Q 966 4736 1040 4656 
Q 1114 4576 1114 4448 
L 1114 4365 
Q 1114 4237 1040 4157 
Q 966 4077 800 4077 
z
M 544 3302 
L 1056 3302 
L 1056 0 
L 544 0 
L 544 3302 
z
" transform="scale(0.015625)"/>
       <path id="IBMPlexSans-Regular-6e" d="M 544 0 
L 544 3302 
L 1056 3302 
L 1056 2765 
L 1082 2765 
Q 1203 3046 1424 3212 
Q 1645 3379 2016 3379 
Q 2528 3379 2825 3049 
Q 3123 2720 3123 2118 
L 3123 0 
L 2611 0 
L 2611 2029 
Q 2611 2918 1862 2918 
Q 1709 2918 1565 2880 
Q 1421 2842 1305 2765 
Q 1190 2688 1123 2569 
Q 1056 2451 1056 2291 
L 1056 0 
L 544 0 
z
" transform="scale(0.015625)"/>
      </defs>
      <use xlink:href="#IBMPlexSans-Regular-64"/>
      <use xlink:href="#IBMPlexSans-Regular-51" x="57.999985"/>
      <use xlink:href="#IBMPlexSans-Regular-69" x="128.799973"/>
      <use xlink:href="#IBMPlexSans-Regular-6e" x="153.799957"/>
      <use xlink:href="#IBMPlexSans-Regular-74" x="210.599945"/>
     </g>
    </g>
   </g>
   <g id="line2d_12">
    <path d="M 97.746129 147.765905 
L 101.224259 139.890937 
L 104.70239 127.291036 
L 108.18052 139.103231 
L 111.658651 134.378368 
L 115.136781 136.740789 
L 118.614912 130.440948 
L 122.093042 138.315761 
L 125.571173 139.103229 
L 129.049303 142.25317 
L 132.527434 133.590881 
L 136.005564 132.015913 
L 139.483695 128.078508 
L 142.961825 127.291054 
L 146.439956 130.440942 
L 149.918086 127.291027 
L 156.874347 130.440912 
L 160.352478 124.928548 
L 163.830608 132.01588 
L 167.308739 132.015874 
L 170.786869 129.653419 
L 174.265 120.203658 
L 177.743131 121.77862 
L 181.221261 124.928548 
L 184.699392 119.416183 
L 188.177522 124.141067 
L 191.655653 119.416159 
L 195.133783 123.353564 
L 198.611914 118.62863 
L 202.090044 121.778572 
L 205.568175 120.991094 
L 209.046305 109.178858 
L 212.524436 110.753832 
L 216.002566 124.141009 
L 219.480697 111.541337 
L 222.958827 116.266199 
L 226.436958 109.966324 
L 229.915088 116.266205 
L 233.393219 111.541307 
L 240.34948 112.328776 
L 243.82761 95.791674 
L 247.305741 104.453962 
L 250.783871 95.004193 
L 254.262002 109.966303 
L 257.740132 95.791632 
L 261.218263 108.39134 
L 264.696393 86.341859 
L 268.174524 100.516518 
L 271.652654 106.028879 
L 275.130785 101.303993 
L 282.087046 87.916845 
L 285.565176 98.941532 
L 289.043307 93.42917 
L 292.521437 85.554402 
L 295.999568 98.94155 
L 299.477698 91.066745 
L 302.955829 95.79162 
L 306.433959 96.579077 
L 309.91209 83.191923 
L 313.39022 81.616949 
L 316.868351 95.79162 
L 320.346482 98.941532 
L 323.824612 89.491771 
L 327.302743 87.916797 
L 330.780873 92.641695 
L 334.259004 82.404418 
L 337.737134 88.70429 
L 341.215265 76.104605 
L 344.693395 85.554354 
L 348.171526 81.616961 
L 351.649656 80.042011 
L 355.127787 86.341823 
L 358.605917 79.2545 
L 362.084048 69.804733 
L 365.562178 74.529607 
L 369.040309 76.104581 
L 372.518439 74.529613 
L 375.99657 76.104599 
L 379.4747 61.929947 
L 382.952831 68.229795 
L 386.430961 87.12934 
L 389.909092 79.254518 
L 393.387222 54.055124 
L 400.343483 73.74215 
L 403.821614 65.079871 
L 407.299744 62.717422 
L 414.256005 62.717428 
L 417.734136 43.030425 
L 424.690397 58.780022 
L 428.168527 52.480192 
L 431.646658 38.305527 
L 435.124788 40.667982 
L 438.602919 40.668018 
L 442.081049 71.379749 
L 445.55918 41.455475 
L 449.03731 43.030437 
L 452.515441 49.330238 
L 455.993571 58.780034 
L 459.471702 26.493311 
L 462.949832 37.518046 
L 466.427963 53.267667 
L 469.906094 28.85573 
L 473.384224 43.030401 
L 476.862355 46.180314 
L 483.818616 28.068249 
L 487.296746 39.092984 
L 490.774877 32.793124 
L 497.731138 41.455415 
L 501.209268 48.542757 
L 508.165529 27.280768 
L 511.64366 41.455427 
L 515.12179 32.005655 
L 518.599921 39.092984 
L 522.078051 13.893615 
L 525.556182 17.043491 
L 529.034312 41.455427 
L 532.512443 28.068261 
L 535.990573 26.493287 
L 539.468704 46.967795 
L 539.468704 46.967795 
" clip-path="url(#pfc289d0469)" style="fill: none; stroke: #ef5350; stroke-opacity: 0.9; stroke-width: 3; stroke-linecap: round"/>
   </g>
   <g id="patch_7">
    <path d="M 75.66 154.45952 
L 75.66 7.2 
" style="fill: none"/>
   </g>
   <g id="patch_8">
    <path d="M 561.554833 154.45952 
L 561.554833 7.2 
" style="fill: none"/>
   </g>
   <g id="patch_9">
    <path d="M 75.66 154.45952 
L 561.554833 154.45952 
" style="fill: none"/>
   </g>
   <g id="patch_10">
    <path d="M 75.66 7.2 
L 561.554833 7.2 
" style="fill: none"/>
   </g>
  </g>
 </g>
 <defs>
  <clipPath id="pfc289d0469">
   <rect x="75.66" y="7.2" width="485.894833" height="147.25952"/>
  </clipPath>
 </defs>
</svg>
