<?xml version="1.0" encoding="utf-8" standalone="no"?>
<!DOCTYPE svg PUBLIC "-//W3C//DTD SVG 1.1//EN"
  "http://www.w3.org/Graphics/SVG/1.1/DTD/svg11.dtd">
<svg xmlns:xlink="http://www.w3.org/1999/xlink" width="656.39952pt" height="224.39952pt" viewBox="0 0 656.39952 224.39952" xmlns="http://www.w3.org/2000/svg" version="1.1">
 <metadata>
  <rdf:RDF xmlns:dc="http://purl.org/dc/elements/1.1/" xmlns:cc="http://creativecommons.org/ns#" xmlns:rdf="http://www.w3.org/1999/02/22-rdf-syntax-ns#">
   <cc:Work>
    <dc:type rdf:resource="http://purl.org/dc/dcmitype/StillImage"/>
    <dc:date>2023-12-02T16:27:59.973126</dc:date>
    <dc:format>image/svg+xml</dc:format>
    <dc:creator>
     <cc:Agent>
      <dc:title>Matplotlib v3.8.2, https://matplotlib.org/</dc:title>
     </cc:Agent>
    </dc:creator>
   </cc:Work>
  </rdf:RDF>
 </metadata>
 <defs>
  <style type="text/css">*{stroke-linejoin: round; stroke-linecap: butt}</style>
 </defs>
 <g id="figure_1">
  <g id="patch_1">
   <path d="M 0 224.39952 
L 656.39952 224.39952 
L 656.39952 -0 
L 0 -0 
L 0 224.39952 
z
" style="fill: none"/>
  </g>
  <g id="axes_1">
   <g id="patch_2">
    <path d="M 75.66 154.45952 
L 561.554833 154.45952 
L 561.554833 7.2 
L 75.66 7.2 
L 75.66 154.45952 
z
" style="fill: none"/>
   </g>
   <g id="matplotlib.axis_1">
    <g id="xtick_1">
     <g id="line2d_1">
      <defs>
       <path id="m8b8a480aeb" d="M 0 0 
L 0 12 
" style="stroke: #000000; stroke-opacity: 0; stroke-width: 2.5"/>
      </defs>
      <g>
       <use xlink:href="#m8b8a480aeb" x="97.746129" y="154.45952" style="fill-opacity: 0; stroke: #000000; stroke-opacity: 0; stroke-width: 2.5"/>
      </g>
     </g>
     <g id="text_1">
      <!-- 0 -->
      <g style="fill: #838383" transform="translate(91.146129 186.23952) scale(0.22 -0.22)">
       <defs>
        <path id="IBMPlexSans-Regular-30" d="M 1920 -77 
Q 1120 -77 752 531 
Q 384 1139 384 2234 
Q 384 3328 752 3936 
Q 1120 4544 1920 4544 
Q 2720 4544 3088 3936 
Q 3456 3328 3456 2234 
Q 3456 1139 3088 531 
Q 2720 -77 1920 -77 
z
M 1920 390 
Q 2182 390 2368 499 
Q 2554 608 2669 806 
Q 2784 1005 2838 1273 
Q 2893 1542 2893 1869 
L 2893 2598 
Q 2893 2925 2838 3193 
Q 2784 3462 2669 3660 
Q 2554 3859 2368 3968 
Q 2182 4077 1920 4077 
Q 1658 4077 1472 3968 
Q 1286 3859 1171 3660 
Q 1056 3462 1001 3193 
Q 947 2925 947 2598 
L 947 1869 
Q 947 1542 1001 1273 
Q 1056 1005 1171 806 
Q 1286 608 1472 499 
Q 1658 390 1920 390 
z
" transform="scale(0.015625)"/>
       </defs>
       <use xlink:href="#IBMPlexSans-Regular-30"/>
      </g>
     </g>
    </g>
    <g id="xtick_2">
     <g id="line2d_2">
      <g>
       <use xlink:href="#m8b8a480aeb" x="186.445441" y="154.45952" style="fill-opacity: 0; stroke: #000000; stroke-opacity: 0; stroke-width: 2.5"/>
      </g>
     </g>
     <g id="text_2">
      <!-- 1000 -->
      <g style="fill: #838383" transform="translate(160.045441 186.23952) scale(0.22 -0.22)">
       <defs>
        <path id="IBMPlexSans-Regular-31" d="M 563 0 
L 563 474 
L 1811 474 
L 1811 4070 
L 1766 4070 
L 640 3021 
L 326 3360 
L 1510 4467 
L 2349 4467 
L 2349 474 
L 3501 474 
L 3501 0 
L 563 0 
z
" transform="scale(0.015625)"/>
       </defs>
       <use xlink:href="#IBMPlexSans-Regular-31"/>
       <use xlink:href="#IBMPlexSans-Regular-30" x="59.999985"/>
       <use xlink:href="#IBMPlexSans-Regular-30" x="119.999969"/>
       <use xlink:href="#IBMPlexSans-Regular-30" x="179.999954"/>
      </g>
     </g>
    </g>
    <g id="xtick_3">
     <g id="line2d_3">
      <g>
       <use xlink:href="#m8b8a480aeb" x="275.144753" y="154.45952" style="fill-opacity: 0; stroke: #000000; stroke-opacity: 0; stroke-width: 2.5"/>
      </g>
     </g>
     <g id="text_3">
      <!-- 2000 -->
      <g style="fill: #838383" transform="translate(248.744753 186.23952) scale(0.22 -0.22)">
       <defs>
        <path id="IBMPlexSans-Regular-32" d="M 3411 0 
L 480 0 
L 480 550 
L 1939 1894 
Q 2253 2182 2464 2505 
Q 2675 2829 2675 3155 
L 2675 3232 
Q 2675 3603 2470 3833 
Q 2266 4064 1850 4064 
Q 1645 4064 1491 4006 
Q 1338 3949 1226 3846 
Q 1114 3744 1040 3606 
Q 966 3469 922 3309 
L 442 3494 
Q 506 3693 618 3881 
Q 730 4070 899 4217 
Q 1069 4365 1309 4454 
Q 1549 4544 1875 4544 
Q 2202 4544 2458 4448 
Q 2714 4352 2886 4179 
Q 3059 4006 3152 3769 
Q 3245 3533 3245 3245 
Q 3245 2982 3171 2758 
Q 3098 2534 2970 2332 
Q 2842 2131 2659 1939 
Q 2477 1747 2266 1555 
L 1062 474 
L 3411 474 
L 3411 0 
z
" transform="scale(0.015625)"/>
       </defs>
       <use xlink:href="#IBMPlexSans-Regular-32"/>
       <use xlink:href="#IBMPlexSans-Regular-30" x="59.999985"/>
       <use xlink:href="#IBMPlexSans-Regular-30" x="119.999969"/>
       <use xlink:href="#IBMPlexSans-Regular-30" x="179.999954"/>
      </g>
     </g>
    </g>
    <g id="xtick_4">
     <g id="line2d_4">
      <g>
       <use xlink:href="#m8b8a480aeb" x="363.844065" y="154.45952" style="fill-opacity: 0; stroke: #000000; stroke-opacity: 0; stroke-width: 2.5"/>
      </g>
     </g>
     <g id="text_4">
      <!-- 3000 -->
      <g style="fill: #838383" transform="translate(337.444065 186.23952) scale(0.22 -0.22)">
       <defs>
        <path id="IBMPlexSans-Regular-33" d="M 1670 2573 
Q 2125 2573 2352 2781 
Q 2579 2989 2579 3315 
L 2579 3360 
Q 2579 3712 2358 3888 
Q 2138 4064 1779 4064 
Q 1434 4064 1216 3913 
Q 998 3763 858 3507 
L 461 3814 
Q 544 3949 662 4080 
Q 781 4211 941 4313 
Q 1101 4416 1312 4480 
Q 1523 4544 1792 4544 
Q 2074 4544 2323 4470 
Q 2573 4397 2755 4253 
Q 2938 4109 3043 3897 
Q 3149 3686 3149 3418 
Q 3149 3200 3081 3027 
Q 3014 2854 2899 2726 
Q 2784 2598 2627 2508 
Q 2470 2419 2291 2374 
L 2291 2349 
Q 2470 2310 2640 2224 
Q 2810 2138 2941 2000 
Q 3072 1862 3152 1667 
Q 3232 1472 3232 1222 
Q 3232 934 3123 694 
Q 3014 454 2816 284 
Q 2618 115 2336 19 
Q 2054 -77 1715 -77 
Q 1427 -77 1203 -13 
Q 979 51 806 160 
Q 634 269 502 403 
Q 371 538 269 685 
L 672 992 
Q 755 858 854 749 
Q 954 640 1075 563 
Q 1197 486 1350 444 
Q 1504 403 1709 403 
Q 2182 403 2425 617 
Q 2669 832 2669 1229 
L 2669 1280 
Q 2669 1677 2425 1891 
Q 2182 2106 1709 2106 
L 1184 2106 
L 1184 2573 
L 1670 2573 
z
" transform="scale(0.015625)"/>
       </defs>
       <use xlink:href="#IBMPlexSans-Regular-33"/>
       <use xlink:href="#IBMPlexSans-Regular-30" x="59.999985"/>
       <use xlink:href="#IBMPlexSans-Regular-30" x="119.999969"/>
       <use xlink:href="#IBMPlexSans-Regular-30" x="179.999954"/>
      </g>
     </g>
    </g>
    <g id="xtick_5">
     <g id="line2d_5">
      <g>
       <use xlink:href="#m8b8a480aeb" x="452.543378" y="154.45952" style="fill-opacity: 0; stroke: #000000; stroke-opacity: 0; stroke-width: 2.5"/>
      </g>
     </g>
     <g id="text_5">
      <!-- 4000 -->
      <g style="fill: #838383" transform="translate(426.143378 186.23952) scale(0.22 -0.22)">
       <defs>
        <path id="IBMPlexSans-Regular-34" d="M 2400 0 
L 2400 877 
L 243 877 
L 243 1350 
L 2112 4467 
L 2912 4467 
L 2912 1325 
L 3558 1325 
L 3558 877 
L 2912 877 
L 2912 0 
L 2400 0 
z
M 749 1325 
L 2400 1325 
L 2400 4051 
L 2368 4051 
L 749 1325 
z
" transform="scale(0.015625)"/>
       </defs>
       <use xlink:href="#IBMPlexSans-Regular-34"/>
       <use xlink:href="#IBMPlexSans-Regular-30" x="59.999985"/>
       <use xlink:href="#IBMPlexSans-Regular-30" x="119.999969"/>
       <use xlink:href="#IBMPlexSans-Regular-30" x="179.999954"/>
      </g>
     </g>
    </g>
    <g id="xtick_6">
     <g id="line2d_6">
      <g>
       <use xlink:href="#m8b8a480aeb" x="541.24269" y="154.45952" style="fill-opacity: 0; stroke: #000000; stroke-opacity: 0; stroke-width: 2.5"/>
      </g>
     </g>
     <g id="text_6">
      <!-- 5000 -->
      <g style="fill: #838383" transform="translate(514.84269 186.23952) scale(0.22 -0.22)">
       <defs>
        <path id="IBMPlexSans-Regular-35" d="M 3187 3994 
L 1229 3994 
L 1101 2291 
L 1146 2291 
Q 1306 2515 1507 2649 
Q 1709 2784 2061 2784 
Q 2349 2784 2592 2688 
Q 2835 2592 3014 2416 
Q 3194 2240 3293 1984 
Q 3392 1728 3392 1402 
Q 3392 1075 3289 803 
Q 3187 531 2992 336 
Q 2797 141 2518 32 
Q 2240 -77 1888 -77 
Q 1606 -77 1392 -13 
Q 1178 51 1011 160 
Q 845 269 720 403 
Q 595 538 493 685 
L 896 992 
Q 979 858 1072 749 
Q 1165 640 1277 563 
Q 1389 486 1536 444 
Q 1683 403 1888 403 
Q 2349 403 2585 646 
Q 2822 890 2822 1331 
L 2822 1395 
Q 2822 1837 2585 2080 
Q 2349 2323 1888 2323 
Q 1581 2323 1405 2211 
Q 1229 2099 1088 1946 
L 634 2010 
L 794 4467 
L 3187 4467 
L 3187 3994 
z
" transform="scale(0.015625)"/>
       </defs>
       <use xlink:href="#IBMPlexSans-Regular-35"/>
       <use xlink:href="#IBMPlexSans-Regular-30" x="59.999985"/>
       <use xlink:href="#IBMPlexSans-Regular-30" x="119.999969"/>
       <use xlink:href="#IBMPlexSans-Regular-30" x="179.999954"/>
      </g>
     </g>
    </g>
    <g id="text_7">
     <!-- Step -->
     <g style="fill: #838383" transform="translate(293.876166 212.39952) scale(0.24 -0.24)">
      <defs>
       <path id="IBMPlexSans-Regular-53" d="M 1850 -77 
Q 1306 -77 922 131 
Q 538 339 269 704 
L 666 1037 
Q 902 723 1190 560 
Q 1478 397 1869 397 
Q 2349 397 2601 627 
Q 2854 858 2854 1242 
Q 2854 1562 2662 1734 
Q 2470 1907 2029 2010 
L 1664 2093 
Q 1050 2234 726 2518 
Q 403 2803 403 3322 
Q 403 3616 512 3846 
Q 621 4077 816 4230 
Q 1011 4384 1283 4464 
Q 1555 4544 1882 4544 
Q 2387 4544 2748 4358 
Q 3110 4173 3360 3814 
L 2957 3520 
Q 2771 3776 2508 3923 
Q 2246 4070 1856 4070 
Q 1427 4070 1180 3888 
Q 934 3706 934 3341 
Q 934 3021 1142 2857 
Q 1350 2694 1773 2598 
L 2138 2515 
Q 2797 2368 3091 2067 
Q 3386 1766 3386 1267 
Q 3386 960 3280 710 
Q 3174 461 2976 288 
Q 2778 115 2493 19 
Q 2208 -77 1850 -77 
z
" transform="scale(0.015625)"/>
       <path id="IBMPlexSans-Regular-74" d="M 1274 0 
Q 1005 0 867 150 
Q 730 301 730 544 
L 730 2854 
L 186 2854 
L 186 3302 
L 493 3302 
Q 659 3302 720 3369 
Q 781 3437 781 3603 
L 781 4218 
L 1242 4218 
L 1242 3302 
L 1965 3302 
L 1965 2854 
L 1242 2854 
L 1242 448 
L 1914 448 
L 1914 0 
L 1274 0 
z
" transform="scale(0.015625)"/>
       <path id="IBMPlexSans-Regular-65" d="M 1786 -77 
Q 1446 -77 1174 44 
Q 902 166 707 393 
Q 512 621 406 937 
Q 301 1254 301 1651 
Q 301 2042 406 2362 
Q 512 2682 707 2909 
Q 902 3136 1174 3257 
Q 1446 3379 1786 3379 
Q 2118 3379 2380 3257 
Q 2643 3136 2828 2921 
Q 3014 2707 3113 2412 
Q 3213 2118 3213 1766 
L 3213 1523 
L 838 1523 
L 838 1370 
Q 838 1158 905 976 
Q 973 794 1097 659 
Q 1222 525 1404 448 
Q 1587 371 1818 371 
Q 2131 371 2364 518 
Q 2598 666 2726 941 
L 3091 678 
Q 2931 339 2592 131 
Q 2253 -77 1786 -77 
z
M 1786 2950 
Q 1574 2950 1401 2876 
Q 1229 2803 1104 2668 
Q 979 2534 908 2352 
Q 838 2170 838 1952 
L 838 1907 
L 2662 1907 
L 2662 1978 
Q 2662 2419 2422 2684 
Q 2182 2950 1786 2950 
z
" transform="scale(0.015625)"/>
       <path id="IBMPlexSans-Regular-70" d="M 544 3302 
L 1056 3302 
L 1056 2765 
L 1082 2765 
Q 1210 3078 1456 3228 
Q 1702 3379 2048 3379 
Q 2355 3379 2604 3257 
Q 2854 3136 3030 2912 
Q 3206 2688 3299 2368 
Q 3392 2048 3392 1651 
Q 3392 1254 3299 934 
Q 3206 614 3030 390 
Q 2854 166 2604 44 
Q 2355 -77 2048 -77 
Q 1376 -77 1082 538 
L 1056 538 
L 1056 -1280 
L 544 -1280 
L 544 3302 
z
M 1907 384 
Q 2342 384 2592 656 
Q 2842 928 2842 1370 
L 2842 1933 
Q 2842 2374 2592 2646 
Q 2342 2918 1907 2918 
Q 1734 2918 1577 2870 
Q 1421 2822 1305 2739 
Q 1190 2656 1123 2537 
Q 1056 2419 1056 2285 
L 1056 1056 
Q 1056 896 1123 771 
Q 1190 646 1305 560 
Q 1421 474 1577 429 
Q 1734 384 1907 384 
z
" transform="scale(0.015625)"/>
      </defs>
      <use xlink:href="#IBMPlexSans-Regular-53"/>
      <use xlink:href="#IBMPlexSans-Regular-74" x="58.099991"/>
      <use xlink:href="#IBMPlexSans-Regular-65" x="93.199982"/>
      <use xlink:href="#IBMPlexSans-Regular-70" x="148.099976"/>
     </g>
    </g>
   </g>
   <g id="matplotlib.axis_2">
    <g id="ytick_1">
     <g id="line2d_7">
      <defs>
       <path id="m7f67e2845b" d="M 0 0 
L -12 0 
" style="stroke: #000000; stroke-opacity: 0; stroke-width: 2.5"/>
      </defs>
      <g>
       <use xlink:href="#m7f67e2845b" x="75.66" y="134.820116" style="fill-opacity: 0; stroke: #000000; stroke-opacity: 0; stroke-width: 2.5"/>
      </g>
     </g>
     <g id="text_8">
      <!-- 0 -->
      <g style="fill: #2196f3" transform="translate(46.96 142.960116) scale(0.22 -0.22)">
       <use xlink:href="#IBMPlexSans-Regular-30"/>
      </g>
     </g>
    </g>
    <g id="ytick_2">
     <g id="line2d_8">
      <g>
       <use xlink:href="#m7f67e2845b" x="75.66" y="63.45417" style="fill-opacity: 0; stroke: #000000; stroke-opacity: 0; stroke-width: 2.5"/>
      </g>
     </g>
     <g id="text_9">
      <!-- 50 -->
      <g style="fill: #2196f3" transform="translate(33.76 71.59417) scale(0.22 -0.22)">
       <use xlink:href="#IBMPlexSans-Regular-35"/>
       <use xlink:href="#IBMPlexSans-Regular-30" x="59.999985"/>
      </g>
     </g>
    </g>
    <g id="text_10">
     <!-- loss -->
     <g style="fill: #2196f3" transform="translate(24.96 102.502885) rotate(-90) scale(0.24 -0.24)">
      <defs>
       <path id="IBMPlexSans-Regular-6c" d="M 1088 0 
Q 819 0 681 150 
Q 544 301 544 531 
L 544 4736 
L 1056 4736 
L 1056 448 
L 1542 448 
L 1542 0 
L 1088 0 
z
" transform="scale(0.015625)"/>
       <path id="IBMPlexSans-Regular-6f" d="M 1792 -77 
Q 1459 -77 1184 44 
Q 909 166 713 393 
Q 518 621 409 937 
Q 301 1254 301 1651 
Q 301 2042 409 2362 
Q 518 2682 713 2909 
Q 909 3136 1184 3257 
Q 1459 3379 1792 3379 
Q 2125 3379 2397 3257 
Q 2669 3136 2867 2909 
Q 3066 2682 3174 2362 
Q 3283 2042 3283 1651 
Q 3283 1254 3174 937 
Q 3066 621 2867 393 
Q 2669 166 2397 44 
Q 2125 -77 1792 -77 
z
M 1792 378 
Q 2208 378 2470 634 
Q 2733 890 2733 1414 
L 2733 1888 
Q 2733 2413 2470 2669 
Q 2208 2925 1792 2925 
Q 1376 2925 1113 2669 
Q 851 2413 851 1888 
L 851 1414 
Q 851 890 1113 634 
Q 1376 378 1792 378 
z
" transform="scale(0.015625)"/>
       <path id="IBMPlexSans-Regular-73" d="M 1536 -77 
Q 1075 -77 764 99 
Q 454 275 230 570 
L 595 864 
Q 787 621 1024 489 
Q 1261 358 1574 358 
Q 1901 358 2083 499 
Q 2266 640 2266 896 
Q 2266 1088 2141 1225 
Q 2016 1363 1690 1414 
L 1427 1453 
Q 1197 1485 1005 1552 
Q 813 1619 669 1731 
Q 525 1843 445 2009 
Q 365 2176 365 2406 
Q 365 2650 454 2832 
Q 544 3014 701 3136 
Q 858 3258 1075 3318 
Q 1293 3379 1542 3379 
Q 1946 3379 2218 3238 
Q 2490 3098 2694 2848 
L 2355 2541 
Q 2246 2694 2035 2819 
Q 1824 2944 1504 2944 
Q 1184 2944 1021 2806 
Q 858 2669 858 2432 
Q 858 2189 1021 2080 
Q 1184 1971 1491 1920 
L 1747 1882 
Q 2298 1798 2528 1564 
Q 2758 1331 2758 954 
Q 2758 474 2432 198 
Q 2106 -77 1536 -77 
z
" transform="scale(0.015625)"/>
      </defs>
      <use xlink:href="#IBMPlexSans-Regular-6c"/>
      <use xlink:href="#IBMPlexSans-Regular-6f" x="27.199997"/>
      <use xlink:href="#IBMPlexSans-Regular-73" x="83.199982"/>
      <use xlink:href="#IBMPlexSans-Regular-73" x="131.899979"/>
     </g>
    </g>
   </g>
   <g id="line2d_9">
    <path d="M 97.746129 13.893615 
L 99.520115 94.57029 
L 101.294101 112.508839 
L 106.61606 116.358272 
L 108.390046 115.483014 
L 111.938019 117.513603 
L 113.712005 116.351606 
L 115.485991 118.234413 
L 117.259977 118.506811 
L 119.033964 121.596084 
L 120.80795 119.389604 
L 126.129909 122.859313 
L 127.903895 121.838897 
L 129.677881 121.994672 
L 131.451867 124.728292 
L 149.19173 130.5613 
L 150.965716 128.82821 
L 152.739702 130.660334 
L 154.513689 130.435205 
L 156.287675 131.903585 
L 158.061661 130.538901 
L 163.38362 131.978583 
L 168.705579 131.499458 
L 170.479565 131.331629 
L 172.253551 133.384494 
L 174.027537 131.748209 
L 175.801524 134.225755 
L 177.57551 133.434723 
L 179.349496 134.853808 
L 184.671455 134.438849 
L 186.445441 135.227411 
L 188.219427 133.670238 
L 189.993413 136.093116 
L 195.315372 134.978224 
L 198.863345 136.357756 
L 200.637331 134.743555 
L 204.185303 135.864333 
L 205.95929 134.886276 
L 207.733276 137.709707 
L 209.507262 136.248095 
L 211.281248 136.667657 
L 213.055235 135.896722 
L 223.699152 137.882331 
L 227.247125 136.346454 
L 232.569083 138.479391 
L 234.34307 137.850573 
L 236.117056 138.46947 
L 237.891042 137.400501 
L 244.986987 139.315178 
L 246.760973 137.938461 
L 248.53496 140.216917 
L 250.308946 139.029537 
L 255.630905 139.936542 
L 260.952863 141.672696 
L 262.72685 140.777039 
L 268.048808 141.99157 
L 271.596781 142.06818 
L 275.144753 143.261299 
L 278.692726 142.643111 
L 280.466712 143.313565 
L 282.240698 142.369619 
L 285.788671 143.469956 
L 289.336643 143.29776 
L 294.658602 144.322006 
L 296.432588 143.424191 
L 298.206574 144.683257 
L 303.528533 143.696132 
L 305.302519 144.343281 
L 308.850492 143.093868 
L 310.624478 144.414497 
L 312.398464 144.437578 
L 314.172451 145.568164 
L 315.946437 144.874284 
L 317.720423 142.639335 
L 319.494409 145.77366 
L 321.268396 143.982139 
L 331.912313 144.843593 
L 333.686299 143.158953 
L 339.008258 145.011244 
L 346.104203 143.953441 
L 347.878189 146.479677 
L 351.426162 146.978553 
L 353.200148 144.634965 
L 354.974134 145.625635 
L 358.522107 144.028298 
L 360.296093 145.779486 
L 362.070079 146.041622 
L 363.844065 144.4845 
L 367.392038 145.681713 
L 372.713997 144.359369 
L 374.487983 144.892874 
L 376.261969 143.785301 
L 378.035955 146.268162 
L 379.809942 144.364427 
L 381.583928 144.196766 
L 385.1319 145.968085 
L 386.905887 145.228054 
L 388.679873 145.867103 
L 390.453859 143.030927 
L 394.001832 145.93135 
L 395.775818 145.177281 
L 399.32379 145.597959 
L 401.097777 145.952929 
L 402.871763 147.765905 
L 408.193722 145.252609 
L 417.063653 146.376112 
L 418.837639 144.493663 
L 422.385612 145.634613 
L 424.159598 144.329727 
L 425.933584 144.876177 
L 427.70757 144.148875 
L 431.255543 145.427503 
L 433.029529 145.938391 
L 434.803515 143.198626 
L 436.577502 144.437029 
L 438.351488 147.019536 
L 440.125474 144.636194 
L 443.673447 147.079327 
L 445.447433 145.143267 
L 447.221419 145.792445 
L 448.995405 145.184309 
L 450.769392 146.178278 
L 452.543378 143.992595 
L 454.317364 146.884747 
L 457.865336 144.871314 
L 461.413309 145.830243 
L 464.961281 146.660909 
L 468.509254 145.886421 
L 470.28324 147.451277 
L 472.057226 145.464797 
L 473.831213 147.540517 
L 477.379185 144.795714 
L 479.153171 146.274952 
L 480.927158 145.723529 
L 486.249116 146.188052 
L 488.023103 145.472449 
L 489.797089 146.469954 
L 491.571075 145.6408 
L 493.345061 146.665079 
L 495.119048 145.625631 
L 496.893034 146.962414 
L 498.66702 145.519737 
L 500.441006 146.39058 
L 502.214993 144.884458 
L 507.536951 146.287935 
L 509.310938 146.615321 
L 511.084924 145.382505 
L 518.180869 144.903304 
L 519.954855 146.959795 
L 523.502828 145.300321 
L 525.276814 147.607673 
L 528.824786 146.504265 
L 530.598773 147.525005 
L 535.920731 144.707568 
L 537.694718 147.260272 
L 539.468704 146.747816 
L 539.468704 146.747816 
" clip-path="url(#p86e8b1ba45)" style="fill: none; stroke: #2196f3; stroke-opacity: 0.9; stroke-width: 3; stroke-linecap: round"/>
   </g>
   <g id="patch_3">
    <path d="M 75.66 154.45952 
L 75.66 7.2 
" style="fill: none"/>
   </g>
   <g id="patch_4">
    <path d="M 561.554833 154.45952 
L 561.554833 7.2 
" style="fill: none"/>
   </g>
   <g id="patch_5">
    <path d="M 75.66 154.45952 
L 561.554833 154.45952 
" style="fill: none"/>
   </g>
   <g id="patch_6">
    <path d="M 75.66 7.2 
L 561.554833 7.2 
" style="fill: none"/>
   </g>
  </g>
  <g id="axes_2">
   <g id="matplotlib.axis_3">
    <g id="ytick_3">
     <g id="line2d_10">
      <defs>
       <path id="m49f31aae2a" d="M 0 0 
L 12 0 
" style="stroke: #000000; stroke-opacity: 0; stroke-width: 2.5"/>
      </defs>
      <g>
       <use xlink:href="#m49f31aae2a" x="561.554833" y="150.378052" style="fill-opacity: 0; stroke: #000000; stroke-opacity: 0; stroke-width: 2.5"/>
      </g>
     </g>
     <g id="text_11">
      <!-- 0.00 -->
      <g style="fill: #ef5350" transform="translate(577.054833 158.518052) scale(0.22 -0.22)">
       <defs>
        <path id="IBMPlexSans-Regular-2e" d="M 870 -77 
Q 666 -77 573 25 
Q 480 128 480 294 
L 480 378 
Q 480 544 573 646 
Q 666 749 870 749 
Q 1075 749 1168 646 
Q 1261 544 1261 378 
L 1261 294 
Q 1261 128 1168 25 
Q 1075 -77 870 -77 
z
" transform="scale(0.015625)"/>
       </defs>
       <use xlink:href="#IBMPlexSans-Regular-30"/>
       <use xlink:href="#IBMPlexSans-Regular-2e" x="59.999985"/>
       <use xlink:href="#IBMPlexSans-Regular-30" x="87.199982"/>
       <use xlink:href="#IBMPlexSans-Regular-30" x="147.199966"/>
      </g>
     </g>
    </g>
    <g id="ytick_4">
     <g id="line2d_11">
      <g>
       <use xlink:href="#m49f31aae2a" x="561.554833" y="83.507442" style="fill-opacity: 0; stroke: #000000; stroke-opacity: 0; stroke-width: 2.5"/>
      </g>
     </g>
     <g id="text_12">
      <!-- 0.05 -->
      <g style="fill: #ef5350" transform="translate(577.054833 91.647442) scale(0.22 -0.22)">
       <use xlink:href="#IBMPlexSans-Regular-30"/>
       <use xlink:href="#IBMPlexSans-Regular-2e" x="59.999985"/>
       <use xlink:href="#IBMPlexSans-Regular-30" x="87.199982"/>
       <use xlink:href="#IBMPlexSans-Regular-35" x="147.199966"/>
      </g>
     </g>
    </g>
    <g id="ytick_5">
     <g id="line2d_12">
      <g>
       <use xlink:href="#m49f31aae2a" x="561.554833" y="16.636833" style="fill-opacity: 0; stroke: #000000; stroke-opacity: 0; stroke-width: 2.5"/>
      </g>
     </g>
     <g id="text_13">
      <!-- 0.10 -->
      <g style="fill: #ef5350" transform="translate(577.054833 24.776833) scale(0.22 -0.22)">
       <use xlink:href="#IBMPlexSans-Regular-30"/>
       <use xlink:href="#IBMPlexSans-Regular-2e" x="59.999985"/>
       <use xlink:href="#IBMPlexSans-Regular-31" x="87.199982"/>
       <use xlink:href="#IBMPlexSans-Regular-30" x="147.199966"/>
      </g>
     </g>
    </g>
    <g id="text_14">
     <!-- dQint -->
     <g style="fill: #ef5350" transform="translate(644.39952 110.31226) rotate(-90) scale(0.24 -0.24)">
      <defs>
       <path id="IBMPlexSans-Regular-64" d="M 2656 538 
L 2630 538 
Q 2330 -77 1664 -77 
Q 1357 -77 1107 44 
Q 858 166 682 390 
Q 506 614 413 934 
Q 320 1254 320 1651 
Q 320 2048 413 2368 
Q 506 2688 682 2912 
Q 858 3136 1107 3257 
Q 1357 3379 1664 3379 
Q 2010 3379 2256 3228 
Q 2502 3078 2630 2765 
L 2656 2765 
L 2656 4736 
L 3168 4736 
L 3168 0 
L 2656 0 
L 2656 538 
z
M 1805 384 
Q 1978 384 2134 429 
Q 2291 474 2406 560 
Q 2522 646 2589 771 
Q 2656 896 2656 1056 
L 2656 2285 
Q 2656 2419 2589 2537 
Q 2522 2656 2406 2739 
Q 2291 2822 2134 2870 
Q 1978 2918 1805 2918 
Q 1370 2918 1120 2646 
Q 870 2374 870 1933 
L 870 1370 
Q 870 928 1120 656 
Q 1370 384 1805 384 
z
" transform="scale(0.015625)"/>
       <path id="IBMPlexSans-Regular-51" d="M 3251 -1050 
L 2592 -1050 
Q 2323 -1050 2188 -899 
Q 2054 -749 2054 -525 
L 2054 -70 
Q 1670 -32 1356 134 
Q 1043 301 825 592 
Q 608 883 489 1296 
Q 371 1709 371 2234 
Q 371 2797 505 3225 
Q 640 3654 886 3948 
Q 1133 4243 1481 4393 
Q 1830 4544 2266 4544 
Q 2694 4544 3046 4393 
Q 3398 4243 3644 3948 
Q 3891 3654 4025 3225 
Q 4160 2797 4160 2234 
Q 4160 1203 3731 624 
Q 3302 45 2566 -58 
L 2566 -602 
L 3251 -602 
L 3251 -1050 
z
M 2266 403 
Q 2554 403 2797 505 
Q 3040 608 3216 800 
Q 3392 992 3488 1261 
Q 3584 1530 3584 1862 
L 3584 2605 
Q 3584 2938 3488 3206 
Q 3392 3475 3216 3667 
Q 3040 3859 2797 3961 
Q 2554 4064 2266 4064 
Q 1978 4064 1734 3961 
Q 1491 3859 1315 3667 
Q 1139 3475 1043 3206 
Q 947 2938 947 2605 
L 947 1862 
Q 947 1530 1043 1261 
Q 1139 992 1315 800 
Q 1491 608 1734 505 
Q 1978 403 2266 403 
z
" transform="scale(0.015625)"/>
       <path id="IBMPlexSans-Regular-69" d="M 800 4077 
Q 634 4077 560 4157 
Q 486 4237 486 4365 
L 486 4448 
Q 486 4576 560 4656 
Q 634 4736 800 4736 
Q 966 4736 1040 4656 
Q 1114 4576 1114 4448 
L 1114 4365 
Q 1114 4237 1040 4157 
Q 966 4077 800 4077 
z
M 544 3302 
L 1056 3302 
L 1056 0 
L 544 0 
L 544 3302 
z
" transform="scale(0.015625)"/>
       <path id="IBMPlexSans-Regular-6e" d="M 544 0 
L 544 3302 
L 1056 3302 
L 1056 2765 
L 1082 2765 
Q 1203 3046 1424 3212 
Q 1645 3379 2016 3379 
Q 2528 3379 2825 3049 
Q 3123 2720 3123 2118 
L 3123 0 
L 2611 0 
L 2611 2029 
Q 2611 2918 1862 2918 
Q 1709 2918 1565 2880 
Q 1421 2842 1305 2765 
Q 1190 2688 1123 2569 
Q 1056 2451 1056 2291 
L 1056 0 
L 544 0 
z
" transform="scale(0.015625)"/>
      </defs>
      <use xlink:href="#IBMPlexSans-Regular-64"/>
      <use xlink:href="#IBMPlexSans-Regular-51" x="57.999985"/>
      <use xlink:href="#IBMPlexSans-Regular-69" x="128.799973"/>
      <use xlink:href="#IBMPlexSans-Regular-6e" x="153.799957"/>
      <use xlink:href="#IBMPlexSans-Regular-74" x="210.599945"/>
     </g>
    </g>
   </g>
   <g id="line2d_13">
    <path d="M 97.746129 147.765905 
L 99.520115 141.235441 
L 101.294101 130.786739 
L 103.068087 140.582221 
L 104.842074 136.664041 
L 106.61606 138.623123 
L 108.390046 133.398862 
L 110.164032 139.929198 
L 111.938019 140.58222 
L 113.712005 143.194367 
L 115.485991 136.011003 
L 117.259977 134.704932 
L 119.033964 131.439765 
L 120.80795 130.786754 
L 122.581936 133.398857 
L 124.355922 130.786732 
L 127.903895 133.398833 
L 129.677881 128.827602 
L 131.451867 134.704904 
L 133.225854 134.704899 
L 134.99984 132.745789 
L 136.773826 124.9094 
L 138.547812 126.215466 
L 140.321799 128.827602 
L 142.095785 124.256371 
L 143.869771 128.174569 
L 145.643757 124.256351 
L 147.417744 127.521518 
L 149.19173 123.603278 
L 150.965716 126.215426 
L 152.739702 125.562396 
L 154.513689 115.766879 
L 156.287675 117.072955 
L 158.061661 128.174521 
L 159.835647 117.726009 
L 161.609634 121.644188 
L 163.38362 116.4199 
L 165.157606 121.644193 
L 166.931592 117.725984 
L 170.479565 118.379007 
L 172.253551 104.665308 
L 174.027537 111.848671 
L 175.801524 104.012274 
L 177.57551 116.419882 
L 179.349496 104.665273 
L 181.123482 115.113816 
L 182.897469 96.828873 
L 184.671455 108.583473 
L 186.445441 113.154701 
L 189.993413 103.359206 
L 191.7674 98.13496 
L 193.541386 107.277386 
L 197.089358 96.17586 
L 198.863345 107.277401 
L 200.637331 100.747073 
L 202.411317 104.665263 
L 204.185303 105.318276 
L 205.95929 94.21673 
L 207.733276 92.910654 
L 209.507262 104.665263 
L 211.281248 107.277386 
L 213.055235 99.440996 
L 214.829221 98.13492 
L 216.603207 102.05313 
L 218.377193 93.563677 
L 220.15118 98.787963 
L 221.925166 88.33944 
L 223.699152 96.17582 
L 227.247125 91.604607 
L 229.021111 96.828843 
L 232.569083 83.115154 
L 234.34307 87.033344 
L 236.117056 88.33942 
L 237.891042 87.033349 
L 239.665028 88.339435 
L 241.439015 76.584841 
L 243.213001 81.809107 
L 244.986987 97.481907 
L 246.760973 90.951564 
L 248.53496 70.054498 
L 252.082932 86.380331 
L 253.856918 79.196974 
L 255.630905 77.237869 
L 259.178877 77.237874 
L 260.952863 60.912062 
L 264.500836 73.972708 
L 266.274822 68.748456 
L 268.048808 56.993852 
L 269.822795 58.952962 
L 271.596781 58.952992 
L 273.370767 84.421265 
L 275.144753 59.606005 
L 276.918739 60.912072 
L 280.466712 73.972718 
L 282.240698 47.198353 
L 285.788671 69.401485 
L 287.562657 49.157433 
L 289.336643 60.912042 
L 291.110629 63.524165 
L 294.658602 48.504399 
L 296.432588 57.646865 
L 298.206574 52.422589 
L 301.754547 59.605955 
L 303.528533 65.483265 
L 307.076506 47.851366 
L 308.850492 59.605965 
L 310.624478 51.769566 
L 312.398464 57.646865 
L 314.172451 36.74982 
L 315.946437 39.361913 
L 317.720423 59.605965 
L 319.494409 48.504409 
L 321.268396 47.198333 
L 323.042382 64.177198 
L 324.816368 43.280123 
L 326.590354 60.258979 
L 330.138327 47.851356 
L 333.686299 60.258999 
L 337.234272 46.545299 
L 339.008258 60.258999 
L 340.782244 57.646845 
L 342.556231 25.648234 
L 344.330217 54.381699 
L 347.878189 47.851346 
L 349.652176 29.566434 
L 353.200148 46.545289 
L 356.748121 54.381679 
L 358.522107 39.361913 
L 362.070079 53.728646 
L 363.844065 54.381699 
L 365.618052 53.728656 
L 367.392038 43.280133 
L 369.166024 45.892246 
L 370.94001 58.299869 
L 372.713997 39.361913 
L 374.487983 53.728656 
L 376.261969 54.381699 
L 378.035955 53.075612 
L 379.809942 55.687766 
L 381.583928 43.280123 
L 385.1319 34.137697 
L 386.905887 36.74978 
L 388.679873 47.198333 
L 392.227845 49.157433 
L 394.001832 32.83159 
L 395.775818 30.87248 
L 397.549804 40.66798 
L 399.32379 40.66799 
L 402.871763 30.219447 
L 404.645749 21.730044 
L 406.419735 36.096757 
L 409.967708 45.892266 
L 413.51568 32.8316 
L 415.289667 37.402833 
L 417.063653 18.464887 
L 418.837639 52.422599 
L 420.611625 39.361923 
L 422.385612 35.443733 
L 425.933584 46.545309 
L 427.70757 51.769566 
L 429.481557 32.178557 
L 431.255543 29.566434 
L 433.029529 33.484633 
L 434.803515 32.8316 
L 436.577502 43.933146 
L 438.351488 32.178567 
L 440.125474 52.422559 
L 443.673447 28.91341 
L 445.447433 28.91338 
L 450.769392 53.728656 
L 452.543378 40.014956 
L 454.317364 17.158791 
L 456.09135 41.321003 
L 457.865336 34.137667 
L 459.639323 45.239213 
L 463.187295 24.342167 
L 466.735268 37.402823 
L 468.509254 31.525514 
L 470.28324 45.892266 
L 472.057226 41.974046 
L 473.831213 32.83158 
L 475.605199 30.87246 
L 477.379185 34.137667 
L 479.153171 42.6271 
L 480.927158 41.321023 
L 482.701144 37.402833 
L 484.47513 25.648244 
L 486.249116 40.014966 
L 488.023103 34.79068 
L 489.797089 35.443703 
L 491.571075 34.79069 
L 493.345061 30.219447 
L 495.119048 40.014946 
L 496.893034 23.689124 
L 498.66702 41.321033 
L 500.441006 28.91339 
L 503.988979 36.74981 
L 505.762965 34.79067 
L 507.536951 30.87248 
L 509.310938 32.178567 
L 511.084924 34.79068 
L 512.85891 31.525514 
L 514.632896 38.70888 
L 516.406883 30.8725 
L 518.180869 36.096747 
L 519.954855 17.158791 
L 521.728841 38.055866 
L 523.502828 39.361933 
L 525.276814 19.117891 
L 527.0508 26.301267 
L 528.824786 23.689104 
L 532.372759 42.62709 
L 534.146745 26.301267 
L 535.920731 43.280123 
L 537.694718 13.893615 
L 539.468704 38.70888 
L 539.468704 38.70888 
" clip-path="url(#p86e8b1ba45)" style="fill: none; stroke: #ef5350; stroke-opacity: 0.9; stroke-width: 3; stroke-linecap: round"/>
   </g>
   <g id="patch_7">
    <path d="M 75.66 154.45952 
L 75.66 7.2 
" style="fill: none"/>
   </g>
   <g id="patch_8">
    <path d="M 561.554833 154.45952 
L 561.554833 7.2 
" style="fill: none"/>
   </g>
   <g id="patch_9">
    <path d="M 75.66 154.45952 
L 561.554833 154.45952 
" style="fill: none"/>
   </g>
   <g id="patch_10">
    <path d="M 75.66 7.2 
L 561.554833 7.2 
" style="fill: none"/>
   </g>
  </g>
 </g>
 <defs>
  <clipPath id="p86e8b1ba45">
   <rect x="75.66" y="7.2" width="485.894833" height="147.25952"/>
  </clipPath>
 </defs>
</svg>
